<svg viewBox="0 0 1450 400" xmlns="http://www.w3.org/2000/svg"><g><g><g><g><g><line x1="30" y1="377" x2="25" y2="377" style="visibility: inherit;" fill="rgb(0, 0, 0)" stroke="rgb(204, 204, 204)" stroke-width="1px"></line><line x1="30" y1="335.1111111111111" x2="25" y2="335.1111111111111" style="visibility: inherit;" fill="rgb(0, 0, 0)" stroke="rgb(204, 204, 204)" stroke-width="1px"></line><line x1="30" y1="293.22222222222223" x2="25" y2="293.22222222222223" style="visibility: inherit;" fill="rgb(0, 0, 0)" stroke="rgb(204, 204, 204)" stroke-width="1px"></line><line x1="30" y1="251.33333333333337" x2="25" y2="251.33333333333337" style="visibility: inherit;" fill="rgb(0, 0, 0)" stroke="rgb(204, 204, 204)" stroke-width="1px"></line><line x1="30" y1="209.44444444444446" x2="25" y2="209.44444444444446" style="visibility: inherit;" fill="rgb(0, 0, 0)" stroke="rgb(204, 204, 204)" stroke-width="1px"></line><line x1="30" y1="167.55555555555554" x2="25" y2="167.55555555555554" style="visibility: inherit;" fill="rgb(0, 0, 0)" stroke="rgb(204, 204, 204)" stroke-width="1px"></line><line x1="30" y1="125.66666666666669" x2="25" y2="125.66666666666669" style="visibility: inherit;" fill="rgb(0, 0, 0)" stroke="rgb(204, 204, 204)" stroke-width="1px"></line><line x1="30" y1="83.77777777777777" x2="25" y2="83.77777777777777" style="visibility: inherit;" fill="rgb(0, 0, 0)" stroke="rgb(204, 204, 204)" stroke-width="1px"></line><line x1="30" y1="41.88888888888891" x2="25" y2="41.88888888888891" style="visibility: inherit;" fill="rgb(0, 0, 0)" stroke="rgb(204, 204, 204)" stroke-width="1px"></line><line x1="30" y1="0" x2="25" y2="0" style="visibility: inherit;" fill="rgb(0, 0, 0)" stroke="rgb(204, 204, 204)" stroke-width="1px"></line></g><g transform="translate(20, 0)"><text x="0" y="377" dx="0em" dy="0.3em" style="text-anchor: end; visibility: hidden; font-family: Roboto, sans-serif; font-size: 12px; font-weight: 200;" fill="rgb(33, 33, 33)" stroke="none" stroke-width="1px">89</text><text x="0" y="335.1111111111111" dx="0em" dy="0.3em" style="text-anchor: end; visibility: inherit; font-family: Roboto, sans-serif; font-size: 12px; font-weight: 200;" fill="rgb(33, 33, 33)" stroke="none" stroke-width="1px">90</text><text x="0" y="293.22222222222223" dx="0em" dy="0.3em" style="text-anchor: end; visibility: inherit; font-family: Roboto, sans-serif; font-size: 12px; font-weight: 200;" fill="rgb(33, 33, 33)" stroke="none" stroke-width="1px">91</text><text x="0" y="251.33333333333337" dx="0em" dy="0.3em" style="text-anchor: end; visibility: inherit; font-family: Roboto, sans-serif; font-size: 12px; font-weight: 200;" fill="rgb(33, 33, 33)" stroke="none" stroke-width="1px">92</text><text x="0" y="209.44444444444446" dx="0em" dy="0.3em" style="text-anchor: end; visibility: inherit; font-family: Roboto, sans-serif; font-size: 12px; font-weight: 200;" fill="rgb(33, 33, 33)" stroke="none" stroke-width="1px">93</text><text x="0" y="167.55555555555554" dx="0em" dy="0.3em" style="text-anchor: end; visibility: inherit; font-family: Roboto, sans-serif; font-size: 12px; font-weight: 200;" fill="rgb(33, 33, 33)" stroke="none" stroke-width="1px">94</text><text x="0" y="125.66666666666669" dx="0em" dy="0.3em" style="text-anchor: end; visibility: inherit; font-family: Roboto, sans-serif; font-size: 12px; font-weight: 200;" fill="rgb(33, 33, 33)" stroke="none" stroke-width="1px">95</text><text x="0" y="83.77777777777777" dx="0em" dy="0.3em" style="text-anchor: end; visibility: inherit; font-family: Roboto, sans-serif; font-size: 12px; font-weight: 200;" fill="rgb(33, 33, 33)" stroke="none" stroke-width="1px">96</text><text x="0" y="41.88888888888891" dx="0em" dy="0.3em" style="text-anchor: end; visibility: inherit; font-family: Roboto, sans-serif; font-size: 12px; font-weight: 200;" fill="rgb(33, 33, 33)" stroke="none" stroke-width="1px">97</text><text x="0" y="0" dx="0em" dy="0.3em" style="text-anchor: end; visibility: hidden; font-family: Roboto, sans-serif; font-size: 12px; font-weight: 200;" fill="rgb(33, 33, 33)" stroke="none" stroke-width="1px">98</text></g><line x1="30" y1="0" x2="30" y2="377" fill="rgb(0, 0, 0)" stroke="rgb(204, 204, 204)" stroke-width="1px"></line></g></g><g transform="translate(30, 0)" clip-path="url(#clip_0)"><clipPath id="clip_0"><rect width="1420" height="377"></rect></clipPath><g><g><g><line x1="0" y1="0" x2="0" y2="377" fill="rgb(0, 0, 0)" stroke="rgb(66, 66, 66)" stroke-width="1px" opacity="0.25"></line><line x1="129.0909090909091" y1="0" x2="129.0909090909091" y2="377" fill="rgb(0, 0, 0)" stroke="rgb(66, 66, 66)" stroke-width="1px" opacity="0.25"></line><line x1="258.1818181818182" y1="0" x2="258.1818181818182" y2="377" fill="rgb(0, 0, 0)" stroke="rgb(66, 66, 66)" stroke-width="1px" opacity="0.25"></line><line x1="387.27272727272725" y1="0" x2="387.27272727272725" y2="377" fill="rgb(0, 0, 0)" stroke="rgb(66, 66, 66)" stroke-width="1px" opacity="0.25"></line><line x1="516.3636363636364" y1="0" x2="516.3636363636364" y2="377" fill="rgb(0, 0, 0)" stroke="rgb(66, 66, 66)" stroke-width="1px" opacity="0.25"></line><line x1="645.4545454545454" y1="0" x2="645.4545454545454" y2="377" fill="rgb(0, 0, 0)" stroke="rgb(66, 66, 66)" stroke-width="1px" opacity="0.25"></line><line x1="774.5454545454545" y1="0" x2="774.5454545454545" y2="377" fill="rgb(0, 0, 0)" stroke="rgb(66, 66, 66)" stroke-width="1px" opacity="0.25"></line><line x1="903.6363636363636" y1="0" x2="903.6363636363636" y2="377" fill="rgb(0, 0, 0)" stroke="rgb(66, 66, 66)" stroke-width="1px" opacity="0.25"></line><line x1="1032.7272727272727" y1="0" x2="1032.7272727272727" y2="377" fill="rgb(0, 0, 0)" stroke="rgb(66, 66, 66)" stroke-width="1px" opacity="0.25"></line><line x1="1161.818181818182" y1="0" x2="1161.818181818182" y2="377" fill="rgb(0, 0, 0)" stroke="rgb(66, 66, 66)" stroke-width="1px" opacity="0.25"></line><line x1="1290.9090909090908" y1="0" x2="1290.9090909090908" y2="377" fill="rgb(0, 0, 0)" stroke="rgb(66, 66, 66)" stroke-width="1px" opacity="0.25"></line><line x1="1420" y1="0" x2="1420" y2="377" fill="rgb(0, 0, 0)" stroke="rgb(66, 66, 66)" stroke-width="1px" opacity="0.25"></line></g><g><line x1="0" y1="377" x2="1420" y2="377" fill="rgb(0, 0, 0)" stroke="rgb(66, 66, 66)" stroke-width="1px" opacity="0.25"></line><line x1="0" y1="335.1111111111111" x2="1420" y2="335.1111111111111" fill="rgb(0, 0, 0)" stroke="rgb(66, 66, 66)" stroke-width="1px" opacity="0.25"></line><line x1="0" y1="293.22222222222223" x2="1420" y2="293.22222222222223" fill="rgb(0, 0, 0)" stroke="rgb(66, 66, 66)" stroke-width="1px" opacity="0.25"></line><line x1="0" y1="251.33333333333337" x2="1420" y2="251.33333333333337" fill="rgb(0, 0, 0)" stroke="rgb(66, 66, 66)" stroke-width="1px" opacity="0.25"></line><line x1="0" y1="209.44444444444446" x2="1420" y2="209.44444444444446" fill="rgb(0, 0, 0)" stroke="rgb(66, 66, 66)" stroke-width="1px" opacity="0.25"></line><line x1="0" y1="167.55555555555554" x2="1420" y2="167.55555555555554" fill="rgb(0, 0, 0)" stroke="rgb(66, 66, 66)" stroke-width="1px" opacity="0.25"></line><line x1="0" y1="125.66666666666669" x2="1420" y2="125.66666666666669" fill="rgb(0, 0, 0)" stroke="rgb(66, 66, 66)" stroke-width="1px" opacity="0.25"></line><line x1="0" y1="83.77777777777777" x2="1420" y2="83.77777777777777" fill="rgb(0, 0, 0)" stroke="rgb(66, 66, 66)" stroke-width="1px" opacity="0.25"></line><line x1="0" y1="41.88888888888891" x2="1420" y2="41.88888888888891" fill="rgb(0, 0, 0)" stroke="rgb(66, 66, 66)" stroke-width="1px" opacity="0.25"></line><line x1="0" y1="0" x2="1420" y2="0" fill="rgb(0, 0, 0)" stroke="rgb(66, 66, 66)" stroke-width="1px" opacity="0.25"></line></g></g></g><g><g><line x1="0" y1="4105.111111111111" x2="1420" y2="4105.111111111111" fill="rgb(0, 0, 0)" stroke="rgb(153, 153, 153)" stroke-width="1.5px"></line></g></g><g><g><line x1="129.0909090909091" y1="0" x2="129.0909090909091" y2="377" fill="rgb(0, 0, 0)" stroke="rgb(153, 153, 153)" stroke-width="1.5px"></line></g></g><g><g><g><g><g><path stroke="rgb(255, 112, 67)" stroke-width="2px" d="M164.3482181818182,378.5729170234602L166.40334545454547,366.0535018284037L166.9197090909091,361.73067440003786L167.1778909090909,360.62822568697044L167.95243636363637,359.26143659572233L169.7493818181818,354.25720327287263L170.52392727272726,350.94240599787014L171.0402909090909,349.76106654036505L171.55665454545453,348.30907787216626L173.3536,344.9944012966467L173.6117818181818,344.1222342552709L174.90269090909092,342.5007090862179L176.69963636363636,336.74724057256924L176.9578181818182,333.5270958956977L177.21599999999998,332.2118691297581L178.49658181818182,332.7887764122774L178.75476363636363,329.98402391649597L181.58443636363637,328.9824075474695L182.1008,321.39848113001506L183.64989090909089,321.27627736931277L184.16625454545454,321.655315549412L184.6722909090909,322.21635190291425L186.99592727272727,319.72103303938275L188.2765090909091,310.7349754654513L192.1389090909091,306.7749549690594L192.39709090909088,305.7467525116052L195.7431272727273,303.0555470471L196.00130909090907,302.7472497543168L196.25949090909089,303.046105668917L199.08916363636362,301.87792554344617L199.86370909090908,302.42143527202217L200.8861090909091,294.7810790869004L201.9188363636364,295.1962200807322L202.69338181818182,297.25828580154416L203.45759999999999,294.26174626179954L203.97396363636364,292.9409954138872L205.26487272727275,293.047912446103L205.78123636363637,293.57562804711256L206.03941818181818,294.1992262013479L208.61090909090908,292.96372750691785L209.63330909090908,286.8976443679704L210.66603636363638,286.75349179263594L211.1824,288.43774813406884L211.44058181818184,289.08278691559366L212.21512727272727,290.5421348295844L216.06719999999999,292.1441282126496L218.13265454545453,291.6871457240628L218.39083636363637,291.2980261371773L221.47869090909091,288.60454594305656L223.01745454545454,284.52699026612567L223.27563636363638,282.5126208563389L223.5338181818182,281.5556739968904L226.62167272727274,282.95587938457896L228.6768,278.9132960938464L229.70952727272729,277.3140935662189L230.22589090909094,278.5811815387724L231.50647272727272,277.33853946898716L232.79738181818183,276.1741589020046L233.31374545454543,276.23889699152176L236.1434181818182,276.5939244854143L237.68218181818182,272.4426919220889L237.94036363636363,270.7873791909959L241.54458181818183,271.43866900962087L241.80276363636364,272.6659809635736L242.3191272727273,274.8213423969802L243.34152727272726,276.33777082688164L243.59970909090907,268.23275701008276L244.11607272727272,270.07007231092973L245.66516363636364,271.4448452676153L246.68756363636362,266.6876844023376L247.97847272727273,267.4812876320824L249.01119999999997,270.00472869503477L249.77541818181817,267.11268142312616L250.29178181818182,267.17305928133027L251.3245090909091,268.71016200655697L251.58269090909093,269.7032707574799L252.86327272727272,270.0879418996909L253.12145454545453,270.88514309928996L254.67054545454548,270.9865096021923L255.18690909090907,270.4627054907327L256.46749090909094,269.44019937979147L260.58807272727273,268.1117973646404L261.10443636363635,267.48671824746543L261.36261818181816,267.4048786097544L261.6208,267.9695544288818L262.38501818181817,266.4486299949847L262.90138181818185,267.73163397134635L266.5056,267.06862756950215L266.7637818181818,266.8179186090375L267.28014545454545,267.48356939551076L267.79650909090907,268.6257984631539L268.30254545454545,266.63455095437195L269.33527272727275,263.7556618083456L269.8516363636364,262.6973327849717L270.8843636363636,263.7283594197794L271.3904,259.9881521965583L272.4231272727273,263.148443823747L273.97221818181816,266.48894470323324L274.47825454545455,265.1725442151849L275.51098181818185,264.1543785083597L279.63156363636364,263.7205937416852L279.88974545454545,264.10277981232764L280.65396363636364,261.3495506795514L281.17032727272726,260.9998112898241L281.4285090909091,261.21276300995413L282.2030545454545,263.05634688560315L282.7194181818182,264.4070398115671L285.80727272727273,265.61394342446636L287.08785454545455,262.5430317419629L287.34603636363636,260.7423314513502L289.4114909090909,264.6362822291349L289.6593454545455,267.1182042904584L290.9502545454546,263.03470217247036L291.2084363636364,260.0261019011831L292.24116363636364,258.83031407908163L293.26356363636364,259.44637402193604L294.81265454545456,260.3465507771085L295.0708363636364,261.2503061246723L296.3514181818182,258.6267322628623L296.8677818181818,258.4205771566168L298.67505454545454,262.41867913222666L299.1810909090909,265.1191561046802L300.9883636363636,264.6075617588791L303.0434909090909,263.7438618283635L303.3016727272727,263.5395801965348L304.3344,263.3206500437525L305.3568,265.9867573105363L307.42225454545456,264.81663472479687L307.9386181818182,264.0760776746143L312.04887272727274,261.62455334748614L314.8785454545455,256.43238187432223L315.3949090909091,254.47594731973882L315.9112727272727,255.69212574366492L316.1694545454546,257.0485762804369L316.68581818181815,257.9926226790684L316.944,258.8112781874676L317.45003636363634,260.50474573589804L317.70821818181815,254.79892411612406L317.9664,254.31725932573582L319.25730909090913,256.2756660327151L320.7960727272727,259.54923584124606L325.9493818181818,260.67558994494595L326.2075636363636,261.6688946729465L328.0045090909091,256.04933465343896L328.7790545454546,255.055001542751L329.03723636363634,255.57896047917959L329.5536,256.51560185503814L330.05963636363634,257.94651846252805L330.576,258.7460778220767L332.1250909090909,258.74820412893297L336.23534545454544,263.6244525888481L336.49352727272725,264.0527390933925L337.0098909090909,262.76241163801836L337.78443636363636,263.05054261503386L339.83956363636366,256.8376456637032L340.0977454545455,253.9267727905428L342.41105454545453,252.93055028669804L343.44378181818183,253.9528831760962L344.21832727272727,253.4910427622647L344.47650909090913,253.76180983761958L345.4989090909091,255.38255374169586L346.27345454545457,254.42679394718385L346.7898181818182,255.46186223302425L349.87767272727274,252.9417070660765L350.65221818181817,254.43654813612105L351.1685818181818,256.0795301649738L352.1909818181818,253.14968059457624L353.4818909090909,253.40290736243225L356.8279272727273,254.4552431063536L357.3442909090909,255.75512182935475L358.8830545454545,255.47183991656442L359.6576,255.82961222178017L360.1739636363636,256.5488345972165L361.1963636363636,254.1421283845802L361.45454545454544,252.52090869829115L363.0036363636364,254.01675802733695L368.1466181818182,255.51960805115135L368.66298181818183,257.57927560849674L369.1793454545454,258.99901825347695L371.7508363636364,258.4533762376232L373.5477818181818,252.51521333436432L375.09687272727274,253.63236074140724L377.152,253.26000472979126L381.27258181818183,252.88936741731268L382.0471272727273,254.49581680476513L383.06952727272727,251.8574451092562L384.6186181818182,253.5731643260225L385.1349818181818,255.21635106320682L386.41556363636363,254.3958220404863L387.1901090909091,254.7982630414036L387.44829090909093,254.50974635328228L387.7064727272727,254.91448383503592L390.5361454545455,255.33305294964998L392.3330909090909,252.95520349723813L393.3658181818182,254.22621403004507L393.88218181818183,255.00808171385663L395.9373090909091,254.46752358396498L396.1954909090909,254.5913467270394L401.0802909090909,251.17584335367556L402.1130181818182,251.96501353258003L404.6845090909091,251.95196911059224L404.9426909090909,251.98345105476326L405.45905454545453,253.37168839451328L406.4917818181818,255.2127872026352L408.8050909090909,254.98309505787205L411.8929454545455,255.1254926216201L412.9256727272727,256.78475720796746L413.4317090909091,248.91430883603448L414.2062545454545,248.027654018816L414.7226181818182,250.12094694749027L415.2389818181818,252.9073922276651L417.8104727272727,252.65341652059163L418.06865454545454,252.60092659852162L418.8432,253.31565276036181L419.1013818181818,254.1008201149822L419.8656,253.13386971853373L420.64014545454546,255.30728104144598L421.1565090909091,257.60743952003287L422.4370909090909,260.59704342380746L424.24436363636363,259.0703379547765L425.5249454545455,257.9130237887306L425.7831272727273,254.6786493131288L428.3649454545455,256.2527689615129L428.8709818181818,255.17502778451515L431.4528,255.92965735016654L431.9588363636364,255.99070703798765L432.2170181818182,252.873605694079L434.0242909090909,253.07702108916192L435.3048727272727,250.58428575857806L436.3376,251.5622720003384L436.5957818181818,252.09132667879453L439.68363636363637,236.27373156827477L441.7387636363636,216.68650162528235L442.7714909090909,206.80722779919446L444.0520727272727,201.23763479337038L444.5684363636364,195.84748534406103L445.6011636363636,193.66247467107024L449.46356363636363,189.13817255084516L449.9799272727273,186.558983361327L451.0023272727273,182.79283837762685L451.26050909090907,181.3758649205774L451.5186909090909,181.45221673590703L452.03505454545456,181.27490535750218L452.8096,181.57386593081068L453.832,179.24783003112296L455.3810909090909,179.30108191454295L456.4034909090909,179.28978454607855L457.6944,179.04071246551933L459.2434909090909,179.2841001326914L460.0077090909091,174.6431160400937L461.2986181818182,175.12029562613043L462.0731636363636,175.39999715331734L463.3537454545455,171.31163634129044L463.6119272727273,168.86595962538948L464.3864727272727,168.16582290539262L465.4192,169.27571104993456L467.7325090909091,170.05476207588467L469.5294545454546,170.19298408867962L470.304,169.36885148247865L470.5621818181818,168.57744294825756L472.8754909090909,166.83348756343005L475.44698181818177,165.4523435999234L476.22152727272726,164.127628548133L477.7706181818182,164.56947949669146L479.3093818181818,163.1371250119484L480.3421090909091,162.48137510104348L483.1717818181818,161.80280851013651L483.4299636363636,161.37362748674664L484.45236363636366,155.58934646718035L486.0014545454546,157.73533234064428L487.0341818181818,159.74283521163662L487.7984,156.77398458042094L493.9741090909091,158.9134477774487L497.5783272727273,156.33496174945867L498.8692363636364,156.67900679280345L499.3856,157.25949256305177L499.6334545454546,157.45666621821167L499.8916363636364,154.95553115902246L500.1498181818182,154.25136972062873L502.2152727272727,154.87577341294926L504.2704,152.99673452544522L504.5285818181818,151.80660054082983L505.0449454545455,151.91274933855323L505.3031272727273,152.02005856807935L508.64916363636365,151.85157785994951L509.1552,150.64221392348125L511.9848727272727,151.57679224526316L512.7594181818182,149.40668763303847L513.7921454545454,150.0047807729375L514.8248727272727,151.38231511539732L515.8472727272726,151.55052079445463L517.6545454545454,151.59171558375064L517.9127272727272,151.4281226110791L518.1605818181818,151.35020910418112L518.6769454545455,148.06542545480065L519.4514909090909,146.9593164605661L522.5393454545455,147.7826409734123L524.0884363636363,148.36955806885805L524.8526545454546,149.1580674724318L525.1108363636364,148.31507838512368L527.6823272727273,145.13420787916706L528.4568727272726,145.10240530495815L531.2865454545455,146.30235751323943L532.0610909090909,146.16059579392243L532.8356363636364,146.68074544202528L534.1162181818182,145.4446172413506L534.8907636363637,144.4738121840747L537.2040727272727,141.45901967471517L540.0337454545455,138.80815233724877L541.3246545454546,139.5251215109211L541.8410181818182,140.853816917138L548.0167272727273,141.210063287535L550.0718545454546,141.4118626868678L550.5882181818182,141.6315558428907L551.3627636363636,142.301545050984L552.9015272727273,138.25424576621046L553.1597090909091,136.8670199760222L554.9669818181818,139.07510184783754L557.0221090909091,139.9509724166131L558.0548363636364,140.94350820625746L559.0772363636364,137.49768546669213L560.1099636363637,137.5539331670068L560.8845090909091,137.7921822187894L561.3905454545454,138.57361988518446L562.9396363636364,131.55989578644494L563.456,126.93816457737059L565.2529454545455,118.36632960064867L567.3184,115.034882192519L567.8244363636363,108.86114906997493L568.5989818181818,108.94201241309051L569.1153454545455,108.67668965221432L569.3735272727273,108.55041729479008L569.6317090909091,108.54064572649517L571.4286545454546,108.45102090918783L572.4613818181817,108.56101331834074L572.7195636363637,108.3204764819532L574.516509090909,108.34352728964924L576.5819636363636,106.89534975289762L576.8298181818182,106.02127041433576L577.8625454545455,105.37125722674946L578.378909090909,103.79694323947675L580.6922181818181,101.87292048488315L583.5218909090909,98.7139792492753L586.0933818181818,99.93138877371496L586.6097454545454,96.4279850882973L588.4170181818182,97.48055373681746L588.6752,98.57786551596101L589.6976,97.54140506413943L590.4721454545455,97.54704758254158L591.5048727272728,98.62535181352663L592.5272727272727,97.56942197970284L597.4223999999999,97.12252852097566L598.4448,97.37040489161194L599.4775272727272,95.30275872112044L600.2520727272728,95.54200438157204L601.7908363636363,92.46295098790503L602.3072,90.57922181203043L604.6205090909091,93.31343904516439L605.6532363636363,92.89237695331386L607.9665454545454,91.83889823578835L609.2574545454546,92.2347984986798L609.5156363636364,91.98762833644292L609.7738181818181,92.16885034957768L613.8840727272727,93.14555254324674L615.1749818181819,92.18953485468194L616.9719272727273,93.0512285132773L618.0046545454545,93.49240906762489L618.7792,93.64971553324816L620.3179636363636,87.52250317156091L620.5761454545454,85.31628902399868L620.8343272727273,86.40737269219616L621.6088727272728,88.58299094742358L622.8997818181819,90.43685094370232L624.4385454545454,90.60476603342829L624.6967272727272,91.13767829442557L627.2682181818182,89.99857394371082L627.5264,89.3398674992664L628.5591272727272,89.9665869134756L628.817309090909,90.40121152105672L629.8397090909091,86.84700776617362L630.3560727272727,86.42721939107044L631.9051636363637,86.72292819988701L632.6693818181818,88.40018649210002L633.7021090909091,88.53099425003839L633.9602909090909,88.30404877555901L634.4766545454546,89.00599522289241L634.7348363636364,89.36707622874758L635.2511999999999,89.66751144075407L638.0808727272728,89.66787688893373L638.5869090909091,89.70006397281477L640.6523636363637,89.07490786114863L640.9105454545455,88.74432669412164L641.6747636363637,89.54799913421576L650.6904727272728,89.04231895343429L653.0037818181819,87.53796188912318L653.2619636363637,86.6372881599279L655.0589090909091,85.23008204560733L656.0916363636363,85.18811060308896L657.8885818181818,82.84318839608179L658.1467636363636,82.30391453042472L661.2346181818182,83.52875944274243L662.0091636363636,84.15799311428174L664.3224727272727,85.62898091138466L666.8939636363637,85.13833832105007L668.9594181818181,85.82831302135256L669.2176,86.52445162575397L669.7236363636364,86.60589347308402L670.4981818181818,85.6644009772441L672.0472727272728,85.64902858951396L673.3278545454546,84.34511436781347L673.5860363636364,84.17959403950965L674.6187636363636,83.85551614737322L674.8769454545454,83.68199932370295L676.6738909090909,82.68140954890151L678.9871999999999,85.07646305746331L679.7617454545455,84.34273907195895L682.3332363636364,83.47377204203954L684.9047272727272,82.84629867781766L687.4865454545454,78.73333097685708L692.1131636363637,72.3317353718317L693.9204363636363,70.04749470271415L695.7173818181818,67.41398930725923L696.2337454545454,66.60932313572721L697.772509090909,63.887133028550984L698.2888727272727,62.85128609101205L699.0634181818182,64.08019928950651L699.3216,65.12877265893404L700.8603636363637,65.3281329868266L701.8930909090909,64.7301974053022L704.7227636363637,63.45600814495013L705.4973090909091,63.401974493020624L706.777890909091,62.56504255504859L710.1239272727272,64.68767198247879L716.2996363636364,62.71981501132932L721.1947636363635,59.985887925640725L722.4753454545455,56.82618559487803L722.7335272727272,55.73346946625558L725.3050181818181,54.753328582313216L726.0795636363636,53.252589948634096L727.3704727272727,53.32682236087257L729.4256,53.34677191261418L730.2001454545455,53.881878414553746L731.997090909091,52.87824401321635L732.2552727272728,52.079202379255584L732.5134545454546,51.52390822320513L733.0298181818182,51.62750641694484L734.5685818181819,53.3371254873866L736.3758545454544,53.73362571724568L739.9800727272727,53.97594681206369L742.8097454545455,53.53753343024756L744.0903272727273,51.17674541829026L745.1230545454546,49.64970514401362L745.3812363636364,49.02666731134868L746.1557818181817,49.56187591035091L746.4139636363635,50.28869201524282L754.1284363636364,51.514048610648445L754.9029818181818,51.57622162299117L755.9253818181818,52.347068222232025L756.1835636363636,53.292053237228146L757.4744727272728,52.77619161829787L757.7326545454546,52.62513907977919L760.820509090909,51.75022749876043L762.8756363636363,50.50235472563827L763.3919999999999,50.12395439229352L763.6501818181817,49.956648267166635L766.7380363636364,48.39314643596148L768.7931636363636,49.449766727078334L770.8586181818182,50.77091071051518L772.1392000000001,50.01405172892644L772.6555636363637,50.03711864506704L773.430109090909,50.402938412047796L773.9464727272726,50.67577039101303L774.2046545454547,50.95807560579763L776.0015999999999,49.82258448589306L777.0343272727273,50.01141935961611L777.2925090909091,50.30391624161775L777.5403636363636,50.52431557556955L778.0567272727272,48.9293331687529L778.5730909090909,48.96106481609196L779.864,49.304087254012956L780.3803636363637,49.61823960486718L782.435490909091,50.65659877938782L789.3857454545455,50.55707931329975L789.6439272727273,50.888047869946774L790.1499636363636,53.23628331271287L792.4736,50.69043075645637L792.7317818181818,49.38112377928463L794.5287272727273,49.339390388787024L795.3032727272728,49.55704329094571L795.5614545454546,49.72725726861373L796.3256727272726,50.53878664959332L798.1329454545454,50.447343758676524L798.649309090909,50.00423153384621L799.9298909090909,47.72793759245029L803.0177454545454,48.73299274341555L803.2759272727272,48.778136291531816L805.3310545454545,49.10784479168297L805.5892363636364,48.89866748959282L807.3965090909091,48.901042269380326L808.1710545454546,49.209710175818685L808.4189090909091,49.34557043439753L808.6770909090908,44.47696381323892L809.4516363636365,45.44525522099168L814.3467636363637,46.5913784486988L816.4018909090909,47.730260245859995L816.6600727272727,48.329085424397576L817.4346181818182,48.16469032966187L819.2315636363637,47.48120420212038L820.0061090909091,46.89542174362797L820.5224727272728,46.74556982822528L821.2866909090908,44.687242969486284L822.3194181818183,44.93762134021049L824.6327272727273,46.169884958779775L826.1818181818181,46.598694819635845L827.2042181818182,49.36381154080732L827.4624,49.85473995490947L828.4951272727272,49.059847339388284L828.753309090909,48.697781676048294L829.0114909090909,48.371607638520715L830.2920727272727,49.33642732617179L831.5829818181818,48.2508853363493L831.8411636363637,47.65509700122405L832.873890909091,47.65120609852017L834.1544727272726,46.61363759639087L834.4126545454546,46.179280721326165L834.6708363636365,46.4328502783598L835.4453818181818,47.10422021607119L837.7586909090909,46.31882544621292L838.0168727272727,46.65892224798012L838.2750545454545,46.80808433030134L839.5556363636364,47.67598416459986L839.8138181818182,47.986782046002716L840.8465454545454,47.48813845785518L841.6210909090909,47.31684545539366L842.3853090909091,47.156818808306284L842.9016727272727,49.223490978844836L843.4180363636364,48.11153090147699L844.1925818181818,46.83491347492677L845.9895272727273,46.04816535645678L849.0773818181817,44.275774331142905L849.5937454545455,44.068659546346204L852.9397818181818,44.67774367180012L853.1979636363636,44.95429195870392L856.0276363636364,45.4819826120128L858.5991272727273,43.87463883830983L859.1154909090908,44.321782035181165L859.6318545454546,44.60852687852676L861.1706181818181,42.017546483330804L862.9778909090909,44.807637038880536L863.2360727272727,46.421163844136885L864.5166545454546,46.70973666804096L865.5493818181818,45.28102806954171L865.8075636363636,44.6857378540937L866.8402909090909,44.22209236143527L870.176,44.99980012502846L870.6923636363637,44.0597648862668L870.9505454545455,44.354877617600295L873.2638545454545,44.57852370062061L873.7802181818181,45.58903514656077L874.2965818181817,46.26909649167871L876.351709090909,45.898824438771086L878.4171636363636,46.586047521305275L879.1917090909091,46.48376551647902L879.4395636363637,46.60358622584901L880.2141090909091,45.96763235104734L880.7304727272727,45.34188903377313L880.9886545454546,44.93247407853758L881.7632,45.182939204966864L883.3019636363637,43.206183278133494L884.3346909090908,42.57987443550428L884.5928727272728,42.24625460618324L888.1970909090909,43.48171453235844L888.961309090909,44.70711087964681L889.7358545454546,44.60827072281113L891.5431272727272,44.73745983679641L892.3073454545455,42.09361692870947L892.8237090909091,40.768556470577316L894.3728,42.079853804701656L895.6533818181819,41.95687675034849L897.2024727272728,43.02481073966902L897.7188363636365,43.75447505888437L899.515781818182,44.19716285418577L900.2903272727273,44.13784777518603L900.8066909090909,43.96592488849106L901.0545454545454,43.99552099786296L901.8290909090908,43.959260151258164L903.8945454545454,44.45831984469717L906.2078545454546,44.209905236149055L907.4884363636364,42.05071040877215L908.7793454545455,41.8390506363331L910.0702545454546,42.371814014840595L913.4059636363636,43.51517509358491L913.9223272727272,42.7813100760485L916.4938181818181,43.150630156172326L918.3010909090909,43.54384796299973L919.0756363636364,43.42887740707L920.3562181818182,43.89329112713465L922.6695272727274,43.21181999546508L922.9277090909092,37.70493039454641L924.4767999999999,39.65031210220218L926.0155636363636,41.90988205696615L926.790109090909,40.50920563062405L927.8228363636364,40.95747233769337L928.0810181818182,41.361759358424706L928.3392,41.77246292550932L928.8452363636363,42.246702214253446L929.8779636363637,43.03922618140953L930.6525090909091,43.4301624137066L930.9106909090909,44.02259031193417L931.9330909090909,44.25340903694373L932.1912727272728,45.229498310962924L932.4494545454546,45.16805808332946L933.7403636363637,44.724434174695126L934.2567272727272,44.29235627232319L936.8282181818181,42.73184128675743L938.6251636363636,43.1241952133534L940.4324363636364,42.89353905968107L941.1966545454545,42.73425951059825L945.8336,42.56651434178943L947.124509090909,42.654656406873194L949.4378181818181,43.05349825661756L950.2123636363636,42.7772714366825L950.7184,40.668755078197826L952.5256727272728,40.732940062108646L953.5480727272727,41.375253418179234L953.8062545454545,42.189633023669906L955.8717090909091,41.76076454000943L956.8941090909091,42.21582156471642L957.152290909091,41.74634079957181L957.9268363636364,42.15358900672461L958.4432,42.4859799695474L960.2401454545455,43.85127679314426L961.2728727272727,43.62808058015833L962.3055999999999,43.263815477270974L963.328,41.25771059339535L963.8443636363636,41.39909026572824L965.3934545454546,41.77430944649052L969.5037090909091,42.324444569957L970.2782545454546,43.09845929375222L971.0528,42.48513199893858L971.8273454545454,42.19192893596019L972.0751999999999,42.123763618820135L973.366109090909,42.04083010202549L975.4212363636364,40.50260538519498L976.9703272727272,40.888849070303934L977.7448727272728,41.24514284478987L978.0030545454546,41.5274230086236L980.0581818181819,40.774788558445834L982.1133090909091,40.22525458976073L985.4593454545455,40.01843297705606L987.2666181818181,40.13881485872514L988.8053818181818,40.92343288470337L990.096290909091,41.43326647931347L992.9259636363637,40.00996750057273L994.981090909091,39.6531999408703L995.2392727272728,39.18339749846584L996.5301818181819,39.719390038756785L996.7780363636363,39.7670128818589L997.0362181818181,38.62435183640767L997.5525818181819,39.11307850572166L998.3271272727272,38.97649496420854L998.8434909090909,39.03847198113972L1000.1240727272727,40.810931975817255L1000.3822545454545,42.02440255670408L1002.447709090909,41.80780533011093L1002.705890909091,41.591043180518795L1003.4701090909091,40.53912563275618L1005.2773818181819,40.682533781190614L1006.0416,40.72809746623501L1006.2997818181818,39.929356150911495L1006.5579636363636,39.18974808042702L1008.8816,39.296239146518495L1009.9040000000001,38.77152760896518L1010.9367272727272,39.29255085458368L1012.7336727272727,39.45136585489874L1012.9918545454545,40.71910099327932L1014.2827636363636,40.930363336034674L1018.1451636363637,40.487776596654264L1018.3930181818182,40.4224101555273L1019.4257454545454,38.608510186205905L1019.9421090909091,38.00792291958419L1021.7390545454545,40.404171050332565L1022.7717818181819,39.76510084109673L1025.085090909091,37.348557933747074L1025.3432727272727,37.286957325374L1025.6014545454545,37.3456101605122L1025.8596363636364,37.81287841579043L1026.1178181818182,38.667853024363524L1027.1505454545454,38.96879750217469L1027.6565818181818,39.32416328527523L1028.1729454545455,39.302298004979136L1028.947490909091,40.0810844504607L1029.7220363636363,40.12624965650119L1029.9802181818181,39.9097043112246L1030.7444363636364,39.87366398627658L1033.5844363636363,39.55325730617009L1035.1232,40.01439126423961L1036.6722909090909,40.02059918669418L1038.9856,40.38407192292735L1039.2437818181818,40.79231511322466L1040.5243636363637,42.48303232305234L1041.298909090909,42.85658770002247L1042.8480000000002,41.78895445134643L1043.8704,41.136644599886296L1044.9031272727273,40.76462278755209L1046.9582545454546,38.005363555766785L1047.7328,37.24954036595764L1049.2715636363637,37.872028298472856L1049.5297454545455,35.62785607109867L1050.5624727272727,36.101796521971146L1051.5952,36.55883683734023L1052.359418181818,36.96502452165546L1052.6176,35.361074537221015L1053.3921454545455,37.182110582862634L1055.7054545454546,34.818278577221946L1059.051490909091,36.61028219042256L1059.3096727272728,37.186813004868554L1059.5678545454546,37.9406298291222L1059.8260363636364,38.21766257140441L1060.6005818181818,38.573988950982645L1063.4302545454545,38.65843212691319L1069.6059636363636,37.99898489513228L1070.380509090909,38.33254485643852L1070.8865454545455,38.52226958053359L1071.4029090909091,36.98426969487596L1072.1774545454546,37.11670870331042L1072.6938181818182,36.64858109468347L1073.2101818181818,36.75460210231928L1073.9744,37.46772148799506L1074.2325818181819,38.139909670972685L1078.8695272727273,38.00936454475436L1081.4410181818182,38.1240407064052L1083.2379636363637,38.46096755051101L1084.270690909091,37.61897823327325L1084.5288727272728,37.55827441457589L1085.8197818181818,37.9585290400162L1086.0779636363636,38.338026759124965L1086.8421818181819,37.7141623503839L1089.6718545454546,35.668890508948586L1089.9300363636362,35.904565105140385L1093.017890909091,35.976525443282334L1093.2760727272728,35.94075676711146L1093.7924363636364,36.23268538148464L1094.0506181818182,36.78504307088994L1094.8251636363636,37.17802178125044L1095.0833454545455,37.486008006238265L1095.3415272727273,37.66274071570541L1097.1384727272728,37.18156823754425L1097.6548363636364,36.738343250602234L1098.1712,36.4886332634334L1101.2590545454545,36.60965506544816L1102.0232727272728,36.224809335836625L1102.2814545454546,37.30595999078252L1102.5396363636362,37.55245043759828L1102.797818181818,37.36807574950235L1103.8305454545455,37.921785460435814L1104.605090909091,37.81017679100074L1108.4571636363637,37.70462540044059L1108.9735272727273,37.0888767727179L1110.5226181818182,37.84262105410939L1111.0286545454546,38.210677271804634L1112.0613818181819,38.39376248098959L1113.0941090909091,38.54371255041571L1113.352290909091,38.62563156075098L1117.2043636363635,37.71848855034028L1119.528,37.58711052199042L1120.0443636363636,37.60040169974091L1120.5504,34.79671964173582L1121.3249454545455,35.4403000486935L1121.8413090909091,35.30008301831225L1122.6158545454546,35.60127466507623L1124.9291636363637,36.08834101283053L1125.7037090909091,36.43899794385407L1126.4679272727274,36.619286318815554L1132.1376,36.58610885770702L1133.418181818182,34.84675736630603L1134.9672727272728,34.409522589664675L1135.731490909091,34.5967960927951L1136.7642181818183,35.40620474683233L1138.3133090909091,36.3802308435591L1139.0775272727274,34.07681883658897L1139.593890909091,33.52285783581016L1140.1102545454544,33.920620132595616L1140.8848,34.51248933743335L1141.4011636363637,34.900215168368575L1142.1653818181817,34.277012366004016L1146.5441454545455,34.949181653581576L1146.8023272727273,35.27382572697768L1147.5768727272728,35.21522829097714L1149.632,34.78717087433439L1149.8901818181819,34.57445030472207L1152.203490909091,34.85631934298078L1152.4616727272728,35.09639231040322L1153.7525818181819,35.20449152437641L1154.0107636363637,35.31033088724009L1154.258618181818,35.42020919306225L1155.0331636363635,35.45594859751832L1156.5822545454546,36.21499925586898L1157.8628363636362,34.98564730401873L1158.637381818182,35.15933068493795L1160.6925090909092,38.79058930550239L1161.7252363636364,38.15557599801278L1162.2416,37.82690989158895L1164.5549090909092,36.137937599926325L1165.8458181818182,35.953964776092555L1167.3845818181817,35.614282809542296L1167.6427636363635,35.587223949643914L1168.675490909091,36.89624077612302L1168.9336727272728,37.459828937998765L1170.7306181818183,36.22325436855797L1172.537890909091,35.9297452510606L1174.0766545454546,35.501589299769634L1174.8512,35.25238408443388L1175.3675636363637,34.86045679258203L1175.6257454545455,34.704824353815155L1177.422690909091,34.63134550069486L1178.9614545454547,35.30577867274794L1179.477818181818,34.18085646553255L1179.7359999999999,33.13703255635041L1180.2523636363635,33.12942055325851L1181.285090909091,33.74653869723712L1182.3074909090908,36.27985019248085L1183.5984,35.907186715628285L1184.3729454545455,35.34820803907885L1186.6862545454546,36.28560767361204L1187.2026181818183,36.55355084513949L1188.2250181818183,36.54653874456346L1189.7741090909092,35.52783157246768L1190.5486545454544,35.19147617822523L1192.087418181818,35.00796398544958L1195.1752727272726,35.07854857780441L1196.208,36.04985568313515L1198.0049454545454,34.653405738466304L1198.779490909091,34.22534375153982L1200.8346181818183,33.81175055646448L1201.6091636363637,35.09397514602256L1202.1255272727274,35.218789070894275L1204.1806545454547,32.58651610738374L1204.4388363636363,31.570176447801003L1205.2133818181817,31.261292977832795L1206.7521454545454,31.622435680679153L1208.0430545454544,32.87982385715617L1211.9054545454546,34.032594882146235L1212.1636363636364,34.7490252665583L1214.2187636363637,34.308620548681L1215.5096727272726,34.196322234833275L1217.0484363636363,34.56613610813548L1217.5647999999999,34.47129416006919L1217.8229818181817,34.44560548220229L1219.3617454545454,34.1429679983881L1221.9435636363637,34.40965390428622L1222.7077818181817,31.50533729658446L1223.2241454545454,30.512982989359962L1223.4823272727274,30.66886515374518L1223.7405090909092,30.72951931434002L1224.7732363636364,31.47418088283291L1227.3447272727274,32.75042373042054L1227.6029090909092,33.366480020411686L1228.1192727272726,33.481912282002895L1230.6907636363635,33.06009385612289L1230.9489454545453,32.85590242372331L1235.3173818181817,34.837553595294025L1237.1246545454546,35.313444815667985L1238.1470545454545,33.91702879541078L1240.4706909090908,32.76386341419223L1241.7512727272729,32.211512747706806L1243.0421818181817,32.46700868223934L1244.5809454545454,32.998002121151266L1246.8942545454545,32.38332945223045L1247.9269818181817,33.1442600799412L1248.9597090909092,32.96426221018649L1249.7342545454546,32.226102822838435L1251.2730181818183,33.81291525796291L1252.5639272727274,33.474468796075314L1254.102690909091,33.80480421121212L1255.3935999999999,33.60084492162653L1256.1578181818181,33.89522082940288L1256.416,31.872698518514508L1258.2232727272726,33.01909297227773L1259.7620363636363,34.34118455850447L1260.2784,34.18199116382328L1262.3335272727272,33.26716027351312L1263.3662545454545,33.64894834609489L1264.1408000000001,33.53876494086248L1264.9153454545456,33.48712185425289L1265.1735272727274,33.528719270039936L1267.2286545454544,32.25068642627624L1267.745018181818,31.04406731280579L1270.5746909090908,31.012341945457795L1272.629818181818,33.157201452681555L1274.1789090909092,33.188229161376334L1275.4594909090908,31.23190417880435L1276.4922181818183,31.144785747463178L1278.5473454545456,30.809049443799726L1280.354618181818,30.883770759908487L1284.4648727272727,29.592785425429412L1286.0139636363635,30.088997958295213L1287.0363636363636,30.683919945160874L1290.8987636363636,29.642592628755665L1292.4478545454544,30.004649636588343L1293.2120727272727,30.443242832909636L1293.7284363636363,31.580311014472393L1295.2775272727272,32.29311103760121L1295.535709090909,32.440595254752004L1296.2999272727272,32.5708510450035L1297.3326545454545,30.755881977663314L1298.3653818181817,30.557189984877144L1298.6235636363635,30.88716918966949L1298.8817454545456,30.95672268553844L1299.3877818181818,31.150934034139517L1300.9368727272727,30.644957748911708L1302.7338181818182,31.09553375241319L1303.2501818181818,33.262234690331915L1303.7665454545456,33.860670395328434L1304.7992727272726,34.18544484897206L1305.563490909091,34.071760449446195L1305.8216727272727,32.31229526239536L1306.3380363636363,31.20712312842465L1308.4034909090908,31.5919168062656L1310.458618181818,30.63835925737203L1310.9749818181817,30.480382834990788L1314.5792000000001,31.16916744131631L1315.3434181818182,28.18460913759884L1316.1179636363636,28.516802742826634L1316.6343272727274,29.188176032139953L1318.6894545454545,29.811100263110465L1319.7221818181818,29.338457271893773L1320.4967272727272,30.089891613333776L1322.0354909090909,30.48292211957554L1324.3488,31.53663411999416L1325.639709090909,31.55453513774109L1325.8978909090908,31.517139534029297L1326.9306181818183,31.286868484542254L1327.9530181818182,30.490352217009843L1328.2112,30.66887812053602L1328.4693818181818,30.9888365469267L1328.9857454545456,31.010941079369417L1330.2663272727273,30.902255314478428L1330.524509090909,31.247339316097925L1330.782690909091,30.612342956914148L1333.1063272727272,30.86886956551271L1335.1614545454545,30.968856264477495L1336.1941818181817,30.963381355506016L1336.7002181818182,30.478351596971034L1338.249309090909,30.795973101935207L1340.3044363636363,32.660561630141984L1340.5626181818182,33.374914738520154L1342.1117090909092,33.86006395014846L1342.8759272727273,34.06584918892077L1344.9413818181818,32.987153099709985L1345.1995636363636,32.45056773381769L1346.4801454545454,31.713636162971397L1347.2546909090909,31.390615648653124L1347.5128727272727,31.324643657713523L1348.287418181818,31.261741580967854L1349.0516363636364,32.73410201193777L1349.8261818181818,32.27781311239053L1352.9140363636363,30.78425261825503L1353.9467636363636,30.699718050846805L1355.743709090909,30.725316288888624L1357.2928,30.58383766736979L1358.0570181818182,30.470621331631353L1358.3152,27.504116238440375L1358.5733818181818,27.162719379291417L1359.3479272727272,27.363821274059635L1359.606109090909,28.097398056537322L1361.4030545454546,28.787421450578872L1361.9194181818182,28.188220148897006L1362.4357818181818,27.821326258427522L1363.9848727272727,28.69162676330557L1364.2327272727273,29.180339275416546" style="fill: none;" fill="none"></path></g></g></g></g><g opacity="0.2"><g><g><g><path stroke="rgb(255, 112, 67)" stroke-width="2px" d="M162.80945454545454,385.46393839518225L164.3482181818182,363.2878061930339L166.40334545454547,348.0377604166667L166.9197090909091,355.51002078586157L167.1778909090909,359.0417751736111L167.95243636363637,357.29459381103516L169.7493818181818,347.0559895833333L170.52392727272726,346.17233191596137L171.0402909090909,348.06109025743274L171.55665454545453,346.21963077121313L173.3536,340.22450086805554L173.6117818181818,342.8671646118164L174.90269090909092,340.1672948201497L176.69963636363636,328.46785905626086L176.9578181818182,328.8932291666667L177.21599999999998,330.3192257351345L178.49658181818182,333.6189600626628L178.75476363636363,325.9479166666667L181.58443636363637,327.5410571628147L182.1008,310.4850260416667L183.64989090909089,321.1004231770833L184.16625454545454,322.2007607354058L184.6722909090909,323.02369689941406L186.99592727272727,316.1302083333333L188.2765090909091,297.80381944444446L192.1389090909091,301.0763888888889L192.39709090909088,304.26714409722223L195.7431272727273,299.1828367445204L196.00130909090907,302.30360243055554L196.25949090909089,303.4761666191949L199.08916363636362,300.19688585069446L199.86370909090908,303.20355902777777L200.8861090909091,283.78642018636066L201.9188363636364,295.79361809624567L202.69338181818182,300.22564866807727L203.45759999999999,289.94965277777777L203.97396363636364,291.04040273030597L205.26487272727275,293.20176866319446L205.78123636363637,294.33502366807727L206.03941818181818,295.0965991550022L208.61090909090908,291.1858147515191L209.63330909090908,278.16840277777777L210.66603636363638,286.54605272081164L211.1824,290.8614340888129L211.44058181818184,290.0110134548611L212.21512727272727,292.6421720716688L216.06719999999999,294.4494357638889L218.13265454545453,291.0295367770725L218.39083636363637,290.73807356092664L221.47869090909091,284.7285622490777L223.01745454545454,278.65928819444446L223.27563636363638,279.613894144694L223.5338181818182,280.17860412597656L226.62167272727274,284.9708090888129L228.6768,273.0959201388889L229.70952727272729,275.01280212402344L230.22589090909094,280.40455203586157L231.50647272727272,275.55034722222223L232.79738181818183,274.4985868665907L233.31374545454543,276.33205668131507L236.1434181818182,277.10481770833337L237.68218181818182,266.4689670138889L237.94036363636363,268.4053437974718L241.54458181818183,272.37589094373914L241.80276363636364,274.4321127997504L242.3191272727273,277.92296006944446L243.34152727272726,278.51994832356775L243.59970909090907,256.56944444444446L244.11607272727272,272.7140138414171L245.66516363636364,273.42317708333337L246.68756363636362,259.8420138888889L247.97847272727273,268.62330203586157L249.01119999999997,273.6360219319662L249.77541818181817,262.9509548611111L250.29178181818182,267.25994449191626L251.3245090909091,270.9220903184679L251.58269090909093,271.13237847222223L252.86327272727272,270.64149305555554L253.12145454545453,272.03233506944446L254.67054545454548,271.13237847222223L255.18690909090907,269.7089385986328L256.46749090909094,267.96878814697266L260.58807272727273,266.2001944647895L261.10443636363635,266.5872141520182L261.36261818181816,267.287109375L261.6208,268.78213670518664L262.38501818181817,264.2599826388889L262.90138181818185,269.5779079861111L266.5056,266.1145451863607L266.7637818181818,266.45714230007593L267.28014545454545,268.44145711263025L267.79650909090907,270.26949395073785L268.30254545454545,263.76909722222223L269.33527272727275,259.6128701104058L269.8516363636364,261.17437150743274L270.8843636363636,265.21203189426L271.3904,254.60590277777777L272.4231272727273,267.69618055555554L273.97221818181816,271.29600694444446L274.47825454545455,263.27821180555554L275.51098181818185,262.6892132229275L279.63156363636364,263.0963668823242L279.88974545454545,264.6527548895942L280.65396363636364,257.38758680555554L281.17032727272726,260.49652777777777L281.4285090909091,261.51920572916663L282.2030545454545,265.7093090481228L282.7194181818182,266.3507198757595L285.80727272727273,267.350707160102L287.08785454545455,258.12391493055554L287.34603636363636,258.1510798136393L289.4114909090909,270.23977237277563L289.6593454545455,270.6897506713867L290.9502545454546,257.1584430270725L291.2084363636364,255.69665273030603L292.24116363636364,257.1095462375217L293.26356363636364,260.33289930555554L294.81265454545456,261.64192708333337L295.0708363636364,262.55083211263025L296.3514181818182,254.8513454861111L296.8677818181818,258.12391493055554L298.67505454545454,268.17204538981116L299.1810909090909,269.00520833333337L300.9883636363636,263.8713650173611L303.0434909090909,262.5009765625L303.3016727272727,263.24561394585504L304.3344,263.00560421413843L305.3568,269.82335069444446L307.42225454545456,263.1327997843424L307.9386181818182,263.0103980170356L312.04887272727274,258.0967500474718L314.8785454545455,248.9607204861111L315.3949090909091,251.66059027777777L315.9112727272727,257.4422361585829L316.1694545454546,259.0005416870117L316.68581818181815,259.35112847222223L316.944,259.98934343126086L317.45003636363634,262.94168684217664L317.70821818181815,246.5881076388889L317.9664,253.62413194444446L319.25730909090913,259.09386105007593L320.7960727272727,264.2599826388889L325.9493818181818,262.29644097222223L326.2075636363636,263.09828440348304L328.0045090909091,247.9626507229275L328.7790545454546,253.62413194444446L329.03723636363634,256.3329501681858L329.5536,257.86345163981116L330.05963636363634,260.0056423611111L330.576,259.89666324191626L332.1250909090909,258.7512639363607L336.23534545454544,270.64149305555554L336.49352727272725,264.66905381944446L337.0098909090909,260.90559895833337L337.78443636363636,263.4651701185438L339.83956363636366,247.89713541666663L340.0977454545455,249.73795572916663L342.41105454545453,251.49696180555554L343.44378181818183,255.4240451388889L344.21832727272727,252.8264431423611L344.47650909090913,254.15145026312933L345.4989090909091,257.71484375L346.27345454545457,253.05143229166663L346.7898181818182,256.95135074191626L349.87767272727274,249.31514231363929L350.65221818181817,256.58766089545355L351.1685818181818,258.44382137722437L352.1909818181818,248.93355560302734L353.4818909090909,253.7673068576389L356.8279272727273,255.9695799085829L357.3442909090909,257.6256790161133L358.8830545454545,255.0641903347439L359.6576,256.3444552951389L360.1739636363636,257.5838131374783L361.1963636363636,250.67881944444446L361.45454545454544,250.18793402777777L363.0036363636364,256.1693216959635L368.1466181818182,257.68224589029944L368.66298181818183,260.54318745930993L369.1793454545454,261.0420625474718L371.7508363636364,257.6681840684679L373.5477818181818,243.97005208333337L375.09687272727274,255.2399631076389L377.152,252.72417534722223L381.27258181818183,252.35601128472223L382.0471272727273,256.8075366550022L383.06952727272727,248.0607638888889L384.6186181818182,256.0421261257595L385.1349818181818,257.58093685574L386.41556363636363,253.2150607638889L387.1901090909091,255.3773854573568L387.44829090909093,254.09456380208337L387.7064727272727,255.49691094292535L390.5361454545455,255.93538411458337L392.3330909090909,249.5334201388889L393.3658181818182,256.0552291870117L393.88218181818183,256.1332083808051L395.9373090909091,253.68964725070532L396.1954909090909,254.76953125L401.0802909090909,246.26085069444446L402.1130181818182,253.10064866807727L404.6845090909091,251.93319786919488L404.9426909090909,252.02875434027777L405.45905454545453,255.36939578586157L406.4917818181818,257.86217329237195L408.8050909090909,254.65256245930993L411.8929454545455,255.33040618896484L412.9256727272727,259.172479417589L413.4317090909091,237.58854166666663L414.2062545454545,246.7517361111111L414.7226181818182,253.13324652777777L415.2389818181818,256.91715494791663L417.8104727272727,252.2879392835829L418.06865454545454,252.52539232042102L418.8432,254.34416113959418L419.1013818181818,255.23069508870446L419.8656,251.7424045138889L420.64014545454546,258.4348729451498L421.1565090909091,260.91742367214624L422.4370909090909,264.89915635850696L424.24436363636363,256.8733715481228L425.5249454545455,256.24762047661676L425.7831272727273,250.02430555555554L428.3649454545455,258.5179655287001L428.8709818181818,253.62413194444446L431.4528,257.01558770073785L431.9588363636364,256.07855902777777L432.2170181818182,248.38802083333337L434.0242909090909,253.3697408040365L435.3048727272727,246.99717881944446L436.3376,252.96961805555554L436.5957818181818,252.85264926486548L439.68363636363637,213.51182640923395L441.7387636363636,188.5L442.7714909090909,192.59071180555554L444.0520727272727,193.2228546142578L444.5684363636364,188.09092881944446L445.6011636363636,190.51819101969397L449.46356363636363,182.6275914510091L449.9799272727273,182.84746721055774L451.0023272727273,177.3732638888889L451.26050909090907,179.33680555555554L451.5186909090909,181.56208886040582L452.03505454545456,181.01974995930988L452.8096,182.00407748752173L453.832,175.9006076388889L455.3810909090909,179.3777126736111L456.4034909090909,179.27352735731336L457.6944,178.68229166666669L459.2434909090909,179.63434092203778L460.0077090909091,167.9646267361111L461.2986181818182,175.80696868896484L462.0731636363636,175.8024944729275L463.3537454545455,165.42838541666669L463.6119272727273,165.34657118055554L464.3864727272727,167.15830908881293L465.4192,170.8728671603733L467.7325090909091,171.17583550347223L469.5294545454546,170.39188893636066L470.304,168.18290456136066L470.5621818181818,167.43858676486548L472.8754909090909,164.32389322916669L475.44698181818177,163.46484375L476.22152727272726,162.2213312784831L477.7706181818182,165.20531378851996L479.3093818181818,161.0759319729275L480.3421090909091,161.53773498535156L483.1717818181818,160.82633463541669L483.4299636363636,160.75602552625867L484.45236363636366,147.265625L486.0014545454546,160.8234583536784L487.0341818181818,162.63168080647785L487.7984,152.5017361111111L493.9741090909091,161.9921875L497.5783272727273,152.62445746527777L498.8692363636364,157.1740960015191L499.3856,158.0948257446289L499.6334545454546,157.7404039171007L499.8916363636364,151.35633680555554L500.1498181818182,153.2380642361111L502.2152727272727,155.77430555555554L504.2704,150.2927517361111L504.5285818181818,150.09396870930988L505.0449454545455,152.0655000474718L505.3031272727273,152.17447916666669L508.64916363636365,151.6091300116645L509.1552,148.90190972222223L511.9848727272727,152.92167324490015L512.7594181818182,146.28385416666669L513.7921454545454,150.8654513888889L514.8248727272727,153.36462063259546L515.8472727272726,151.79257286919488L517.6545454545454,151.6509958902995L517.9127272727272,151.19270833333331L518.1605818181818,151.2380896674262L518.6769454545455,143.33854166666669L519.4514909090909,145.36759863959418L522.5393454545455,148.9674250284831L524.0884363636363,149.21414608425562L524.8526545454546,150.2927517361111L525.1108363636364,147.10199652777777L527.6823272727273,140.5568576388889L528.4568727272726,145.056640625L531.2865454545455,148.02911800808374L532.0610909090909,145.95659722222223L532.8356363636364,147.42925347222223L534.1162181818182,143.6657986111111L534.8907636363637,143.0768000284831L537.2040727272727,137.12065972222223L540.0337454545455,134.99348958333331L541.3246545454546,140.5568576388889L541.8410181818182,142.7658420138889L548.0167272727273,141.72271050347223L550.0718545454546,141.70225694444446L550.5882181818182,141.94769965277777L551.3627636363636,143.2656758626302L552.9015272727273,132.43008338080512L553.1597090909091,134.87076822916669L554.9669818181818,142.25258551703558L557.0221090909091,141.21137152777777L558.0548363636364,142.37179141574438L559.0772363636364,132.5390625L560.1099636363637,137.63487497965497L560.8845090909091,138.1350284152561L561.3905454545454,139.69812774658203L562.9396363636364,121.46697574191626L563.456,120.28738064236109L565.2529454545455,106.03125L567.3184,110.24084811740454L567.8244363636363,99.97699652777777L568.5989818181818,109.05837673611109L569.1153454545455,108.29488372802734L569.3735272727273,108.36870829264325L569.6317090909091,108.52658420138891L571.4286545454546,108.32204861111109L572.4613818181817,108.71929507785376L572.7195636363637,107.97433810763891L574.516509090909,108.37669796413843L576.5819636363636,104.81138695610895L576.8298181818182,104.76344892713757L577.8625454545455,104.43587239583331L578.378909090909,101.53146701388891L580.6922181818181,99.10420481363934L583.5218909090909,94.16818576388891L586.0933818181818,101.68327077229816L586.6097454545454,91.38650173611109L588.4170181818182,98.99522569444446L588.6752,100.15692392985028L589.6976,96.04991319444446L590.4721454545455,97.55516730414496L591.5048727272728,100.17705790201825L592.5272727272727,96.04991319444446L597.4223999999999,96.47943793402777L598.4448,97.72710503472223L599.4775272727272,92.32736545138891L600.2520727272728,95.88628472222223L601.7908363636363,88.03211805555554L602.3072,87.86848958333331L604.6205090909091,97.24804433186847L605.6532363636363,92.28645833333331L607.9665454545454,90.32291666666669L609.2574545454546,92.80450863308374L609.5156363636364,91.63194444444446L609.7738181818181,92.42963324652777L613.8840727272727,94.55105082194012L615.1749818181819,90.81380208333331L616.9719272727273,94.29122670491535L618.0046545454545,94.12727864583331L618.7792,93.87608337402344L620.3179636363636,78.70529513888891L620.5761454545454,82.14149305555554L620.8343272727273,87.9774687025282L621.6088727272728,91.71375868055554L622.8997818181819,93.10460069444446L624.4385454545454,90.84639994303387L624.6967272727272,91.90455203586157L627.2682181818182,88.359375L627.5264,88.3919728597005L628.5591272727272,90.86845143636066L628.817309090909,91.02664693196613L629.8397090909091,81.732421875L630.3560727272727,85.82313368055554L631.9051636363637,87.1484603881836L632.6693818181818,90.81380208333331L633.7021090909091,88.71922980414496L633.9602909090909,87.9774687025282L634.4766545454546,90.01611328125L634.7348363636364,89.88668060302734L635.2511999999999,90.09984503851996L638.0808727272728,89.66840277777777L638.5869090909091,89.74638197157117L640.6523636363637,88.17529296875L640.9105454545455,88.26861233181421L641.6747636363637,90.70450337727863L650.6904727272728,88.31463283962671L653.0037818181819,85.37315538194446L653.2619636363637,85.34119669596356L655.0589090909091,83.205078125L656.0916363636363,85.12771267361109L657.8885818181818,79.46878814697266L658.1467636363636,81.52788628472223L661.2346181818182,85.29134114583331L662.0091636363636,85.06347571478949L664.3224727272727,87.74576822916669L666.8939636363637,84.43229166666669L668.9594181818181,86.82120344373914L669.2176,87.52621205647785L669.7236363636364,86.72309027777777L670.4981818181818,84.3095703125L672.0472727272728,85.62690734863281L673.3278545454546,82.46875L673.5860363636364,83.94140625L674.6187636363636,83.38916015625L674.8769454545454,83.43230438232422L676.6738909090909,81.24153645833331L678.9871999999999,88.52300347222223L679.7617454545455,83.28689236111109L682.3332363636364,82.22330729166669L684.9047272727272,81.94334920247394L687.4865454545454,72.81467013888891L692.1131636363637,63.11968315972223L693.9204363636363,66.76041666666669L695.7173818181818,63.624310811360665L696.2337454545454,65.45138888888891L697.772509090909,59.96983506944446L698.2888727272727,61.36067708333332L699.0634181818182,65.84863535563153L699.3216,66.6376953125L700.8603636363637,65.61501736111109L701.8930909090909,63.86975351969402L704.7227636363637,61.622418721516915L705.4973090909091,63.32421875L706.777890909091,61.36067708333332L710.1239272727272,67.7421875L716.2996363636364,59.88802083333332L721.1947636363635,56.05170016818578L722.4753454545455,52.279296875L722.7335272727272,54.16102430555554L725.3050181818181,53.34288194444446L726.0795636363636,51.09299045138891L727.3704727272727,53.4336446126302L729.4256,53.37547980414496L730.2001454545455,54.65190972222223L731.997090909091,51.433989630805115L732.2552727272728,50.92936197916668L732.5134545454546,50.72482638888891L733.0298181818182,51.77658674452039L734.5685818181819,55.79730902777777L736.3758545454544,54.30419921875L739.9800727272727,54.32465277777777L742.8097454545455,52.906645880805115L744.0903272727273,47.77951388888891L745.1230545454546,47.45225694444446L745.3812363636364,48.130100674099374L746.1557818181817,50.332054138183594L746.4139636363635,51.33459811740453L754.1284363636364,53.277366638183594L754.9029818181818,51.66569010416668L755.9253818181818,53.45633527967664L756.1835636363636,54.65190972222223L757.4744727272728,52.03385416666668L757.7326545454546,52.40777079264324L760.820509090909,50.49120839436848L762.8756363636363,48.706635369194885L763.3919999999999,49.57942708333332L763.6501818181817,49.7158906724718L766.7380363636364,46.14322916666668L768.7931636363636,50.97026909722223L770.8586181818182,52.67206912570531L772.1392000000001,48.92491319444446L772.6555636363637,50.0703125L773.430109090909,50.92936197916668L773.9464727272726,51.068382263183594L774.2046545454547,51.36431969536676L776.0015999999999,48.18858506944446L777.0343272727273,50.28315734863281L777.2925090909091,50.72482638888891L777.5403636363636,50.84147559271918L778.0567272727272,46.63411458333332L778.5730909090909,49.00672743055554L779.864,49.79770490858289L780.3803636363637,50.0703125L782.435490909091,52.15082295735676L789.3857454545455,50.41386837429469L789.6439272727273,51.36431969536676L790.1499636363636,56.61545138888891L792.4736,47.026886834038635L792.7317818181818,47.4969991048177L794.5287272727273,49.279335021972656L795.3032727272728,49.87025112575953L795.5614545454546,49.972199334038635L796.3256727272726,51.70659722222223L798.1329454545454,50.31575520833332L798.649309090909,49.36658223470051L799.9298909090909,44.45229509141711L803.0177454545454,50.179291619194885L803.2759272727272,48.84309895833332L805.3310545454545,49.5823033650716L805.5892363636364,48.59765625L807.3965090909091,48.90445963541668L808.1710545454546,49.653890821668824L808.4189090909091,49.54107666015625L808.6770909090908,37.47092013888891L809.4516363636365,46.83865017361109L814.3467636363637,48.24067772759332L816.4018909090909,49.36913892957898L816.6600727272727,49.19080946180554L817.4346181818182,47.928121778700074L819.2315636363637,46.497650994194885L820.0061090909091,46.0524664984809L820.5224727272728,46.529929267035584L821.2866909090908,41.72526041666668L822.3194181818183,45.2979219224718L824.6327272727273,47.94314236111109L826.1818181818181,47.21576266818578L827.2042181818182,53.34288194444446L827.4624,50.56119791666668L828.4951272727272,47.915977478027344L828.753309090909,48.17676035563152L829.0114909090909,47.90223524305554L830.2920727272727,50.72482638888891L831.5829818181818,46.688763936360665L831.8411636363637,46.79774305555554L832.873890909091,47.645606994628906L834.1544727272726,45.12055121527777L834.4126545454546,45.554230584038635L834.6708363636365,46.79774305555554L835.4453818181818,48.070337931315116L837.7586909090909,45.18862321641711L838.0168727272727,47.14832984076605L838.2750545454545,47.02273220486109L839.5556363636364,48.92491319444446L839.8138181818182,48.43402777777777L840.8465454545454,46.7705781724718L841.6210909090909,47.070350646972656L842.3853090909091,46.926536560058594L842.9016727272727,52.19748263888891L843.4180363636364,46.51139322916668L844.1925818181818,44.99782986111109L845.9895272727273,44.916015625L849.0773818181817,41.72526041666668L849.5937454545455,43.77061631944446L852.9397818181818,45.554230584038635L853.1979636363636,45.352251688639335L856.0276363636364,46.24134233262805L858.5991272727273,41.56163194444446L859.1154909090908,44.965232001410584L859.6318545454546,45.02115970187719L861.1706181818181,38.2890625L862.9778909090909,48.82264539930554L863.2360727272727,48.743068271213126L864.5166545454546,47.125L865.5493818181818,43.22508154975043L865.8075636363636,43.82910071478949L866.8402909090909,43.55489518907336L870.176,46.11894056532117L870.6923636363637,42.70703125L870.9505454545455,44.77955203586156L873.2638545454545,44.900355868869376L873.7802181818181,47.04318576388891L874.2965818181817,47.24772135416668L876.351709090909,45.36599392361109L878.4171636363636,47.57497829861109L879.1917090909091,46.336579216851135L879.4395636363637,46.77601114908855L880.2141090909091,45.05247921413844L880.7304727272727,44.441429138183594L880.9886545454546,44.34331597222223L881.7632,45.543364630805115L883.3019636363637,40.36158328586156L884.3346909090908,41.67860073513453L884.5928727272728,41.76616753472223L888.1970909090909,45.25957149929469L888.961309090909,46.47048611111109L889.7358545454546,44.46603732638891L891.5431272727272,44.923366122775626L892.3073454545455,38.2890625L892.8237090909091,38.86176215277777L894.3728,43.96684265136719L895.6533818181819,41.77990976969402L897.2024727272728,44.5615937974718L897.7188363636365,44.80447981092664L899.515781818182,44.83420138888891L900.2903272727273,44.05249192979602L900.8066909090909,43.718523661295585L901.0545454545454,44.03811052110461L901.8290909090908,43.90707990858289L903.8945454545454,45.176478915744376L906.2078545454546,43.85243055555554L907.4884363636364,38.94357638888891L908.7793454545455,41.534467061360665L910.0702545454546,43.13847351074219L913.4059636363636,45.160499572753906L913.9223272727272,41.72526041666668L916.4938181818181,43.682090759277344L918.3010909090909,44.109697977701835L919.0756363636364,43.2634319729275L920.3562181818182,44.5615937974718L922.6695272727274,42.231166415744376L922.9277090909092,29.780381944444454L924.4767999999999,42.44976382785375L926.0155636363636,45.16145833333332L926.790109090909,38.49359809027777L927.8228363636364,41.6025390625L928.0810181818182,41.94353824191625L928.3392,42.36347537570531L928.8452363636363,42.92914411756726L929.8779636363637,44.1796875L930.6525090909091,43.99272918701172L930.9106909090909,44.87510850694446L931.9330909090909,44.58556281195746L932.1912727272728,46.63411458333332L932.4494545454546,45.07964409722223L933.7403636363637,44.08604855007594L934.2567272727272,43.67058563232422L936.8282181818181,40.48622216118707L938.6251636363636,43.68880208333332L940.4324363636364,42.561619228786874L941.1966545454545,42.50505235460071L945.8336,42.3251249525282L947.124509090909,42.78149498833551L949.4378181818181,43.62744140625L950.2123636363636,42.37977430555554L950.7184,37.63454861111109L952.5256727272728,40.82530381944446L953.5480727272727,42.29955800374348L953.8062545454545,43.36154513888891L955.8717090909091,41.14361233181422L956.8941090909091,42.87065972222223L957.152290909091,41.07074652777777L957.9268363636364,42.73962910970051L958.4432,42.96429867214625L960.2401454545455,45.81597222222223L961.2728727272727,43.30689578586156L962.3055999999999,42.73962910970051L963.328,38.37087673611109L963.8443636363636,41.6025390625L965.3934545454546,42.31425899929469L969.5037090909091,43.11610243055554L970.2782545454546,44.21228535970051L971.0528,41.6025390625L971.8273454545454,41.77000257703992L972.0751999999999,42.02567206488715L973.366109090909,41.921486748589416L975.4212363636364,38.2890625L976.9703272727272,41.444663153754334L977.7448727272728,41.75785827636719L978.0030545454546,41.93363104926215L980.0581818181819,39.691729227701835L982.1133090909091,39.43446180555554L985.4593454545455,39.72081163194446L987.2666181818181,40.312047322591134L988.8053818181818,42.05251736111109L990.096290909091,42.16692945692273L992.9259636363637,37.96180555555554L994.981090909091,39.139802720811645L995.2392727272728,38.50734032524957L996.5301818181819,40.490696377224374L996.7780363636363,39.8355433146159L997.0362181818181,36.98003472222223L997.5525818181819,39.816368103027344L998.3271272727272,38.77994791666668L998.8434909090909,39.12765842013891L1000.1240727272727,43.36154513888891L1000.3822545454545,43.77061631944446L1002.447709090909,41.496116638183594L1002.705890909091,41.27911716037328L1003.4701090909091,39.025390625L1005.2773818181819,40.88890160454645L1006.0416,40.79366472032336L1006.2997818181818,38.77994791666668L1006.5579636363636,38.12543402777777L1008.8816,39.44948238796656L1009.9040000000001,38.01645490858289L1010.9367272727272,40.042316012912345L1012.7336727272727,39.67990451388891L1012.9918545454545,42.54340277777777L1014.2827636363636,41.234375L1018.1451636363637,39.85088348388672L1018.3930181818182,40.328346252441406L1019.4257454545454,35.99826388888891L1019.9421090909091,37.14366319444446L1021.7390545454545,43.85243055555554L1022.7717818181819,38.8454632229275L1025.085090909091,33.87109375L1025.3432727272727,37.1983125474718L1025.6014545454545,37.43001302083332L1025.8596363636364,38.48528883192273L1026.1178181818182,39.89818233913844L1027.1505454545454,39.40186394585504L1027.6565818181818,39.8355433146159L1028.1729454545455,39.27083333333332L1028.947490909091,41.20177714029949L1029.7220363636363,40.19124348958332L1029.9802181818181,39.59809027777777L1030.7444363636364,39.8218010796441L1033.5844363636363,39.092184278700074L1035.1232,40.6779742770725L1036.6722909090909,40.02953253851996L1038.9856,40.90711805555554L1039.2437818181818,41.379787021213126L1040.5243636363637,44.916015625L1041.298909090909,43.394142998589416L1042.8480000000002,40.25260416666668L1043.8704,40.197954813639335L1044.9031272727273,40.229274325900626L1046.9582545454546,34.03472222222223L1047.7328,36.16189236111109L1049.2715636363637,38.767803615993905L1049.5297454545455,32.3984375L1050.5624727272727,36.78380839029949L1051.5952,37.2165289984809L1052.359418181818,37.549538506401916L1052.6176,33.05295138888891L1053.3921454545455,39.80262586805554L1055.7054545454546,31.416666666666682L1059.051490909091,39.18901909722223L1059.3096727272728,38.01645490858289L1059.5678545454546,39.025390625L1059.8260363636364,38.61631944444446L1060.6005818181818,39.08675130208332L1063.4302545454545,38.77994791666668L1069.6059636363636,37.05002424452039L1070.380509090909,38.81254577636719L1070.8865454545455,38.7952880859375L1071.4029090909091,34.77105034722223L1072.1774545454546,37.30729166666668L1072.6938181818182,35.97493404812281L1073.2101818181818,36.90716891818578L1073.9744,38.493917677137574L1074.2325818181819,39.10720486111109L1078.8695272727273,37.821506924099374L1081.4410181818182,38.2890625L1083.2379636363637,38.94581349690754L1084.270690909091,36.40733506944446L1084.5288727272728,37.47092013888891L1085.8197818181818,38.53450520833332L1086.0779636363636,38.884133232964416L1086.8421818181819,36.81640625L1089.6718545454546,32.72569444444446L1089.9300363636362,36.24370659722223L1093.017890909091,36.080078125L1093.2760727272728,35.88928476969402L1093.7924363636364,36.65277777777777L1094.0506181818182,37.57989925808375L1094.8251636363636,37.74352773030598L1095.0833454545455,37.92920769585504L1095.3415272727273,37.9170633951823L1097.1384727272728,36.48914930555554L1097.6548363636364,36.10053168402777L1098.1712,36.129294501410584L1101.2590545454545,36.78380839029949L1102.0232727272728,35.67100694444446L1102.2814545454546,38.86176215277777L1102.5396363636362,37.9071562025282L1102.797818181818,37.10275607638891L1103.8305454545455,38.71858723958332L1104.605090909091,37.64956919352215L1108.4571636363637,37.552734375L1108.9735272727273,36.20279947916668L1110.5226181818182,38.927277459038635L1111.0286545454546,38.74031914605035L1112.0613818181819,38.6572265625L1113.0941090909091,38.75949435763891L1113.352290909091,38.74351501464844L1117.2043636363635,36.41308763292102L1119.528,37.39805433485242L1120.0443636363636,37.619528028700074L1120.5504,30.76215277777777L1121.3249454545455,36.36642795138891L1121.8413090909091,35.09830729166668L1122.6158545454546,36.034696790907105L1124.9291636363637,36.78924136691625L1125.7037090909091,36.94360182020398L1126.4679272727274,36.87872568766277L1132.1376,36.538365681966134L1133.418181818182,32.343788146972656L1134.9672727272728,33.78033108181422L1135.731490909091,34.86628723144531L1136.7642181818183,36.57096354166668L1138.3133090909091,37.781878153483085L1139.0775272727274,30.76215277777777L1139.593890909091,32.72569444444446L1140.1102545454544,34.493009779188355L1140.8848,35.36420355902777L1141.4011636363637,35.458162095811645L1142.1653818181817,33.38020833333332L1146.5441454545455,35.91644965277777L1146.8023272727273,35.740996466742615L1147.5768727272728,35.13090515136719L1149.632,34.171185811360665L1149.8901818181819,34.268340216742615L1152.203490909091,35.26193576388891L1152.4616727272728,35.441863165961365L1153.7525818181819,35.36004892985027L1154.0107636363637,35.46263631184895L1154.258618181818,35.578326755099845L1155.0331636363635,35.50737847222223L1156.5822545454546,37.30729166666668L1157.8628363636362,33.21657986111109L1158.637381818182,35.40926530626086L1160.6925090909092,44.01605902777777L1161.7252363636364,37.24177636040582L1162.2416,37.35395134819879L1164.5549090909092,33.70746527777777L1165.8458181818182,35.68922339545355L1167.3845818181817,35.12547217475043L1167.6427636363635,35.54828559027777L1168.675490909091,38.77994791666668L1168.9336727272728,38.2708460489909L1170.7306181818183,34.44379340277777L1172.537890909091,35.50737847222223L1174.0766545454546,34.885462443033866L1174.8512,34.89377170138891L1175.3675636363637,34.29646386040582L1175.6257454545455,34.480865478515625L1177.422690909091,34.52560763888891L1178.9614545454547,36.27630445692273L1179.477818181818,32.56206597222223L1179.7359999999999,31.63494449191625L1180.2523636363635,33.11846669514973L1181.285090909091,34.63458675808375L1182.3074909090908,39.92534722222223L1183.5984,35.37091488308375L1184.3729454545455,34.54382408989801L1186.6862545454546,37.63454861111109L1187.2026181818183,36.93912760416668L1188.2250181818183,36.5364481608073L1189.7741090909092,34.06188710530598L1190.5486545454544,34.70745256212024L1192.087418181818,34.74388546413844L1195.1752727272726,35.18012152777777L1196.208,37.44759029812281L1198.0049454545454,32.64388020833332L1198.779490909091,33.609352111816406L1200.8346181818183,33.21657986111109L1201.6091636363637,36.93912760416668L1202.1255272727274,35.398399353027344L1204.1806545454547,28.798611111111093L1204.4388363636363,30.107638888888907L1205.2133818181817,30.816802130805115L1206.7521454545454,32.142128838433166L1208.0430545454544,34.68923611111109L1211.9054545454546,35.69146050347223L1212.1636363636364,35.779986063639335L1214.2187636363637,33.67486741807727L1215.5096727272726,34.03472222222223L1217.0484363636363,35.09830729166668L1217.5647999999999,34.33481428358289L1217.8229818181817,34.40863884819879L1219.3617454545454,33.70746527777777L1221.9435636363637,34.793421427408866L1222.7077818181817,27.325954861111093L1223.2241454545454,29.0849609375L1223.4823272727274,30.893183390299495L1223.7405090909092,30.816802130805115L1224.7732363636364,32.54576704237195L1227.3447272727274,34.58696831597223L1227.6029090909092,34.2530000474718L1228.1192727272726,33.64802212185328L1230.6907636363635,32.453086853027344L1230.9489454545453,32.56206597222223L1235.3173818181817,37.68919796413844L1237.1246545454546,35.99826388888891L1238.1470545454545,31.907552083333318L1240.4706909090908,31.10443030463324L1241.7512727272729,31.416666666666682L1243.0421818181817,32.834673563639335L1244.5809454545454,33.762114630805115L1246.8942545454545,31.498800489637578L1247.9269818181817,34.2392578125L1248.9597090909092,32.70524088541668L1249.7342545454546,31.163873460557735L1251.2730181818183,36.09637705485027L1252.5639272727274,32.98743608262805L1254.102690909091,34.28016493055554L1255.3935999999999,33.307342529296875L1256.1578181818181,34.31883494059246L1256.416,28.962239583333318L1258.2232727272726,34.66878255208332L1259.7620363636363,36.24370659722223L1260.2784,33.95290798611109L1262.3335272727272,31.950696309407537L1263.3662545454545,34.19835069444446L1264.1408000000001,33.38020833333332L1264.9153454545456,33.412806193033866L1265.1735272727274,33.58857896592883L1267.2286545454544,30.411565992567265L1267.745018181818,29.307712978786874L1270.5746909090908,30.966688368055546L1272.629818181818,36.24370659722223L1274.1789090909092,33.232878790961365L1275.4594909090908,28.41670481363934L1276.4922181818183,31.019420199924063L1278.5473454545456,30.325916714138437L1280.354618181818,30.99129655626086L1284.4648727272727,27.735026041666682L1286.0139636363635,30.803059895833318L1287.0363636363636,31.54002719455297L1290.8987636363636,28.14409722222223L1292.4478545454544,30.525658501519104L1293.2120727272727,31.074389139811213L1293.7284363636363,33.21657986111109L1295.2775272727272,33.31884765625L1295.535709090909,32.65282864040797L1296.2999272727272,32.75829230414496L1297.3326545454545,28.14409722222223L1298.3653818181817,30.271267361111093L1298.6235636363635,31.36201731363934L1298.8817454545456,31.05681186252172L1299.3877818181818,31.430408901638437L1300.9368727272727,29.91684553358289L1302.7338181818182,31.743923611111093L1303.2501818181818,36.380170186360665L1303.7665454545456,34.721833970811645L1304.7992727272726,34.652803209092895L1305.563490909091,33.90816582573785L1305.8216727272727,29.780381944444454L1306.3380363636363,29.61675347222223L1308.4034909090908,32.14564429389105L1310.458618181818,29.26616668701172L1310.9749818181817,30.25305091010199L1314.5792000000001,32.16034528944226L1315.3434181818182,23.889756944444454L1316.1179636363636,28.99483744303387L1316.6343272727274,30.154298570421016L1318.6894545454545,30.707503424750428L1319.7221818181818,28.658312479654963L1320.4967272727272,31.171223958333318L1322.0354909090909,31.048502604166682L1324.3488,33.05295138888891L1325.639709090909,31.580295138888907L1325.8978909090908,31.46332634819879L1326.9306181818183,30.955502827962224L1327.9530181818182,29.344145880805115L1328.2112,30.92578125L1328.4693818181818,31.449264526367188L1328.9857454545456,31.04275004069012L1330.2663272727273,30.7458538479275L1330.524509090909,31.743923611111093L1330.782690909091,29.698567708333318L1333.1063272727272,31.23801761203344L1335.1614545454545,31.11273956298828L1336.1941818181817,30.955502827962224L1336.7002181818182,29.780381944444454L1338.249309090909,31.253038194444454L1340.3044363636363,35.34375L1340.5626181818182,34.40288628472223L1342.1117090909092,34.558205498589416L1342.8759272727273,34.36197916666668L1344.9413818181818,31.43488311767578L1345.1995636363636,31.678408304850276L1346.4801454545454,30.65317365858289L1347.2546909090909,30.92578125L1347.5128727272727,31.2297083536784L1348.287418181818,31.171223958333318L1349.0516363636364,34.85286458333332L1349.8261818181818,31.621202256944454L1352.9140363636363,28.634982638888907L1353.9467636363636,30.57807074652777L1355.743709090909,30.76215277777777L1357.2928,30.380246480305974L1358.0570181818182,30.307700263129334L1358.3152,23.235243055555546L1358.5733818181818,26.67144097222223L1359.3479272727272,27.653211805555546L1359.606109090909,29.15303293863934L1361.4030545454546,29.780381944444454L1361.9194181818182,27.325954861111093L1362.4357818181818,27.293357001410584L1363.9848727272727,29.944010416666682L1364.2327272727273,29.883608500162776" style="fill: none;" fill="none"></path></g></g></g></g></g></g><g transform="translate(30, 377)" clip-path="url(#clip_1)"><clipPath id="clip_1"><rect width="1420" height="23"></rect></clipPath><g><g><line x1="0" y1="0" x2="0" y2="5" style="visibility: inherit;" fill="rgb(0, 0, 0)" stroke="rgb(204, 204, 204)" stroke-width="1px"></line><line x1="129.0909090909091" y1="0" x2="129.0909090909091" y2="5" style="visibility: inherit;" fill="rgb(0, 0, 0)" stroke="rgb(204, 204, 204)" stroke-width="1px"></line><line x1="258.1818181818182" y1="0" x2="258.1818181818182" y2="5" style="visibility: inherit;" fill="rgb(0, 0, 0)" stroke="rgb(204, 204, 204)" stroke-width="1px"></line><line x1="387.27272727272725" y1="0" x2="387.27272727272725" y2="5" style="visibility: inherit;" fill="rgb(0, 0, 0)" stroke="rgb(204, 204, 204)" stroke-width="1px"></line><line x1="516.3636363636364" y1="0" x2="516.3636363636364" y2="5" style="visibility: inherit;" fill="rgb(0, 0, 0)" stroke="rgb(204, 204, 204)" stroke-width="1px"></line><line x1="645.4545454545454" y1="0" x2="645.4545454545454" y2="5" style="visibility: inherit;" fill="rgb(0, 0, 0)" stroke="rgb(204, 204, 204)" stroke-width="1px"></line><line x1="774.5454545454545" y1="0" x2="774.5454545454545" y2="5" style="visibility: inherit;" fill="rgb(0, 0, 0)" stroke="rgb(204, 204, 204)" stroke-width="1px"></line><line x1="903.6363636363636" y1="0" x2="903.6363636363636" y2="5" style="visibility: inherit;" fill="rgb(0, 0, 0)" stroke="rgb(204, 204, 204)" stroke-width="1px"></line><line x1="1032.7272727272727" y1="0" x2="1032.7272727272727" y2="5" style="visibility: inherit;" fill="rgb(0, 0, 0)" stroke="rgb(204, 204, 204)" stroke-width="1px"></line><line x1="1161.818181818182" y1="0" x2="1161.818181818182" y2="5" style="visibility: inherit;" fill="rgb(0, 0, 0)" stroke="rgb(204, 204, 204)" stroke-width="1px"></line><line x1="1290.9090909090908" y1="0" x2="1290.9090909090908" y2="5" style="visibility: inherit;" fill="rgb(0, 0, 0)" stroke="rgb(204, 204, 204)" stroke-width="1px"></line><line x1="1420" y1="0" x2="1420" y2="5" style="visibility: inherit;" fill="rgb(0, 0, 0)" stroke="rgb(204, 204, 204)" stroke-width="1px"></line></g><g transform="translate(0, 8)"><text x="0" y="0" dx="0em" dy="0.95em" style="text-anchor: middle; visibility: hidden; font-family: Roboto, sans-serif; font-size: 12px; font-weight: 200;" fill="rgb(33, 33, 33)" stroke="none" stroke-width="1px">-50k</text><text x="129.0909090909091" y="0" dx="0em" dy="0.95em" style="text-anchor: middle; visibility: inherit; font-family: Roboto, sans-serif; font-size: 12px; font-weight: 200;" fill="rgb(33, 33, 33)" stroke="none" stroke-width="1px">0</text><text x="258.1818181818182" y="0" dx="0em" dy="0.95em" style="text-anchor: middle; visibility: inherit; font-family: Roboto, sans-serif; font-size: 12px; font-weight: 200;" fill="rgb(33, 33, 33)" stroke="none" stroke-width="1px">50k</text><text x="387.27272727272725" y="0" dx="0em" dy="0.95em" style="text-anchor: middle; visibility: inherit; font-family: Roboto, sans-serif; font-size: 12px; font-weight: 200;" fill="rgb(33, 33, 33)" stroke="none" stroke-width="1px">100k</text><text x="516.3636363636364" y="0" dx="0em" dy="0.95em" style="text-anchor: middle; visibility: inherit; font-family: Roboto, sans-serif; font-size: 12px; font-weight: 200;" fill="rgb(33, 33, 33)" stroke="none" stroke-width="1px">150k</text><text x="645.4545454545454" y="0" dx="0em" dy="0.95em" style="text-anchor: middle; visibility: inherit; font-family: Roboto, sans-serif; font-size: 12px; font-weight: 200;" fill="rgb(33, 33, 33)" stroke="none" stroke-width="1px">200k</text><text x="774.5454545454545" y="0" dx="0em" dy="0.95em" style="text-anchor: middle; visibility: inherit; font-family: Roboto, sans-serif; font-size: 12px; font-weight: 200;" fill="rgb(33, 33, 33)" stroke="none" stroke-width="1px">250k</text><text x="903.6363636363636" y="0" dx="0em" dy="0.95em" style="text-anchor: middle; visibility: inherit; font-family: Roboto, sans-serif; font-size: 12px; font-weight: 200;" fill="rgb(33, 33, 33)" stroke="none" stroke-width="1px">300k</text><text x="1032.7272727272727" y="0" dx="0em" dy="0.95em" style="text-anchor: middle; visibility: inherit; font-family: Roboto, sans-serif; font-size: 12px; font-weight: 200;" fill="rgb(33, 33, 33)" stroke="none" stroke-width="1px">350k</text><text x="1161.818181818182" y="0" dx="0em" dy="0.95em" style="text-anchor: middle; visibility: inherit; font-family: Roboto, sans-serif; font-size: 12px; font-weight: 200;" fill="rgb(33, 33, 33)" stroke="none" stroke-width="1px">400k</text><text x="1290.9090909090908" y="0" dx="0em" dy="0.95em" style="text-anchor: middle; visibility: inherit; font-family: Roboto, sans-serif; font-size: 12px; font-weight: 200;" fill="rgb(33, 33, 33)" stroke="none" stroke-width="1px">450k</text><text x="1420" y="0" dx="0em" dy="0.95em" style="text-anchor: middle; visibility: hidden; font-family: Roboto, sans-serif; font-size: 12px; font-weight: 200;" fill="rgb(33, 33, 33)" stroke="none" stroke-width="1px">500k</text></g><line x1="0" y1="0" x2="1420" y2="0" fill="rgb(0, 0, 0)" stroke="rgb(204, 204, 204)" stroke-width="1px"></line></g></g></g></g></svg>