<svg viewBox="0 0 1450 400" xmlns="http://www.w3.org/2000/svg"><g><g><g><g><g><line x1="70" y1="377" x2="65" y2="377" style="visibility: inherit;" fill="rgb(0, 0, 0)" stroke="rgb(204, 204, 204)" stroke-width="1px"></line><line x1="70" y1="342.7272727272727" x2="65" y2="342.7272727272727" style="visibility: inherit;" fill="rgb(0, 0, 0)" stroke="rgb(204, 204, 204)" stroke-width="1px"></line><line x1="70" y1="308.45454545454544" x2="65" y2="308.45454545454544" style="visibility: inherit;" fill="rgb(0, 0, 0)" stroke="rgb(204, 204, 204)" stroke-width="1px"></line><line x1="70" y1="274.1818181818182" x2="65" y2="274.1818181818182" style="visibility: inherit;" fill="rgb(0, 0, 0)" stroke="rgb(204, 204, 204)" stroke-width="1px"></line><line x1="70" y1="239.9090909090909" x2="65" y2="239.9090909090909" style="visibility: inherit;" fill="rgb(0, 0, 0)" stroke="rgb(204, 204, 204)" stroke-width="1px"></line><line x1="70" y1="205.63636363636363" x2="65" y2="205.63636363636363" style="visibility: inherit;" fill="rgb(0, 0, 0)" stroke="rgb(204, 204, 204)" stroke-width="1px"></line><line x1="70" y1="171.36363636363637" x2="65" y2="171.36363636363637" style="visibility: inherit;" fill="rgb(0, 0, 0)" stroke="rgb(204, 204, 204)" stroke-width="1px"></line><line x1="70" y1="137.0909090909091" x2="65" y2="137.0909090909091" style="visibility: inherit;" fill="rgb(0, 0, 0)" stroke="rgb(204, 204, 204)" stroke-width="1px"></line><line x1="70" y1="102.81818181818181" x2="65" y2="102.81818181818181" style="visibility: inherit;" fill="rgb(0, 0, 0)" stroke="rgb(204, 204, 204)" stroke-width="1px"></line><line x1="70" y1="68.54545454545458" x2="65" y2="68.54545454545458" style="visibility: inherit;" fill="rgb(0, 0, 0)" stroke="rgb(204, 204, 204)" stroke-width="1px"></line><line x1="70" y1="34.27272727272729" x2="65" y2="34.27272727272729" style="visibility: inherit;" fill="rgb(0, 0, 0)" stroke="rgb(204, 204, 204)" stroke-width="1px"></line><line x1="70" y1="0" x2="65" y2="0" style="visibility: inherit;" fill="rgb(0, 0, 0)" stroke="rgb(204, 204, 204)" stroke-width="1px"></line></g><g transform="translate(60, 0)"><text x="0" y="377" dx="0em" dy="0.3em" style="text-anchor: end; visibility: hidden; font-family: Roboto, sans-serif; font-size: 12px; font-weight: 200;" fill="rgb(33, 33, 33)" stroke="none" stroke-width="1px">0</text><text x="0" y="342.7272727272727" dx="0em" dy="0.3em" style="text-anchor: end; visibility: inherit; font-family: Roboto, sans-serif; font-size: 12px; font-weight: 200;" fill="rgb(33, 33, 33)" stroke="none" stroke-width="1px">1e-4</text><text x="0" y="308.45454545454544" dx="0em" dy="0.3em" style="text-anchor: end; visibility: inherit; font-family: Roboto, sans-serif; font-size: 12px; font-weight: 200;" fill="rgb(33, 33, 33)" stroke="none" stroke-width="1px">2e-4</text><text x="0" y="274.1818181818182" dx="0em" dy="0.3em" style="text-anchor: end; visibility: inherit; font-family: Roboto, sans-serif; font-size: 12px; font-weight: 200;" fill="rgb(33, 33, 33)" stroke="none" stroke-width="1px">3e-4</text><text x="0" y="239.9090909090909" dx="0em" dy="0.3em" style="text-anchor: end; visibility: inherit; font-family: Roboto, sans-serif; font-size: 12px; font-weight: 200;" fill="rgb(33, 33, 33)" stroke="none" stroke-width="1px">4e-4</text><text x="0" y="205.63636363636363" dx="0em" dy="0.3em" style="text-anchor: end; visibility: inherit; font-family: Roboto, sans-serif; font-size: 12px; font-weight: 200;" fill="rgb(33, 33, 33)" stroke="none" stroke-width="1px">5e-4</text><text x="0" y="171.36363636363637" dx="0em" dy="0.3em" style="text-anchor: end; visibility: inherit; font-family: Roboto, sans-serif; font-size: 12px; font-weight: 200;" fill="rgb(33, 33, 33)" stroke="none" stroke-width="1px">6e-4</text><text x="0" y="137.0909090909091" dx="0em" dy="0.3em" style="text-anchor: end; visibility: inherit; font-family: Roboto, sans-serif; font-size: 12px; font-weight: 200;" fill="rgb(33, 33, 33)" stroke="none" stroke-width="1px">7e-4</text><text x="0" y="102.81818181818181" dx="0em" dy="0.3em" style="text-anchor: end; visibility: inherit; font-family: Roboto, sans-serif; font-size: 12px; font-weight: 200;" fill="rgb(33, 33, 33)" stroke="none" stroke-width="1px">8e-4</text><text x="0" y="68.54545454545458" dx="0em" dy="0.3em" style="text-anchor: end; visibility: inherit; font-family: Roboto, sans-serif; font-size: 12px; font-weight: 200;" fill="rgb(33, 33, 33)" stroke="none" stroke-width="1px">9e-4</text><text x="0" y="34.27272727272729" dx="0em" dy="0.3em" style="text-anchor: end; visibility: inherit; font-family: Roboto, sans-serif; font-size: 12px; font-weight: 200;" fill="rgb(33, 33, 33)" stroke="none" stroke-width="1px">1e-3</text><text x="0" y="0" dx="0em" dy="0.3em" style="text-anchor: end; visibility: hidden; font-family: Roboto, sans-serif; font-size: 12px; font-weight: 200;" fill="rgb(33, 33, 33)" stroke="none" stroke-width="1px">1.1e-3</text></g><line x1="70" y1="0" x2="70" y2="377" fill="rgb(0, 0, 0)" stroke="rgb(204, 204, 204)" stroke-width="1px"></line></g></g><g transform="translate(70, 0)" clip-path="url(#clip_0)"><clipPath id="clip_0"><rect width="1380" height="377"></rect></clipPath><g><g><g><line x1="0" y1="0" x2="0" y2="377" fill="rgb(0, 0, 0)" stroke="rgb(66, 66, 66)" stroke-width="1px" opacity="0.25"></line><line x1="125.45454545454545" y1="0" x2="125.45454545454545" y2="377" fill="rgb(0, 0, 0)" stroke="rgb(66, 66, 66)" stroke-width="1px" opacity="0.25"></line><line x1="250.9090909090909" y1="0" x2="250.9090909090909" y2="377" fill="rgb(0, 0, 0)" stroke="rgb(66, 66, 66)" stroke-width="1px" opacity="0.25"></line><line x1="376.3636363636363" y1="0" x2="376.3636363636363" y2="377" fill="rgb(0, 0, 0)" stroke="rgb(66, 66, 66)" stroke-width="1px" opacity="0.25"></line><line x1="501.8181818181818" y1="0" x2="501.8181818181818" y2="377" fill="rgb(0, 0, 0)" stroke="rgb(66, 66, 66)" stroke-width="1px" opacity="0.25"></line><line x1="627.2727272727273" y1="0" x2="627.2727272727273" y2="377" fill="rgb(0, 0, 0)" stroke="rgb(66, 66, 66)" stroke-width="1px" opacity="0.25"></line><line x1="752.7272727272726" y1="0" x2="752.7272727272726" y2="377" fill="rgb(0, 0, 0)" stroke="rgb(66, 66, 66)" stroke-width="1px" opacity="0.25"></line><line x1="878.1818181818181" y1="0" x2="878.1818181818181" y2="377" fill="rgb(0, 0, 0)" stroke="rgb(66, 66, 66)" stroke-width="1px" opacity="0.25"></line><line x1="1003.6363636363636" y1="0" x2="1003.6363636363636" y2="377" fill="rgb(0, 0, 0)" stroke="rgb(66, 66, 66)" stroke-width="1px" opacity="0.25"></line><line x1="1129.0909090909092" y1="0" x2="1129.0909090909092" y2="377" fill="rgb(0, 0, 0)" stroke="rgb(66, 66, 66)" stroke-width="1px" opacity="0.25"></line><line x1="1254.5454545454545" y1="0" x2="1254.5454545454545" y2="377" fill="rgb(0, 0, 0)" stroke="rgb(66, 66, 66)" stroke-width="1px" opacity="0.25"></line><line x1="1380" y1="0" x2="1380" y2="377" fill="rgb(0, 0, 0)" stroke="rgb(66, 66, 66)" stroke-width="1px" opacity="0.25"></line></g><g><line x1="0" y1="377" x2="1380" y2="377" fill="rgb(0, 0, 0)" stroke="rgb(66, 66, 66)" stroke-width="1px" opacity="0.25"></line><line x1="0" y1="342.7272727272727" x2="1380" y2="342.7272727272727" fill="rgb(0, 0, 0)" stroke="rgb(66, 66, 66)" stroke-width="1px" opacity="0.25"></line><line x1="0" y1="308.45454545454544" x2="1380" y2="308.45454545454544" fill="rgb(0, 0, 0)" stroke="rgb(66, 66, 66)" stroke-width="1px" opacity="0.25"></line><line x1="0" y1="274.1818181818182" x2="1380" y2="274.1818181818182" fill="rgb(0, 0, 0)" stroke="rgb(66, 66, 66)" stroke-width="1px" opacity="0.25"></line><line x1="0" y1="239.9090909090909" x2="1380" y2="239.9090909090909" fill="rgb(0, 0, 0)" stroke="rgb(66, 66, 66)" stroke-width="1px" opacity="0.25"></line><line x1="0" y1="205.63636363636363" x2="1380" y2="205.63636363636363" fill="rgb(0, 0, 0)" stroke="rgb(66, 66, 66)" stroke-width="1px" opacity="0.25"></line><line x1="0" y1="171.36363636363637" x2="1380" y2="171.36363636363637" fill="rgb(0, 0, 0)" stroke="rgb(66, 66, 66)" stroke-width="1px" opacity="0.25"></line><line x1="0" y1="137.0909090909091" x2="1380" y2="137.0909090909091" fill="rgb(0, 0, 0)" stroke="rgb(66, 66, 66)" stroke-width="1px" opacity="0.25"></line><line x1="0" y1="102.81818181818181" x2="1380" y2="102.81818181818181" fill="rgb(0, 0, 0)" stroke="rgb(66, 66, 66)" stroke-width="1px" opacity="0.25"></line><line x1="0" y1="68.54545454545458" x2="1380" y2="68.54545454545458" fill="rgb(0, 0, 0)" stroke="rgb(66, 66, 66)" stroke-width="1px" opacity="0.25"></line><line x1="0" y1="34.27272727272729" x2="1380" y2="34.27272727272729" fill="rgb(0, 0, 0)" stroke="rgb(66, 66, 66)" stroke-width="1px" opacity="0.25"></line><line x1="0" y1="0" x2="1380" y2="0" fill="rgb(0, 0, 0)" stroke="rgb(66, 66, 66)" stroke-width="1px" opacity="0.25"></line></g></g></g><g><g><line x1="0" y1="377" x2="1380" y2="377" fill="rgb(0, 0, 0)" stroke="rgb(153, 153, 153)" stroke-width="1.5px"></line></g></g><g><g><line x1="125.45454545454545" y1="0" x2="125.45454545454545" y2="377" fill="rgb(0, 0, 0)" stroke="rgb(153, 153, 153)" stroke-width="1.5px"></line></g></g><g><g><g><g><g><path stroke="rgb(255, 112, 67)" stroke-width="2px" d="M126.7090909090909,34.27271099405533L129.20814545454544,34.27271099405533L129.45905454545456,34.27271099405533L130.21178181818183,34.27271099405533L130.4626909090909,34.27271099405533L132.20901818181818,34.27271099405533L132.45992727272727,34.27271099405533L135.7117090909091,34.27271099405533L137.45803636363635,34.27271099405533L137.70894545454544,34.27271099405533L137.95985454545456,34.27271099405533L139.21439999999998,34.27271099405533L141.21163636363636,34.27271099405533L141.46254545454545,34.27271099405533L142.21527272727272,34.27271099405533L142.4661818181818,34.27271099405533L143.21890909090908,34.27271099405533L143.45978181818182,34.27271099405533L144.96523636363636,34.27271099405533L146.21978181818181,34.27271099405533L147.9661090909091,34.27271099405533L150.46516363636363,34.27271099405533L151.4688,34.27271099405533L152.4624,34.27271099405533L155.96509090909092,34.27271099405533L156.96872727272728,34.27271099405533L157.21963636363637,34.27271099405533L157.72145454545455,34.27271099405533L158.22327272727273,34.27271099405533L159.71869090909092,34.27271099405533L161.71592727272727,34.27271099405533L162.21774545454545,34.27271099405533L162.46865454545454,34.27271099405533L163.2213818181818,34.27271099405533L164.9677090909091,34.27271099405533L165.72043636363637,34.27271099405533L166.22225454545455,34.27271099405533L166.72407272727273,34.27271099405533L168.47039999999998,34.27271099405533L168.7213090909091,34.27271099405533L169.97585454545455,34.27271099405533L171.7221818181818,34.27271099405533L171.97309090909093,34.27271099405533L172.224,34.27271099405533L173.4685090909091,34.27271099405533L173.71941818181818,34.27271099405533L176.46938181818183,34.27271099405533L176.97119999999998,34.27271099405533L178.47665454545452,34.27271099405533L178.97847272727273,34.27271099405533L179.47025454545454,34.27271099405533L181.72843636363638,34.27271099405533L182.97294545454545,34.27271099405533L186.72654545454546,34.27271099405533L186.97745454545452,34.27271099405533L190.22923636363637,34.27271099405533L190.48014545454546,34.27271099405533L190.73105454545453,34.27271099405533L193.48101818181817,34.27271099405533L194.23374545454544,34.27271099405533L195.22734545454546,34.27271099405533L196.23098181818185,34.27271099405533L196.98370909090912,34.27271099405533L197.72639999999998,34.27271099405533L198.2282181818182,34.27271099405533L199.48276363636364,34.27271099405533L199.98458181818182,34.27271099405533L200.2354909090909,34.27271099405533L202.73454545454544,34.27271099405533L203.72814545454546,34.27271099405533L204.73178181818184,34.27271099405533L205.2336,34.27271099405533L205.4845090909091,34.27271099405533L206.23723636363638,34.27271099405533L209.9808,34.27271099405533L211.9880727272727,34.27271099405533L212.23898181818183,34.27271099405533L215.23985454545456,34.27271099405533L216.73527272727273,34.27271099405533L216.98618181818182,34.27271099405533L217.2370909090909,34.27271099405533L220.23796363636365,34.27271099405533L222.2352,34.27271099405533L223.23883636363638,34.27271099405533L223.74065454545456,34.27271099405533L224.98516363636364,34.27271099405533L226.2397090909091,34.27271099405533L226.74152727272727,34.27271099405533L229.4914909090909,34.27271099405533L230.9869090909091,34.27271099405533L231.23781818181817,34.27271099405533L234.7405090909091,34.27271099405533L234.99141818181818,34.27271099405533L235.49323636363636,34.27271099405533L236.48683636363637,34.27271099405533L236.73774545454543,34.27271099405533L237.23956363636364,34.27271099405533L238.74501818181818,34.27271099405533L239.73861818181817,34.27271099405533L240.99316363636365,34.27271099405533L241.99679999999998,34.27271099405533L242.7394909090909,34.27271099405533L243.24130909090908,34.27271099405533L244.24494545454544,34.27271099405533L244.49585454545456,34.27271099405533L245.74036363636364,34.27271099405533L245.9912727272727,34.27271099405533L247.4967272727273,34.27271099405533L247.99854545454545,34.27271099405533L249.24305454545456,34.27271099405533L253.24756363636362,34.27271099405533L253.74938181818183,34.27271099405533L254.0002909090909,34.27271099405533L254.25119999999998,34.27271099405533L254.9938909090909,34.27271099405533L255.4957090909091,34.27271099405533L258.9984,34.27271099405533L259.2493090909091,34.27271099405533L259.7511272727273,34.27271099405533L260.25294545454545,34.27271099405533L260.7447272727273,34.27271099405533L261.74836363636365,34.27271099405533L262.25018181818183,34.27271099405533L263.2538181818182,34.27271099405533L263.7456,34.27271099405533L264.7492363636364,34.27271099405533L266.2546909090909,34.27271099405533L266.7464727272727,34.27271099405533L267.7501090909091,34.27271099405533L271.75461818181816,34.27271099405533L272.0055272727273,34.27271099405533L272.7482181818182,34.27271099405533L273.25003636363635,34.27271099405533L273.50094545454544,34.27271099405533L274.2536727272727,34.27271099405533L274.7554909090909,34.27271099405533L277.75636363636363,34.27271099405533L279.00087272727274,34.27271099405533L279.2517818181818,34.27271099405533L281.25905454545455,34.27271099405533L281.4999272727273,34.27271099405533L282.75447272727274,34.27271099405533L283.00538181818183,34.27271099405533L284.0090181818182,34.27271099405533L285.00261818181815,34.27271099405533L286.50807272727275,34.27271099405533L286.75898181818184,34.27271099405533L288.0034909090909,34.27271099405533L288.50530909090907,34.27271099405533L290.2616727272727,34.27271099405533L290.75345454545453,34.27271099405533L292.50981818181816,34.27271099405533L294.50705454545454,34.27271099405533L294.7579636363636,34.27271099405533L295.7616,34.27271099405533L296.7552,34.27271099405533L298.7624727272727,34.27271099405533L299.2642909090909,34.27271099405533L303.25876363636365,34.27271099405533L306.0087272727273,34.27271099405533L306.5105454545455,34.27271099405533L307.0123636363636,34.27271099405533L307.26327272727275,34.27271099405533L307.7650909090909,34.27271099405533L308.016,34.27271099405533L308.5077818181818,34.27271099405533L308.7586909090909,34.27271099405533L309.00960000000003,34.27271099405533L310.2641454545455,34.27271099405533L311.7595636363636,34.27271099405533L316.7677090909091,34.27271099405533L317.01861818181817,34.27271099405533L318.76494545454545,34.27271099405533L319.5176727272727,34.27271099405533L319.7685818181818,34.27271099405533L320.2704,34.27271099405533L320.76218181818183,34.27271099405533L321.264,34.27271099405533L322.76945454545455,34.27271099405533L326.7639272727273,34.27271099405533L327.01483636363633,34.27271099405533L327.51665454545457,34.27271099405533L328.26938181818184,34.27271099405533L330.2666181818182,34.27271099405533L330.51752727272725,34.27271099405533L332.7656727272727,34.27271099405533L333.7693090909091,34.27271099405533L334.52203636363635,34.27271099405533L334.7729454545455,34.27271099405533L335.76654545454545,34.27271099405533L336.5192727272727,34.27271099405533L337.0210909090909,34.27271099405533L340.02196363636364,34.27271099405533L340.7746909090909,34.27271099405533L341.2765090909091,34.27271099405533L342.2701090909091,34.27271099405533L343.52465454545455,34.27271099405533L346.7764363636364,34.27271099405533L347.27825454545456,34.27271099405533L348.7736727272727,34.27271099405533L349.5264,34.27271099405533L350.02821818181815,34.27271099405533L351.02181818181816,34.27271099405533L351.27272727272725,34.27271099405533L352.77818181818185,34.27271099405533L357.7762909090909,34.27271099405533L358.2781090909091,34.27271099405533L358.77992727272726,34.27271099405533L361.2789818181819,34.27271099405533L363.0253090909091,34.27271099405533L364.53076363636364,34.27271099405533L366.528,34.27271099405533L370.53250909090906,34.27271099405533L371.2852363636364,34.27271099405533L372.2788363636364,34.27271099405533L373.78429090909094,34.27271099405533L374.28610909090906,34.27271099405533L375.53061818181817,34.27271099405533L376.28334545454544,34.27271099405533L376.53425454545453,34.27271099405533L376.7851636363636,34.27271099405533L379.5351272727273,34.27271099405533L381.28145454545455,34.27271099405533L382.2850909090909,34.27271099405533L382.7869090909091,34.27271099405533L384.78414545454547,34.27271099405533L385.03505454545456,34.27271099405533L389.7822545454545,34.27271099405533L390.78589090909094,34.27271099405533L393.28494545454544,34.27271099405533L393.5358545454545,34.27271099405533L394.0376727272727,34.27271099405533L395.04130909090907,34.27271099405533L397.28945454545453,34.27271099405533L400.2903272727273,34.27271099405533L401.2939636363636,34.27271099405533L401.78574545454546,34.27271099405533L402.5384727272727,34.27271099405533L403.0402909090909,34.27271099405533L403.5421090909091,34.27271099405533L406.0411636363636,34.27271099405533L406.2920727272727,34.27271099405533L407.0448,34.27271099405533L407.2957090909091,34.27271099405533L408.0384,34.27271099405533L408.7911272727273,34.27271099405533L409.2929454545455,34.27271099405533L410.5374545454545,34.27271099405533L412.29381818181815,34.27271099405533L413.5383272727273,34.27271099405533L413.7892363636364,34.27271099405533L416.2983272727273,34.27271099405533L416.7901090909091,34.27271099405533L419.2992,34.27271099405533L419.7909818181818,34.27271099405533L420.0418909090909,34.27271099405533L421.79825454545454,34.27271099405533L423.0427636363636,34.27271099405533L424.0464,34.27271099405533L424.2973090909091,34.27271099405533L427.29818181818183,205.63635549702767L429.29541818181815,205.63635549702767L430.2990545454545,205.63635549702767L431.5435636363636,205.63635549702767L432.04538181818185,205.63635549702767L433.04901818181816,205.63635549702767L436.80261818181816,205.63635549702767L437.3044363636364,205.63635549702767L438.29803636363636,205.63635549702767L438.54894545454545,205.63635549702767L438.79985454545454,205.63635549702767L439.3016727272728,205.63635549702767L440.0544,205.63635549702767L441.048,205.63635549702767L442.55345454545454,205.63635549702767L443.54705454545456,205.63635549702767L444.8016,205.63635549702767L446.30705454545455,205.63635549702767L447.0497454545455,205.63635549702767L448.3042909090909,205.63635549702767L449.05701818181814,205.63635549702767L450.3015272727273,205.63635549702767L450.5524363636364,205.63635549702767L451.3051636363636,205.63635549702767L452.3088,205.63635549702767L454.5569454545454,205.63635549702767L456.30327272727277,205.63635549702767L457.056,205.63635549702767L457.3069090909091,205.63635549702767L459.55505454545454,205.63635549702767L462.0541090909091,205.63635549702767L462.80683636363636,205.63635549702767L464.3122909090909,205.63635549702767L465.80770909090904,205.63635549702767L466.81134545454546,205.63635549702767L469.56130909090905,205.63635549702767L469.81221818181814,205.63635549702767L470.8058181818182,205.63635549702767L472.31127272727275,205.63635549702767L473.31490909090905,205.63635549702767L474.0576,205.63635549702767L480.05934545454545,205.63635549702767L483.56203636363637,205.63635549702767L484.8165818181818,205.63635549702767L485.3184,205.63635549702767L485.55927272727274,205.63635549702767L485.81018181818183,205.63635549702767L486.0610909090909,205.63635549702767L488.0683636363636,205.63635549702767L490.06559999999996,205.63635549702767L490.31650909090905,205.63635549702767L490.8183272727273,205.63635549702767L491.0692363636364,205.63635549702767L494.3210181818182,205.63635549702767L494.8128,205.63635549702767L497.5627636363636,205.63635549702767L498.3154909090909,205.63635549702767L499.3191272727273,205.63635549702767L500.3227636363636,205.63635549702767L501.3163636363636,205.63635549702767L503.0727272727273,205.63635549702767L503.32363636363635,205.63635549702767L503.56450909090904,205.63635549702767L504.0663272727273,205.63635549702767L504.81905454545455,205.63635549702767L507.8199272727273,205.63635549702767L509.3253818181818,205.63635549702767L510.06807272727275,205.63635549702767L510.31898181818184,205.63635549702767L512.8180363636363,205.63635549702767L513.5707636363636,205.63635549702767L516.3207272727273,205.63635549702767L517.0734545454545,205.63635549702767L517.8261818181818,205.63635549702767L519.0706909090909,205.63635549702767L519.8234181818182,205.63635549702767L522.0715636363636,205.63635549702767L524.8215272727273,205.63635549702767L526.0760727272727,205.63635549702767L526.5778909090909,205.63635549702767L532.5796363636364,205.63635549702767L534.5768727272728,205.63635549702767L535.0786909090909,205.63635549702767L535.8314181818182,205.63635549702767L537.3268363636364,205.63635549702767L537.5777454545455,205.63635549702767L539.334109090909,205.63635549702767L541.3313454545455,205.63635549702767L542.3349818181819,205.63635549702767L543.3285818181819,205.63635549702767L544.3322181818182,205.63635549702767L545.0849454545454,205.63635549702767L545.5767272727273,205.63635549702767L547.0821818181819,291.31817774851385L547.584,291.31817774851385L549.3303272727272,291.31817774851385L551.3376,291.31817774851385L551.8293818181818,291.31817774851385L552.5821090909091,291.31817774851385L553.0839272727272,291.31817774851385L553.3348363636363,291.31817774851385L553.5857454545454,291.31817774851385L555.3320727272727,291.31817774851385L556.3357090909091,291.31817774851385L556.5866181818183,291.31817774851385L558.3329454545454,291.31817774851385L560.3402181818182,291.31817774851385L560.5810909090909,291.31817774851385L561.5847272727273,291.31817774851385L562.0865454545454,291.31817774851385L564.3346909090909,291.31817774851385L567.0846545454546,291.31817774851385L569.583709090909,291.31817774851385L570.0855272727273,291.31817774851385L571.8418909090909,291.31817774851385L572.0928,291.31817774851385L573.0864,291.31817774851385L573.8391272727273,291.31817774851385L574.8427636363637,291.31817774851385L575.8363636363637,291.31817774851385L580.5935999999999,291.31817774851385L581.5871999999999,291.31817774851385L582.5908363636364,291.31817774851385L583.3435636363637,291.31817774851385L584.8389818181818,291.31817774851385L585.3408,291.31817774851385L587.5889454545454,291.31817774851385L588.5925818181818,291.31817774851385L590.8407272727272,291.31817774851385L592.0952727272728,291.31817774851385L592.3461818181818,291.31817774851385L592.5970909090909,291.31817774851385L596.5915636363636,291.31817774851385L597.8461090909092,291.31817774851385L599.5924363636364,291.31817774851385L600.5960727272727,291.31817774851385L601.3488,291.31817774851385L602.8442181818182,291.31817774851385L603.0951272727273,291.31817774851385L603.3460363636364,291.31817774851385L604.0987636363636,291.31817774851385L605.3533090909091,291.31817774851385L606.8487272727273,291.31817774851385L607.0996363636364,291.31817774851385L609.5986909090909,291.31817774851385L609.8496,291.31817774851385L610.8532363636364,291.31817774851385L611.1041454545455,291.31817774851385L612.0977454545455,291.31817774851385L612.5995636363637,291.31817774851385L614.1050181818182,291.31817774851385L614.8477090909091,291.31817774851385L615.8513454545455,291.31817774851385L616.1022545454545,291.31817774851385L616.6040727272728,291.31817774851385L616.8549818181818,291.31817774851385L617.3568,291.31817774851385L620.1067636363637,291.31817774851385L620.5985454545454,291.31817774851385L622.6058181818182,291.31817774851385L622.8567272727273,291.31817774851385L623.5994181818182,291.31817774851385L632.3611636363637,291.31817774851385L634.6093090909092,291.31817774851385L634.8602181818183,291.31817774851385L636.6065454545454,291.31817774851385L637.6101818181818,291.31817774851385L639.3565090909091,291.31817774851385L639.6074181818182,291.31817774851385L642.6082909090909,291.31817774851385L643.3610181818182,291.31817774851385L645.6091636363636,291.31817774851385L648.1082181818182,291.31817774851385L650.1154909090909,291.31817774851385L650.3664,291.31817774851385L650.8581818181818,291.31817774851385L651.6109090909091,291.31817774851385L653.1163636363636,291.31817774851385L654.3608727272727,291.31817774851385L654.6117818181818,291.31817774851385L655.6154181818182,291.31817774851385L655.8663272727273,291.31817774851385L657.6126545454546,291.31817774851385L659.8607999999999,291.31817774851385L660.6135272727273,291.31817774851385L663.1125818181819,291.31817774851385L665.6116363636363,291.31817774851385L668.1207272727273,334.15908887425695L672.6170181818181,334.15908887425695L674.3733818181818,334.15908887425695L676.1197090909092,334.15908887425695L676.6215272727272,334.15908887425695L678.1169454545454,334.15908887425695L678.6187636363636,334.15908887425695L679.3714909090909,334.15908887425695L679.6224,334.15908887425695L681.1178181818182,334.15908887425695L682.1214545454545,334.15908887425695L684.8714181818182,334.15908887425695L685.6241454545454,334.15908887425695L686.8686545454545,334.15908887425695L690.1204363636364,334.15908887425695L696.1221818181818,355.57954443712845L700.8794181818181,355.57954443712845L702.1239272727273,355.57954443712845L702.3748363636363,355.57954443712845L704.8738909090908,355.57954443712845L705.6266181818181,355.57954443712845L706.8811636363637,355.57954443712845L708.8784,355.57954443712845L709.6311272727272,355.57954443712845L711.3774545454546,355.57954443712845L711.6283636363637,355.57954443712845L711.8792727272727,355.57954443712845L712.3810909090909,355.57954443712845L713.8765090909092,355.57954443712845L715.6328727272727,355.57954443712845L719.1355636363636,355.57954443712845L721.8855272727272,355.57954443712845L723.1300363636365,355.57954443712845L724.1336727272727,355.57954443712845L724.3845818181818,355.57954443712845L725.1373090909091,355.57954443712845L725.3882181818182,355.57954443712845L732.8853818181818,355.57954443712845L733.6381090909091,355.57954443712845L734.631709090909,355.57954443712845L734.8826181818181,355.57954443712845L736.1371636363637,355.57954443712845L736.3880727272727,355.57954443712845L739.3889454545454,355.57954443712845L741.3861818181819,355.57954443712845L741.8879999999999,355.57954443712845L742.138909090909,355.57954443712845L745.1397818181819,355.57954443712845L747.1370181818181,355.57954443712845L749.1442909090908,355.57954443712845L750.3888000000001,355.57954443712845L750.8906181818181,355.57954443712845L751.6433454545454,355.57954443712845L752.1451636363636,355.57954443712845L752.3960727272728,355.57954443712845L754.1424,355.57954443712845L755.1460363636364,355.57954443712845L755.3969454545455,355.57954443712845L755.6378181818181,355.57954443712845L756.1396363636363,355.57954443712845L756.6414545454545,355.57954443712845L757.8960000000001,355.57954443712845L758.3978181818181,355.57954443712845L760.3950545454545,355.57954443712845L767.1495272727274,355.57954443712845L767.4004363636365,355.57954443712845L767.8922181818182,355.57954443712845L770.1504,355.57954443712845L770.4013090909091,355.57954443712845L772.1476363636364,355.57954443712845L772.9003636363636,355.57954443712845L773.1512727272727,355.57954443712845L773.8939636363635,355.57954443712845L775.6503272727273,355.57954443712845L776.1521454545455,355.57954443712845L777.3966545454546,355.57954443712845L780.3975272727273,355.57954443712845L780.6484363636363,355.57954443712845L782.6456727272728,355.57954443712845L782.8965818181817,355.57954443712845L784.6529454545455,355.57954443712845L785.4056727272728,355.57954443712845L785.6465454545454,355.57954443712845L785.8974545454545,355.57954443712845L786.6501818181819,355.57954443712845L791.4074181818182,355.57954443712845L793.4046545454545,355.57954443712845L793.6555636363636,355.57954443712845L794.408290909091,355.57954443712845L796.1546181818183,355.57954443712845L796.9073454545455,355.57954443712845L797.4091636363636,355.57954443712845L798.1518545454545,355.57954443712845L799.155490909091,355.57954443712845L801.4036363636365,355.57954443712845L802.9090909090909,355.57954443712845L803.9026909090909,355.57954443712845L804.1536,355.57954443712845L805.1572363636363,355.57954443712845L805.4081454545454,355.57954443712845L805.6590545454545,355.57954443712845L806.9035636363636,355.57954443712845L808.1581090909091,355.57954443712845L808.4090181818183,355.57954443712845L809.4126545454545,355.57954443712845L810.6571636363635,355.57954443712845L810.9080727272728,355.57954443712845L811.1589818181818,355.57954443712845L811.9117090909091,355.57954443712845L814.1598545454546,355.57954443712845L814.4107636363636,355.57954443712845L814.6616727272727,355.57954443712845L815.9061818181818,355.57954443712845L816.1570909090909,355.57954443712845L817.1607272727273,355.57954443712845L817.9134545454544,355.57954443712845L818.6561454545455,355.57954443712845L819.1579636363637,355.57954443712845L819.6597818181818,355.57954443712845L820.412509090909,355.57954443712845L822.1588363636363,355.57954443712845L825.159709090909,355.57954443712845L825.6615272727273,355.57954443712845L828.9133090909091,355.57954443712845L829.1642181818182,355.57954443712845L831.9141818181818,355.57954443712845L834.4132363636363,355.57954443712845L834.9150545454545,355.57954443712845L835.4168727272728,355.57954443712845L836.9122909090909,355.57954443712845L838.6686545454545,355.57954443712845L838.9195636363636,355.57954443712845L840.1640727272728,355.57954443712845L841.167709090909,355.57954443712845L841.4186181818181,355.57954443712845L842.4222545454545,355.57954443712845L845.664,355.57954443712845L846.1658181818182,355.57954443712845L846.4167272727273,355.57954443712845L848.6648727272727,355.57954443712845L849.1666909090909,355.57954443712845L849.668509090909,355.57954443712845L851.6657454545453,355.57954443712845L853.6730181818182,355.57954443712845L854.4257454545454,355.57954443712845L854.6666181818182,355.57954443712845L855.4193454545455,355.57954443712845L855.9211636363636,355.57954443712845L856.1720727272727,355.57954443712845L856.9247999999999,355.57954443712845L858.4202181818182,355.57954443712845L859.4238545454544,355.57954443712845L859.6747636363638,355.57954443712845L863.1774545454546,355.57954443712845L863.9201454545454,355.57954443712845L864.6728727272728,355.57954443712845L866.4292363636363,355.57954443712845L867.1719272727273,355.57954443712845L867.6737454545455,355.57954443712845L869.1791999999999,355.57954443712845L870.4237090909091,355.57954443712845L871.9291636363637,355.57954443712845L872.4309818181819,355.57954443712845L874.1773090909091,355.57954443712845L874.9300363636364,355.57954443712845L875.4318545454546,355.57954443712845L875.6727272727272,355.57954443712845L876.4254545454545,355.57954443712845L878.4327272727272,355.57954443712845L880.6808727272727,355.57954443712845L881.9253818181819,355.57954443712845L883.1799272727272,355.57954443712845L884.4344727272728,355.57954443712845L887.6762181818182,355.57954443712845L888.1780363636364,355.57954443712845L890.6770909090909,355.57954443712845L892.4334545454545,355.57954443712845L893.1861818181818,355.57954443712845L894.4306909090909,355.57954443712845L896.6788363636364,355.57954443712845L896.9297454545455,355.57954443712845L898.4351999999999,355.57954443712845L899.9306181818182,355.57954443712845L900.6833454545454,355.57954443712845L901.6869818181818,355.57954443712845L901.9378909090909,355.57954443712845L902.1888,355.57954443712845L902.6805818181817,355.57954443712845L903.6842181818182,355.57954443712845L904.4369454545455,355.57954443712845L904.6878545454546,355.57954443712845L905.6814545454545,355.57954443712845L905.9323636363637,355.57954443712845L906.1832727272728,355.57954443712845L907.4378181818182,355.57954443712845L907.9396363636363,355.57954443712845L910.4386909090908,355.57954443712845L912.1850181818181,355.57954443712845L913.9413818181819,355.57954443712845L914.6840727272727,355.57954443712845L919.1904,355.57954443712845L920.4449454545454,355.57954443712845L922.6930909090909,355.57954443712845L923.4458181818183,355.57954443712845L923.9376,355.57954443712845L925.6939636363637,355.57954443712845L926.6875636363636,355.57954443712845L926.9384727272727,355.57954443712845L928.9457454545454,355.57954443712845L929.9393454545454,355.57954443712845L930.1902545454546,355.57954443712845L930.9429818181818,355.57954443712845L931.4448,355.57954443712845L933.1911272727273,355.57954443712845L934.1947636363636,355.57954443712845L935.1983999999999,355.57954443712845L936.192,355.57954443712845L936.6938181818182,355.57954443712845L938.1992727272727,355.57954443712845L942.1937454545454,355.57954443712845L942.9464727272727,355.57954443712845L943.6992,355.57954443712845L944.4519272727273,355.57954443712845L944.6927999999999,355.57954443712845L945.9473454545455,355.57954443712845L947.9445818181819,355.57954443712845L949.4500363636363,355.57954443712845L950.2027636363637,355.57954443712845L950.4536727272728,355.57954443712845L952.4509090909091,355.57954443712845L954.4481454545454,355.57954443712845L957.6999272727273,355.57954443712845L959.4562909090909,355.57954443712845L960.951709090909,355.57954443712845L962.2062545454546,355.57954443712845L964.9562181818183,355.57954443712845L966.9534545454546,355.57954443712845L967.2043636363637,355.57954443712845L968.4589090909091,355.57954443712845L968.6997818181818,355.57954443712845L968.9506909090909,355.57954443712845L969.4525090909092,355.57954443712845L970.2052363636363,355.57954443712845L970.7070545454545,355.57954443712845L971.9515636363637,355.57954443712845L972.2024727272727,355.57954443712845L974.2097454545454,355.57954443712845L974.4606545454546,355.57954443712845L975.2033454545455,355.57954443712845L976.9597090909092,355.57954443712845L977.7024,355.57954443712845L977.9533090909091,355.57954443712845L978.2042181818182,355.57954443712845L980.4624,355.57954443712845L981.4560000000001,355.57954443712845L982.4596363636364,355.57954443712845L984.2059636363637,355.57954443712845L984.4568727272728,355.57954443712845L985.7114181818182,355.57954443712845L989.4650181818182,355.57954443712845L989.705890909091,355.57954443712845L990.7095272727272,355.57954443712845L991.2113454545454,355.57954443712845L992.9576727272727,355.57954443712845L993.9613090909091,355.57954443712845L996.2094545454546,355.57954443712845L996.4603636363637,355.57954443712845L996.7112727272728,355.57954443712845L996.9621818181819,355.57954443712845L997.213090909091,355.57954443712845L998.2167272727272,355.57954443712845L998.7085090909092,355.57954443712845L999.2103272727273,355.57954443712845L999.9630545454545,355.57954443712845L1000.7157818181818,355.57954443712845L1000.9666909090909,355.57954443712845L1001.7093818181819,355.57954443712845L1004.4693818181819,355.57954443712845L1005.9648000000001,355.57954443712845L1007.4702545454545,355.57954443712845L1009.7184,355.57954443712845L1009.9693090909091,355.57954443712845L1011.2138181818182,355.57954443712845L1011.9665454545454,355.57954443712845L1013.4720000000001,355.57954443712845L1014.4656,355.57954443712845L1015.4692363636364,355.57954443712845L1017.4664727272727,355.57954443712845L1018.2192000000001,355.57954443712845L1019.7146181818182,355.57954443712845L1019.9655272727272,355.57954443712845L1020.9691636363636,355.57954443712845L1021.9728,355.57954443712845L1022.7154909090908,355.57954443712845L1022.9664,355.57954443712845L1023.7191272727273,355.57954443712845L1025.9672727272728,355.57954443712845L1029.2190545454546,355.57954443712845L1029.4699636363637,355.57954443712845L1029.7208727272728,355.57954443712845L1029.9717818181819,355.57954443712845L1030.7245090909091,355.57954443712845L1033.4744727272728,355.57954443712845L1039.4762181818182,355.57954443712845L1040.2289454545455,355.57954443712845L1040.7207272727273,355.57954443712845L1041.2225454545455,355.57954443712845L1041.9752727272728,355.57954443712845L1042.4770909090907,355.57954443712845L1042.9789090909092,355.57954443712845L1043.7216,355.57954443712845L1043.9725090909092,355.57954443712845L1048.4788363636364,355.57954443712845L1050.977890909091,355.57954443712845L1052.7242181818183,355.57954443712845L1053.7278545454544,355.57954443712845L1053.9787636363635,355.57954443712845L1055.2333090909092,355.57954443712845L1055.4842181818183,355.57954443712845L1056.226909090909,355.57954443712845L1058.9768727272726,355.57954443712845L1059.2277818181817,355.57954443712845L1062.2286545454547,355.57954443712845L1062.4795636363638,355.57954443712845L1062.981381818182,355.57954443712845L1063.2322909090908,355.57954443712845L1063.985018181818,355.57954443712845L1064.2359272727272,355.57954443712845L1064.4868363636363,355.57954443712845L1066.2331636363635,355.57954443712845L1066.7349818181817,355.57954443712845L1067.2368000000001,355.57954443712845L1070.2376727272729,355.57954443712845L1070.9803636363636,355.57954443712845L1071.2312727272727,355.57954443712845L1071.4821818181817,355.57954443712845L1071.7330909090908,355.57954443712845L1072.7367272727272,355.57954443712845L1073.4894545454545,355.57954443712845L1077.2330181818181,355.57954443712845L1077.7348363636363,355.57954443712845L1079.2402909090908,355.57954443712845L1079.7320727272727,355.57954443712845L1080.735709090909,355.57954443712845L1081.7393454545456,355.57954443712845L1081.9902545454545,355.57954443712845L1085.7338181818182,355.57954443712845L1087.992,355.57954443712845L1088.4938181818181,355.57954443712845L1088.9856,355.57954443712845L1089.7383272727272,355.57954443712845L1090.2401454545454,355.57954443712845L1090.9928727272727,355.57954443712845L1093.2410181818182,355.57954443712845L1093.9937454545454,355.57954443712845L1094.7364363636364,355.57954443712845L1100.2464,355.57954443712845L1101.490909090909,355.57954443712845L1102.9963636363636,355.57954443712845L1103.7390545454546,355.57954443712845L1104.742690909091,355.57954443712845L1106.2481454545455,355.57954443712845L1106.9908363636364,355.57954443712845L1107.4926545454546,355.57954443712845L1107.9944727272728,355.57954443712845L1108.7472,355.57954443712845L1109.2490181818182,355.57954443712845L1109.9917090909091,355.57954443712845L1114.2471272727273,355.57954443712845L1114.4980363636364,355.57954443712845L1115.2507636363637,355.57954443712845L1117.248,355.57954443712845L1117.4989090909091,355.57954443712845L1119.7470545454546,355.57954443712845L1119.9979636363637,355.57954443712845L1121.2525090909091,355.57954443712845L1121.5034181818182,355.57954443712845L1121.744290909091,355.57954443712845L1122.497018181818,355.57954443712845L1124.0024727272728,355.57954443712845L1125.2469818181817,355.57954443712845L1125.9997090909092,355.57954443712845L1127.9969454545455,355.57954443712845L1129.000581818182,355.57954443712845L1129.5024,355.57954443712845L1131.7505454545455,355.57954443712845L1133.005090909091,355.57954443712845L1134.500509090909,355.57954443712845L1134.751418181818,355.57954443712845L1135.7550545454546,355.57954443712845L1136.0059636363637,355.57954443712845L1137.752290909091,355.57954443712845L1139.5086545454544,355.57954443712845L1141.0040727272728,355.57954443712845L1141.7567999999999,355.57954443712845L1142.258618181818,355.57954443712845L1142.5095272727272,355.57954443712845L1144.2558545454544,355.57954443712845L1145.7512727272726,355.57954443712845L1146.2530909090908,355.57954443712845L1146.504,355.57954443712845L1147.005818181818,355.57954443712845L1148.0094545454547,355.57954443712845L1149.0030545454545,355.57954443712845L1150.2576000000001,355.57954443712845L1151.0103272727272,355.57954443712845L1153.2584727272726,355.57954443712845L1153.7602909090908,355.57954443712845L1154.753890909091,355.57954443712845L1156.2593454545454,355.57954443712845L1157.0120727272727,355.57954443712845L1158.5074909090908,355.57954443712845L1161.5083636363636,355.57954443712845L1162.512,355.57954443712845L1164.2583272727272,355.57954443712845L1165.0110545454545,355.57954443712845L1167.0082909090909,355.57954443712845L1167.7610181818181,355.57954443712845L1168.2628363636363,355.57954443712845L1170.2600727272727,355.57954443712845L1170.5109818181818,355.57954443712845L1171.263709090909,355.57954443712845L1172.7591272727273,355.57954443712845L1174.0136727272727,355.57954443712845L1177.7672727272727,355.57954443712845L1178.0181818181818,355.57954443712845L1180.0154181818182,355.57954443712845L1181.2699636363636,355.57954443712845L1182.7653818181818,355.57954443712845L1183.2672,355.57954443712845L1183.518109090909,355.57954443712845L1185.0135272727273,355.57954443712845L1187.5226181818182,355.57954443712845L1188.265309090909,355.57954443712845L1188.7671272727273,355.57954443712845L1189.0180363636364,355.57954443712845L1189.2689454545455,355.57954443712845L1190.2725818181818,355.57954443712845L1192.7716363636364,355.57954443712845L1193.0225454545455,355.57954443712845L1193.5243636363637,355.57954443712845L1196.0234181818182,355.57954443712845L1196.2743272727273,355.57954443712845L1200.5197090909091,355.57954443712845L1202.2760727272728,355.57954443712845L1203.2696727272726,355.57954443712845L1205.5278545454546,355.57954443712845L1206.7723636363637,355.57954443712845L1208.0269090909092,355.57954443712845L1209.5223272727274,355.57954443712845L1211.7704727272728,355.57954443712845L1212.774109090909,355.57954443712845L1213.7777454545455,355.57954443712845L1214.5304727272728,355.57954443712845L1216.025890909091,355.57954443712845L1217.2804363636365,355.57954443712845L1218.7758545454546,355.57954443712845L1220.0303999999999,355.57954443712845L1220.773090909091,355.57954443712845L1221.0240000000001,355.57954443712845L1222.7803636363635,355.57954443712845L1224.2757818181817,355.57954443712845L1224.7776,355.57954443712845L1226.7748363636363,355.57954443712845L1227.7784727272726,355.57954443712845L1228.5312000000001,355.57954443712845L1229.2839272727272,355.57954443712845L1229.5348363636363,355.57954443712845L1231.5320727272726,355.57954443712845L1232.0338909090908,355.57954443712845L1234.7838545454545,355.57954443712845L1236.7810909090908,355.57954443712845L1238.2865454545456,355.57954443712845L1239.5310545454545,355.57954443712845L1240.534690909091,355.57954443712845L1242.5319272727274,355.57954443712845L1244.2882909090908,355.57954443712845L1248.2827636363636,355.57954443712845L1249.7882181818181,355.57954443712845L1250.7818181818182,355.57954443712845L1254.5354181818182,355.57954443712845L1256.0408727272727,355.57954443712845L1256.7835636363636,355.57954443712845L1257.2853818181818,355.57954443712845L1258.7908363636363,355.57954443712845L1259.0417454545454,355.57954443712845L1259.7844363636364,355.57954443712845L1260.7880727272727,355.57954443712845L1261.791709090909,355.57954443712845L1262.0426181818182,355.57954443712845L1262.2935272727273,355.57954443712845L1262.785309090909,355.57954443712845L1264.2907636363636,355.57954443712845L1266.037090909091,355.57954443712845L1266.538909090909,355.57954443712845L1267.0407272727273,355.57954443712845L1268.0443636363636,355.57954443712845L1268.7870545454546,355.57954443712845L1269.0379636363637,355.57954443712845L1269.5397818181818,355.57954443712845L1271.5470545454546,355.57954443712845L1273.544290909091,355.57954443712845L1274.046109090909,355.57954443712845L1277.5488,355.57954443712845L1278.291490909091,355.57954443712845L1279.0442181818182,355.57954443712845L1279.5460363636364,355.57954443712845L1281.5432727272726,355.57954443712845L1282.5469090909091,355.57954443712845L1283.2996363636364,355.57954443712845L1284.7950545454546,355.57954443712845L1287.0432,355.57954443712845L1288.2977454545455,355.57954443712845L1288.5486545454546,355.57954443712845L1289.552290909091,355.57954443712845L1290.545890909091,355.57954443712845L1290.7967999999998,355.57954443712845L1291.047709090909,355.57954443712845L1291.5495272727273,355.57954443712845L1292.7940363636365,355.57954443712845L1293.0449454545453,355.57954443712845L1293.2958545454544,355.57954443712845L1295.5540363636364,355.57954443712845L1297.5512727272728,355.57954443712845L1298.554909090909,355.57954443712845L1299.046690909091,355.57954443712845L1300.5521454545453,355.57954443712845L1302.5493818181817,355.57954443712845L1302.8002909090908,355.57954443712845L1304.3057454545456,355.57954443712845L1305.0484363636363,355.57954443712845L1307.0557090909092,355.57954443712845L1307.3066181818183,355.57954443712845L1308.5511272727274,355.57954443712845L1309.3038545454547,355.57954443712845L1309.5547636363638,355.57954443712845L1310.3074909090908,355.57954443712845L1311.050181818182,355.57954443712845L1311.802909090909,355.57954443712845L1314.8037818181817,355.57954443712845L1315.807418181818,355.57954443712845L1317.5537454545454,355.57954443712845L1319.0592,355.57954443712845L1319.8018909090908,355.57954443712845L1320.0528,355.57954443712845L1320.303709090909,355.57954443712845L1321.0564363636365,355.57954443712845L1321.3073454545454,355.57954443712845L1323.053672727273,355.57954443712845L1323.5554909090908,355.57954443712845L1324.057309090909,355.57954443712845L1325.5627636363636,355.57954443712845L1325.8036363636363,355.57954443712845" style="fill: none;" fill="none"></path></g></g></g></g></g></g><g transform="translate(70, 377)" clip-path="url(#clip_1)"><clipPath id="clip_1"><rect width="1380" height="23"></rect></clipPath><g><g><line x1="0" y1="0" x2="0" y2="5" style="visibility: inherit;" fill="rgb(0, 0, 0)" stroke="rgb(204, 204, 204)" stroke-width="1px"></line><line x1="125.45454545454545" y1="0" x2="125.45454545454545" y2="5" style="visibility: inherit;" fill="rgb(0, 0, 0)" stroke="rgb(204, 204, 204)" stroke-width="1px"></line><line x1="250.9090909090909" y1="0" x2="250.9090909090909" y2="5" style="visibility: inherit;" fill="rgb(0, 0, 0)" stroke="rgb(204, 204, 204)" stroke-width="1px"></line><line x1="376.3636363636363" y1="0" x2="376.3636363636363" y2="5" style="visibility: inherit;" fill="rgb(0, 0, 0)" stroke="rgb(204, 204, 204)" stroke-width="1px"></line><line x1="501.8181818181818" y1="0" x2="501.8181818181818" y2="5" style="visibility: inherit;" fill="rgb(0, 0, 0)" stroke="rgb(204, 204, 204)" stroke-width="1px"></line><line x1="627.2727272727273" y1="0" x2="627.2727272727273" y2="5" style="visibility: inherit;" fill="rgb(0, 0, 0)" stroke="rgb(204, 204, 204)" stroke-width="1px"></line><line x1="752.7272727272726" y1="0" x2="752.7272727272726" y2="5" style="visibility: inherit;" fill="rgb(0, 0, 0)" stroke="rgb(204, 204, 204)" stroke-width="1px"></line><line x1="878.1818181818181" y1="0" x2="878.1818181818181" y2="5" style="visibility: inherit;" fill="rgb(0, 0, 0)" stroke="rgb(204, 204, 204)" stroke-width="1px"></line><line x1="1003.6363636363636" y1="0" x2="1003.6363636363636" y2="5" style="visibility: inherit;" fill="rgb(0, 0, 0)" stroke="rgb(204, 204, 204)" stroke-width="1px"></line><line x1="1129.0909090909092" y1="0" x2="1129.0909090909092" y2="5" style="visibility: inherit;" fill="rgb(0, 0, 0)" stroke="rgb(204, 204, 204)" stroke-width="1px"></line><line x1="1254.5454545454545" y1="0" x2="1254.5454545454545" y2="5" style="visibility: inherit;" fill="rgb(0, 0, 0)" stroke="rgb(204, 204, 204)" stroke-width="1px"></line><line x1="1380" y1="0" x2="1380" y2="5" style="visibility: inherit;" fill="rgb(0, 0, 0)" stroke="rgb(204, 204, 204)" stroke-width="1px"></line></g><g transform="translate(0, 8)"><text x="0" y="0" dx="0em" dy="0.95em" style="text-anchor: middle; visibility: hidden; font-family: Roboto, sans-serif; font-size: 12px; font-weight: 200;" fill="rgb(33, 33, 33)" stroke="none" stroke-width="1px">-50k</text><text x="125.45454545454545" y="0" dx="0em" dy="0.95em" style="text-anchor: middle; visibility: inherit; font-family: Roboto, sans-serif; font-size: 12px; font-weight: 200;" fill="rgb(33, 33, 33)" stroke="none" stroke-width="1px">0</text><text x="250.9090909090909" y="0" dx="0em" dy="0.95em" style="text-anchor: middle; visibility: inherit; font-family: Roboto, sans-serif; font-size: 12px; font-weight: 200;" fill="rgb(33, 33, 33)" stroke="none" stroke-width="1px">50k</text><text x="376.3636363636363" y="0" dx="0em" dy="0.95em" style="text-anchor: middle; visibility: inherit; font-family: Roboto, sans-serif; font-size: 12px; font-weight: 200;" fill="rgb(33, 33, 33)" stroke="none" stroke-width="1px">100k</text><text x="501.8181818181818" y="0" dx="0em" dy="0.95em" style="text-anchor: middle; visibility: inherit; font-family: Roboto, sans-serif; font-size: 12px; font-weight: 200;" fill="rgb(33, 33, 33)" stroke="none" stroke-width="1px">150k</text><text x="627.2727272727273" y="0" dx="0em" dy="0.95em" style="text-anchor: middle; visibility: inherit; font-family: Roboto, sans-serif; font-size: 12px; font-weight: 200;" fill="rgb(33, 33, 33)" stroke="none" stroke-width="1px">200k</text><text x="752.7272727272726" y="0" dx="0em" dy="0.95em" style="text-anchor: middle; visibility: inherit; font-family: Roboto, sans-serif; font-size: 12px; font-weight: 200;" fill="rgb(33, 33, 33)" stroke="none" stroke-width="1px">250k</text><text x="878.1818181818181" y="0" dx="0em" dy="0.95em" style="text-anchor: middle; visibility: inherit; font-family: Roboto, sans-serif; font-size: 12px; font-weight: 200;" fill="rgb(33, 33, 33)" stroke="none" stroke-width="1px">300k</text><text x="1003.6363636363636" y="0" dx="0em" dy="0.95em" style="text-anchor: middle; visibility: inherit; font-family: Roboto, sans-serif; font-size: 12px; font-weight: 200;" fill="rgb(33, 33, 33)" stroke="none" stroke-width="1px">350k</text><text x="1129.0909090909092" y="0" dx="0em" dy="0.95em" style="text-anchor: middle; visibility: inherit; font-family: Roboto, sans-serif; font-size: 12px; font-weight: 200;" fill="rgb(33, 33, 33)" stroke="none" stroke-width="1px">400k</text><text x="1254.5454545454545" y="0" dx="0em" dy="0.95em" style="text-anchor: middle; visibility: inherit; font-family: Roboto, sans-serif; font-size: 12px; font-weight: 200;" fill="rgb(33, 33, 33)" stroke="none" stroke-width="1px">450k</text><text x="1380" y="0" dx="0em" dy="0.95em" style="text-anchor: middle; visibility: hidden; font-family: Roboto, sans-serif; font-size: 12px; font-weight: 200;" fill="rgb(33, 33, 33)" stroke="none" stroke-width="1px">500k</text></g><line x1="0" y1="0" x2="1380" y2="0" fill="rgb(0, 0, 0)" stroke="rgb(204, 204, 204)" stroke-width="1px"></line></g></g></g></g></svg>