<svg viewBox="0 0 1450 400" xmlns="http://www.w3.org/2000/svg"><g><g><g><g><g><line x1="50" y1="377" x2="45" y2="377" style="visibility: inherit;" fill="rgb(0, 0, 0)" stroke="rgb(204, 204, 204)" stroke-width="1px"></line><line x1="50" y1="342.7272727272727" x2="45" y2="342.7272727272727" style="visibility: inherit;" fill="rgb(0, 0, 0)" stroke="rgb(204, 204, 204)" stroke-width="1px"></line><line x1="50" y1="308.45454545454544" x2="45" y2="308.45454545454544" style="visibility: inherit;" fill="rgb(0, 0, 0)" stroke="rgb(204, 204, 204)" stroke-width="1px"></line><line x1="50" y1="274.1818181818182" x2="45" y2="274.1818181818182" style="visibility: inherit;" fill="rgb(0, 0, 0)" stroke="rgb(204, 204, 204)" stroke-width="1px"></line><line x1="50" y1="239.9090909090909" x2="45" y2="239.9090909090909" style="visibility: inherit;" fill="rgb(0, 0, 0)" stroke="rgb(204, 204, 204)" stroke-width="1px"></line><line x1="50" y1="205.63636363636363" x2="45" y2="205.63636363636363" style="visibility: inherit;" fill="rgb(0, 0, 0)" stroke="rgb(204, 204, 204)" stroke-width="1px"></line><line x1="50" y1="171.36363636363637" x2="45" y2="171.36363636363637" style="visibility: inherit;" fill="rgb(0, 0, 0)" stroke="rgb(204, 204, 204)" stroke-width="1px"></line><line x1="50" y1="137.0909090909091" x2="45" y2="137.0909090909091" style="visibility: inherit;" fill="rgb(0, 0, 0)" stroke="rgb(204, 204, 204)" stroke-width="1px"></line><line x1="50" y1="102.81818181818181" x2="45" y2="102.81818181818181" style="visibility: inherit;" fill="rgb(0, 0, 0)" stroke="rgb(204, 204, 204)" stroke-width="1px"></line><line x1="50" y1="68.54545454545453" x2="45" y2="68.54545454545453" style="visibility: inherit;" fill="rgb(0, 0, 0)" stroke="rgb(204, 204, 204)" stroke-width="1px"></line><line x1="50" y1="34.27272727272729" x2="45" y2="34.27272727272729" style="visibility: inherit;" fill="rgb(0, 0, 0)" stroke="rgb(204, 204, 204)" stroke-width="1px"></line><line x1="50" y1="0" x2="45" y2="0" style="visibility: inherit;" fill="rgb(0, 0, 0)" stroke="rgb(204, 204, 204)" stroke-width="1px"></line></g><g transform="translate(40, 0)"><text x="0" y="377" dx="0em" dy="0.3em" style="text-anchor: end; visibility: hidden; font-family: Roboto, sans-serif; font-size: 12px; font-weight: 200;" fill="rgb(33, 33, 33)" stroke="none" stroke-width="1px">55.5</text><text x="0" y="342.7272727272727" dx="0em" dy="0.3em" style="text-anchor: end; visibility: inherit; font-family: Roboto, sans-serif; font-size: 12px; font-weight: 200;" fill="rgb(33, 33, 33)" stroke="none" stroke-width="1px">56</text><text x="0" y="308.45454545454544" dx="0em" dy="0.3em" style="text-anchor: end; visibility: inherit; font-family: Roboto, sans-serif; font-size: 12px; font-weight: 200;" fill="rgb(33, 33, 33)" stroke="none" stroke-width="1px">56.5</text><text x="0" y="274.1818181818182" dx="0em" dy="0.3em" style="text-anchor: end; visibility: inherit; font-family: Roboto, sans-serif; font-size: 12px; font-weight: 200;" fill="rgb(33, 33, 33)" stroke="none" stroke-width="1px">57</text><text x="0" y="239.9090909090909" dx="0em" dy="0.3em" style="text-anchor: end; visibility: inherit; font-family: Roboto, sans-serif; font-size: 12px; font-weight: 200;" fill="rgb(33, 33, 33)" stroke="none" stroke-width="1px">57.5</text><text x="0" y="205.63636363636363" dx="0em" dy="0.3em" style="text-anchor: end; visibility: inherit; font-family: Roboto, sans-serif; font-size: 12px; font-weight: 200;" fill="rgb(33, 33, 33)" stroke="none" stroke-width="1px">58</text><text x="0" y="171.36363636363637" dx="0em" dy="0.3em" style="text-anchor: end; visibility: inherit; font-family: Roboto, sans-serif; font-size: 12px; font-weight: 200;" fill="rgb(33, 33, 33)" stroke="none" stroke-width="1px">58.5</text><text x="0" y="137.0909090909091" dx="0em" dy="0.3em" style="text-anchor: end; visibility: inherit; font-family: Roboto, sans-serif; font-size: 12px; font-weight: 200;" fill="rgb(33, 33, 33)" stroke="none" stroke-width="1px">59</text><text x="0" y="102.81818181818181" dx="0em" dy="0.3em" style="text-anchor: end; visibility: inherit; font-family: Roboto, sans-serif; font-size: 12px; font-weight: 200;" fill="rgb(33, 33, 33)" stroke="none" stroke-width="1px">59.5</text><text x="0" y="68.54545454545453" dx="0em" dy="0.3em" style="text-anchor: end; visibility: inherit; font-family: Roboto, sans-serif; font-size: 12px; font-weight: 200;" fill="rgb(33, 33, 33)" stroke="none" stroke-width="1px">60</text><text x="0" y="34.27272727272729" dx="0em" dy="0.3em" style="text-anchor: end; visibility: inherit; font-family: Roboto, sans-serif; font-size: 12px; font-weight: 200;" fill="rgb(33, 33, 33)" stroke="none" stroke-width="1px">60.5</text><text x="0" y="0" dx="0em" dy="0.3em" style="text-anchor: end; visibility: hidden; font-family: Roboto, sans-serif; font-size: 12px; font-weight: 200;" fill="rgb(33, 33, 33)" stroke="none" stroke-width="1px">61</text></g><line x1="50" y1="0" x2="50" y2="377" fill="rgb(0, 0, 0)" stroke="rgb(204, 204, 204)" stroke-width="1px"></line></g></g><g transform="translate(50, 0)" clip-path="url(#clip_0)"><clipPath id="clip_0"><rect width="1400" height="377"></rect></clipPath><g><g><g><line x1="0" y1="0" x2="0" y2="377" fill="rgb(0, 0, 0)" stroke="rgb(66, 66, 66)" stroke-width="1px" opacity="0.25"></line><line x1="127.27272727272728" y1="0" x2="127.27272727272728" y2="377" fill="rgb(0, 0, 0)" stroke="rgb(66, 66, 66)" stroke-width="1px" opacity="0.25"></line><line x1="254.54545454545456" y1="0" x2="254.54545454545456" y2="377" fill="rgb(0, 0, 0)" stroke="rgb(66, 66, 66)" stroke-width="1px" opacity="0.25"></line><line x1="381.8181818181818" y1="0" x2="381.8181818181818" y2="377" fill="rgb(0, 0, 0)" stroke="rgb(66, 66, 66)" stroke-width="1px" opacity="0.25"></line><line x1="509.0909090909091" y1="0" x2="509.0909090909091" y2="377" fill="rgb(0, 0, 0)" stroke="rgb(66, 66, 66)" stroke-width="1px" opacity="0.25"></line><line x1="636.3636363636364" y1="0" x2="636.3636363636364" y2="377" fill="rgb(0, 0, 0)" stroke="rgb(66, 66, 66)" stroke-width="1px" opacity="0.25"></line><line x1="763.6363636363636" y1="0" x2="763.6363636363636" y2="377" fill="rgb(0, 0, 0)" stroke="rgb(66, 66, 66)" stroke-width="1px" opacity="0.25"></line><line x1="890.9090909090909" y1="0" x2="890.9090909090909" y2="377" fill="rgb(0, 0, 0)" stroke="rgb(66, 66, 66)" stroke-width="1px" opacity="0.25"></line><line x1="1018.1818181818182" y1="0" x2="1018.1818181818182" y2="377" fill="rgb(0, 0, 0)" stroke="rgb(66, 66, 66)" stroke-width="1px" opacity="0.25"></line><line x1="1145.4545454545455" y1="0" x2="1145.4545454545455" y2="377" fill="rgb(0, 0, 0)" stroke="rgb(66, 66, 66)" stroke-width="1px" opacity="0.25"></line><line x1="1272.7272727272727" y1="0" x2="1272.7272727272727" y2="377" fill="rgb(0, 0, 0)" stroke="rgb(66, 66, 66)" stroke-width="1px" opacity="0.25"></line><line x1="1400" y1="0" x2="1400" y2="377" fill="rgb(0, 0, 0)" stroke="rgb(66, 66, 66)" stroke-width="1px" opacity="0.25"></line></g><g><line x1="0" y1="377" x2="1400" y2="377" fill="rgb(0, 0, 0)" stroke="rgb(66, 66, 66)" stroke-width="1px" opacity="0.25"></line><line x1="0" y1="342.7272727272727" x2="1400" y2="342.7272727272727" fill="rgb(0, 0, 0)" stroke="rgb(66, 66, 66)" stroke-width="1px" opacity="0.25"></line><line x1="0" y1="308.45454545454544" x2="1400" y2="308.45454545454544" fill="rgb(0, 0, 0)" stroke="rgb(66, 66, 66)" stroke-width="1px" opacity="0.25"></line><line x1="0" y1="274.1818181818182" x2="1400" y2="274.1818181818182" fill="rgb(0, 0, 0)" stroke="rgb(66, 66, 66)" stroke-width="1px" opacity="0.25"></line><line x1="0" y1="239.9090909090909" x2="1400" y2="239.9090909090909" fill="rgb(0, 0, 0)" stroke="rgb(66, 66, 66)" stroke-width="1px" opacity="0.25"></line><line x1="0" y1="205.63636363636363" x2="1400" y2="205.63636363636363" fill="rgb(0, 0, 0)" stroke="rgb(66, 66, 66)" stroke-width="1px" opacity="0.25"></line><line x1="0" y1="171.36363636363637" x2="1400" y2="171.36363636363637" fill="rgb(0, 0, 0)" stroke="rgb(66, 66, 66)" stroke-width="1px" opacity="0.25"></line><line x1="0" y1="137.0909090909091" x2="1400" y2="137.0909090909091" fill="rgb(0, 0, 0)" stroke="rgb(66, 66, 66)" stroke-width="1px" opacity="0.25"></line><line x1="0" y1="102.81818181818181" x2="1400" y2="102.81818181818181" fill="rgb(0, 0, 0)" stroke="rgb(66, 66, 66)" stroke-width="1px" opacity="0.25"></line><line x1="0" y1="68.54545454545453" x2="1400" y2="68.54545454545453" fill="rgb(0, 0, 0)" stroke="rgb(66, 66, 66)" stroke-width="1px" opacity="0.25"></line><line x1="0" y1="34.27272727272729" x2="1400" y2="34.27272727272729" fill="rgb(0, 0, 0)" stroke="rgb(66, 66, 66)" stroke-width="1px" opacity="0.25"></line><line x1="0" y1="0" x2="1400" y2="0" fill="rgb(0, 0, 0)" stroke="rgb(66, 66, 66)" stroke-width="1px" opacity="0.25"></line></g></g></g><g><g><line x1="0" y1="4181.272727272728" x2="1400" y2="4181.272727272728" fill="rgb(0, 0, 0)" stroke="rgb(153, 153, 153)" stroke-width="1.5px"></line></g></g><g><g><line x1="127.27272727272728" y1="0" x2="127.27272727272728" y2="377" fill="rgb(0, 0, 0)" stroke="rgb(153, 153, 153)" stroke-width="1.5px"></line></g></g><g><g><g><g><g><path style="fill: none;" stroke="rgb(204, 51, 17)" stroke-width="2px" d="M171.12581818181818,377.1194833563203L172.6530909090909,376.3129714734285L172.90763636363636,375.99590282942347L175.45818181818183,372.05294702810977L175.96727272727276,370.60816515476176L177.75418181818182,362.36061431607175L178.26327272727272,358.3865204364714L180.30472727272726,359.43125728480146L181.57745454545454,357.6812748987749L185.14618181818184,355.90144623656886L185.40072727272727,355.72368958467325L188.46036363636364,351.7216292111871L188.46545454545458,349.39954409648124L191.52,345.7673418248619L192.03418181818182,326.3523517050728L193.05236363636365,324.2836829605378L194.07054545454545,328.5412247783266L194.58472727272726,331.39291300534336L195.34836363636364,332.2709287458955L195.85745454545454,331.61793744871517L197.13018181818182,330.39838876157876L197.63927272727273,330.77847584832404L197.6443636363636,330.9862173723263L200.18981818181817,329.9817191019452L200.95854545454546,314.1296688156027L201.97672727272726,318.52141524712374L202.4858181818182,320.24374120945936L202.7403636363636,320.3639857581834L203.504,322.3773040182046L208.85963636363635,320.70338174289975L209.11418181818183,319.3406507805684L211.91927272727273,323.71462387530784L213.19709090909092,322.9469832000682L213.45163636363637,318.81645091190387L213.7061818181818,318.8860405675527L216.5112727272727,310.602163792811L218.54763636363637,311.70861230614906L219.31636363636366,310.5940045560827L219.82545454545453,319.74334835398247L221.0981818181818,320.52159577032677L222.12145454545453,318.8596739260902L222.63054545454546,307.1285428436659L225.1810909090909,309.8980328409068L226.70836363636363,307.51316819887785L226.9629090909091,307.36588592823347L230.2770909090909,308.96492454424884L230.53163636363638,309.41434809474316L231.04072727272725,309.479888807295L232.5730909090909,303.8778686367498L234.10036363636362,305.375115451282L234.86909090909091,295.2205794798928L236.1418181818182,300.1917340090591L237.16,306.0444941438359L237.67418181818184,307.14239501077225L238.1832727272727,318.072902958644L239.20145454545457,315.94856967059343L239.456,314.49527222780955L240.47927272727273,311.34842413896587L240.7338181818182,306.5391995033533L242.2610909090909,305.48964585245324L247.61672727272727,301.2711531268111L248.12581818181818,299.6970385959393L248.38036363636365,299.8687894897993L248.63490909090908,301.7971419069366L249.39854545454546,303.3490099517326L249.65818181818182,304.8543570613754L252.9723636363636,283.9353490753021L253.2269090909091,277.96036447715534L253.73600000000002,282.55883095061256L254.2450909090909,289.3154474892546L254.75418181818182,291.9342132729214L255.77236363636362,298.39654235263015L256.032,287.260927317597L257.05018181818184,291.6469199941912L257.55927272727274,295.77789849204055L258.57745454545454,298.50023885924946L259.85527272727273,293.8265631570707L260.36436363636363,293.60314315583804L261.3825454545455,297.33195176308095L264.9563636363636,298.65499668736817L265.21090909090907,285.2178187841837L265.9745454545454,288.5423163497137L266.4836363636364,293.0652635338159L267.5018181818182,299.34195661382427L268.0109090909091,302.9866705828539L271.8392727272727,307.7168778188994L272.09381818181816,309.33667950405976L274.1301818181818,307.4015293892289L274.1352727272727,306.3591715851394L275.408,307.37200951570554L275.66254545454547,306.9741681551593L276.68072727272727,305.8904705901614L277.44945454545456,298.0495750913768L278.97672727272726,296.7639054471009L279.2312727272727,296.46602825498275L280.25454545454545,298.7927033495728L280.76363636363635,296.0574890103391L282.54545454545456,295.2366145221815L283.05454545454546,297.31272012595986L284.5869090909091,297.1603358402255L286.3738181818182,298.4807354179611L286.62836363636364,284.23676599886954L288.66472727272725,292.3120200560101L290.45163636363634,296.26829460293214L290.9607272727273,296.3611226634416L294.784,295.8548776956933L297.33454545454543,296.56683227910196L297.84363636363634,297.1228237878678L298.3527272727273,299.44351277390007L298.60727272727274,301.27177907069154L298.8669090909091,300.92331840170795L299.1214545454546,297.97323086837116L299.6305454545454,298.8948400901802L299.88509090909093,298.81829061136966L300.1396363636364,296.456814898208L301.41236363636364,300.38786596039745L302.6901818181818,297.7670937575434L307.5316363636364,302.5681277946452L309.3185454545455,303.15185947382486L310.0821818181818,302.5449074463905L310.3367272727273,303.255336571571L310.8458181818182,304.19776646246976L311.10545454545456,297.59977880376647L311.61454545454546,287.1201763124042L313.14181818181817,292.0615311674846L316.9650909090909,297.76720360188415L316.97018181818186,301.0129426152907L317.4792727272727,292.97623699529373L318.2429090909091,288.6517225903958L320.0298181818182,294.629958874831L320.28436363636365,303.04253511115L322.5752727272727,302.26449144672404L323.344,292.50707268083977L325.38036363636365,297.86240155823117L326.144,300.75971039774964L326.40363636363634,299.5233995892174L329.2087272727273,302.2683362863139L330.48145454545454,303.8166635793799L331.49963636363634,306.03531305424815L332.5229090909091,299.0132707815518L335.5825454545455,284.1118425452067L336.0916363636364,284.79762276756543L337.6189090909091,291.15478705938426L338.38254545454544,296.24420611219597L338.6421818181818,292.1387193902867L339.6603636363636,294.54679472435987L339.9149090909091,295.3637701089631L341.44218181818184,302.32279552906124L346.0341818181818,300.1162803280549L346.5432727272727,302.121553724518L347.0523636363636,302.4675938281474L349.3483636363636,297.739491260873L350.88072727272726,316.1844816620972L354.1949090909091,301.48832571472803L358.01818181818186,304.05909113398087L358.78181818181815,306.45129398921966L361.0778181818182,302.33253476045786L361.5869090909091,300.96885349955915L362.85963636363635,305.17234303745175L363.3738181818182,305.36535781823306L363.88290909090904,301.60949754741625L366.43345454545454,305.01975625183917L368.2152727272727,304.0616426984289L368.98400000000004,304.06894756676246L369.4930909090909,306.6903914223441L371.5294545454545,307.41369457554686L371.78400000000005,308.7786107097176L376.1214545454545,308.72807882725607L377.1396363636363,308.9178246756947L379.4356363636364,307.9594213882052L379.6901818181818,307.26585124516225L380.1992727272727,308.6588994647593L381.2174545454546,310.1578092654737L383.25890909090907,304.7389384325384L386.064,302.76503496836625L387.0821818181818,303.91009661955064L387.3418181818182,305.4320811912707L388.1054545454545,303.2315592824107L388.61454545454546,304.03364825115824L389.12363636363636,304.74841780909264L391.41963636363636,310.0004443482734L391.67418181818186,307.6101485291182L392.43781818181816,308.5464178523506L392.6923636363636,308.53319333442226L393.456,310.14764514685453L393.9701818181818,299.518399699144L394.4792727272727,294.92128728556287L395.752,296.23728890605275L397.28436363636365,300.11200825458644L398.5570909090909,303.80689808043314L398.81163636363635,306.21255352806656L401.61672727272725,304.90872866962695L403.91272727272724,301.8175857255159L404.4218181818182,301.0728484826067L404.67636363636365,301.27251363030587L406.2087272727273,300.70419213278956L407.48145454545454,301.0902774424301L408.4996363636364,305.23733633812856L408.75418181818185,306.57472444973877L411.55927272727274,304.58101484622205L413.34618181818183,306.60828171381655L414.36436363636363,307.979974010224L415.3876363636364,305.4300525637596L415.8967272727273,308.4540168790954L416.9149090909091,309.7578690708822L420.4836363636363,310.12372243183L420.9927272727273,310.7292728683022L422.01599999999996,309.9613043729802L422.2705454545454,310.83649601549394L422.77963636363637,313.13763896960944L423.5432727272727,313.4131672193421L424.312,310.3921138298663L425.83927272727277,307.3550503914323L426.8574545454545,309.54238016318493L427.88072727272726,301.9972365530815L429.408,304.0713908897822L430.17163636363637,308.01830352097886L431.19490909090905,306.9621396313548L431.95854545454546,306.1782998461555L433.23127272727277,309.47182688082256L434,293.68556535968526L435.01818181818186,279.54135856221427L437.05963636363634,271.745175699434L438.8414545454545,259.31814740517507L439.35563636363634,251.26887957924916L439.61018181818184,255.3937525881211L441.9010909090909,246.33345806857253L444.19709090909095,234.4308980377236L446.23854545454543,230.8586261490753L447.7658181818182,228.8363223991458L448.5345454545454,226.761815551245L451.33454545454543,223.68918133453633L451.58909090909094,220.75194154875578L452.3578181818182,220.37288557058417L453.8850909090909,217.34374609876033L454.65381818181817,217.3867894060876L455.4174545454546,210.37351824959134L461.0276363636364,206.7845874149863L465.61454545454546,203.004768577128L466.12363636363636,201.13188873627362L466.3781818181818,199.860933403474L466.63272727272727,200.44247181095477L468.67418181818186,201.3800415366318L470.46109090909096,188.4695263532034L470.71563636363635,185.84730463929938L471.22472727272725,186.51776782628676L471.4792727272727,190.34942833000943L474.53890909090904,192.97600505673572L475.048,194.85963470932649L477.59854545454544,194.52100335806335L478.3621818181818,198.3708429714141L479.1309090909091,198.665139342825L480.1490909090909,196.08923974067565L481.16727272727275,193.66377538165767L482.6996363636364,188.36301241835957L482.95418181818184,185.52834421775685L483.2087272727273,182.38297486404488L483.71781818181813,185.5130766061655L484.48145454545454,188.7137521294555L487.2865454545455,191.02754752768587L488.5643636363637,203.05505275724408L489.328,194.61743496200117L489.5825454545454,191.8019245462265L491.8785454545455,187.26452042545566L492.6421818181818,187.134365481028L495.19272727272727,183.30308245198796L495.9563636363636,180.34738894668894L496.72,181.26258164596044L497.7432727272727,190.04825413702588L498.50690909090906,186.80619898914122L500.5483636363636,187.94117041101725L503.3483636363636,184.1283773261696L504.37163636363636,180.10241165653093L504.88072727272726,180.95466178282643L510.4909090909091,183.27979164504924L512.5272727272727,183.63368908257553L512.786909090909,183.83123184991285L513.5505454545455,193.02745308234213L515.0778181818182,187.70702189660693L515.3323636363637,185.16693225060777L516.8647272727272,179.80947546819976L518.9010909090908,181.45144350919261L519.6698181818182,175.33940564769617L520.688,177.61435029122464L521.7061818181818,179.76212001294232L522.2203636363636,184.11310961445406L522.7294545454546,178.62970838163432L524.2567272727273,176.90697610273492L526.2981818181818,180.18902330195888L528.0850909090909,181.78976645584194L528.5941818181818,181.79646647031055L529.3578181818182,178.50702459248373L529.8669090909091,177.44449252092923L530.1214545454545,176.6529288543938L530.376,175.86267759379456L531.9083636363637,177.0919059167023L532.9265454545455,178.7110414658413L533.1810909090909,179.29389479155097L534.7134545454546,174.72513088156043L536.7498181818182,172.446702085566L537.0043636363637,172.43179421933078L537.7730909090909,164.803270663269L538.2821818181818,166.83434162314666L540.3236363636363,170.43903877656157L543.1236363636364,172.03567215068747L545.4196363636364,172.17181183879225L545.9287272727273,172.3784239414969L547.4610909090909,160.5452587618464L547.7156363636363,155.73731048947988L548.7338181818182,158.192030234248L549.4974545454545,165.65076055127466L551.2843636363637,168.792910052545L555.6218181818182,170.4708517931728L556.64,159.03556179092624L558.4218181818181,152.89252975210115L559.6996363636364,146.79809468442176L560.2087272727273,146.56899516950668L562.2501818181818,140.92650260455432L563.2683636363636,137.83532402420218L565.3098181818182,133.1389207197335L566.5825454545454,131.5756208950974L566.837090909091,131.22961810367585L567.0916363636364,130.80291500543203L570.9149090909091,130.6090518844551L571.9381818181819,127.66784203228306L573.72,128.85670266352702L574.4887272727273,132.6718466169353L575.2523636363636,132.63938253627398L576.7796363636363,130.71205374227773L577.0341818181818,129.41186811247354L577.0392727272728,128.57239395715587L577.8029090909091,128.77159027563084L579.0756363636364,128.14810225409965L580.3534545454545,143.7806544776459L580.608,143.89213443726544L583.1534545454546,135.56886323672077L583.1585454545454,130.7342501024011L584.1767272727272,122.30760741837148L584.4312727272727,118.51055385230292L585.4494545454546,121.4689675357431L585.9585454545454,122.84403189112113L587.2363636363636,124.6508428072388L588,121.59615098579653L589.0181818181818,122.14064108140923L589.2727272727273,122.00368809770646L589.5323636363636,98.76845438673766L589.786909090909,100.8679619518114L590.296,105.64707091804613L592.8465454545454,112.66582368823819L593.3556363636363,114.03494712662908L595.3919999999999,116.91943413313584L595.3970909090909,118.516004325751L596.1607272727273,121.26484523857205L604.570909090909,119.64815640554605L606.8669090909091,120.31045348077694L609.4174545454546,118.18849425820412L610.9498181818182,108.26393178279488L611.2043636363636,107.78765157003087L614.0094545454546,116.72815192631796L614.7730909090909,116.98061993482291L616.8145454545455,116.22260598371372L619.36,115.16194007222816L621.146909090909,114.38241254034187L621.9105454545454,111.64455983346065L622.6741818181819,112.20734860834924L623.952,114.91713503972153L625.2247272727274,115.90911817951735L625.4792727272727,115.38308187157824L626.248,122.41703392923112L626.5025454545454,121.73675314324655L628.2843636363637,117.34675607498541L630.3258181818182,114.33211862014079L631.0894545454545,110.27008350861001L633.3854545454545,105.633931387334L635.6814545454545,103.1621161094361L638.2269090909091,105.93938111648376L642.3098181818182,105.53792804054369L644.0916363636363,106.80807762409898L645.624,101.48366095369119L647.4109090909091,103.88195544246956L647.92,114.47868112582964L648.9381818181819,114.83919602445135L650.4654545454546,112.17939907944185L651.2341818181818,106.98738450688651L653.7847272727273,122.29388498406254L654.5483636363637,114.44607147298314L655.8210909090909,114.4845060493423L658.8807272727272,110.31121296835951L664.4909090909091,108.97989526725463L668.8283636363636,105.94779076505316L670.1010909090909,104.993990585472L670.3556363636363,103.26022789541261L672.6516363636364,98.7610181105814L673.4152727272727,99.65599642387934L674.688,100.05431332232888L676.4749090909091,99.37613221812889L677.2385454545454,100.34825323596877L678.7709090909091,97.07951060240322L681.0669090909091,94.6877115858403L682.8487272727273,90.21118428111345L686.1629090909091,88.93048828551605L688.7134545454545,88.6414419236818L689.9861818181819,87.11859717773252L690.7549090909091,80.27206750531684L691.0094545454546,84.10020518497066L691.7730909090909,85.90135472390524L692.0276363636364,85.15266576437719L699.165090909091,84.13212941525182L699.6792727272727,77.96115237772563L700.6974545454545,75.81323872465752L700.952,74.51670219525991L702.2247272727273,76.89880315884005L702.4792727272727,77.92912590745027L705.2843636363637,78.94204386430873L707.0712727272728,83.04104166291182L707.5803636363636,83.10829661236814L707.834909090909,82.29718335356966L712.4269090909091,83.35554414451522L714.4632727272726,80.07775433966452L715.4865454545454,72.09267407856822L715.9956363636363,68.9038142045469L716.7592727272728,68.90783400994448L717.2683636363637,69.9119466397309L717.5229090909091,72.08621038128894L719.0552727272727,72.41295516860619L720.0734545454545,71.65673942599788L720.328,71.08374641681232L720.5825454545454,70.73163644210497L720.8421818181819,70.58253371206814L721.3512727272728,76.99280000375661L722.6239999999999,77.02669070904777L723.1330909090909,75.23263886605014L724.9200000000001,69.44450302471968L731.2938181818182,72.89620977502976L731.5483636363637,75.48526093884279L734.098909090909,72.85949997664461L734.3534545454545,71.0687639425748L736.1352727272728,69.87864992894453L736.6494545454544,71.47274649785015L736.9040000000001,68.80886147238326L737.6676363636363,67.07249956303997L739.2,68.23184987230906L740.9818181818181,71.13633513831914L744.0414545454546,71.61099170888082L745.8283636363636,83.30814135823945L746.0829090909091,79.30469898546801L747.8647272727274,74.42137693939009L748.378909090909,72.09265390646934L748.6334545454545,76.34685330481692L748.8879999999999,82.31489558052382L749.6516363636364,75.33008939431753L754.2385454545455,71.96957924327972L756.0254545454545,68.86410075921683L756.28,67.25925421384015L757.0436363636363,68.05011082345737L758.576,58.345572132998846L759.3396363636363,57.55601998117659L759.8487272727274,60.122208761605954L760.6123636363636,62.76150339489991L761.381090909091,63.010549064370146L763.6719999999999,64.60284896046255L764.9498181818182,61.1474676839367L765.9680000000001,62.81450521913441L766.2225454545455,63.95661631792586L766.9912727272726,52.22534112757602L767.2458181818181,53.37270623686081L767.5003636363637,50.48180719111164L768.7730909090909,54.86895729389186L769.7963636363637,58.67481701109367L770.0509090909092,57.781686070636596L771.0690909090908,59.03319349577562L772.3418181818182,62.65877095227986L772.5963636363637,65.07231122548158L772.8509090909091,65.99317817020926L773.3650909090909,62.04462923974172L775.656,63.88158017084784L775.9105454545454,65.00697748373899L775.9156363636364,65.77077148946518L777.1883636363636,67.01817137196632L778.461090909091,67.11743573265129L778.9752727272727,67.61887326390467L779.738909090909,80.51367215752197L780.248,78.98790024520169L780.757090909091,74.51834946059853L781.5207272727273,70.09342561357104L783.0530909090909,68.44329405234785L785.8581818181817,72.76659320679424L786.3672727272727,76.50294042563567L789.426909090909,72.2083979342883L789.6814545454545,70.43214157100311L792.2320000000001,69.68604484791416L794.528,75.25629344890623L795.0370909090909,74.84678345983963L795.5461818181818,71.34104515401378L797.0734545454546,67.290726244195L798.6058181818182,69.2762574463663L798.8603636363637,70.42209841496273L800.1330909090909,69.47299572307543L800.9018181818182,70.24539205047809L801.1563636363636,69.80453487340313L802.1745454545454,69.39809176848968L805.2341818181818,68.1546196684223L805.7432727272727,64.7409067164852L805.9978181818182,62.71094945885346L808.0392727272726,63.78573858981428L808.5483636363635,62.91039152083153L809.0574545454546,63.22275302182679L810.8443636363637,64.39506477332264L812.6312727272727,63.1989230246104L813.3949090909091,58.548093975444736L813.6494545454545,53.53528595687654L814.4130909090909,55.737381214557054L814.9221818181818,57.71973955903382L815.1767272727274,59.23818212030339L815.690909090909,61.21610211778236L817.2181818181818,58.274693443794625L818.2363636363636,59.8949444009481L818.4909090909091,60.49753863931949L821.805090909091,61.86692456028249L822.3192727272727,63.8915529621576L823.0829090909092,62.111093221328304L824.8647272727272,62.69992214374981L825.3789090909091,73.22029781481223L825.888,73.27964900619409L827.4152727272728,68.23188154252725L828.4385454545454,59.19383070668176L829.9658181818182,59.611099285975826L830.4749090909091,61.2432580957709L832.0072727272727,61.767112475368485L832.7709090909091,60.79806631729908L833.5345454545455,63.11823426176121L834.0487272727272,63.16730963655814L836.0850909090909,59.8284676571604L838.1265454545454,57.83110593192953L839.3992727272727,58.942815559697294L840.4225454545455,53.2192725438579L841.6952727272728,58.862660561119036L844.7549090909091,59.97833052651468L845.2639999999999,61.66576170808674L849.3418181818181,61.71449507538503L849.856,68.0281430035682L851.1287272727272,68.22458853348249L853.1701818181817,66.74600369610278L853.4247272727272,62.571131172177886L854.952,61.364956872730666L856.2298181818182,60.68622654354777L856.9934545454545,60.57855759707245L858.0116363636363,61.24318194430916L858.2661818181818,61.392808381022576L858.5207272727273,61.150890835128735L858.7803636363636,63.19464349045311L859.7985454545455,60.097066797539775L860.5621818181819,58.75803823157133L860.8167272727272,59.59948544603139L861.5854545454546,59.59303189983083L861.84,44.71073399135457L862.0945454545455,47.40217041285377L863.3672727272727,51.1935405935771L863.8763636363635,55.5267720343167L866.1723636363637,58.119936125246944L867.7047272727274,59.46014678821677L870.2501818181818,58.739039872093656L874.333090909091,57.60001789953539L875.6058181818181,55.03032622206978L877.6472727272727,59.98607214603657L878.4109090909092,60.33013624685919L878.9200000000001,58.154535357238025L880.4523636363637,52.86396705395216L881.4705454545455,54.07883502205904L881.7250909090909,56.38741465165152L883.512,59.01194467288341L884.5301818181819,60.505527470637304L884.7847272727273,61.198593273605034L885.5483636363637,59.51225113189095L886.0574545454546,59.181455795656994L887.5898181818181,59.59918819328558L889.3767272727273,69.30504802267507L890.394909090909,65.61241738838775L890.904,65.04283314779823L892.1818181818182,62.70415421156431L896.0050909090909,64.73319031892964L896.7687272727273,63.51516537227494L898.2959999999999,61.71695752530858L899.5738181818182,59.13742965584098L902.888,62.11648122421898L903.9061818181818,61.974952039798204L905.6930909090909,57.66492638348993L907.48,57.684255314761195L910.5396363636364,57.49475371959392L913.5992727272727,58.22334239153763L914.872,55.84664119463425L917.4225454545455,58.857558077561215L919.4589090909091,58.388551255451546L919.7134545454546,57.17366995662553L920.7367272727272,56.7313395641817L921.2458181818182,54.823667189457865L921.7549090909091,55.3448379315527L922.5185454545455,55.307980219681816L922.7781818181818,55.827736043734404L924.050909090909,53.88433430170309L924.3054545454545,54.49784958003434L926.0923636363636,48.730485513584256L926.3469090909091,44.339722248469435L927.1105454545453,50.46573327070635L928.8923636363636,53.07555145073929L929.4065454545455,52.94120177639073L929.661090909091,53.264497245813295L929.9156363636364,56.86752887218912L931.9570909090909,57.433028821590305L932.9752727272727,59.21718267235206L933.9934545454546,57.895844630380765L935.7803636363636,53.7725802796675L937.0530909090909,58.127871370685455L940.6218181818182,55.5158637184681L940.8763636363636,55.37897471868524L941.645090909091,47.109642669251755L942.1541818181819,48.46074208679016L943.9359999999999,52.05481063865704L944.7047272727273,58.26707549271671L946.9956363636363,57.41139826839726L947.2501818181818,57.264941255043745L947.2552727272727,57.210800883466305L947.5098181818182,61.30910973715407L947.7643636363637,58.73212971651198L948.7825454545455,57.41293878954456L949.2916363636364,58.76621023526299L949.8007272727273,57.725828243350456L950.314909090909,57.08991825397559L951.0785454545454,65.51920233802693L951.3330909090909,68.40666318625415L952.0967272727273,66.70709037079914L954.6472727272727,65.00170861784358L956.1745454545454,63.520499765713346L957.4523636363635,67.58421311461201L959.4938181818181,64.12134072669022L959.7483636363637,63.41029131283832L961.021090909091,57.080993737090246L961.7847272727272,56.28020960866067L963.0625454545454,52.52657366910966L964.0807272727272,57.00849806704726L965.0989090909092,59.74063588409427L966.8858181818182,52.262848751161314L967.6494545454545,50.99340196346909L968.9272727272727,44.247705169810395L969.1818181818181,50.91638752746053L971.2181818181818,51.75509748391988L971.7323636363635,53.59452485643311L971.9869090909092,65.87207648347697L972.7505454545455,70.700675693433L974.792,64.86375624884693L977.8516363636363,60.862712493360654L978.1061818181818,67.52559128017398L978.3607272727273,66.18725794621199L978.6152727272728,68.1055794769168L981.9294545454545,65.62376738854024L987.5396363636363,67.5901179296936L988.3032727272727,61.94391531715578L988.8123636363637,59.06742729619962L989.3214545454546,58.50122458051069L990.0850909090909,57.37737200534263L990.3447272727273,58.77267078997031L990.8538181818183,59.120220213825185L991.6174545454545,58.37381344888444L991.872,57.5726823575492L996.2043636363636,56.070185870483584L998.5003636363637,54.525033965842475L1000.0327272727272,56.76045185802874L1001.050909090909,60.6356961053478L1001.3054545454546,62.61622902601864L1002.3287272727272,59.481888723983964L1002.5832727272726,65.83266661987801L1003.3469090909091,60.467899726182516L1005.8974545454546,53.07616382140198L1006.1519999999999,51.807207238733746L1008.957090909091,51.80864928789836L1009.2116363636364,55.34078701623908L1009.7207272727273,54.27769076003556L1009.9752727272728,53.540684139330224L1010.738909090909,53.48396884522994L1010.9934545454545,53.44568251279545L1011.2479999999999,53.74835920443333L1012.7803636363636,53.44793818061577L1013.2894545454544,52.98841410157008L1013.7985454545455,52.30433405176026L1016.6036363636364,56.561759682868264L1017.3672727272726,56.40526194058681L1017.6218181818181,55.76563722788534L1017.6269090909091,55.28469681600393L1017.8814545454545,62.587864587351085L1018.8996363636363,59.03654065973791L1019.6632727272728,58.21466268242748L1023.232,56.862451139658994L1023.7410909090909,55.88904148489882L1025.0189090909091,55.896541443807926L1025.528,56.534558990476604L1026.5461818181818,55.620754725257L1027.3149090909092,51.47881631062867L1027.5694545454546,52.0356855846192L1031.1381818181817,49.60516258402557L1033.1796363636363,49.137195072302184L1033.6887272727274,42.89642590403752L1034.1978181818183,45.442554904764364L1034.9614545454544,46.94198363670881L1035.4705454545453,48.10388354090363L1035.9847272727272,51.257628132450265L1038.2756363636365,51.929627724665714L1039.0392727272726,52.52122397799176L1039.5534545454545,60.18895680610569L1044.904,57.237920527176364L1045.9272727272728,54.26264369514025L1047.4545454545455,53.36102583543101L1048.2181818181818,52.48751022697999L1048.9869090909092,57.827131731661474L1050.514181818182,56.65943031939151L1051.2778181818182,54.735463403766445L1051.5374545454545,51.28583391958555L1052.810181818182,52.745174695494335L1053.3192727272726,50.852577431137284L1054.082909090909,51.53980775213097L1057.9112727272727,52.96824154534802L1058.9294545454545,52.65832927311886L1060.7163636363637,53.46349949841295L1060.9709090909091,53.334760868836334L1063.2618181818182,53.40353434485368L1064.5396363636364,51.59779407028184L1064.7941818181819,52.15712734418417L1065.0487272727273,52.65544875350779L1065.8123636363637,51.61998605474156L1067.090181818182,46.92276620411537L1068.362909090909,48.35445162635694L1069.1265454545455,48.22367076275125L1070.9134545454547,53.50374429366883L1071.9316363636362,53.53539662494146L1072.4407272727271,53.5717606330829L1074.4821818181817,50.489469455336895L1075.7549090909092,50.271837772383634L1077.0327272727272,52.20920415708853L1077.2872727272727,51.53348586289403L1078.56,52.64021086470714L1080.0923636363636,53.73819431152215L1081.8741818181818,53.295603523359L1083.152,52.36839870739942L1084.4247272727273,52.43617923555697L1084.6792727272727,51.5360727498221L1086.2116363636364,54.77740508148603L1087.9985454545454,53.23086887156776L1088.2530909090908,53.36217854331551L1088.762181818182,60.39233805190438L1089.7803636363637,57.86972103470767L1090.7985454545453,56.65797070572173L1091.8218181818181,65.55713523230015L1094.626909090909,62.665602542739L1096.1541818181818,58.077877730329696L1097.432,60.722886781349395L1098.1956363636364,60.664189635655376L1099.722909090909,57.736902693919184L1102.528,54.08125910757886L1103.2967272727274,52.54612200055805L1105.0785454545453,51.34289205762194L1105.8421818181819,50.151520361515495L1108.3927272727274,49.72027325619205L1110.6887272727272,54.21102771340756L1110.9432727272726,56.41051842477416L1111.7069090909092,56.165189539551044L1112.9847272727272,50.20822532265317L1114.2574545454545,48.269771760832924L1117.8261818181818,46.5806156313053L1118.0807272727272,45.6291476049606L1119.8676363636364,51.29231924601748L1121.1403636363636,50.35217716196846L1122.418181818182,51.956532382395345L1122.9272727272728,50.45867823835899L1123.1818181818182,46.493711792435L1124.709090909091,47.44777647570317L1127.005090909091,48.388793250946755L1127.7687272727273,48.55676195271764L1128.0283636363636,36.5526372793758L1128.282909090909,40.99708582437689L1128.5374545454545,44.351211731852054L1129.5556363636363,45.20618924679918L1131.8516363636365,50.13709022095252L1132.1061818181818,49.36322995582625L1132.6152727272727,49.841281846644954L1134.9112727272727,47.76703278099789L1135.1658181818182,47.437974325807744L1139.2436363636364,49.0416889597814L1140.776,42.693632720346216L1141.7941818181819,43.61660246638156L1143.8356363636362,45.055045455165406L1145.1083636363637,46.43890348758158L1146.1316363636365,47.15096024040144L1147.658909090909,48.89679381456433L1149.7003636363636,52.34199187332056L1150.7185454545454,54.941890249592454L1151.7367272727272,54.514373493386486L1152.250909090909,51.90637496031888L1153.7781818181818,49.08610496410379L1155.050909090909,47.86287308749032L1156.3287272727273,52.96700172673272L1157.6014545454545,49.620320093757094L1158.365090909091,48.89002080305965L1158.370181818182,48.38699400154408L1160.152,48.04207230635907L1161.938909090909,49.64210959256982L1163.9752727272728,50.80569125052501L1164.7440000000001,58.84745300826386L1165.5076363636363,54.39803172089804L1166.2712727272726,51.61999617216108L1166.525818181818,50.46317167623415L1168.3127272727272,47.118484357159865L1168.8218181818183,45.95753246028838L1171.3723636363636,33.0796124879185L1173.4087272727274,39.2773406860536L1174.6865454545455,43.31822972636241L1175.9592727272727,44.01298848477641L1176.728,45.50954493375679L1178.7643636363637,46.43260860608686L1184.12,44.34528764215529L1185.6472727272728,46.293309469391694L1186.416,47.5125412233049L1189.9847272727272,49.63158078481761L1191.512,48.20871815942448L1192.0261818181818,48.944312467944506L1192.5352727272727,39.635567651542175L1194.317090909091,41.73043803108657L1195.0807272727272,44.390440340030246L1195.8494545454546,41.44975610743567L1196.8676363636364,45.313523717022896L1197.1221818181818,47.77153882969083L1197.3767272727273,49.0799330640472L1197.8858181818182,49.44610767908592L1199.1636363636362,47.39665523520609L1200.9454545454546,46.95593710013577L1201.205090909091,48.01327135498897L1201.714181818182,51.05225481535262L1202.7323636363635,49.69819754104219L1203.4959999999999,49.04574832650302L1203.7505454545453,47.401980283555645L1204.2596363636364,47.74587005935879L1206.0465454545456,46.11123936457371L1207.8334545454545,43.12370650918941L1208.3425454545454,43.99577803360341L1211.6567272727273,44.773814706662726L1212.4203636363636,48.756745989430584L1213.184,48.69655791890923L1215.48,47.39354019488384L1216.4981818181818,47.621890787124954L1217.0123636363637,46.59481684281266L1220.581090909091,49.96836203669131L1221.853818181818,51.14451756299591L1222.1083636363635,51.285905142385275L1222.8770909090908,54.95914568173495L1223.8952727272726,49.485724346333015L1224.1498181818183,48.15193033480636L1224.4043636363638,49.53442998390565L1224.9134545454547,48.973461426099924L1225.9367272727272,47.11779394594421L1226.1912727272727,44.43114260424326L1226.4458181818181,42.388566620578786L1228.7367272727274,44.87940345386864L1230.5236363636363,40.875657910496095L1231.5418181818181,42.090619497370824L1231.8014545454546,43.114701708116684L1233.3287272727273,45.30782315551617L1235.1156363636364,54.17657304811826L1235.370181818182,49.528950825662484L1236.8974545454546,48.0630442328796L1237.661090909091,47.309225655060395L1239.448,42.183820977394745L1240.9752727272728,43.47780311073824L1241.4894545454545,44.53403451715383L1241.744,41.900373701468794L1242.5076363636365,35.86387318273005L1243.2712727272728,38.321896127795476L1244.034909090909,41.610941810269715L1246.84,42.63421682778241L1247.6087272727273,48.48240170680064L1249.3905454545454,49.25544654414444L1250.6683636363637,46.9548256769539L1251.432,47.59547370441183L1251.6865454545455,45.55465475720924L1251.941090909091,43.6108442113059L1252.7047272727273,43.49275306375207L1252.9592727272727,43.55483652352245L1254.4916363636362,44.66728665296003L1255.0007272727273,43.88706024113568L1255.5098181818182,42.03100048545171L1256.7876363636365,42.966852076189355L1258.3149090909092,44.79519503319057L1259.0785454545453,46.16959391091283L1259.5927272727272,58.856651316529216L1260.101818181818,57.230289333570404L1260.610909090909,56.05117610453337L1262.3978181818181,51.223532316646995L1264.4341818181817,49.03540235517382L1264.9432727272726,47.75812815659804L1265.4523636363638,46.803309094226876L1265.4574545454545,46.13265177577242L1265.712,44.34391795679649L1267.4938181818181,47.528810919793905L1267.7483636363636,47.94870513129905L1271.8312727272728,52.880417845648104L1272.5949090909091,51.17937550620503L1275.1454545454546,51.16377899184253L1276.6727272727273,49.69999430689165L1279.7323636363637,48.80891638538435L1281.010181818182,54.26618112192205L1281.2647272727274,49.80137924829745L1282.792,44.87549220109798L1283.3010909090908,43.45950147070271L1284.0698181818182,41.4494013222601L1286.8698181818181,42.65115352729246L1287.1294545454546,27.030437683375165L1287.6385454545455,32.48815495366163L1288.6567272727273,36.089757374919884L1289.1658181818182,39.34562802013691L1290.189090909091,16.846690418244588L1291.2072727272728,28.316733695419337L1292.48,36.039057980505724L1299.1134545454545,39.64473324547449L1299.6225454545456,43.15076193301177L1302.168,44.64297475354529L1302.173090909091,45.44276075533757L1307.7781818181818,46.7142905008676L1308.5469090909091,48.20003935005689L1309.3105454545455,47.97883287562464L1309.8196363636364,42.908228726164026L1310.3287272727273,40.465471425709616L1315.429818181818,38.036226152532414L1317.9803636363638,37.64587982203989L1318.2349090909092,42.63011739045848L1318.744,43.353243557633846L1319.2530909090908,43.566653542199276L1320.0167272727272,45.90381422626094L1322.3127272727272,44.804866763954834L1323.0763636363636,44.98766258391501L1323.330909090909,45.38497065262621L1324.6087272727273,45.961157898117804L1325.1178181818182,46.3651108712376L1325.626909090909,45.92192908590488L1326.6501818181819,44.69001529247562L1327.1592727272728,42.66941371006053L1328.1774545454546,43.65452299346597L1328.6865454545455,44.0894001002359L1333.0240000000001,31.1723980477753L1334.0421818181817,36.022312590441274L1335.5694545454546,39.57642572402588L1336.338181818182,37.67635893285707L1337.3563636363638,39.53770729767445L1338.8887272727272,41.17912001680956L1339.906909090909,43.754155596849195L1340.1614545454545,45.88268320167719L1340.6705454545454,48.446438238969584L1340.925090909091,49.59251344025356L1343.7301818181818,50.4000262183793L1345.7716363636364,45.65409075293488L1348.3221818181817,29.13151013514066L1350.8676363636364,33.674505888402116L1351.1221818181818,37.46017615881654L1351.1272727272728,39.75236377340135" fill="none"></path></g></g></g></g><g opacity="0.2"><g><g><g><path style="fill: none;" stroke="rgb(204, 51, 17)" stroke-width="2px" d="M168.0661818181818,380.81551846590907L169.33890909090908,372.745717828924L170.87127272727272,374.8579545454545L171.12581818181818,373.4522372159091L172.6530909090909,375.15238120339137L172.90763636363636,375.53963331742716L175.45818181818183,366.3789374611594L175.96727272727276,368.5290888006037L177.75418181818182,350.4921875L178.26327272727272,352.6677024147727L180.30472727272726,360.9346590909091L181.57745454545454,355.1630075628107L185.14618181818184,353.3402293812145L185.40072727272727,355.46789342706853L188.46036363636364,345.9625667225231L188.46545454545458,346.0580069802024L191.52,340.5405141657049L192.03418181818182,298.4137073863636L193.05236363636365,321.3068181818182L194.07054545454545,334.66793129660863L194.58472727272726,335.49656191739166L195.34836363636364,333.53441481156784L195.85745454545454,330.67826704545456L197.13018181818182,328.64342845569956L197.63927272727273,331.32543043656784L197.6443636363636,331.2851624922319L200.18981818181817,328.5362215909091L200.95854545454546,291.3181818181818L201.97672727272726,324.8412454778498L202.4858181818182,322.7222102772106L202.7403636363636,320.5370205965909L203.504,325.2745180996982L208.85963636363635,318.2945667613636L209.11418181818183,317.37964768843216L211.91927272727273,330.0088778409091L213.19709090909092,321.84232954545456L213.45163636363637,312.87251420454544L213.7061818181818,318.9861817793413L216.5112727272727,298.6814630681818L218.54763636363637,313.30081870339137L219.31636363636366,308.9900568181818L219.82545454545453,332.9094772338867L221.0981818181818,321.6415127840909L222.12145454545453,316.46812785755503L222.63054545454546,290.2471590909091L225.1810909090909,313.8833964954723L226.70836363636363,304.08128981156784L226.9629090909091,307.1539431485263L230.2770909090909,311.2659801136364L230.53163636363638,310.06107954545456L231.04072727272725,309.57420349121094L232.5730909090909,295.81642497669566L234.10036363636362,307.52969013560903L234.86909090909091,280.60795454545456L236.1418181818182,307.345346624201L237.16,314.46675872802734L237.67418181818184,308.7223011363636L238.1832727272727,333.802170493386L239.20145454545457,312.8916022560813L239.456,312.4039417613636L240.47927272727273,306.8200329867276L240.7338181818182,299.61860795454544L242.2610909090909,303.97931254993784L247.61672727272727,295.20063920454544L248.12581818181818,297.4318493929776L248.38036363636365,300.1159432151101L248.63490909090908,304.5720880681818L249.39854545454546,305.5821859186346L249.65818181818182,307.02058826793325L252.9723636363636,253.83238636363637L253.2269090909091,269.3622159090909L253.73600000000002,289.1761363636364L254.2450909090909,299.0383834838867L254.75418181818182,295.70268110795456L255.77236363636362,307.6959915161133L256.032,271.2365056818182L257.05018181818184,297.95847043124115L257.55927272727274,301.7224773060192L258.57745454545454,302.41775304620916L259.85527272727273,287.10102982954544L260.36436363636363,293.28163632479584L261.3825454545455,302.69779829545456L264.9563636363636,300.55889060280543L265.21090909090907,265.88139204545456L265.9745454545454,293.3263494318182L266.4836363636364,299.5738948475231L267.5018181818182,308.3742710460316L268.0109090909091,308.23150287974966L271.8392727272727,314.5237614024769L272.09381818181816,311.6676136363636L274.1301818181818,304.61680117520416L274.1352727272727,304.8591932816939L275.408,308.8295080011541L275.66254545454547,306.4016647338867L276.68072727272727,304.33100336248225L277.44945454545456,286.7663352272727L278.97672727272726,294.9137954711914L279.2312727272727,296.0373757102273L280.25454545454545,302.1408455588601L280.76363636363635,292.1214488636364L282.54545454545456,294.0553561123935L283.05454545454546,300.3002867265181L284.5869090909091,296.9410511363636L286.3738181818182,300.38082261518997L286.62836363636364,263.7393465909091L288.66472727272725,303.9325076016513L290.45163636363634,301.96147017045456L290.9607272727273,296.494704506614L294.784,295.1263788396662L297.33454545454543,297.5913522893732L297.84363636363634,297.92290912974966L298.3527272727273,302.7830408269709L298.60727272727274,303.9026988636364L298.8669090909091,300.421875L299.1214545454546,293.72798295454544L299.6305454545454,300.2210582386364L299.88509090909093,298.70813404430044L300.1396363636364,293.05859375L301.41236363636364,306.0447443181818L302.6901818181818,293.9957386363636L307.5316363636364,309.47693287242544L309.3185454545455,303.9918635975231L310.0821818181818,301.67148867520416L310.3367272727273,304.27766141024506L310.8458181818182,305.55394606156784L311.10545454545456,288.1051136363636L311.61454545454546,272.03977272727275L313.14181818181817,299.17226132479584L316.9650909090909,305.9778053977273L316.97018181818186,305.6836402199485L317.4792727272727,281.4112215909091L318.2429090909091,282.4286408857866L320.0298181818182,303.2327866987749L320.28436363636365,315.1484375L322.5752727272727,301.14486763694066L323.344,278.4659090909091L325.38036363636365,305.56885043057525L326.144,304.9290084838867L326.40363636363634,297.7443181818182L329.2087272727273,306.2183671431108L330.48145454545454,306.0447443181818L331.49963636363634,309.2280037619851L332.5229090909091,288.9083806818182L335.5825454545455,262.6683238636364L336.0916363636364,285.7844772338867L337.6189090909091,300.3029015280984L338.38254545454544,303.5680042613636L338.6421818181818,286.2308238636364L339.6603636363636,298.0120738636364L339.9149090909091,296.5394176136364L341.44218181818184,312.3370028409091L346.0341818181818,296.9410511363636L346.5432727272727,305.0071910511364L347.0523636363636,302.9655539772727L349.3483636363636,290.9356363469904L350.88072727272726,342.7272727272727L354.1949090909091,280.3401988636364L358.01818181818186,307.7584852738814L358.78181818181815,309.8937322443182L361.0778181818182,296.4055397727273L361.5869090909091,299.0064829046076L362.85963636363635,311.221267006614L363.3738181818182,305.64311079545456L363.88290909090904,296.2047230113636L366.43345454545454,309.92720170454544L368.2152727272727,302.6828939264471L368.98400000000004,304.0794594504617L369.4930909090909,310.4627130681818L371.5294545454545,308.45454545454544L371.78400000000005,310.7427583174272L376.1214545454545,308.6553622159091L377.1396363636363,309.19087357954544L379.4356363636364,306.5802556818182L379.6901818181818,306.2677868929776L380.1992727272727,310.66352982954544L381.2174545454546,312.3147770274769L383.25890909090907,296.9410511363636L386.064,299.9245397394354L387.0821818181818,305.55786826393825L387.3418181818182,307.62225411155003L388.1054545454545,300.0649545842951L388.61454545454546,305.18787384033203L389.12363636363636,305.7769886363636L391.41963636363636,317.5582386363636L391.67418181818186,304.17045454545456L392.43781818181816,309.8937322443182L392.6923636363636,308.51416293057525L393.456,312.4708806818182L393.9701818181818,284.22265625L394.4792727272727,288.3059303977273L395.752,298.131047335538L397.28436363636365,305.6878239024769L398.5570909090909,309.1239346590909L398.81163636363635,309.6743503917347L401.61672727272725,303.0324928977273L403.91272727272724,297.3693556352095L404.4218181818182,300.00115342573685L404.67636363636365,301.5598366477273L406.2087272727273,299.8863636363636L407.48145454545454,301.6458636197177L408.4996363636364,311.2050552368164L408.75418181818185,308.49925856156784L411.55927272727274,301.7120180996982L413.34618181818183,309.5255681818182L414.36436363636363,309.95387268066406L415.3876363636364,301.7606534090909L415.8967272727273,312.8055752840909L416.9149090909091,311.6341441761364L420.4836363636363,310.65019434148616L420.9927272727273,311.6006747159091L422.01599999999996,308.8561789772727L422.2705454545454,312.0959181352095L422.77963636363637,316.4490398060192L423.5432727272727,313.8096590909091L424.312,306.0447443181818L425.83927272727277,302.9846420288086L426.8574545454545,312.6900010542436L427.88072727272726,291.13959087025034L429.408,307.05614956942475L430.17163636363637,313.69800706343216L431.19490909090905,305.4422940340909L431.95854545454546,305.0503352772106L433.23127272727277,314.2112926136364L434,270.96875L435.01818181818186,259.1875L437.05963636363634,260.5262784090909L438.8414545454545,241.43535059148616L439.35563636363634,239.68578685413706L439.61018181818184,261.32954545454544L441.9010909090909,233.29547327215022L444.19709090909095,217.3028238469904L446.23854545454543,225.71803977272725L447.7658181818182,225.92617797851562L448.5345454545454,223.7765495993874L451.33454545454543,219.26758575439453L451.58909090909094,216.52518185702237L452.3578181818182,219.82741477272725L453.8850909090909,212.98474051735616L454.65381818181817,217.44872977516866L455.4174545454546,200.28125L461.0276363636364,201.6200284090909L465.61454545454546,197.56551707874644L466.12363636363636,198.43676896528763L466.3781818181818,198.03199768066406L466.63272727272727,201.2793197631836L468.67418181818186,202.72922723943537L470.46109090909096,169.89098011363637L470.71563636363635,182.07386363636363L471.22472727272725,187.4825807051225L471.4792727272727,195.86328125L474.53890909090904,196.75571302934128L475.048,197.5702237215909L477.59854545454544,194.0337045842951L478.3621818181818,203.9108560735529L479.1309090909091,199.0886389992454L480.1490909090909,192.38245738636363L481.16727272727275,190.17347301136363L482.6996363636364,180.73508522727272L482.95418181818184,181.44918753884056L483.2087272727273,177.85671164772728L483.71781818181813,190.01736935702237L484.48145454545454,193.31960227272725L487.2865454545455,194.35715553977275L488.5643636363637,220.36292613636363L489.328,182.4754971590909L489.5825454545454,187.7503363869407L491.8785454545455,180.73508522727272L492.6421818181818,186.94706934148616L495.19272727272727,177.78977272727272L495.9563636363636,176.0940739024769L496.72,182.5795662619851L497.7432727272727,202.69105113636363L498.50690909090906,182.1408025568182L500.5483636363636,189.57442196932706L503.3483636363636,178.64167508212003L504.37163636363636,174.30894886363637L504.88072727272726,182.18107050115412L510.4909090909091,186.62571022727272L512.5272727272727,184.14295612681997L512.786909090909,184.11550071022728L513.5505454545455,206.26103973388672L515.0778181818182,180.0507916537198L515.3323636363637,181.51168129660866L516.8647272727272,172.09996448863637L518.9010909090908,183.8142755681818L519.6698181818182,166.5440340909091L520.688,180.8880511197177L521.7061818181818,182.8528130271218L522.2203636363636,190.37428977272725L522.7294545454546,170.73896026611328L524.2567272727273,174.427922335538L526.2981818181818,184.91196927157316L528.0850909090909,184.0932748967951L528.5941818181818,181.80610795454547L529.3578181818182,173.7734375L529.8669090909091,175.91548295454547L530.1214545454545,175.5138494318182L530.376,174.7254867553711L531.9083636363637,178.86079545454547L532.9265454545455,181.04101701216265L533.1810909090909,180.1326349431818L534.7134545454546,168.1505681818182L536.7498181818182,169.16798747669566L537.0043636363637,172.41034143621272L537.7730909090909,153.82563920454547L538.2821818181818,169.75710227272728L540.3236363636363,175.6262858997692L543.1236363636364,174.33326651833275L545.4196363636364,172.36772017045453L545.9287272727273,172.67574379660866L547.4610909090909,143.51704545454547L547.7156363636363,148.81855565851384L548.7338181818182,161.7244318181818L549.4974545454545,176.38405539772728L551.2843636363637,173.31453982266513L555.6218181818182,172.88545088334516L556.64,142.5799005681818L558.4218181818181,144.0525568181818L559.6996363636364,138.02805397727272L560.2087272727273,146.23931537974966L562.2501818181818,132.8068181818182L563.2683636363636,133.3870426524769L565.3098181818182,126.38068181818181L566.5825454545454,129.3259943181818L566.837090909091,130.73171164772728L567.0916363636364,130.1888788396662L570.9149090909091,130.330078125L571.9381818181819,123.43536931818181L573.72,130.56750210848722L574.4887272727273,138.1619318181818L575.2523636363636,132.59266593239525L576.7796363636363,127.93858059969816L577.0341818181818,127.54086927934125L577.0392727272728,127.364370172674L577.8029090909091,129.05823863636363L579.0756363636364,127.2508877840909L580.3534545454545,166.2762784090909L580.608,144.0525568181818L583.1534545454546,123.59147297252309L583.1585454545454,123.77712388472125L584.1767272727272,110.18146306818181L584.4312727272727,113.04650115966797L585.4494545454546,125.72619698264381L585.9585454545454,124.82278303666547L587.2363636363636,127.2508877840909L588,117.20037495006216L589.0181818181818,122.92417560924184L589.2727272727273,121.80660941384056L589.5323636363636,65.33238636363637L589.786909090909,103.88920454545453L590.296,112.5243252840909L592.8465454545454,122.76598011363637L593.3556363636363,116.00514914772728L595.3919999999999,121.07028128884056L595.3970909090909,120.81350777365944L596.1607272727273,125.22049435702237L604.570909090909,117.321701743386L606.8669090909091,121.26351512562144L609.4174545454546,115.13494318181819L610.9498181818182,93.98224431818181L611.2043636363636,107.10227272727272L614.0094545454546,129.59375L614.7730909090909,117.34392755681819L616.8145454545455,115.13180541992188L619.36,113.63561595569956L621.146909090909,113.2606534090909L621.9105454545454,107.70472301136363L622.6741818181819,113.0172153819691L623.952,118.81658380681819L625.2247272727274,117.33660611239347L625.4792727272727,114.62610279430044L626.248,132.5390625L626.5025454545454,120.7578125L628.2843636363637,111.02944322065875L630.3258181818182,109.9939817948775L631.0894545454545,104.4247159090909L633.3854545454545,98.96239540793678L635.6814545454545,99.60511363636363L638.2269090909091,109.93593319979581L642.3098181818182,104.96022727272728L644.0916363636363,108.63585385409269L645.624,93.82169550115412L647.4109090909091,107.33315970680931L647.92,129.7276278409091L648.9381818181819,115.357985756614L650.4654545454546,108.35188640247691L651.2341818181818,99.51594890247691L653.7847272727273,144.3203125L654.5483636363637,103.15287642045453L655.8210909090909,114.539814342152L658.8807272727272,104.30574243718928L664.4909090909091,107.064096624201L668.8283636363636,101.58451843261719L670.1010909090909,103.62144886363637L670.3556363636363,100.76530109752309L672.6516363636364,92.286545493386L673.4152727272727,100.94389204545453L674.688,100.6275010542436L676.4749090909091,98.40021306818181L677.2385454545454,101.7471590909091L678.7709090909091,92.37571022727272L681.0669090909091,91.24585446444425L682.8487272727273,83.76935230601919L686.1629090909091,87.08753551136363L688.7134545454545,88.2254971590909L689.9861818181819,84.9271864457564L690.7549090909091,70.41974431818181L691.0094545454546,89.60898867520419L691.7730909090909,88.4932528409091L692.0276363636364,84.0752840909091L699.165090909091,82.66355271772906L699.6792727272727,69.0809659090909L700.6974545454545,72.72233858975497L700.952,72.650954506614L702.2247272727273,80.32670454545453L702.4792727272727,79.41178547252309L705.2843636363637,80.39965750954369L707.0712727272728,88.93959947065875L707.5803636363636,83.205078125L707.834909090909,81.1299715909091L712.4269090909091,84.87855113636363L714.4632727272726,75.36093486439097L715.4865454545454,60.60194882479581L715.9956363636363,64.31496706875888L716.7592727272728,68.91361860795453L717.2683636363637,71.35688920454547L717.5229090909091,75.21502893621272L719.0552727272727,72.88314888694069L720.0734545454545,70.56852652809837L720.328,70.25919550115412L720.5825454545454,70.22494160045278L720.8421818181819,70.36797124689275L721.3512727272728,86.21732954545453L722.6239999999999,77.07546026056463L723.1330909090909,72.650954506614L724.9200000000001,61.115234375L731.2938181818182,77.86329997669566L731.5483636363637,79.21096871115944L734.098909090909,69.0809659090909L734.3534545454545,68.49185111305931L736.1352727272728,68.16604683615944L736.6494545454544,73.7666903409091L736.9040000000001,64.97546594793147L737.6676363636363,64.57383242520419L739.2,69.900183244185L740.9818181818181,75.31596027721059L744.0414545454546,72.2940340909091L745.8283636363636,100.140625L746.0829090909091,73.54364776611328L747.8647272727274,67.39415740966797L748.378909090909,68.74156466397372L748.6334545454545,82.46875L748.8879999999999,90.90305397727272L749.6516363636364,65.27878293124112L754.2385454545455,67.1337231722745L756.0254545454545,64.39524147727272L756.28,64.94984089244497L757.0436363636363,69.1881727738814L758.576,44.38050426136362L759.3396363636363,56.419835177334875L759.8487272727274,63.815017006614006L760.6123636363636,66.55951274525034L761.381090909091,63.368931857022375L763.6719999999999,66.89420734752309L764.9498181818182,56.17508974942294L765.9680000000001,65.21341289173472L766.2225454545455,65.60014204545453L766.9912727272726,35.34375L767.2458181818181,55.02379261363638L767.5003636363637,46.321732954545475L768.7730909090909,61.182173295454525L769.7963636363637,64.1515419699929L770.0509090909092,56.49644886363638L771.0690909090908,60.834143205122494L772.3418181818182,67.8760653409091L772.5963636363637,68.54545454545453L772.8509090909091,67.31832816384056L773.3650909090909,56.36257102272729L775.656,66.52499736439097L775.9105454545454,66.6264516657049L775.9156363636364,66.86988969282672L777.1883636363636,68.81321022727272L778.461090909091,67.26027956875888L778.9752727272727,68.3404541015625L779.738909090909,99.06960227272728L780.248,76.79227724942294L780.757090909091,68.08655686811969L781.5207272727273,63.72585227272729L783.0530909090909,66.06871448863637L785.8581818181817,78.98792613636363L786.3672727272727,81.8796352039684L789.426909090909,66.02844654430044L789.6814545454545,67.8760653409091L792.2320000000001,68.6123934659091L794.528,83.27201704545453L795.0370909090909,74.25748859752309L795.5461818181818,66.2962022261186L797.0734545454546,61.462218544699944L798.6058181818182,72.1334852738814L798.8603636363637,72.07099151611328L800.1330909090909,68.10721380060369L800.9018181818182,71.35688920454547L801.1563636363636,69.17013064297763L802.1745454545454,68.81321022727272L805.2341818181818,66.36523298783735L805.7432727272727,59.828490517356194L805.9978181818182,59.78979145396841L808.0392727272726,65.33238636363637L808.5483636363635,61.65074573863638L809.0574545454546,63.67224884033203L810.8443636363637,66.08204997669566L812.6312727272727,61.47764587402344L813.3949090909091,51.85543753884057L813.6494545454545,46.321732954545475L814.4130909090909,58.90625L814.9221818181818,60.5724015669389L815.1767272727274,61.423258001154124L815.690909090909,64.06237723610619L817.2181818181818,54.04193462025034L818.2363636363636,62.22652504660865L818.4909090909091,61.36468644575641L821.805090909091,63.83750430020419L822.3192727272727,66.80504261363637L823.0829090909092,59.548968228426844L824.8647272727272,63.54726132479581L825.3789090909091,88.359375L825.888,73.36505681818181L827.4152727272728,60.96802104603159L828.4385454545454,46.18785511363638L829.9658181818182,60.21155894886362L830.4749090909091,63.59197443181819L832.0072727272727,62.520951704545475L832.7709090909091,59.403585260564626L833.5345454545455,66.45701252330434L834.0487272727272,63.23793029785156L836.0850909090909,55.02379261363638L838.1265454545454,54.95685369318181L839.3992727272727,60.542592828924L840.4225454545455,44.982954545454525L841.6952727272728,66.98363356156781L844.7549090909091,61.58380681818181L845.2639999999999,64.09401633522728L849.3418181818181,61.784623579545475L849.856,77.11363636363637L851.1287272727272,68.50727844238281L853.1701818181817,64.61828405206853L853.4247272727272,56.56338778409091L854.952,59.62924263694068L856.2298181818182,59.709517045454525L856.9934545454545,60.423619357022375L858.0116363636363,62.19959259033203L858.2661818181818,61.60812447287818L858.5207272727273,60.80276558615943L858.7803636363636,66.1356534090909L859.7985454545455,55.63957838578656L860.5621818181819,56.83114346590909L860.8167272727272,60.81034851074219L861.5854545454546,59.58374508944425L861.84,23.29474431818181L862.0945454545455,51.27521306818181L863.3672727272727,56.649414756081306L863.8763636363635,61.76239776611328L866.1723636363637,61.8515625L867.7047272727274,61.38874262029475L870.2501818181818,57.70134943181819L874.333090909091,55.9609375L875.6058181818181,51.3324772227894L877.6472727272727,67.11751140247691L878.4109090909092,60.82525287974966L878.9200000000001,55.02379261363638L880.4523636363637,45.25071022727271L881.4705454545455,55.82705965909091L881.7250909090909,59.709517045454525L883.512,62.78870738636362L884.5301818181819,62.654829545454525L884.7847272727273,62.19593186811969L885.5483636363637,57.08556365966797L886.0574545454546,58.70543323863638L887.5898181818181,60.20031530206853L889.3767272727273,83.27201704545453L890.394909090909,60.298631841486156L890.904,64.2231875332919L892.1818181818182,59.338738181374275L896.0050909090909,67.65302276611328L896.7687272727273,61.76239776611328L898.2959999999999,59.12929257479581L899.5738181818182,55.42542613636362L902.888,66.4034090909091L903.9061818181818,61.771288091486156L905.6930909090909,51.462694341486156L907.48,57.71207011829721L910.5396363636364,57.22205630215731L913.5992727272727,59.27179926091975L914.872,52.42651020396841L917.4225454545455,63.19034090909091L919.4589090909091,57.71363899924537L919.7134545454546,55.42542613636362L920.7367272727272,56.09481534090909L921.2458181818182,52.07848011363638L921.7549090909091,56.09481534090909L922.5185454545455,55.25494107333097L922.7781818181818,56.57567735151813L924.050909090909,51.087731794877506L924.3054545454545,55.380713029341244L926.0923636363636,40.431107954545475L926.3469090909091,38.02130681818181L927.1105454545453,59.28121254660865L928.8923636363636,56.83114346590909L929.4065454545455,52.74786931818181L929.661090909091,53.72972731156781L929.9156363636364,62.05237926136362L931.9570909090909,58.24679704145954L932.9752727272727,61.784623579545475L933.9934545454546,55.99440696022729L935.7803636363636,47.83910231156781L937.0530909090909,64.39524147727272L940.6218181818182,51.75712099942294L940.8763636363636,55.18198810924185L941.645090909091,35.20987215909091L942.1541818181819,50.40500710227271L943.9359999999999,57.22676294500178L944.7047272727273,67.20667613636363L946.9956363636363,56.180057872425444L947.2501818181818,57.054186040704906L947.2552727272727,57.132891568270594L947.5098181818182,67.20667613636363L947.7643636363637,55.02379261363638L948.7825454545455,55.51459087025034L949.2916363636364,60.71360085227271L949.8007272727273,56.22869318181819L950.314909090909,56.1748282692649L951.0785454545454,77.64914772727272L951.3330909090909,72.56178977272728L952.0967272727273,64.26136363636363L954.6472727272727,62.54762268066406L956.1745454545454,61.38900410045279L957.4523636363635,73.43199573863637L959.4938181818181,59.138182900168694L959.7483636363637,62.38707386363638L961.021090909091,47.9729801524769L961.7847272727272,55.127861716530525L963.0625454545454,47.125L964.0807272727272,63.45809659090909L965.0989090909092,63.67224884033203L966.8858181818182,41.50213068181819L967.6494545454545,49.16663707386362L968.9272727272727,34.540482954545475L969.1818181818181,60.51278409090909L971.2181818181818,52.962021567604744L971.7323636363635,56.24150570956144L971.9869090909092,83.53977272727272L972.7505454545455,77.64914772727272L974.792,56.46428680419922L977.8516363636363,55.10511294278231L978.1061818181818,77.11363636363637L978.3607272727273,64.26136363636363L978.6152727272728,70.86609094793147L981.9294545454545,62.05237926136362L987.5396363636363,70.41974431818181L988.3032727272727,53.818892045454525L988.8123636363637,54.928090875799L989.3214545454546,57.68644506281072L990.0850909090909,55.76012073863638L990.3447272727273,60.78053977272729L990.8538181818183,59.62035231156781L991.6174545454545,57.29971590909091L991.872,56.419835177334875L996.2043636363636,53.908056779341244L998.5003636363637,52.30152268843219L1000.0327272727272,59.97727272727271L1001.050909090909,66.2122670953924L1001.3054545454546,65.46626420454547L1002.3287272727272,54.97149658203125L1002.5832727272726,74.9715909090909L1003.3469090909091,52.74786931818181L1005.8974545454546,42.43927556818181L1006.1519999999999,49.98114776611328L1008.957090909091,51.81072443181819L1009.2116363636364,60.423619357022375L1009.7207272727273,52.74786931818181L1009.9752727272728,52.48011363636362L1010.738909090909,53.40235415371981L1010.9934545454545,53.39058754660865L1011.2479999999999,54.183918346058256L1012.7803636363636,53.015625L1013.2894545454544,52.327147743918694L1013.7985454545455,51.31992617520419L1016.6036363636364,62.68829900568181L1017.3672727272726,56.180057872425444L1017.6218181818181,54.845201665704906L1017.6269090909091,54.59261183305218L1017.8814545454545,73.09730113636363L1018.8996363636363,53.92609891024503L1019.6632727272728,57.03196022727271L1023.232,54.916585748845876L1023.7410909090909,54.48828125L1025.0189090909091,55.907334067604744L1025.528,57.45268180153588L1026.5461818181818,54.305768099698156L1027.3149090909092,45.51846590909091L1027.5694545454546,52.83703405206853L1031.1381818181817,46.107580705122494L1033.1796363636363,48.46377840909091L1033.6887272727274,33.915806857022375L1034.1978181818183,49.10649663751775L1034.9614545454544,49.09969815340909L1035.4705454545453,49.775885842063225L1035.9847272727272,55.79594352028588L1038.2756363636365,52.89665152809838L1039.0392727272726,53.372545415704906L1039.5534545454545,71.22301136363637L1044.904,52.991307345303625L1045.9272727272728,49.98114776611328L1047.4545454545455,52.063575744628906L1048.2181818181818,51.23049996115943L1048.9869090909092,65.51097731156781L1050.514181818182,54.979079506614006L1051.2778181818182,51.96682808615943L1051.5374545454545,46.321732954545475L1052.810181818182,54.845201665704906L1053.3192727272726,48.12908380681819L1054.082909090909,52.52874894575641L1057.9112727272727,55.02379261363638L1058.9294545454545,52.212357954545475L1060.7163636363637,54.62215909090909L1060.9709090909091,53.14950284090909L1063.2618181818182,53.50250105424359L1064.5396363636364,48.99928977272729L1064.7941818181819,52.962021567604744L1065.0487272727273,53.372545415704906L1065.8123636363637,50.12992997602985L1067.090181818182,40.16335227272729L1068.362909090909,50.41468186811969L1069.1265454545455,48.03547391024503L1070.9134545454547,61.10189888694068L1071.9316363636362,53.58094510165128L1072.4407272727271,53.6240893277255L1074.4821818181817,46.05397727272729L1075.7549090909092,49.9586604725231L1077.0327272727272,54.99712163751775L1077.2872727272727,50.561110756614006L1078.56,54.23281513560904L1080.0923636363636,55.318219271573156L1081.8741818181818,52.658704584295094L1083.152,51.03412836248225L1084.4247272727273,52.533717068758875L1084.6792727272727,50.24079756303265L1086.2116363636364,59.44176136363638L1087.9985454545454,51.00536554509944L1088.2530909090908,53.55113636363638L1088.762181818182,70.50890905206853L1089.7803636363637,54.23961361971769L1090.7985454545453,54.914232427423656L1091.8218181818181,78.36325003884056L1094.626909090909,58.50461647727271L1096.1541818181818,51.476029829545475L1097.432,64.52911931818181L1098.1956363636364,60.57972301136362L1099.722909090909,53.52446538751775L1102.528,48.82069882479581L1103.2967272727274,50.3370222611861L1105.0785454545453,49.611414822665125L1105.8421818181819,48.43710743297232L1108.3927272727274,49.09969815340909L1110.6887272727272,60.673332907936775L1110.9432727272726,59.575639204545475L1111.7069090909092,55.81215529008343L1112.9847272727272,41.63600852272729L1114.2574545454545,45.480289806019194L1117.8261818181818,44.1498787619851L1118.0807272727272,44.259961908513844L1119.8676363636364,59.44176136363638L1121.1403636363636,48.99928977272729L1122.418181818182,54.26523867520419L1122.9272727272728,48.303229592063225L1123.1818181818182,40.78802837025034L1124.709090909091,48.82069882479581L1127.005090909091,49.742939342152006L1127.7687272727273,48.79847301136362L1128.0283636363636,19.278409090909093L1128.282909090909,47.39275568181819L1128.5374545454545,49.177880720658756L1129.5556363636363,46.436522743918694L1131.8516363636365,57.23277698863638L1132.1061818181818,48.24962615966797L1132.6152727272727,50.529210177334875L1134.9112727272727,44.78213778409091L1135.1658181818182,46.96445118297232L1139.2436363636364,51.3494734330611L1140.776,33.55862496115943L1141.7941818181819,44.94477844238281L1143.8356363636362,47.125L1145.1083636363637,48.43030894886362L1146.1316363636365,48.17562727494671L1147.658909090909,51.40909090909091L1149.7003636363636,57.29971590909091L1150.7185454545454,58.68320742520419L1151.7367272727272,53.89916645396841L1152.250909090909,48.15340146151456L1153.7781818181818,45.0276676524769L1155.050909090909,46.10261258212003L1156.3287272727273,60.311967329545475L1157.6014545454545,44.8043635975231L1158.365090909091,47.83910231156781L1158.370181818182,47.663126165216624L1160.152,47.54572157426312L1161.938909090909,51.94460227272729L1163.9752727272728,52.48011363636362L1164.7440000000001,70.41974431818181L1165.5076363636363,47.99520596590909L1166.2712727272726,47.622335260564626L1166.525818181818,48.79847301136362L1168.3127272727272,42.30539772727271L1168.8218181818183,44.28689436479046L1171.3723636363636,14.54797155206853L1173.4087272727274,48.19602272727271L1174.6865454545455,49.13316761363638L1175.9592727272727,45.012763283469475L1176.728,47.663126165216624L1178.7643636363637,47.76091974431819L1184.12,41.34158186479046L1185.6472727272728,49.09656039151278L1186.416,49.267045454545475L1189.9847272727272,52.68093039772729L1191.512,46.16118413751775L1192.0261818181818,50.002850619229406L1192.5352727272727,26.24005681818181L1194.317090909091,44.74500760165128L1195.0807272727272,48.218248540704906L1195.8494545454546,37.21803977272729L1196.8676363636364,50.873579545454525L1197.1221818181818,51.30868252840909L1197.3767272727273,50.962744279341244L1197.8858181818182,49.973041881214506L1199.1636363636362,44.44744318181819L1200.9454545454546,46.321732954545475L1201.205090909091,49.53480113636362L1201.714181818182,55.42542613636362L1202.7323636363635,47.7496760975231L1203.4959999999999,48.106857993385994L1203.7505454545453,45.03655797784978L1204.2596363636364,48.240735834295094L1206.0465454545456,43.75896592573688L1207.8334545454545,38.82457386363638L1208.3425454545454,45.25071022727271L1211.6567272727273,45.893428455699556L1212.4203636363636,54.48828125L1213.184,48.60994581742718L1215.48,45.51846590909091L1216.4981818181818,47.95049285888672L1217.0123636363637,45.11683238636362L1220.581090909091,54.82297585227271L1221.853818181818,52.83703405206853L1222.1083636363635,51.489365317604744L1222.8770909090908,60.24502840909091L1223.8952727272726,41.60933754660865L1224.1498181818183,46.232568220658756L1224.4043636363638,51.52388069846412L1224.9134545454547,48.16621398925781L1225.9367272727272,44.44744318181819L1226.1912727272727,40.564985795454525L1226.4458181818181,39.44924996115943L1228.7367272727274,48.46377840909091L1230.5236363636363,35.11417042125357L1231.5418181818181,43.83897885409269L1231.8014545454546,44.58838098699397L1233.3287272727273,48.46377840909091L1235.1156363636364,66.93892045454547L1235.370181818182,42.84090909090909L1236.8974545454546,45.953568892045475L1237.661090909091,46.22446233575994L1239.448,34.80823863636362L1240.9752727272728,45.33987496115943L1241.4894545454545,46.05397727272729L1241.744,38.11047155206853L1242.5076363636365,27.177201704545475L1243.2712727272728,41.8590510975231L1244.034909090909,46.343958767977625L1246.84,44.10673453591088L1247.6087272727273,56.89808238636362L1249.3905454545454,50.367876919833094L1250.6683636363637,43.64417613636362L1251.432,48.517381841486156L1251.6865454545455,42.61786651611328L1251.941090909091,40.81365342573688L1252.7047272727273,43.32281702215022L1252.9592727272727,43.64417613636362L1254.4916363636362,46.26812952215022L1255.0007272727273,42.764295404607594L1255.5098181818182,39.36008522727271L1256.7876363636365,44.31356534090909L1258.3149090909092,47.426225142045475L1259.0785454545453,48.14738741787997L1259.5927272727272,77.11363636363637L1260.101818181818,54.88991477272729L1260.610909090909,54.35440340909091L1262.3978181818181,44.276435158469475L1264.4341818181817,45.88662997159091L1264.9432727272726,45.92009943181819L1265.4523636363638,45.42930117520419L1265.4574545454545,45.167559537020594L1265.712,41.76988636363638L1267.4938181818181,52.11194957386362L1267.7483636363636,48.552943142977625L1271.8312727272728,59.97727272727271L1272.5949090909091,48.73153409090909L1275.1454545454546,51.14133522727271L1276.6727272727273,47.59357244318181L1279.7323636363637,47.52663352272729L1281.010181818182,62.11931818181819L1281.2647272727274,43.376420454545475L1282.792,37.78702059659091L1283.3010909090908,41.42185627330435L1284.0698181818182,38.55681818181819L1286.8698181818181,44.38050426136362L1287.1294545454546,4.551846590909094L1287.6385454545455,40.341943220658756L1288.6567272727273,41.27255110307171L1289.1658181818182,44.03090529008343L1290.189090909091,-15.529829545454568L1291.2072727272728,44.822405728426844L1292.48,47.15167097611859L1299.1134545454545,44.8333878950639L1299.6225454545456,48.19602272727271L1302.168,46.79030539772729L1302.173090909091,46.593672318892025L1307.7781818181818,48.544052817604744L1308.5469090909091,50.33806818181819L1309.3105454545455,47.66051136363638L1309.8196363636364,35.61150568181819L1310.3287272727273,36.95028409090909L1315.429818181818,34.540482954545475L1317.9803636363638,37.08416193181819L1318.2349090909092,49.80255681818181L1318.744,44.39383974942294L1319.2530909090908,43.8737557151101L1320.0167272727272,49.267045454545475L1322.3127272727272,43.2234545621005L1323.0763636363636,45.25071022727271L1323.330909090909,45.956706653941744L1324.6087272727273,46.79030539772729L1325.1178181818182,46.94640905206853L1325.626909090909,45.2841796875L1326.6501818181819,42.91726129705256L1327.1592727272728,39.76171875L1328.1774545454546,45.072119279341244L1328.6865454545455,44.71519886363638L1333.0240000000001,12.584517045454527L1334.0421818181817,43.001457907936775L1335.5694545454546,44.690881208940006L1336.338181818182,34.94211647727271L1337.3563636363638,42.216232993385994L1338.8887272727272,43.54115295410156L1339.906909090909,47.45969460227271L1340.1614545454545,48.94568634033203L1340.6705454545454,52.13574426824397L1340.925090909091,51.241743607954525L1343.7301818181818,51.56205680153588L1345.7716363636364,38.82457386363638L1348.3221818181817,5.355113636363621L1350.8676363636364,40.21198758212003L1351.1221818181818,42.90784801136362L1351.1272727272728,43.050877657803625" fill="none"></path></g></g></g></g></g></g><g transform="translate(50, 377)" clip-path="url(#clip_1)"><clipPath id="clip_1"><rect width="1400" height="23"></rect></clipPath><g><g><line x1="0" y1="0" x2="0" y2="5" style="visibility: inherit;" fill="rgb(0, 0, 0)" stroke="rgb(204, 204, 204)" stroke-width="1px"></line><line x1="127.27272727272728" y1="0" x2="127.27272727272728" y2="5" style="visibility: inherit;" fill="rgb(0, 0, 0)" stroke="rgb(204, 204, 204)" stroke-width="1px"></line><line x1="254.54545454545456" y1="0" x2="254.54545454545456" y2="5" style="visibility: inherit;" fill="rgb(0, 0, 0)" stroke="rgb(204, 204, 204)" stroke-width="1px"></line><line x1="381.8181818181818" y1="0" x2="381.8181818181818" y2="5" style="visibility: inherit;" fill="rgb(0, 0, 0)" stroke="rgb(204, 204, 204)" stroke-width="1px"></line><line x1="509.0909090909091" y1="0" x2="509.0909090909091" y2="5" style="visibility: inherit;" fill="rgb(0, 0, 0)" stroke="rgb(204, 204, 204)" stroke-width="1px"></line><line x1="636.3636363636364" y1="0" x2="636.3636363636364" y2="5" style="visibility: inherit;" fill="rgb(0, 0, 0)" stroke="rgb(204, 204, 204)" stroke-width="1px"></line><line x1="763.6363636363636" y1="0" x2="763.6363636363636" y2="5" style="visibility: inherit;" fill="rgb(0, 0, 0)" stroke="rgb(204, 204, 204)" stroke-width="1px"></line><line x1="890.9090909090909" y1="0" x2="890.9090909090909" y2="5" style="visibility: inherit;" fill="rgb(0, 0, 0)" stroke="rgb(204, 204, 204)" stroke-width="1px"></line><line x1="1018.1818181818182" y1="0" x2="1018.1818181818182" y2="5" style="visibility: inherit;" fill="rgb(0, 0, 0)" stroke="rgb(204, 204, 204)" stroke-width="1px"></line><line x1="1145.4545454545455" y1="0" x2="1145.4545454545455" y2="5" style="visibility: inherit;" fill="rgb(0, 0, 0)" stroke="rgb(204, 204, 204)" stroke-width="1px"></line><line x1="1272.7272727272727" y1="0" x2="1272.7272727272727" y2="5" style="visibility: inherit;" fill="rgb(0, 0, 0)" stroke="rgb(204, 204, 204)" stroke-width="1px"></line><line x1="1400" y1="0" x2="1400" y2="5" style="visibility: inherit;" fill="rgb(0, 0, 0)" stroke="rgb(204, 204, 204)" stroke-width="1px"></line></g><g transform="translate(0, 8)"><text x="0" y="0" dx="0em" dy="0.95em" style="text-anchor: middle; visibility: hidden; font-family: Roboto, sans-serif; font-size: 12px; font-weight: 200;" fill="rgb(33, 33, 33)" stroke="none" stroke-width="1px">-50k</text><text x="127.27272727272728" y="0" dx="0em" dy="0.95em" style="text-anchor: middle; visibility: inherit; font-family: Roboto, sans-serif; font-size: 12px; font-weight: 200;" fill="rgb(33, 33, 33)" stroke="none" stroke-width="1px">0</text><text x="254.54545454545456" y="0" dx="0em" dy="0.95em" style="text-anchor: middle; visibility: inherit; font-family: Roboto, sans-serif; font-size: 12px; font-weight: 200;" fill="rgb(33, 33, 33)" stroke="none" stroke-width="1px">50k</text><text x="381.8181818181818" y="0" dx="0em" dy="0.95em" style="text-anchor: middle; visibility: inherit; font-family: Roboto, sans-serif; font-size: 12px; font-weight: 200;" fill="rgb(33, 33, 33)" stroke="none" stroke-width="1px">100k</text><text x="509.0909090909091" y="0" dx="0em" dy="0.95em" style="text-anchor: middle; visibility: inherit; font-family: Roboto, sans-serif; font-size: 12px; font-weight: 200;" fill="rgb(33, 33, 33)" stroke="none" stroke-width="1px">150k</text><text x="636.3636363636364" y="0" dx="0em" dy="0.95em" style="text-anchor: middle; visibility: inherit; font-family: Roboto, sans-serif; font-size: 12px; font-weight: 200;" fill="rgb(33, 33, 33)" stroke="none" stroke-width="1px">200k</text><text x="763.6363636363636" y="0" dx="0em" dy="0.95em" style="text-anchor: middle; visibility: inherit; font-family: Roboto, sans-serif; font-size: 12px; font-weight: 200;" fill="rgb(33, 33, 33)" stroke="none" stroke-width="1px">250k</text><text x="890.9090909090909" y="0" dx="0em" dy="0.95em" style="text-anchor: middle; visibility: inherit; font-family: Roboto, sans-serif; font-size: 12px; font-weight: 200;" fill="rgb(33, 33, 33)" stroke="none" stroke-width="1px">300k</text><text x="1018.1818181818182" y="0" dx="0em" dy="0.95em" style="text-anchor: middle; visibility: inherit; font-family: Roboto, sans-serif; font-size: 12px; font-weight: 200;" fill="rgb(33, 33, 33)" stroke="none" stroke-width="1px">350k</text><text x="1145.4545454545455" y="0" dx="0em" dy="0.95em" style="text-anchor: middle; visibility: inherit; font-family: Roboto, sans-serif; font-size: 12px; font-weight: 200;" fill="rgb(33, 33, 33)" stroke="none" stroke-width="1px">400k</text><text x="1272.7272727272727" y="0" dx="0em" dy="0.95em" style="text-anchor: middle; visibility: inherit; font-family: Roboto, sans-serif; font-size: 12px; font-weight: 200;" fill="rgb(33, 33, 33)" stroke="none" stroke-width="1px">450k</text><text x="1400" y="0" dx="0em" dy="0.95em" style="text-anchor: middle; visibility: hidden; font-family: Roboto, sans-serif; font-size: 12px; font-weight: 200;" fill="rgb(33, 33, 33)" stroke="none" stroke-width="1px">500k</text></g><line x1="0" y1="0" x2="1400" y2="0" fill="rgb(0, 0, 0)" stroke="rgb(204, 204, 204)" stroke-width="1px"></line></g></g></g></g></svg>