<svg viewBox="0 0 1450 400" xmlns="http://www.w3.org/2000/svg"><g><g><g><g><g><line x1="70" y1="377" x2="65" y2="377" style="visibility: inherit;" fill="rgb(0, 0, 0)" stroke="rgb(204, 204, 204)" stroke-width="1px"></line><line x1="70" y1="342.7272727272727" x2="65" y2="342.7272727272727" style="visibility: inherit;" fill="rgb(0, 0, 0)" stroke="rgb(204, 204, 204)" stroke-width="1px"></line><line x1="70" y1="308.45454545454544" x2="65" y2="308.45454545454544" style="visibility: inherit;" fill="rgb(0, 0, 0)" stroke="rgb(204, 204, 204)" stroke-width="1px"></line><line x1="70" y1="274.1818181818182" x2="65" y2="274.1818181818182" style="visibility: inherit;" fill="rgb(0, 0, 0)" stroke="rgb(204, 204, 204)" stroke-width="1px"></line><line x1="70" y1="239.9090909090909" x2="65" y2="239.9090909090909" style="visibility: inherit;" fill="rgb(0, 0, 0)" stroke="rgb(204, 204, 204)" stroke-width="1px"></line><line x1="70" y1="205.63636363636363" x2="65" y2="205.63636363636363" style="visibility: inherit;" fill="rgb(0, 0, 0)" stroke="rgb(204, 204, 204)" stroke-width="1px"></line><line x1="70" y1="171.36363636363637" x2="65" y2="171.36363636363637" style="visibility: inherit;" fill="rgb(0, 0, 0)" stroke="rgb(204, 204, 204)" stroke-width="1px"></line><line x1="70" y1="137.0909090909091" x2="65" y2="137.0909090909091" style="visibility: inherit;" fill="rgb(0, 0, 0)" stroke="rgb(204, 204, 204)" stroke-width="1px"></line><line x1="70" y1="102.81818181818181" x2="65" y2="102.81818181818181" style="visibility: inherit;" fill="rgb(0, 0, 0)" stroke="rgb(204, 204, 204)" stroke-width="1px"></line><line x1="70" y1="68.54545454545458" x2="65" y2="68.54545454545458" style="visibility: inherit;" fill="rgb(0, 0, 0)" stroke="rgb(204, 204, 204)" stroke-width="1px"></line><line x1="70" y1="34.27272727272729" x2="65" y2="34.27272727272729" style="visibility: inherit;" fill="rgb(0, 0, 0)" stroke="rgb(204, 204, 204)" stroke-width="1px"></line><line x1="70" y1="0" x2="65" y2="0" style="visibility: inherit;" fill="rgb(0, 0, 0)" stroke="rgb(204, 204, 204)" stroke-width="1px"></line></g><g transform="translate(60, 0)"><text x="0" y="377" dx="0em" dy="0.3em" style="text-anchor: end; visibility: hidden; font-family: Roboto, sans-serif; font-size: 12px; font-weight: 200;" fill="rgb(33, 33, 33)" stroke="none" stroke-width="1px">0</text><text x="0" y="342.7272727272727" dx="0em" dy="0.3em" style="text-anchor: end; visibility: inherit; font-family: Roboto, sans-serif; font-size: 12px; font-weight: 200;" fill="rgb(33, 33, 33)" stroke="none" stroke-width="1px">1e-4</text><text x="0" y="308.45454545454544" dx="0em" dy="0.3em" style="text-anchor: end; visibility: inherit; font-family: Roboto, sans-serif; font-size: 12px; font-weight: 200;" fill="rgb(33, 33, 33)" stroke="none" stroke-width="1px">2e-4</text><text x="0" y="274.1818181818182" dx="0em" dy="0.3em" style="text-anchor: end; visibility: inherit; font-family: Roboto, sans-serif; font-size: 12px; font-weight: 200;" fill="rgb(33, 33, 33)" stroke="none" stroke-width="1px">3e-4</text><text x="0" y="239.9090909090909" dx="0em" dy="0.3em" style="text-anchor: end; visibility: inherit; font-family: Roboto, sans-serif; font-size: 12px; font-weight: 200;" fill="rgb(33, 33, 33)" stroke="none" stroke-width="1px">4e-4</text><text x="0" y="205.63636363636363" dx="0em" dy="0.3em" style="text-anchor: end; visibility: inherit; font-family: Roboto, sans-serif; font-size: 12px; font-weight: 200;" fill="rgb(33, 33, 33)" stroke="none" stroke-width="1px">5e-4</text><text x="0" y="171.36363636363637" dx="0em" dy="0.3em" style="text-anchor: end; visibility: inherit; font-family: Roboto, sans-serif; font-size: 12px; font-weight: 200;" fill="rgb(33, 33, 33)" stroke="none" stroke-width="1px">6e-4</text><text x="0" y="137.0909090909091" dx="0em" dy="0.3em" style="text-anchor: end; visibility: inherit; font-family: Roboto, sans-serif; font-size: 12px; font-weight: 200;" fill="rgb(33, 33, 33)" stroke="none" stroke-width="1px">7e-4</text><text x="0" y="102.81818181818181" dx="0em" dy="0.3em" style="text-anchor: end; visibility: inherit; font-family: Roboto, sans-serif; font-size: 12px; font-weight: 200;" fill="rgb(33, 33, 33)" stroke="none" stroke-width="1px">8e-4</text><text x="0" y="68.54545454545458" dx="0em" dy="0.3em" style="text-anchor: end; visibility: inherit; font-family: Roboto, sans-serif; font-size: 12px; font-weight: 200;" fill="rgb(33, 33, 33)" stroke="none" stroke-width="1px">9e-4</text><text x="0" y="34.27272727272729" dx="0em" dy="0.3em" style="text-anchor: end; visibility: inherit; font-family: Roboto, sans-serif; font-size: 12px; font-weight: 200;" fill="rgb(33, 33, 33)" stroke="none" stroke-width="1px">1e-3</text><text x="0" y="0" dx="0em" dy="0.3em" style="text-anchor: end; visibility: hidden; font-family: Roboto, sans-serif; font-size: 12px; font-weight: 200;" fill="rgb(33, 33, 33)" stroke="none" stroke-width="1px">1.1e-3</text></g><line x1="70" y1="0" x2="70" y2="377" fill="rgb(0, 0, 0)" stroke="rgb(204, 204, 204)" stroke-width="1px"></line></g></g><g transform="translate(70, 0)" clip-path="url(#clip_0)"><clipPath id="clip_0"><rect width="1380" height="377"></rect></clipPath><g><g><g><line x1="0" y1="0" x2="0" y2="377" fill="rgb(0, 0, 0)" stroke="rgb(66, 66, 66)" stroke-width="1px" opacity="0.25"></line><line x1="125.45454545454545" y1="0" x2="125.45454545454545" y2="377" fill="rgb(0, 0, 0)" stroke="rgb(66, 66, 66)" stroke-width="1px" opacity="0.25"></line><line x1="250.9090909090909" y1="0" x2="250.9090909090909" y2="377" fill="rgb(0, 0, 0)" stroke="rgb(66, 66, 66)" stroke-width="1px" opacity="0.25"></line><line x1="376.3636363636363" y1="0" x2="376.3636363636363" y2="377" fill="rgb(0, 0, 0)" stroke="rgb(66, 66, 66)" stroke-width="1px" opacity="0.25"></line><line x1="501.8181818181818" y1="0" x2="501.8181818181818" y2="377" fill="rgb(0, 0, 0)" stroke="rgb(66, 66, 66)" stroke-width="1px" opacity="0.25"></line><line x1="627.2727272727273" y1="0" x2="627.2727272727273" y2="377" fill="rgb(0, 0, 0)" stroke="rgb(66, 66, 66)" stroke-width="1px" opacity="0.25"></line><line x1="752.7272727272726" y1="0" x2="752.7272727272726" y2="377" fill="rgb(0, 0, 0)" stroke="rgb(66, 66, 66)" stroke-width="1px" opacity="0.25"></line><line x1="878.1818181818181" y1="0" x2="878.1818181818181" y2="377" fill="rgb(0, 0, 0)" stroke="rgb(66, 66, 66)" stroke-width="1px" opacity="0.25"></line><line x1="1003.6363636363636" y1="0" x2="1003.6363636363636" y2="377" fill="rgb(0, 0, 0)" stroke="rgb(66, 66, 66)" stroke-width="1px" opacity="0.25"></line><line x1="1129.0909090909092" y1="0" x2="1129.0909090909092" y2="377" fill="rgb(0, 0, 0)" stroke="rgb(66, 66, 66)" stroke-width="1px" opacity="0.25"></line><line x1="1254.5454545454545" y1="0" x2="1254.5454545454545" y2="377" fill="rgb(0, 0, 0)" stroke="rgb(66, 66, 66)" stroke-width="1px" opacity="0.25"></line><line x1="1380" y1="0" x2="1380" y2="377" fill="rgb(0, 0, 0)" stroke="rgb(66, 66, 66)" stroke-width="1px" opacity="0.25"></line></g><g><line x1="0" y1="377" x2="1380" y2="377" fill="rgb(0, 0, 0)" stroke="rgb(66, 66, 66)" stroke-width="1px" opacity="0.25"></line><line x1="0" y1="342.7272727272727" x2="1380" y2="342.7272727272727" fill="rgb(0, 0, 0)" stroke="rgb(66, 66, 66)" stroke-width="1px" opacity="0.25"></line><line x1="0" y1="308.45454545454544" x2="1380" y2="308.45454545454544" fill="rgb(0, 0, 0)" stroke="rgb(66, 66, 66)" stroke-width="1px" opacity="0.25"></line><line x1="0" y1="274.1818181818182" x2="1380" y2="274.1818181818182" fill="rgb(0, 0, 0)" stroke="rgb(66, 66, 66)" stroke-width="1px" opacity="0.25"></line><line x1="0" y1="239.9090909090909" x2="1380" y2="239.9090909090909" fill="rgb(0, 0, 0)" stroke="rgb(66, 66, 66)" stroke-width="1px" opacity="0.25"></line><line x1="0" y1="205.63636363636363" x2="1380" y2="205.63636363636363" fill="rgb(0, 0, 0)" stroke="rgb(66, 66, 66)" stroke-width="1px" opacity="0.25"></line><line x1="0" y1="171.36363636363637" x2="1380" y2="171.36363636363637" fill="rgb(0, 0, 0)" stroke="rgb(66, 66, 66)" stroke-width="1px" opacity="0.25"></line><line x1="0" y1="137.0909090909091" x2="1380" y2="137.0909090909091" fill="rgb(0, 0, 0)" stroke="rgb(66, 66, 66)" stroke-width="1px" opacity="0.25"></line><line x1="0" y1="102.81818181818181" x2="1380" y2="102.81818181818181" fill="rgb(0, 0, 0)" stroke="rgb(66, 66, 66)" stroke-width="1px" opacity="0.25"></line><line x1="0" y1="68.54545454545458" x2="1380" y2="68.54545454545458" fill="rgb(0, 0, 0)" stroke="rgb(66, 66, 66)" stroke-width="1px" opacity="0.25"></line><line x1="0" y1="34.27272727272729" x2="1380" y2="34.27272727272729" fill="rgb(0, 0, 0)" stroke="rgb(66, 66, 66)" stroke-width="1px" opacity="0.25"></line><line x1="0" y1="0" x2="1380" y2="0" fill="rgb(0, 0, 0)" stroke="rgb(66, 66, 66)" stroke-width="1px" opacity="0.25"></line></g></g></g><g><g><line x1="0" y1="377" x2="1380" y2="377" fill="rgb(0, 0, 0)" stroke="rgb(153, 153, 153)" stroke-width="1.5px"></line></g></g><g><g><line x1="125.45454545454545" y1="0" x2="125.45454545454545" y2="377" fill="rgb(0, 0, 0)" stroke="rgb(153, 153, 153)" stroke-width="1.5px"></line></g></g><g><g><g><g><g><path stroke="rgb(204, 51, 17)" stroke-width="2px" d="M126.7090909090909,34.27271099405533L128.9722909090909,34.27271099405533L129.2232,34.27271099405533L129.97592727272726,34.27271099405533L130.22683636363638,34.27271099405533L131.7373090909091,34.27271099405533L131.98821818181818,34.27271099405533L135.00414545454547,34.27271099405533L136.7605090909091,34.27271099405533L137.0114181818182,34.27271099405533L137.26232727272728,34.27271099405533L140.27825454545456,34.27271099405533L140.52916363636362,34.27271099405533L141.036,34.27271099405533L141.2869090909091,34.27271099405533L142.03963636363636,34.27271099405533L142.29054545454545,34.27271099405533L143.5501090909091,34.27271099405533L144.80465454545455,34.27271099405533L146.56101818181818,34.27271099405533L148.8242181818182,34.27271099405533L149.58196363636364,34.27271099405533L150.5856,34.27271099405533L153.85243636363637,34.27271099405533L154.85607272727273,34.27271099405533L155.10698181818182,34.27271099405533L155.6088,34.27271099405533L155.86472727272727,34.27271099405533L157.3701818181818,34.27271099405533L159.13156363636364,34.27271099405533L159.63338181818182,34.27271099405533L159.8842909090909,34.27271099405533L160.63701818181818,34.27271099405533L162.14749090909092,34.27271099405533L162.9002181818182,34.27271099405533L163.40203636363637,34.27271099405533L163.90385454545455,34.27271099405533L165.66523636363635,34.27271099405533L166.91978181818183,34.27271099405533L168.43025454545455,34.27271099405533L168.68116363636364,34.27271099405533L170.18661818181818,34.27271099405533L170.43752727272727,34.27271099405533L172.95163636363637,34.27271099405533L173.45345454545458,34.27271099405533L175.21483636363638,34.27271099405533L175.71665454545453,34.27271099405533L177.72894545454545,34.27271099405533L178.9834909090909,34.27271099405533L182.5012363636364,34.27271099405533L182.75214545454546,34.27271099405533L185.76807272727274,34.27271099405533L185.77309090909094,34.27271099405533L188.78400000000002,34.27271099405533L189.29083636363634,34.27271099405533L190.29447272727273,34.27271099405533L191.2981090909091,34.27271099405533L191.80494545454545,34.27271099405533L192.55767272727275,34.27271099405533L193.0594909090909,34.27271099405533L194.31403636363635,34.27271099405533L194.81585454545456,34.27271099405533L194.8208727272727,34.27271099405533L197.32996363636363,34.27271099405533L198.0877090909091,34.27271099405533L199.09134545454543,34.27271099405533L199.59316363636364,34.27271099405533L199.8440727272727,34.27271099405533L200.59679999999997,34.27271099405533L205.87592727272727,34.27271099405533L206.1268363636364,34.27271099405533L208.89185454545455,34.27271099405533L210.1514181818182,34.27271099405533L210.40232727272726,34.27271099405533L210.65323636363635,34.27271099405533L213.41825454545454,34.27271099405533L215.42552727272727,34.27271099405533L216.18327272727274,34.27271099405533L216.6850909090909,34.27271099405533L217.93963636363637,34.27271099405533L218.9482909090909,34.27271099405533L219.45010909090908,34.27271099405533L221.96421818181818,34.27271099405533L223.46967272727272,34.27271099405533L223.7205818181818,34.27271099405533L226.98741818181819,34.27271099405533L227.2383272727273,34.27271099405533L227.74014545454546,34.27271099405533L229.25061818181817,34.27271099405533L230.7560727272727,34.27271099405533L231.51381818181818,34.27271099405533L232.76836363636366,34.27271099405533L233.772,34.27271099405533L234.27883636363637,34.27271099405533L234.78065454545452,34.27271099405533L235.7842909090909,34.27271099405533L236.0352,34.27271099405533L237.04385454545454,34.27271099405533L237.29476363636365,34.27271099405533L238.8002181818182,34.27271099405533L244.07934545454546,34.27271099405533L244.5811636363636,34.27271099405533L244.83207272727273,34.27271099405533L245.08298181818182,34.27271099405533L245.8357090909091,34.27271099405533L246.09163636363635,34.27271099405533L249.3584727272727,34.27271099405533L249.60938181818182,34.27271099405533L250.11120000000003,34.27271099405533L250.61301818181818,34.27271099405533L251.11483636363636,34.27271099405533L252.11847272727272,34.27271099405533L252.37439999999998,34.27271099405533L253.37803636363637,34.27271099405533L253.87985454545455,34.27271099405533L254.8834909090909,34.27271099405533L256.14305454545456,34.27271099405533L256.64487272727274,34.27271099405533L257.6485090909091,34.27271099405533L261.1712727272727,34.27271099405533L261.4221818181818,34.27271099405533L262.17490909090907,34.27271099405533L262.67672727272725,34.27271099405533L263.68036363636367,34.27271099405533L264.1821818181818,34.27271099405533L267.95585454545454,34.27271099405533L268.20676363636363,34.27271099405533L270.21403636363635,34.27271099405533L270.2190545454545,34.27271099405533L271.47360000000003,34.27271099405533L271.72450909090907,34.27271099405533L272.7281454545455,34.27271099405533L273.48589090909087,34.27271099405533L274.9913454545454,34.27271099405533L275.24225454545456,34.27271099405533L276.2509090909091,34.27271099405533L276.75272727272727,34.27271099405533L278.5090909090909,34.27271099405533L279.0109090909091,34.27271099405533L280.52138181818185,34.27271099405533L282.28276363636365,34.27271099405533L282.53367272727274,34.27271099405533L284.54094545454547,34.27271099405533L286.30232727272727,34.27271099405533L286.80414545454545,34.27271099405533L290.5728,34.27271099405533L293.0869090909091,34.27271099405533L293.5887272727273,34.27271099405533L294.09054545454546,34.27271099405533L294.34145454545455,34.27271099405533L294.5973818181818,34.27271099405533L294.8482909090909,34.27271099405533L295.3501090909091,34.27271099405533L295.6010181818182,34.27271099405533L295.85192727272727,34.27271099405533L297.1064727272727,34.27271099405533L298.36603636363634,34.27271099405533L303.1383272727273,34.27271099405533L304.8997090909091,34.27271099405533L305.65243636363635,34.27271099405533L305.90334545454544,34.27271099405533L306.4051636363636,34.27271099405533L306.6610909090909,34.27271099405533L307.1629090909091,34.27271099405533L308.66836363636367,34.27271099405533L312.4370181818182,34.27271099405533L312.44203636363636,34.27271099405533L312.94385454545454,34.27271099405533L313.6965818181818,34.27271099405533L315.4579636363637,34.27271099405533L315.7088727272727,34.27271099405533L317.9670545454545,34.27271099405533L318.7248,34.27271099405533L320.73207272727274,34.27271099405533L321.4848,34.27271099405533L321.74072727272727,34.27271099405533L324.5057454545455,34.27271099405533L325.7602909090909,34.27271099405533L326.7639272727273,34.27271099405533L327.77258181818183,34.27271099405533L330.7885090909091,34.27271099405533L331.29032727272727,34.27271099405533L332.7957818181818,34.27271099405533L333.5485090909091,34.27271099405533L333.80443636363634,34.27271099405533L334.8080727272727,34.27271099405533L335.05898181818185,34.27271099405533L336.5644363636364,34.27271099405533L341.09083636363636,34.27271099405533L341.59265454545454,34.27271099405533L342.0944727272727,34.27271099405533L344.3576727272727,34.27271099405533L345.86814545454547,34.27271099405533L349.1349818181818,34.27271099405533L352.9036363636364,34.27271099405533L353.6563636363636,34.27271099405533L355.91956363636365,34.27271099405533L356.4213818181818,34.27271099405533L357.6759272727273,34.27271099405533L358.18276363636363,34.27271099405533L358.6845818181818,34.27271099405533L361.1986909090909,34.27271099405533L362.9550545454545,34.27271099405533L363.7128,34.27271099405533L364.2146181818182,34.27271099405533L366.22189090909086,34.27271099405533L366.4728,34.27271099405533L370.7482909090909,34.27271099405533L371.75192727272724,34.27271099405533L374.0151272727273,34.27271099405533L374.2660363636364,34.27271099405533L374.76785454545455,34.27271099405533L375.7714909090909,34.27271099405533L377.7837818181818,34.27271099405533L380.5488,34.27271099405533L381.5524363636364,34.27271099405533L381.80836363636365,34.27271099405533L382.5610909090909,34.27271099405533L383.0629090909091,34.27271099405533L383.5647272727273,34.27271099405533L385.82792727272727,34.27271099405533L386.0788363636364,34.27271099405533L386.8315636363636,34.27271099405533L387.0824727272727,34.27271099405533L387.83520000000004,34.27271099405533L388.34203636363634,34.27271099405533L388.8438545454545,34.27271099405533L390.09839999999997,34.27271099405533L391.60887272727274,34.27271099405533L392.8634181818182,34.27271099405533L393.1143272727273,34.27271099405533L395.87934545454544,34.27271099405533L398.1425454545454,34.27271099405533L398.64436363636366,34.27271099405533L398.8952727272727,34.27271099405533L400.40574545454547,34.27271099405533L401.6602909090909,34.27271099405533L402.6639272727273,34.27271099405533L402.91483636363637,34.27271099405533L405.6798545454546,34.27271099405533L407.4412363636364,34.27271099405533L408.4448727272727,34.27271099405533L409.4535272727273,34.27271099405533L409.9553454545454,34.27271099405533L410.9589818181818,34.27271099405533L414.47672727272726,34.27271099405533L414.9785454545455,34.27271099405533L415.9872,34.27271099405533L416.23810909090906,34.27271099405533L416.7399272727273,34.27271099405533L417.4926545454545,34.27271099405533L418.2504,34.27271099405533L419.75585454545455,34.27271099405533L420.75949090909086,34.27271099405533L421.76814545454545,34.27271099405533L423.2736,34.27271099405533L424.0263272727273,34.27271099405533L425.0349818181818,34.27271099405533L425.7877090909091,34.27271099405533L427.04225454545457,34.27271099405533L427.8,205.63635549702767L428.8036363636364,205.63635549702767L430.81592727272727,205.63635549702767L432.5722909090909,205.63635549702767L433.07912727272725,205.63635549702767L433.3300363636364,205.63635549702767L435.58821818181815,205.63635549702767L437.8514181818182,205.63635549702767L439.8637090909091,205.63635549702767L441.3691636363636,205.63635549702767L442.12690909090907,205.63635549702767L444.88690909090906,205.63635549702767L445.1378181818182,205.63635549702767L445.89556363636365,205.63635549702767L447.4010181818182,205.63635549702767L448.15876363636363,205.63635549702767L448.9114909090909,205.63635549702767L454.4415272727273,205.63635549702767L458.96290909090914,205.63635549702767L459.46472727272726,205.63635549702767L459.71563636363635,205.63635549702767L459.96654545454544,205.63635549702767L461.9788363636364,205.63635549702767L463.7402181818182,205.63635549702767L463.9911272727273,205.63635549702767L464.4929454545454,205.63635549702767L464.7438545454545,205.63635549702767L467.7597818181818,205.63635549702767L468.2616,205.63635549702767L470.77570909090906,205.63635549702767L471.5284363636364,205.63635549702767L472.2861818181818,205.63635549702767L473.2898181818182,205.63635549702767L474.29345454545455,205.63635549702767L475.8039272727273,205.63635549702767L476.05483636363635,205.63635549702767L476.30574545454544,205.63635549702767L476.8075636363636,205.63635549702767L477.5602909090909,205.63635549702767L480.3253090909091,205.63635549702767L481.58487272727274,205.63635549702767L482.3376,205.63635549702767L482.5885090909091,205.63635549702767L484.85170909090914,205.63635549702767L485.60443636363635,205.63635549702767L488.1185454545455,205.63635549702767L488.8712727272727,205.63635549702767L489.624,205.63635549702767L490.6326545454545,205.63635549702767L491.3853818181818,205.63635549702767L493.3976727272727,205.63635549702767L496.1576727272727,205.63635549702767L497.1663272727273,205.63635549702767L497.6681454545454,205.63635549702767L503.1981818181818,205.63635549702767L505.20545454545453,205.63635549702767L505.4613818181818,205.63635549702767L506.2141090909091,205.63635549702767L507.71956363636366,205.63635549702767L507.97047272727275,205.63635549702767L509.48094545454546,205.63635549702767L511.4882181818181,205.63635549702767L512.2459636363636,205.63635549702767L513.2496,205.63635549702767L514.2532363636363,205.63635549702767L514.7600727272727,205.63635549702767L515.2618909090909,205.63635549702767L516.7673454545454,205.63635549702767L518.7796363636363,205.63635549702767L520.5410181818181,205.63635549702767L521.0428363636364,205.63635549702767L521.7955636363637,205.63635549702767L522.2973818181817,205.63635549702767L522.548290909091,205.63635549702767L522.7992,205.63635549702767L524.3096727272728,205.63635549702767L525.313309090909,205.63635549702767L525.5642181818182,205.63635549702767L527.0746909090909,205.63635549702767L529.0819636363636,205.63635549702767L529.3328727272727,205.63635549702767L530.0906181818182,205.63635549702767L530.5924363636364,205.63635549702767L532.6047272727272,205.63635549702767L535.3647272727272,205.63635549702767L537.6279272727273,205.63635549702767L538.1297454545455,205.63635549702767L539.6402181818182,205.63635549702767L539.8911272727273,205.63635549702767L540.8947636363637,205.63635549702767L541.6474909090908,205.63635549702767L543.4088727272728,205.63635549702767L547.6843636363636,205.63635549702767L548.688,291.31817774851385L550.4443636363636,291.31817774851385L551.7039272727272,291.31817774851385L552.2057454545454,291.31817774851385L554.2180363636363,291.31817774851385L555.2216727272727,291.31817774851385L557.2339636363636,291.31817774851385L558.488509090909,291.31817774851385L558.7394181818182,291.31817774851385L558.9903272727273,291.31817774851385L562.7589818181818,291.31817774851385L563.7676363636364,291.31817774851385L565.524,291.31817774851385L566.2817454545454,291.31817774851385L567.0344727272727,291.31817774851385L568.5399272727273,291.31817774851385L568.7908363636363,291.31817774851385L568.7958545454545,291.31817774851385L569.5485818181819,291.31817774851385L570.8031272727272,291.31817774851385L572.0626909090909,291.31817774851385L572.3136,291.31817774851385L574.8226909090909,291.31817774851385L574.8277090909091,291.31817774851385L575.8313454545455,291.31817774851385L576.0822545454546,291.31817774851385L577.085890909091,291.31817774851385L577.5877090909091,291.31817774851385L578.8472727272728,291.31817774851385L579.6,291.31817774851385L580.6036363636364,291.31817774851385L580.8545454545455,291.31817774851385L581.1104727272727,291.31817774851385L581.3613818181818,291.31817774851385L581.8632,291.31817774851385L584.3773090909091,291.31817774851385L584.8791272727273,291.31817774851385L586.8864,291.31817774851385L586.8914181818182,291.31817774851385L587.6441454545455,291.31817774851385L595.9341818181819,291.31817774851385L598.1973818181818,291.31817774851385L600.7114909090909,291.31817774851385L602.2219636363636,291.31817774851385L602.4728727272727,291.31817774851385L605.2378909090909,291.31817774851385L605.9906181818183,291.31817774851385L608.002909090909,291.31817774851385L610.5120000000001,291.31817774851385L612.2733818181819,291.31817774851385L613.026109090909,291.31817774851385L613.7788363636364,291.31817774851385L615.0384,291.31817774851385L616.2929454545455,291.31817774851385L616.5438545454546,291.31817774851385L617.3016,291.31817774851385L617.5525090909091,291.31817774851385L619.3088727272727,291.31817774851385L621.3211636363636,291.31817774851385L622.0738909090909,291.31817774851385L624.3370909090909,291.31817774851385L626.6002909090909,291.31817774851385L629.1093818181819,291.31817774851385L633.1339636363637,291.31817774851385L634.8903272727273,291.31817774851385L636.4008,291.31817774851385L638.1621818181818,291.31817774851385L638.664,291.31817774851385L639.6676363636363,291.31817774851385L641.1730909090909,291.31817774851385L641.9308363636363,291.31817774851385L644.4449454545454,291.31817774851385L645.1976727272728,291.31817774851385L646.4522181818181,291.31817774851385L649.4681454545454,291.31817774851385L654.9981818181818,291.31817774851385L659.2736727272727,291.31817774851385L660.5282181818183,291.31817774851385L660.7791272727272,291.31817774851385L663.0423272727272,291.31817774851385L663.7950545454546,291.31817774851385L665.0496,291.31817774851385L666.8109818181819,291.31817774851385L667.563709090909,291.31817774851385L669.0741818181818,334.15908887425695L671.3373818181818,334.15908887425695L673.0937454545455,334.15908887425695L676.3605818181818,334.15908887425695L678.8746909090909,334.15908887425695L680.1292363636364,334.15908887425695L680.8869818181818,334.15908887425695L681.1378909090909,334.15908887425695L681.8906181818182,334.15908887425695L682.1415272727273,334.15908887425695L689.1770181818182,334.15908887425695L689.6838545454546,334.15908887425695L690.6874909090909,334.15908887425695L690.9384,334.15908887425695L692.1929454545455,334.15908887425695L692.4438545454544,334.15908887425695L695.2088727272727,334.15908887425695L696.9702545454546,334.15908887425695L697.4720727272727,334.15908887425695L697.7229818181818,334.15908887425695L702.2493818181819,355.57954443712845L704.2566545454545,355.57954443712845L705.2653090909091,355.57954443712845L705.7671272727272,355.57954443712845L706.5198545454546,355.57954443712845L707.0216727272727,355.57954443712845L707.2725818181818,355.57954443712845L708.7830545454545,355.57954443712845L709.7866909090909,355.57954443712845L710.0376,355.57954443712845L710.2885090909091,355.57954443712845L710.5444363636364,355.57954443712845L711.0462545454545,355.57954443712845L712.3008,355.57954443712845L712.8026181818183,355.57954443712845L714.5640000000001,355.57954443712845L720.8467636363637,355.57954443712845L721.0976727272728,355.57954443712845L723.6117818181818,355.57954443712845L723.8626909090909,355.57954443712845L725.6190545454546,355.57954443712845L726.1258909090908,355.57954443712845L726.3768000000001,355.57954443712845L727.1295272727273,355.57954443712845L728.64,355.57954443712845L730.3963636363636,355.57954443712845L733.4122909090909,355.57954443712845L735.1736727272728,355.57954443712845L735.4245818181818,355.57954443712845L737.1809454545455,355.57954443712845L737.6877818181817,355.57954443712845L737.9386909090908,355.57954443712845L738.1895999999999,355.57954443712845L738.9423272727273,355.57954443712845L743.4637090909091,355.57954443712845L745.2250909090909,355.57954443712845L745.476,355.57954443712845L746.2287272727273,355.57954443712845L747.7392,355.57954443712845L748.4919272727273,355.57954443712845L748.9937454545455,355.57954443712845L749.7464727272727,355.57954443712845L750.5042181818183,355.57954443712845L752.7624,355.57954443712845L754.0219636363636,355.57954443712845L755.0256,355.57954443712845L755.2765090909091,355.57954443712845L756.0342545454545,355.57954443712845L756.2851636363636,355.57954443712845L756.5360727272728,355.57954443712845L757.7906181818182,355.57954443712845L758.7992727272728,355.57954443712845L759.0501818181818,355.57954443712845L760.0538181818182,355.57954443712845L761.3083636363637,355.57954443712845L761.5592727272727,355.57954443712845L761.8101818181818,355.57954443712845L762.3170181818181,355.57954443712845L764.5752,355.57954443712845L764.8261090909091,355.57954443712845L764.8311272727274,355.57954443712845L766.0856727272727,355.57954443712845L767.3402181818183,355.57954443712845L767.8470545454545,355.57954443712845L768.5997818181818,355.57954443712845L769.1016000000001,355.57954443712845L769.6034181818183,355.57954443712845L770.3561454545454,355.57954443712845L771.8666181818181,355.57954443712845L774.6316363636363,355.57954443712845L775.1334545454546,355.57954443712845L778.1493818181818,355.57954443712845L778.4002909090909,355.57954443712845L780.9144000000001,355.57954443712845L783.1776,355.57954443712845L783.6794181818182,355.57954443712845L784.1812363636363,355.57954443712845L785.686690909091,355.57954443712845L787.1971636363637,355.57954443712845L787.4480727272728,355.57954443712845L788.7026181818181,355.57954443712845L789.4603636363637,355.57954443712845L789.7112727272728,355.57954443712845L790.714909090909,355.57954443712845L793.7308363636364,355.57954443712845L794.2326545454546,355.57954443712845L794.4835636363637,355.57954443712845L796.4958545454546,355.57954443712845L796.9976727272726,355.57954443712845L797.4994909090909,355.57954443712845L799.2608727272728,355.57954443712845L801.0222545454546,355.57954443712845L801.7749818181818,355.57954443712845L802.0258909090909,355.57954443712845L802.7786181818182,355.57954443712845L803.2804363636363,355.57954443712845L803.5313454545455,355.57954443712845L804.0381818181818,355.57954443712845L805.5436363636364,355.57954443712845L806.5472727272727,355.57954443712845L806.7981818181818,355.57954443712845L810.0650181818182,355.57954443712845L810.5718545454545,355.57954443712845L811.3245818181819,355.57954443712845L813.0809454545454,355.57954443712845L813.5877818181818,355.57954443712845L814.0896,355.57954443712845L815.5950545454547,355.57954443712845L816.6037090909091,355.57954443712845L818.1091636363636,355.57954443712845L818.6109818181818,355.57954443712845L820.1214545454545,355.57954443712845L820.8741818181818,355.57954443712845L821.6269090909092,355.57954443712845L822.1337454545454,355.57954443712845L824.1410181818183,355.57954443712845L826.1533090909091,355.57954443712845L827.4078545454545,355.57954443712845L828.416509090909,355.57954443712845L829.6710545454546,355.57954443712845L832.6869818181818,355.57954443712845L833.1887999999999,355.57954443712845L837.2083636363636,355.57954443712845L837.7152,355.57954443712845L838.9697454545454,355.57954443712845L840.9820363636363,355.57954443712845L841.2329454545454,355.57954443712845L842.7384,355.57954443712845L843.9979636363637,355.57954443712845L844.7506909090908,355.57954443712845L845.7543272727272,355.57954443712845L846.0052363636364,355.57954443712845L846.2561454545455,355.57954443712845L846.5120727272727,355.57954443712845L847.5157090909091,355.57954443712845L848.2684363636364,355.57954443712845L848.5193454545455,355.57954443712845L849.2770909090909,355.57954443712845L849.528,355.57954443712845L849.7789090909091,355.57954443712845L851.0334545454546,355.57954443712845L851.5352727272726,355.57954443712845L853.7984727272728,355.57954443712845L855.3089454545456,355.57954443712845L857.8180363636363,355.57954443712845L861.8426181818182,355.57954443712845L863.0971636363636,355.57954443712845L865.1094545454545,355.57954443712845L865.8621818181819,355.57954443712845L866.364,355.57954443712845L867.8744727272727,355.57954443712845L868.8781090909091,355.57954443712845L869.1290181818182,355.57954443712845L870.8904,355.57954443712845L871.8940363636365,355.57954443712845L872.1449454545455,355.57954443712845L872.8976727272727,355.57954443712845L873.3994909090909,355.57954443712845L874.9099636363636,355.57954443712845L876.6713454545454,355.57954443712845L877.6749818181818,355.57954443712845L878.1768000000001,355.57954443712845L879.4363636363637,355.57954443712845L883.2050181818181,355.57954443712845L883.9577454545455,355.57954443712845L885.4632,355.57954443712845L886.7227636363637,355.57954443712845L889.9896000000001,355.57954443712845L890.9932363636364,355.57954443712845L892.7546181818182,355.57954443712845L894.516,355.57954443712845L897.5319272727273,355.57954443712845L900.5478545454546,355.57954443712845L901.8023999999999,355.57954443712845L904.3165090909091,355.57954443712845L906.3237818181817,355.57954443712845L906.5746909090909,355.57954443712845L907.5833454545455,355.57954443712845L908.0851636363637,355.57954443712845L908.5869818181818,355.57954443712845L909.3397090909091,355.57954443712845L909.5956363636363,355.57954443712845L910.8501818181818,355.57954443712845L911.1010909090909,355.57954443712845L912.8624727272727,355.57954443712845L913.1133818181818,355.57954443712845L913.866109090909,355.57954443712845L915.6224727272727,355.57954443712845L916.1293090909091,355.57954443712845L916.3802181818182,355.57954443712845L916.6311272727273,355.57954443712845L918.6434181818182,355.57954443712845L919.6470545454545,355.57954443712845L920.6506909090909,355.57954443712845L922.4120727272727,355.57954443712845L923.6666181818182,355.57954443712845L927.1843636363636,355.57954443712845L927.4352727272727,355.57954443712845L928.1930181818183,355.57954443712845L928.6948363636363,355.57954443712845L930.4512,355.57954443712845L931.2089454545454,355.57954443712845L933.4671272727272,355.57954443712845L933.7180363636363,355.57954443712845L933.7230545454545,355.57954443712845L933.9739636363637,355.57954443712845L934.2248727272728,355.57954443712845L935.2285090909091,355.57954443712845L935.7303272727272,355.57954443712845L936.2321454545454,355.57954443712845L936.7389818181819,355.57954443712845L937.491709090909,355.57954443712845L937.7426181818181,355.57954443712845L938.4953454545455,355.57954443712845L941.0094545454546,355.57954443712845L942.514909090909,355.57954443712845L943.7744727272727,355.57954443712845L945.7867636363636,355.57954443712845L946.0376727272728,355.57954443712845L947.2922181818182,355.57954443712845L948.0449454545454,355.57954443712845L949.304509090909,355.57954443712845L950.3081454545454,355.57954443712845L951.3117818181819,355.57954443712845L953.0731636363637,355.57954443712845L953.8258909090908,355.57954443712845L955.0854545454546,355.57954443712845L955.3363636363637,355.57954443712845L957.3436363636364,355.57954443712845L957.8504727272726,355.57954443712845L958.101381818182,355.57954443712845L958.8541090909091,355.57954443712845L960.8664,355.57954443712845L963.8823272727273,355.57954443712845L964.1332363636363,355.57954443712845L964.3841454545455,355.57954443712845L964.6350545454546,355.57954443712845L967.9018909090909,355.57954443712845L973.4319272727273,355.57954443712845L974.1846545454545,355.57954443712845L974.6864727272728,355.57954443712845L975.1882909090909,355.57954443712845L975.9410181818182,355.57954443712845L976.1969454545454,355.57954443712845L976.6987636363637,355.57954443712845L977.4514909090909,355.57954443712845L977.7024,355.57954443712845L981.9728727272727,355.57954443712845L984.2360727272727,355.57954443712845L985.7465454545454,355.57954443712845L986.7501818181818,355.57954443712845L987.001090909091,355.57954443712845L988.0097454545454,355.57954443712845L988.2606545454545,355.57954443712845L989.0133818181819,355.57954443712845L991.527490909091,355.57954443712845L991.7784,355.57954443712845L994.5434181818182,355.57954443712845L994.7943272727273,355.57954443712845L995.2961454545455,355.57954443712845L995.5470545454546,355.57954443712845L996.2997818181818,355.57954443712845L996.5506909090909,355.57954443712845L996.8015999999999,355.57954443712845L998.3120727272727,355.57954443712845L998.8138909090908,355.57954443712845L999.3157090909092,355.57954443712845L1002.0807272727272,355.57954443712845L1002.8334545454545,355.57954443712845L1003.0843636363636,355.57954443712845L1003.0893818181819,355.57954443712845L1003.3402909090909,355.57954443712845L1004.3439272727272,355.57954443712845L1005.0966545454546,355.57954443712845L1008.6143999999999,355.57954443712845L1009.1162181818181,355.57954443712845L1010.3757818181817,355.57954443712845L1010.8775999999999,355.57954443712845L1011.8812363636364,355.57954443712845L1012.638981818182,355.57954443712845L1012.8898909090909,355.57954443712845L1016.4076363636364,355.57954443712845L1018.4199272727273,355.57954443712845L1018.9217454545455,355.57954443712845L1019.4235636363637,355.57954443712845L1020.1762909090909,355.57954443712845L1020.6781090909091,355.57954443712845L1021.1849454545455,355.57954443712845L1023.4431272727273,355.57954443712845L1024.1958545454545,355.57954443712845L1024.7026909090907,355.57954443712845L1029.9768000000001,355.57954443712845L1030.9854545454546,355.57954443712845L1032.490909090909,355.57954443712845L1033.2436363636364,355.57954443712845L1034.0013818181817,355.57954443712845L1035.5068363636365,355.57954443712845L1036.2595636363637,355.57954443712845L1036.5154909090909,355.57954443712845L1037.7700363636363,355.57954443712845L1038.2718545454545,355.57954443712845L1039.0245818181818,355.57954443712845L1042.7982545454545,355.57954443712845L1043.8018909090908,355.57954443712845L1045.5632727272728,355.57954443712845L1045.8141818181819,355.57954443712845L1048.0723636363637,355.57954443712845L1049.3319272727274,355.57954443712845L1049.5828363636365,355.57954443712845L1049.8337454545456,355.57954443712845L1050.5864727272726,355.57954443712845L1051.8460363636364,355.57954443712845L1053.1005818181818,355.57954443712845L1053.853309090909,355.57954443712845L1055.614690909091,355.57954443712845L1056.6183272727274,355.57954443712845L1057.1201454545453,355.57954443712845L1059.1324363636363,355.57954443712845L1060.3869818181818,355.57954443712845L1061.6465454545455,355.57954443712845L1061.8974545454546,355.57954443712845L1063.152,355.57954443712845L1064.6624727272726,355.57954443712845L1066.4188363636365,355.57954443712845L1067.6784,355.57954443712845L1068.9329454545455,355.57954443712845L1069.1838545454546,355.57954443712845L1070.6943272727272,355.57954443712845L1072.455709090909,355.57954443712845L1072.7066181818182,355.57954443712845L1073.2084363636363,355.57954443712845L1074.2120727272727,355.57954443712845L1075.215709090909,355.57954443712845L1076.2243636363637,355.57954443712845L1078.9893818181818,355.57954443712845L1080.4948363636363,355.57954443712845L1081.7544,355.57954443712845L1082.5071272727273,355.57954443712845L1084.0125818181818,355.57954443712845L1086.7776,355.57954443712845L1087.5353454545454,355.57954443712845L1089.291709090909,355.57954443712845L1090.0444363636364,355.57954443712845L1092.5585454545455,355.57954443712845L1094.8217454545454,355.57954443712845L1095.0726545454545,355.57954443712845L1095.825381818182,355.57954443712845L1097.0849454545455,355.57954443712845L1098.339490909091,355.57954443712845L1101.8572363636363,355.57954443712845L1102.1081454545456,355.57954443712845L1103.8695272727273,355.57954443712845L1105.1240727272727,355.57954443712845L1106.3836363636365,355.57954443712845L1106.8854545454544,355.57954443712845L1107.1363636363635,355.57954443712845L1108.6418181818183,355.57954443712845L1110.9050181818181,355.57954443712845L1111.6577454545454,355.57954443712845L1111.9136727272728,355.57954443712845L1112.164581818182,355.57954443712845L1112.415490909091,355.57954443712845L1113.4191272727273,355.57954443712845L1115.6823272727274,355.57954443712845L1115.9332363636365,355.57954443712845L1116.4350545454545,355.57954443712845L1118.6982545454546,355.57954443712845L1118.9491636363637,355.57954443712845L1122.9687272727274,355.57954443712845L1124.4792,355.57954443712845L1125.4828363636364,355.57954443712845L1127.4951272727271,355.57954443712845L1128.7496727272728,355.57954443712845L1129.7583272727272,355.57954443712845L1131.2637818181818,355.57954443712845L1133.2760727272728,355.57954443712845L1134.2797090909091,355.57954443712845L1135.2833454545455,355.57954443712845L1135.790181818182,355.57954443712845L1137.2956363636363,355.57954443712845L1138.550181818182,355.57954443712845L1139.8097454545455,355.57954443712845L1141.064290909091,355.57954443712845L1141.8170181818182,355.57954443712845L1141.8220363636365,355.57954443712845L1143.5783999999999,355.57954443712845L1145.3397818181818,355.57954443712845L1147.3470545454545,355.57954443712845L1148.1048,355.57954443712845L1148.8575272727273,355.57954443712845L1149.6102545454546,355.57954443712845L1149.8611636363637,355.57954443712845L1151.6225454545454,355.57954443712845L1152.1243636363638,355.57954443712845L1154.6384727272728,355.57954443712845L1156.6457454545455,355.57954443712845L1157.905309090909,355.57954443712845L1159.1598545454547,355.57954443712845L1159.9176,355.57954443712845L1161.9248727272727,355.57954443712845L1167.204,355.57954443712845L1168.7094545454547,355.57954443712845L1169.4672,355.57954443712845L1172.9849454545454,355.57954443712845L1174.4904,355.57954443712845L1174.9972363636364,355.57954443712845L1175.4990545454546,355.57954443712845L1177.2554181818182,355.57954443712845L1178.0081454545455,355.57954443712845L1178.765890909091,355.57954443712845L1179.7695272727271,355.57954443712845L1180.0204363636362,355.57954443712845L1180.2713454545453,355.57954443712845L1180.7731636363637,355.57954443712845L1182.0327272727272,355.57954443712845L1183.7890909090909,355.57954443712845L1184.0450181818183,355.57954443712845L1184.5468363636364,355.57954443712845L1185.5504727272728,355.57954443712845L1186.3031999999998,355.57954443712845L1186.554109090909,355.57954443712845L1187.0559272727273,355.57954443712845L1188.8173090909092,355.57954443712845L1190.578690909091,355.57954443712845L1191.0805090909091,355.57954443712845L1194.3473454545453,355.57954443712845L1195.1000727272728,355.57954443712845L1195.8528,355.57954443712845L1198.116,355.57954443712845L1199.1196363636363,355.57954443712845L1199.6264727272726,355.57954443712845L1203.1442181818181,355.57954443712845L1204.3987636363636,355.57954443712845L1204.6496727272727,355.57954443712845L1205.4074181818182,355.57954443712845L1206.4110545454544,355.57954443712845L1206.6619636363637,355.57954443712845L1206.9128727272728,355.57954443712845L1207.414690909091,355.57954443712845L1208.4233454545456,355.57954443712845L1208.6742545454547,355.57954443712845L1208.9251636363638,355.57954443712845L1211.1833454545456,355.57954443712845L1212.9447272727273,355.57954443712845L1213.9483636363636,355.57954443712845L1214.204290909091,355.57954443712845L1215.7097454545456,355.57954443712845L1217.4711272727272,355.57954443712845L1217.7220363636363,355.57954443712845L1219.2274909090909,355.57954443712845L1219.9802181818181,355.57954443712845L1221.7416,355.57954443712845L1223.2470545454546,355.57954443712845L1223.7538909090908,355.57954443712845L1224.0048,355.57954443712845L1224.7575272727274,355.57954443712845L1225.5102545454545,355.57954443712845L1226.2629818181817,355.57954443712845L1229.028,355.57954443712845L1229.7857454545453,355.57954443712845L1231.5421090909092,355.57954443712845L1232.8016727272727,355.57954443712845L1233.5544,355.57954443712845L1233.805309090909,355.57954443712845L1234.0562181818182,355.57954443712845L1234.8089454545454,355.57954443712845L1235.0598545454545,355.57954443712845L1236.5703272727271,355.57954443712845L1237.0721454545455,355.57954443712845L1237.5739636363637,355.57954443712845L1238.8335272727272,355.57954443712845L1240.3389818181818,355.57954443712845L1241.091709090909,355.57954443712845L1241.5985454545455,355.57954443712845L1242.1003636363637,355.57954443712845L1242.6021818181819,355.57954443712845L1244.3635636363636,355.57954443712845L1246.3708363636363,355.57954443712845L1246.8726545454545,355.57954443712845L1247.3744727272729,355.57954443712845L1247.379490909091,355.57954443712845L1247.6304,355.57954443712845L1249.3867636363636,355.57954443712845L1249.6376727272727,355.57954443712845L1253.6622545454545,355.57954443712845L1254.4149818181818,355.57954443712845L1256.929090909091,355.57954443712845L1258.4345454545455,355.57954443712845L1261.4504727272729,355.57954443712845L1262.7100363636364,355.57954443712845L1262.9609454545455,355.57954443712845L1264.4664,355.57954443712845L1264.9682181818182,355.57954443712845L1265.7259636363635,355.57954443712845L1268.4859636363637,355.57954443712845L1268.741890909091,355.57954443712845L1269.243709090909,355.57954443712845L1270.2473454545454,355.57954443712845L1270.7491636363636,355.57954443712845L1271.7578181818183,355.57954443712845L1272.7614545454544,355.57954443712845L1274.016,355.57954443712845L1280.5546909090908,355.57954443712845L1281.0565090909092,355.57954443712845L1283.5656,355.57954443712845L1283.5706181818182,355.57954443712845L1289.0956363636362,355.57954443712845L1289.8533818181818,355.57954443712845L1290.606109090909,355.57954443712845L1291.1079272727272,355.57954443712845L1291.6097454545454,355.57954443712845L1296.6379636363636,355.57954443712845L1299.1520727272728,355.57954443712845L1299.4029818181818,355.57954443712845L1299.9048,355.57954443712845L1300.4066181818182,355.57954443712845L1301.1593454545455,355.57954443712845L1303.4225454545453,355.57954443712845L1304.1752727272728,355.57954443712845L1304.426181818182,355.57954443712845L1305.6857454545454,355.57954443712845L1306.1875636363636,355.57954443712845L1306.6893818181818,355.57954443712845L1307.6980363636364,355.57954443712845L1308.1998545454546,355.57954443712845L1309.2034909090908,355.57954443712845L1309.7053090909092,355.57954443712845L1313.9808,355.57954443712845L1314.9844363636364,355.57954443712845L1316.489890909091,355.57954443712845L1317.2476363636365,355.57954443712845L1318.2512727272726,355.57954443712845L1319.7617454545455,355.57954443712845L1320.7653818181818,355.57954443712845L1321.016290909091,355.57954443712845L1321.518109090909,355.57954443712845L1321.7690181818182,355.57954443712845L1324.5340363636365,355.57954443712845L1326.5463272727272,355.57954443712845L1329.0604363636362,355.57954443712845L1331.5695272727273,355.57954443712845L1331.8204363636362,355.57954443712845L1331.8254545454545,355.57954443712845" style="fill: none;" fill="none"></path></g></g></g></g></g></g><g transform="translate(70, 377)" clip-path="url(#clip_1)"><clipPath id="clip_1"><rect width="1380" height="23"></rect></clipPath><g><g><line x1="0" y1="0" x2="0" y2="5" style="visibility: inherit;" fill="rgb(0, 0, 0)" stroke="rgb(204, 204, 204)" stroke-width="1px"></line><line x1="125.45454545454545" y1="0" x2="125.45454545454545" y2="5" style="visibility: inherit;" fill="rgb(0, 0, 0)" stroke="rgb(204, 204, 204)" stroke-width="1px"></line><line x1="250.9090909090909" y1="0" x2="250.9090909090909" y2="5" style="visibility: inherit;" fill="rgb(0, 0, 0)" stroke="rgb(204, 204, 204)" stroke-width="1px"></line><line x1="376.3636363636363" y1="0" x2="376.3636363636363" y2="5" style="visibility: inherit;" fill="rgb(0, 0, 0)" stroke="rgb(204, 204, 204)" stroke-width="1px"></line><line x1="501.8181818181818" y1="0" x2="501.8181818181818" y2="5" style="visibility: inherit;" fill="rgb(0, 0, 0)" stroke="rgb(204, 204, 204)" stroke-width="1px"></line><line x1="627.2727272727273" y1="0" x2="627.2727272727273" y2="5" style="visibility: inherit;" fill="rgb(0, 0, 0)" stroke="rgb(204, 204, 204)" stroke-width="1px"></line><line x1="752.7272727272726" y1="0" x2="752.7272727272726" y2="5" style="visibility: inherit;" fill="rgb(0, 0, 0)" stroke="rgb(204, 204, 204)" stroke-width="1px"></line><line x1="878.1818181818181" y1="0" x2="878.1818181818181" y2="5" style="visibility: inherit;" fill="rgb(0, 0, 0)" stroke="rgb(204, 204, 204)" stroke-width="1px"></line><line x1="1003.6363636363636" y1="0" x2="1003.6363636363636" y2="5" style="visibility: inherit;" fill="rgb(0, 0, 0)" stroke="rgb(204, 204, 204)" stroke-width="1px"></line><line x1="1129.0909090909092" y1="0" x2="1129.0909090909092" y2="5" style="visibility: inherit;" fill="rgb(0, 0, 0)" stroke="rgb(204, 204, 204)" stroke-width="1px"></line><line x1="1254.5454545454545" y1="0" x2="1254.5454545454545" y2="5" style="visibility: inherit;" fill="rgb(0, 0, 0)" stroke="rgb(204, 204, 204)" stroke-width="1px"></line><line x1="1380" y1="0" x2="1380" y2="5" style="visibility: inherit;" fill="rgb(0, 0, 0)" stroke="rgb(204, 204, 204)" stroke-width="1px"></line></g><g transform="translate(0, 8)"><text x="0" y="0" dx="0em" dy="0.95em" style="text-anchor: middle; visibility: hidden; font-family: Roboto, sans-serif; font-size: 12px; font-weight: 200;" fill="rgb(33, 33, 33)" stroke="none" stroke-width="1px">-50k</text><text x="125.45454545454545" y="0" dx="0em" dy="0.95em" style="text-anchor: middle; visibility: inherit; font-family: Roboto, sans-serif; font-size: 12px; font-weight: 200;" fill="rgb(33, 33, 33)" stroke="none" stroke-width="1px">0</text><text x="250.9090909090909" y="0" dx="0em" dy="0.95em" style="text-anchor: middle; visibility: inherit; font-family: Roboto, sans-serif; font-size: 12px; font-weight: 200;" fill="rgb(33, 33, 33)" stroke="none" stroke-width="1px">50k</text><text x="376.3636363636363" y="0" dx="0em" dy="0.95em" style="text-anchor: middle; visibility: inherit; font-family: Roboto, sans-serif; font-size: 12px; font-weight: 200;" fill="rgb(33, 33, 33)" stroke="none" stroke-width="1px">100k</text><text x="501.8181818181818" y="0" dx="0em" dy="0.95em" style="text-anchor: middle; visibility: inherit; font-family: Roboto, sans-serif; font-size: 12px; font-weight: 200;" fill="rgb(33, 33, 33)" stroke="none" stroke-width="1px">150k</text><text x="627.2727272727273" y="0" dx="0em" dy="0.95em" style="text-anchor: middle; visibility: inherit; font-family: Roboto, sans-serif; font-size: 12px; font-weight: 200;" fill="rgb(33, 33, 33)" stroke="none" stroke-width="1px">200k</text><text x="752.7272727272726" y="0" dx="0em" dy="0.95em" style="text-anchor: middle; visibility: inherit; font-family: Roboto, sans-serif; font-size: 12px; font-weight: 200;" fill="rgb(33, 33, 33)" stroke="none" stroke-width="1px">250k</text><text x="878.1818181818181" y="0" dx="0em" dy="0.95em" style="text-anchor: middle; visibility: inherit; font-family: Roboto, sans-serif; font-size: 12px; font-weight: 200;" fill="rgb(33, 33, 33)" stroke="none" stroke-width="1px">300k</text><text x="1003.6363636363636" y="0" dx="0em" dy="0.95em" style="text-anchor: middle; visibility: inherit; font-family: Roboto, sans-serif; font-size: 12px; font-weight: 200;" fill="rgb(33, 33, 33)" stroke="none" stroke-width="1px">350k</text><text x="1129.0909090909092" y="0" dx="0em" dy="0.95em" style="text-anchor: middle; visibility: inherit; font-family: Roboto, sans-serif; font-size: 12px; font-weight: 200;" fill="rgb(33, 33, 33)" stroke="none" stroke-width="1px">400k</text><text x="1254.5454545454545" y="0" dx="0em" dy="0.95em" style="text-anchor: middle; visibility: inherit; font-family: Roboto, sans-serif; font-size: 12px; font-weight: 200;" fill="rgb(33, 33, 33)" stroke="none" stroke-width="1px">450k</text><text x="1380" y="0" dx="0em" dy="0.95em" style="text-anchor: middle; visibility: hidden; font-family: Roboto, sans-serif; font-size: 12px; font-weight: 200;" fill="rgb(33, 33, 33)" stroke="none" stroke-width="1px">500k</text></g><line x1="0" y1="0" x2="1380" y2="0" fill="rgb(0, 0, 0)" stroke="rgb(204, 204, 204)" stroke-width="1px"></line></g></g></g></g></svg>