<svg viewBox="0 0 1450 400" xmlns="http://www.w3.org/2000/svg"><g><g><g><g><g><line x1="50" y1="377" x2="45" y2="377" style="visibility: inherit;" fill="rgb(0, 0, 0)" stroke="rgb(204, 204, 204)" stroke-width="1px"></line><line x1="50" y1="348" x2="45" y2="348" style="visibility: inherit;" fill="rgb(0, 0, 0)" stroke="rgb(204, 204, 204)" stroke-width="1px"></line><line x1="50" y1="319" x2="45" y2="319" style="visibility: inherit;" fill="rgb(0, 0, 0)" stroke="rgb(204, 204, 204)" stroke-width="1px"></line><line x1="50" y1="290" x2="45" y2="290" style="visibility: inherit;" fill="rgb(0, 0, 0)" stroke="rgb(204, 204, 204)" stroke-width="1px"></line><line x1="50" y1="261" x2="45" y2="261" style="visibility: inherit;" fill="rgb(0, 0, 0)" stroke="rgb(204, 204, 204)" stroke-width="1px"></line><line x1="50" y1="232" x2="45" y2="232" style="visibility: inherit;" fill="rgb(0, 0, 0)" stroke="rgb(204, 204, 204)" stroke-width="1px"></line><line x1="50" y1="203.00000000000003" x2="45" y2="203.00000000000003" style="visibility: inherit;" fill="rgb(0, 0, 0)" stroke="rgb(204, 204, 204)" stroke-width="1px"></line><line x1="50" y1="173.99999999999997" x2="45" y2="173.99999999999997" style="visibility: inherit;" fill="rgb(0, 0, 0)" stroke="rgb(204, 204, 204)" stroke-width="1px"></line><line x1="50" y1="145" x2="45" y2="145" style="visibility: inherit;" fill="rgb(0, 0, 0)" stroke="rgb(204, 204, 204)" stroke-width="1px"></line><line x1="50" y1="116" x2="45" y2="116" style="visibility: inherit;" fill="rgb(0, 0, 0)" stroke="rgb(204, 204, 204)" stroke-width="1px"></line><line x1="50" y1="86.99999999999999" x2="45" y2="86.99999999999999" style="visibility: inherit;" fill="rgb(0, 0, 0)" stroke="rgb(204, 204, 204)" stroke-width="1px"></line><line x1="50" y1="57.999999999999964" x2="45" y2="57.999999999999964" style="visibility: inherit;" fill="rgb(0, 0, 0)" stroke="rgb(204, 204, 204)" stroke-width="1px"></line><line x1="50" y1="29.00000000000002" x2="45" y2="29.00000000000002" style="visibility: inherit;" fill="rgb(0, 0, 0)" stroke="rgb(204, 204, 204)" stroke-width="1px"></line><line x1="50" y1="0" x2="45" y2="0" style="visibility: inherit;" fill="rgb(0, 0, 0)" stroke="rgb(204, 204, 204)" stroke-width="1px"></line></g><g transform="translate(40, 0)"><text x="0" y="377" dx="0em" dy="0.3em" style="text-anchor: end; visibility: hidden; font-family: Roboto, sans-serif; font-size: 12px; font-weight: 200;" fill="rgb(33, 33, 33)" stroke="none" stroke-width="1px">0.06</text><text x="0" y="348" dx="0em" dy="0.3em" style="text-anchor: end; visibility: inherit; font-family: Roboto, sans-serif; font-size: 12px; font-weight: 200;" fill="rgb(33, 33, 33)" stroke="none" stroke-width="1px">0.08</text><text x="0" y="319" dx="0em" dy="0.3em" style="text-anchor: end; visibility: inherit; font-family: Roboto, sans-serif; font-size: 12px; font-weight: 200;" fill="rgb(33, 33, 33)" stroke="none" stroke-width="1px">0.1</text><text x="0" y="290" dx="0em" dy="0.3em" style="text-anchor: end; visibility: inherit; font-family: Roboto, sans-serif; font-size: 12px; font-weight: 200;" fill="rgb(33, 33, 33)" stroke="none" stroke-width="1px">0.12</text><text x="0" y="261" dx="0em" dy="0.3em" style="text-anchor: end; visibility: inherit; font-family: Roboto, sans-serif; font-size: 12px; font-weight: 200;" fill="rgb(33, 33, 33)" stroke="none" stroke-width="1px">0.14</text><text x="0" y="232" dx="0em" dy="0.3em" style="text-anchor: end; visibility: inherit; font-family: Roboto, sans-serif; font-size: 12px; font-weight: 200;" fill="rgb(33, 33, 33)" stroke="none" stroke-width="1px">0.16</text><text x="0" y="203.00000000000003" dx="0em" dy="0.3em" style="text-anchor: end; visibility: inherit; font-family: Roboto, sans-serif; font-size: 12px; font-weight: 200;" fill="rgb(33, 33, 33)" stroke="none" stroke-width="1px">0.18</text><text x="0" y="173.99999999999997" dx="0em" dy="0.3em" style="text-anchor: end; visibility: inherit; font-family: Roboto, sans-serif; font-size: 12px; font-weight: 200;" fill="rgb(33, 33, 33)" stroke="none" stroke-width="1px">0.2</text><text x="0" y="145" dx="0em" dy="0.3em" style="text-anchor: end; visibility: inherit; font-family: Roboto, sans-serif; font-size: 12px; font-weight: 200;" fill="rgb(33, 33, 33)" stroke="none" stroke-width="1px">0.22</text><text x="0" y="116" dx="0em" dy="0.3em" style="text-anchor: end; visibility: inherit; font-family: Roboto, sans-serif; font-size: 12px; font-weight: 200;" fill="rgb(33, 33, 33)" stroke="none" stroke-width="1px">0.24</text><text x="0" y="86.99999999999999" dx="0em" dy="0.3em" style="text-anchor: end; visibility: inherit; font-family: Roboto, sans-serif; font-size: 12px; font-weight: 200;" fill="rgb(33, 33, 33)" stroke="none" stroke-width="1px">0.26</text><text x="0" y="57.999999999999964" dx="0em" dy="0.3em" style="text-anchor: end; visibility: inherit; font-family: Roboto, sans-serif; font-size: 12px; font-weight: 200;" fill="rgb(33, 33, 33)" stroke="none" stroke-width="1px">0.28</text><text x="0" y="29.00000000000002" dx="0em" dy="0.3em" style="text-anchor: end; visibility: inherit; font-family: Roboto, sans-serif; font-size: 12px; font-weight: 200;" fill="rgb(33, 33, 33)" stroke="none" stroke-width="1px">0.3</text><text x="0" y="0" dx="0em" dy="0.3em" style="text-anchor: end; visibility: hidden; font-family: Roboto, sans-serif; font-size: 12px; font-weight: 200;" fill="rgb(33, 33, 33)" stroke="none" stroke-width="1px">0.32</text></g><line x1="50" y1="0" x2="50" y2="377" fill="rgb(0, 0, 0)" stroke="rgb(204, 204, 204)" stroke-width="1px"></line></g></g><g transform="translate(50, 0)" clip-path="url(#clip_0)"><clipPath id="clip_0"><rect width="1400" height="377"></rect></clipPath><g><g><g><line x1="0" y1="0" x2="0" y2="377" fill="rgb(0, 0, 0)" stroke="rgb(66, 66, 66)" stroke-width="1px" opacity="0.25"></line><line x1="127.27272727272728" y1="0" x2="127.27272727272728" y2="377" fill="rgb(0, 0, 0)" stroke="rgb(66, 66, 66)" stroke-width="1px" opacity="0.25"></line><line x1="254.54545454545456" y1="0" x2="254.54545454545456" y2="377" fill="rgb(0, 0, 0)" stroke="rgb(66, 66, 66)" stroke-width="1px" opacity="0.25"></line><line x1="381.8181818181818" y1="0" x2="381.8181818181818" y2="377" fill="rgb(0, 0, 0)" stroke="rgb(66, 66, 66)" stroke-width="1px" opacity="0.25"></line><line x1="509.0909090909091" y1="0" x2="509.0909090909091" y2="377" fill="rgb(0, 0, 0)" stroke="rgb(66, 66, 66)" stroke-width="1px" opacity="0.25"></line><line x1="636.3636363636364" y1="0" x2="636.3636363636364" y2="377" fill="rgb(0, 0, 0)" stroke="rgb(66, 66, 66)" stroke-width="1px" opacity="0.25"></line><line x1="763.6363636363636" y1="0" x2="763.6363636363636" y2="377" fill="rgb(0, 0, 0)" stroke="rgb(66, 66, 66)" stroke-width="1px" opacity="0.25"></line><line x1="890.9090909090909" y1="0" x2="890.9090909090909" y2="377" fill="rgb(0, 0, 0)" stroke="rgb(66, 66, 66)" stroke-width="1px" opacity="0.25"></line><line x1="1018.1818181818182" y1="0" x2="1018.1818181818182" y2="377" fill="rgb(0, 0, 0)" stroke="rgb(66, 66, 66)" stroke-width="1px" opacity="0.25"></line><line x1="1145.4545454545455" y1="0" x2="1145.4545454545455" y2="377" fill="rgb(0, 0, 0)" stroke="rgb(66, 66, 66)" stroke-width="1px" opacity="0.25"></line><line x1="1272.7272727272727" y1="0" x2="1272.7272727272727" y2="377" fill="rgb(0, 0, 0)" stroke="rgb(66, 66, 66)" stroke-width="1px" opacity="0.25"></line><line x1="1400" y1="0" x2="1400" y2="377" fill="rgb(0, 0, 0)" stroke="rgb(66, 66, 66)" stroke-width="1px" opacity="0.25"></line></g><g><line x1="0" y1="377" x2="1400" y2="377" fill="rgb(0, 0, 0)" stroke="rgb(66, 66, 66)" stroke-width="1px" opacity="0.25"></line><line x1="0" y1="348" x2="1400" y2="348" fill="rgb(0, 0, 0)" stroke="rgb(66, 66, 66)" stroke-width="1px" opacity="0.25"></line><line x1="0" y1="319" x2="1400" y2="319" fill="rgb(0, 0, 0)" stroke="rgb(66, 66, 66)" stroke-width="1px" opacity="0.25"></line><line x1="0" y1="290" x2="1400" y2="290" fill="rgb(0, 0, 0)" stroke="rgb(66, 66, 66)" stroke-width="1px" opacity="0.25"></line><line x1="0" y1="261" x2="1400" y2="261" fill="rgb(0, 0, 0)" stroke="rgb(66, 66, 66)" stroke-width="1px" opacity="0.25"></line><line x1="0" y1="232" x2="1400" y2="232" fill="rgb(0, 0, 0)" stroke="rgb(66, 66, 66)" stroke-width="1px" opacity="0.25"></line><line x1="0" y1="203.00000000000003" x2="1400" y2="203.00000000000003" fill="rgb(0, 0, 0)" stroke="rgb(66, 66, 66)" stroke-width="1px" opacity="0.25"></line><line x1="0" y1="173.99999999999997" x2="1400" y2="173.99999999999997" fill="rgb(0, 0, 0)" stroke="rgb(66, 66, 66)" stroke-width="1px" opacity="0.25"></line><line x1="0" y1="145" x2="1400" y2="145" fill="rgb(0, 0, 0)" stroke="rgb(66, 66, 66)" stroke-width="1px" opacity="0.25"></line><line x1="0" y1="116" x2="1400" y2="116" fill="rgb(0, 0, 0)" stroke="rgb(66, 66, 66)" stroke-width="1px" opacity="0.25"></line><line x1="0" y1="86.99999999999999" x2="1400" y2="86.99999999999999" fill="rgb(0, 0, 0)" stroke="rgb(66, 66, 66)" stroke-width="1px" opacity="0.25"></line><line x1="0" y1="57.999999999999964" x2="1400" y2="57.999999999999964" fill="rgb(0, 0, 0)" stroke="rgb(66, 66, 66)" stroke-width="1px" opacity="0.25"></line><line x1="0" y1="29.00000000000002" x2="1400" y2="29.00000000000002" fill="rgb(0, 0, 0)" stroke="rgb(66, 66, 66)" stroke-width="1px" opacity="0.25"></line><line x1="0" y1="0" x2="1400" y2="0" fill="rgb(0, 0, 0)" stroke="rgb(66, 66, 66)" stroke-width="1px" opacity="0.25"></line></g></g></g><g><g><line x1="0" y1="464" x2="1400" y2="464" fill="rgb(0, 0, 0)" stroke="rgb(153, 153, 153)" stroke-width="1.5px"></line></g></g><g><g><line x1="127.27272727272728" y1="0" x2="127.27272727272728" y2="377" fill="rgb(0, 0, 0)" stroke="rgb(153, 153, 153)" stroke-width="1.5px"></line></g></g><g><g><g><g><g><path stroke="rgb(255, 112, 67)" stroke-width="2px" d="M168.63127272727274,-0.8880829328004103L169.14036363636365,0.7657793296927715L170.91199999999998,5.941841207252622L171.16654545454546,7.82615137701778L172.43927272727274,8.32348758178382L174.2109090909091,14.025407242306486L174.46545454545455,17.08648233440881L174.72,18.7000162110883L175.98254545454546,17.834630619506914L176.2370909090909,20.188579958647995L179.0269090909091,21.85718680579574L179.536,32.45086450372701L181.0632727272727,33.14007782088923L181.57236363636363,32.80022306538355L182.0712727272727,32.09561099991134L184.36218181818182,33.78329146769956L185.62472727272726,44.10814466747112L189.43272727272728,46.91734356598927L189.6872727272727,47.361247513303816L192.98618181818182,50.557360531717705L193.24072727272727,51.56024058628072L193.49527272727272,51.737191313714966L196.2850909090909,52.86397946435672L197.04872727272726,52.58114730268205L198.05672727272727,60.30163806239964L199.0749090909091,60.54951947490894L199.83854545454548,58.966986332940245L200.59199999999998,64.0684858036223L201.1010909090909,65.02604840165252L202.3738181818182,63.79644215345248L202.8829090909091,62.597687406157654L203.13745454545455,61.34909991866451L205.67272727272726,62.50691035552021L206.68072727272727,69.27625659948868L207.6989090909091,70.41338658441421L208.208,69.21665820424252L208.46254545454548,68.90055020925656L209.22618181818183,67.20154060327586L213.02399999999997,65.75032343316191L215.06036363636363,65.82037519167253L215.3149090909091,65.77180723232755L218.35927272727275,68.4897514231087L219.87636363636364,73.65015817302242L220.1309090909091,75.97102135305097L220.38545454545454,76.82508857420935L223.42981818181818,74.88344437926406L225.456,80.33625388641305L226.47418181818182,81.77597611839073L226.98327272727275,80.29141763806103L228.24581818181818,81.01973970349887L229.51854545454546,81.77449462228613L230.02763636363633,81.90687388096276L232.81745454545455,81.71574280748044L234.33454545454546,86.83728622031879L234.5890909090909,88.57825330946123L238.14254545454546,87.61286286464761L238.3970909090909,86.32949835887896L238.90618181818184,84.53789590965211L239.91418181818182,83.1074368422289L240.16872727272727,90.27325551891182L240.67781818181817,88.88475347398193L242.2050909090909,88.150155955103L243.2130909090909,90.09597074428466L244.4858181818182,90.20804265826114L245.504,88.17836430029683L246.25745454545455,92.43108775208788L246.76654545454545,93.17705721829667L247.78472727272725,92.00945957335693L248.03927272727273,90.95274434687082L249.3018181818182,92.86061426002603L249.5563636363636,93.20833608547156L251.08363636363637,91.5589323919335L251.59272727272727,91.0271266559738L252.85527272727273,90.99188006772468L256.9178181818182,91.91248519801879L257.4269090909091,91.88272977028723L257.6814545454545,91.61806836516772L257.936,91.18630500700831L258.68945454545457,90.98395521600438L259.19854545454547,90.08106640958825L262.752,91.49340475808172L263.00654545454546,91.84356412107L263.51563636363636,91.11347037772738L264.02472727272726,90.05105144868331L264.5236363636364,94.34240201933308L265.5418181818182,96.94422975217945L266.0509090909091,97.18100656679303L267.0690909090909,95.66679578533278L267.56800000000004,98.30182112138671L268.58618181818184,95.68716422716692L270.11345454545454,92.89857026716022L270.6123636363636,97.0492458551146L271.6305454545455,97.06875008020008L275.6930909090909,96.87755187677536L275.9476363636364,96.00443468921424L276.7010909090909,100.78456328695506L277.2101818181818,102.13435913480761L277.46472727272726,101.980700795858L278.2283636363636,99.37400066490503L278.7374545454545,97.61856551254753L281.78181818181815,96.16874809720248L283.04436363636364,99.26822527873807L283.2989090909091,100.30233210196788L285.33527272727275,96.33044886692076L285.5796363636364,93.70206979931584L286.85236363636363,97.3349294659744L287.1069090909091,99.92673724605423L288.1250909090909,100.85381069104999L289.13309090909087,98.89756090988183L290.6603636363637,98.4029953439453L290.9149090909091,97.9571658831891L292.1774545454545,102.24226579781504L292.68654545454547,102.62897171887276L294.4683636363636,98.90164750262481L294.96727272727276,95.62367338272117L296.7490909090909,95.79076696590569L298.77527272727275,97.12700679145284L299.0298181818182,98.25747740509904L300.048,98.11880578660227L301.05600000000004,97.09643935339972L303.09236363636364,97.05979503685856L303.60145454545454,97.20163636666366L307.65381818181817,100.18374312981446L310.44363636363636,104.69284167228182L310.9527272727273,106.53727553426668L311.46181818181816,105.13414796990425L311.71636363636367,103.74529639932858L312.2254545454545,102.54347758761523L312.48,101.21493049492605L312.9789090909091,99.62922997055253L313.23345454545455,107.00656684675715L313.488,107.45706222831163L314.7607272727273,105.78657305333596L316.2778181818182,102.87855805988326L321.35854545454544,100.53883726239977L321.6130909090909,98.81767712132195L323.3847272727273,104.00531294422022L324.1483636363636,104.78896746537325L324.4029090909091,103.90984458472064L324.91200000000003,102.49676594396414L325.4109090909091,106.19640360477958L325.92,104.77063510378206L327.4472727272727,103.36500590682427L331.49963636363634,98.52471282152176L331.7541818181818,97.72377787311899L332.26327272727275,98.00861311679301L333.0269090909091,96.64064892478666L335.05309090909094,102.12030572509023L335.3076363636364,105.46164563150208L337.5883636363636,106.76588444205214L338.6065454545454,106.39821542036862L339.37018181818183,107.38397986096219L339.6247272727273,107.00462016490323L340.63272727272727,106.77613824681504L341.3963636363637,107.59747547641273L341.9054545454545,105.58833789779317L344.94981818181816,106.86350614669529L345.7134545454545,105.68501323001719L346.22254545454547,104.54250433859144L347.23054545454545,107.67489193123558L348.5032727272727,107.82863364172746L351.80218181818185,106.21013589169712L352.31127272727275,104.48565458799419L353.82836363636363,105.70883409293059L354.592,105.51588935549876L355.1010909090909,104.95902635652357L356.10909090909087,108.79426231691377L356.3636363636363,110.84293577977414L357.89090909090913,108.69269341077359L362.96145454545456,106.60825787483762L363.47054545454546,104.4691000725277L363.9796363636363,102.95455830472848L366.5149090909091,102.89552515323071L368.28654545454543,110.10369913358797L369.8138181818182,108.65397345693704L371.84000000000003,107.85539325700556L375.9025454545454,107.47226024170266L376.6661818181818,105.74294553989897L377.67418181818186,109.94374337145581L379.20145454545457,108.74208074933142L379.71054545454547,107.28085986717794L380.9730909090909,107.46238774495426L381.7367272727273,107.48254951524628L381.9912727272727,107.96587168510612L382.24581818181815,108.1113560065444L385.0356363636364,108.15627323460984L386.80727272727273,109.27317902887587L387.8254545454546,107.42277350924795L388.33454545454543,106.13847181411988L390.3607272727273,107.76843009506979L390.6152727272727,108.1786577540441L395.4312727272727,112.94181221130533L396.44945454545456,109.88278580554125L398.9847272727273,110.00595875402495L399.23927272727275,110.92385206723131L399.7483636363636,109.74309282711457L400.76654545454545,107.35325611874134L403.04727272727274,108.27898337110238L406.0916363636364,108.15043649278051L407.1098181818182,105.62276027350784L407.60872727272726,112.7074980886976L408.3723636363636,113.5681233981051L408.8814545454546,111.77768704439113L409.3905454545454,109.11258235181866L411.92581818181816,108.82663685388607L412.1803636363636,108.72053372801616L412.944,108.37152980889233L413.19854545454547,108.0204404600855L413.952,109.38862981964685L414.7156363636364,107.35620118782947L415.22472727272725,105.1176988683895L416.48727272727274,101.69039176698783L418.2690909090909,102.72987009386017L419.5316363636364,103.41979926930745L419.78618181818183,108.36215160581533L422.3316363636364,106.26964688790743L422.8305454545454,110.14291247358736L425.376,107.33424831591228L425.8749090909091,105.9250394522715L426.12945454545456,107.81844844326825L427.9112727272727,107.32679478659448L429.17381818181815,110.27349023587688L430.192,109.60698999757213L430.44654545454546,108.96047461220464L433.4909090909091,126.19039234391265L435.5170909090909,146.70476224764323L436.53527272727274,157.74125837056874L437.7978181818182,164.0611942472431L438.30690909090913,171.40192175038655L439.3250909090909,174.00392861590305L443.13309090909087,178.13775327236507L443.6421818181818,180.5716780551704L444.6501818181818,185.66172917075704L444.90472727272726,188.24814418384207L445.1592727272727,188.36920369518776L445.66836363636367,188.6621770437882L446.432,187.80040131887117L447.44,190.3042265504538L448.9672727272727,190.62104160633325L449.97527272727274,190.40161207037684L451.248,191.08507095052138L452.7752727272727,191.0264081102736L453.5287272727273,196.33639909782556L454.80145454545453,195.74822419867462L455.5650909090909,195.29414313129058L456.8276363636364,198.96389222566253L457.0821818181818,201.14733749012294L457.8458181818182,201.29286356354038L458.864,199.95715302740263L461.14472727272727,200.05897971216527L462.91636363636366,199.8989354764618L463.68,200.13346098206108L463.93454545454546,200.49483210068524L466.2152727272727,203.0905549786561L468.75054545454543,205.81409901039038L469.51418181818184,207.30360282100415L471.04145454545454,206.65201838360161L472.5585454545454,207.46470058125357L473.5767272727273,207.13978287970662L476.3665454545454,208.28894923084405L476.62109090909087,208.98863471560202L477.62909090909096,214.91173623529463L479.15636363636366,213.40074376733264L480.1745454545454,211.47473451552776L480.928,213.03044507954723L487.0167272727273,212.1063164355554L490.5701818181818,215.64838816011914L491.84290909090913,215.78080979057285L492.352,215.4179327414453L492.59636363636366,215.17977494372448L492.8509090909091,218.72351450006542L493.10545454545456,219.58643741742193L495.14181818181817,217.97045643844106L497.168,217.9092356931523L497.42254545454546,217.98956359506641L497.9316363636364,217.16991670616255L498.1861818181818,216.67088425731455L501.48509090909096,217.78922044406056L501.984,221.00384635289646L504.77381818181817,219.8940406397033L505.5374545454545,221.22088461076007L506.5556363636364,220.7306064046753L507.5738181818181,219.99177890883152L508.58181818181816,220.4321772797018L510.3636363636364,220.3438903997773L510.6181818181818,220.27353441806198L510.8625454545454,220.0663836621644L511.3716363636364,222.82717088657688L512.1352727272726,223.36680007299645L515.1796363636364,223.64872757652708L516.7069090909091,223.355739117513L517.4603636363637,223.4681185065721L517.7149090909091,224.10244477606005L520.2501818181818,227.73575697244755L521.0138181818181,227.87826602152896L523.8036363636364,227.50182474444534L524.5672727272727,227.24960467384489L525.3309090909091,226.82565121628915L526.5934545454545,225.81801664947534L527.357090909091,226.06363089422635L529.6378181818181,228.70926824757206L532.4276363636363,231.7008985667801L533.7003636363637,232.4648873628906L534.2094545454545,231.83895831165927L540.2981818181818,231.23527561978844L542.3243636363636,231.84265915851037L542.8334545454545,231.49686961250646L543.597090909091,230.4909251707545L545.1141818181818,235.89109991737934L545.3687272727273,237.60303775709625L547.1505454545454,234.5671792103115L549.1767272727272,233.02948894602315L550.194909090909,231.62334515220255L551.2029090909091,233.45089947575465L552.2210909090909,233.6814193707957L552.9847272727272,233.54754458472433L553.4836363636364,233.12571635144081L555.0109090909091,241.3788188329866L555.52,246.6498223011298L557.2916363636364,255.46787025502482L559.328,258.7953092535633L559.8269090909091,266.5272833892083L560.5905454545455,266.37172716380576L561.0996363636364,266.4570086337888L561.3541818181818,266.38448940766654L561.6087272727273,266.32110649298784L563.3803636363637,266.3575481739758L564.3985454545455,265.70698928938305L564.6530909090909,265.82322658034695L566.4247272727273,266.4890539963066L568.4610909090909,267.9218905689539L568.7054545454546,268.5334199783316L569.7236363636364,270.07624405206195L570.2327272727273,271.5772907894131L572.5134545454546,272.1878621946924L575.3032727272727,275.49189417034194L577.8385454545454,274.93233603474687L578.3476363636364,277.05180675198574L580.1294545454546,276.0514125797337L580.384,275.1214561851998L581.3919999999999,276.926593511739L582.1556363636364,276.68449968126293L583.1738181818182,275.675943922558L584.1818181818182,277.6220256885087L589.0079999999999,277.3437264100825L590.016,276.88226594530624L591.0341818181818,279.3762699614149L591.7978181818182,278.5480299175389L593.314909090909,280.44418548212036L593.824,283.03972243063345L596.1047272727272,281.2193493915368L597.122909090909,280.6257742215131L599.4036363636363,280.27403230912194L600.6763636363637,280.78899686588403L600.930909090909,281.37423269968826L601.1854545454545,281.54722820095964L605.2378181818182,281.20128247201365L606.5105454545455,282.6710733415718L608.2821818181818,282.19627038764963L609.3003636363636,281.85340790456064L610.064,281.3061419736173L611.5810909090909,286.29407876078164L611.8356363636364,288.11966169986016L612.0901818181818,287.48013993841016L612.8538181818182,285.9832190613205L614.1265454545455,284.4862889256825L615.6436363636363,284.8125440985444L615.8981818181818,284.52450999882666L618.4334545454545,285.63253618933203L618.688,286.12750972691066L619.7061818181818,285.08784511527324L619.9607272727272,284.4108062332484L620.9687272727273,286.8028398168993L621.4778181818182,287.5226440785943L623.0050909090909,286.8847448372925L623.7585454545455,285.5783715782573L624.7767272727273,286.5829516405787L625.0312727272727,287.39420343065325L625.5403636363636,287.04191429071824L625.7949090909091,286.4441551012833L626.304,286.1022582664979L629.0938181818182,285.95044484762224L629.5927272727273,285.79102376298545L631.6290909090909,285.80285384621124L631.8836363636364,285.89340695158523L632.637090909091,285.42255974293124L641.5258181818182,286.46927887959697L643.8065454545455,288.05071398243723L644.0610909090909,288.9773115301529L645.8327272727272,290.44118047523455L646.8509090909091,290.6383359597931L648.6225454545455,292.28108066567955L648.877090909091,292.68369058129207L651.9214545454545,291.11631967113055L652.685090909091,290.5674560450666L654.9658181818182,290.50849841217797L657.501090909091,291.8870368409808L659.5374545454546,291.1381179393437L659.7919999999999,290.56515971860813L660.290909090909,291.3513328099201L661.0545454545455,292.22652168226546L662.5818181818182,292.06094614510596L663.8443636363636,292.12150025669206L664.098909090909,291.9022416302467L665.117090909091,292.1599705580924L665.3716363636364,292.1035401718608L667.1432727272728,293.5331919101484L669.424,293.5170608503608L670.1876363636363,293.3340229488773L672.7229090909091,293.5857884611631L675.2581818181818,293.64489670041274L677.8036363636363,297.6757578613998L682.3650909090909,303.78589634383303L684.146909090909,306.2328059307526L685.9185454545454,308.7044242386774L686.4276363636363,309.6202185056315L687.9447272727273,311.5770098375287L688.4538181818182,312.09999041335124L689.2174545454545,311.1032357123498L689.472,310.34919079742156L690.9890909090909,309.42282290195203L692.0072727272727,310.2451272581172L694.7970909090909,312.33715601918595L695.5607272727273,312.66976610375366L696.8232727272728,314.2535372633857L700.1221818181818,312.8233518437924L706.2109090909091,314.5081369922524L711.0370909090908,316.7740140083551L712.2996363636364,319.11066559335995L712.5541818181817,319.892073619813L715.0894545454545,321.01980429389647L715.8530909090908,322.7548405689414L717.1258181818182,322.4656599424606L719.152,322.7133619499477L719.9156363636364,322.6578812044601L721.6872727272728,323.5108222759393L721.9418181818182,324.15616499111155L722.1963636363637,324.30331221056787L722.7054545454545,324.23764357275127L724.2225454545455,323.05707831785827L726.0043636363636,322.4889433998107L729.5578181818182,322.36364279153554L732.3476363636364,322.60234480826L733.6101818181819,324.98358100374026L734.6283636363636,325.7289284184525L734.882909090909,326.12970493568184L735.6465454545454,325.86945351055846L735.9010909090908,325.40985783819394L743.5069090909092,324.8679998632429L744.2705454545455,325.12704516376385L745.2785454545453,324.51740125215L745.5330909090908,325.25768341356127L746.8058181818182,325.02246128234094L747.0603636363636,324.5411127363698L750.1047272727272,324.22088484629825L752.1309090909091,324.60736986927446L752.64,324.6616805643343L752.8945454545454,324.81143881592124L755.9389090909092,326.0196384081806L757.9650909090908,326.2113607677165L760.0014545454545,326.02344367532754L761.264,325.3067100515565L761.7730909090909,324.9565187485669L762.5367272727273,324.744931697108L763.0458181818182,324.6477966177583L763.3003636363637,324.72675206469404L765.072,326.0434886787541L766.0901818181819,325.7993978874169L766.3447272727273,325.431568246097L766.5890909090909,325.314426625566L767.0981818181818,326.37156016253414L767.6072727272726,325.84784060813547L768.88,325.8739722177144L769.3890909090909,325.7538467109507L771.4152727272727,324.7504573611498L778.2676363636365,324.860393222905L778.5221818181818,324.6236462787039L779.021090909091,322.9935135267372L781.312,324.92914568524515L781.5665454545455,325.9093239023106L783.3381818181819,326.1463460791758L784.1018181818182,326.03171741818437L784.3563636363637,326.06629865412395L785.1098181818181,326.34289192429424L786.8916363636364,326.4289710484945L787.4007272727272,326.4282795917165L788.6632727272728,328.7204028953007L791.7076363636363,328.0280254952059L791.9621818181818,327.87417174929857L793.9883636363636,327.34955451967465L794.242909090909,327.3159756860978L796.0247272727273,327.635303330331L796.7883636363637,327.73972135273243L797.0327272727272,327.76248683897353L797.2872727272727,330.8913912806108L798.0509090909092,329.4267786119962L802.877090909091,328.90533978968904L804.9032727272727,328.64142648553576L805.1578181818181,328.48843726936656L805.9214545454546,328.5025561691321L807.693090909091,328.6520370590377L808.4567272727273,329.0980353060003L808.9658181818182,329.0988758292849L809.7192727272727,331.0386607304576L810.7374545454546,330.8676817531053L813.0181818181819,329.59856220485284L814.5454545454545,329.5847869271725L815.5534545454545,327.26100693799725L815.808,327.2637724772396L816.8261818181818,328.32728363123823L817.0807272727272,328.967157448559L817.3352727272727,329.18664750266583L818.5978181818182,328.5952976458472L819.8705454545454,329.0924153611848L820.125090909091,329.3623100212828L821.1432727272727,329.19455404768917L822.4058181818181,329.67066086925485L822.6603636363637,329.35316484344474L822.9149090909092,328.77192501134436L823.6785454545454,328.0693995229402L825.9592727272727,328.8922584697087L826.2138181818182,328.66357132039894L826.4683636363636,328.61054052728446L827.7309090909091,328.48402533017236L827.9854545454546,328.60931427437816L829.0036363636364,329.0656311365333L829.7672727272727,329.22046517132685L830.5207272727273,329.32643860276926L831.0298181818182,327.93892444581655L831.5389090909091,329.10328468106604L832.3025454545453,329.6617700501206L834.0741818181817,330.21987178270166L837.1185454545454,332.15811608794377L837.6276363636364,332.1527946240425L840.9265454545455,331.29261612713975L841.1810909090909,330.7931722676673L843.9709090909091,330.4059531303537L846.5061818181817,331.9102678772064L847.0152727272726,331.5253396875152L847.5243636363637,331.4783213877607L849.0414545454545,334.3487130604106L850.8232727272728,332.2108832483621L851.0778181818182,331.11113822412767L852.3403636363637,330.1274504222159L853.3585454545455,330.58514181092715L853.6130909090909,330.4534535737937L854.6312727272726,330.4522217310411L857.9200000000001,330.7178905536429L858.4290909090909,331.44935479661035L858.6836363636363,331.4788470526151L860.9643636363636,331.3879626712373L861.4734545454545,331.32856498752943L861.9825454545454,330.7382102165718L864.0087272727272,330.86673588806576L866.0450909090908,330.12059452464155L866.8087272727272,330.0145493816801L867.053090909091,329.7901911433206L867.8167272727273,330.15933964897624L868.3258181818181,330.62497824551826L868.5803636363636,330.9034434058972L869.3439999999999,331.0552603147663L870.8610909090909,332.37287073983947L871.8792727272727,332.7889793131349L872.1338181818182,332.9956732299946L875.6872727272728,332.41826495624025L876.4407272727273,331.77258764517205L877.2043636363637,331.82614595670526L878.9861818181818,331.7559274285299L879.7396363636365,333.2916909077331L880.2487272727273,334.4007185251964L881.776,333.54699044757655L883.0385454545454,333.3644025012534L884.5658181818183,332.9179971113763L885.0749090909092,332.61986066366507L886.8465454545455,331.8477403591028L887.6101818181819,331.67248435281425L888.1192727272727,332.0715023375352L888.3636363636364,332.17473725469034L889.1272727272726,332.4553293278789L891.1636363636363,332.0427262515501L893.4443636363636,332.71568725929643L894.7069090909091,334.210792835219L895.9796363636364,334.1476863905702L897.2523636363637,333.98970452816275L900.5410909090909,333.1543586875884L901.0501818181817,333.1624752660368L903.5854545454545,332.8689548254576L905.3672727272727,332.3751533767615L906.1309090909091,332.4485913019588L907.3934545454546,332.3251361736371L909.6741818181819,332.724907015149L909.9287272727273,337.5641054897374L911.4559999999999,336.18662390633733L912.9730909090908,334.3339645273422L913.7367272727272,335.5162142243575L914.7549090909091,335.1081973286657L915.0094545454546,334.74970369563414L915.264,334.37388939524976L915.762909090909,333.9810833941452L916.781090909091,333.8071887159572L917.5447272727273,333.4668621297074L917.7992727272728,332.8828624840063L918.8072727272727,332.54581490484225L919.0618181818182,332.91111242292453L919.3163636363637,333.03196017131904L920.5890909090909,333.2444376581367L921.0981818181817,333.57369657215867L923.6334545454545,334.39813468352816L925.4050909090909,334.9073024144029L927.1869090909091,334.70204118948686L927.9403636363636,334.57722082521803L932.5120000000001,334.52346468233975L933.7847272727272,334.3565243162782L936.0654545454545,333.9429108186624L936.829090909091,333.870627683212L937.328,335.336371637352L939.1098181818182,335.0228107959637L940.1178181818182,334.4276103579461L940.3723636363636,332.5352161744278L942.4087272727273,333.63625006171407L943.4167272727273,333.5662202845263L943.6712727272728,334.79948498651845L944.4349090909092,334.9601207739991L944.944,334.91759427224207L946.7156363636363,333.5602642542364L947.7338181818182,333.2078424028836L948.752,333.1829572326488L949.76,334.8052948958539L950.2690909090909,335.40450570853045L951.7963636363637,335.0990738298414L955.8487272727272,334.0067376821033L956.6123636363637,333.5364842010028L957.376,334.1703686998354L958.1396363636363,334.45697793953417L958.3839999999999,334.6409866509313L959.6567272727273,334.61176737293704L961.6829090909091,336.37099777346464L963.2101818181818,336.25855211992575L963.9738181818183,336.16491983475197L964.2283636363637,335.9886486761145L966.2545454545456,335.8418211123943L968.2807272727272,337.07423713804724L971.5796363636364,336.7874709037031L973.3614545454545,336.49184688345395L974.8785454545455,336.20194617256846L976.1512727272728,335.5184664894019L978.9410909090909,336.36423828101516L980.9672727272728,336.1589516350016L981.2218181818182,336.218218613818L982.4945454545455,335.9340632990512L982.738909090909,335.94782980655157L982.9934545454545,336.5388925946352L983.5025454545455,335.88099211719555L984.2661818181818,336.38631895579385L984.7752727272727,336.606261260306L986.0378181818182,336.2572565988473L986.2923636363637,335.4093022138183L988.3287272727272,335.2373494782329L988.5832727272727,335.21676437533745L989.3367272727273,336.91000197739737L991.1185454545455,336.49354934461604L991.872,336.336792902926L992.1265454545454,337.40584248751384L992.3810909090909,338.2152669642418L994.672,338.0181280245174L995.6800000000001,337.976716699568L996.6981818181819,337.29382713724857L998.4698181818183,336.7780708024195L998.7243636363637,335.68141782418706L999.9970909090908,336.0375518925998L1003.805090909091,336.40571534981603L1004.0494545454545,336.51720715310836L1005.0676363636363,337.5630297597302L1005.5767272727272,337.9209292255115L1007.3483636363636,334.55813299980167L1008.3665454545455,335.0266609218834L1010.6472727272728,337.9027340393761L1010.9018181818183,338.0884312420671L1011.1563636363637,338.09542166674686L1011.4109090909092,337.74737122486914L1011.6654545454545,337.2859595749301L1012.6836363636363,337.3744280314722L1013.1825454545456,337.1660401446625L1013.6916363636363,337.1761982942693L1014.4552727272727,336.817348811427L1015.218909090909,336.7543835841671L1015.4734545454545,336.9388222013218L1016.2269090909091,337.0919966982741L1019.0269090909092,336.7292362248693L1020.5440000000001,336.45844959626777L1022.0712727272727,336.67762253236776L1024.352,336.66529216553454L1024.6065454545455,336.67429518445886L1025.869090909091,335.4948434632946L1026.6327272727274,335.0766840277749L1028.16,335.8815821666217L1029.168,337.66121834989696L1030.1861818181817,337.6882938108943L1032.2123636363635,339.640642799749L1032.976,339.9006307267748L1034.4930909090908,339.084226294232L1034.7476363636363,338.91841049485885L1035.7658181818183,338.29558364506715L1036.784,338.44637868920097L1037.5374545454545,338.4821421708195L1037.7920000000001,339.97091442910454L1038.5556363636365,339.1976045032332L1040.8363636363636,340.37517798472385L1044.1352727272726,340.5162573507138L1044.389818181818,340.55474867924227L1044.6443636363636,340.1905397910621L1044.898909090909,339.7241879146656L1045.6625454545456,339.30089559305736L1048.4523636363638,338.20603372522123L1054.5410909090908,339.1678468643832L1055.3047272727274,338.948589605285L1055.8036363636363,338.6683280396402L1056.3127272727272,339.4868962868536L1057.0763636363636,339.7159910604503L1057.5854545454545,340.0132276312049L1058.0945454545456,339.96843536390526L1058.848,339.5760932275083L1059.1025454545454,338.9482580365709L1063.6741818181818,338.5660088555776L1066.2094545454545,339.02945707982684L1067.9810909090909,338.9811022190261L1068.9992727272727,339.7618409271265L1069.2538181818181,339.70758463009025L1070.5265454545456,339.45016719651875L1070.7810909090908,339.26969932629726L1071.5345454545454,339.6080516404142L1074.3243636363636,340.44821072528515L1074.578909090909,340.2462477788007L1077.6232727272727,339.83377674805706L1077.8778181818182,339.84886373029826L1078.386909090909,339.1152431528622L1078.6414545454545,338.5916004944249L1079.4050909090909,338.44890330571513L1079.6596363636363,338.3353939632551L1079.9141818181818,338.2634448391384L1081.6858181818181,339.2643329982449L1082.194909090909,339.8179293530532L1082.7040000000002,340.1607848440444L1085.7483636363636,340.1434348347339L1086.5018181818182,339.9266169341213L1086.7563636363636,339.706226841198L1087.010909090909,339.39004797582436L1087.2654545454545,339.30446993816213L1088.2836363636363,339.0682775517792L1089.0472727272727,339.26678754124936L1092.845090909091,340.1737980165382L1093.3541818181818,340.6693754920162L1094.8814545454545,339.9493140583724L1095.3803636363637,339.6663106745719L1096.3985454545455,340.2816097429475L1097.4167272727273,340.2955265250045L1097.6712727272727,340.36212095456125L1101.469090909091,340.7821204630406L1103.76,339.8011198725347L1104.269090909091,339.3358454227215L1104.768,341.8922148396236L1105.5316363636364,340.9194806907376L1106.0407272727273,341.1207161804877L1106.8043636363636,341.0327441313264L1109.085090909091,340.93871731205326L1109.8487272727273,340.8295708103944L1110.6021818181819,340.72354272423604L1116.192,340.7366397958186L1117.4545454545455,341.8273214971423L1118.9818181818182,342.0113296987599L1119.7352727272728,341.9931126754852L1120.7534545454546,341.430837176304L1122.2807272727273,340.5698469082673L1123.0341818181819,342.43219580015483L1123.5432727272728,343.05546218294853L1124.0523636363637,343.22176816991947L1124.816,343.03453095873067L1125.325090909091,342.59935716545306L1126.0785454545455,342.06502485792714L1130.3956363636364,341.8499257146549L1130.6501818181819,341.71815820105337L1131.4138181818182,341.7735710939249L1133.44,341.8807002663398L1133.6945454545455,341.86829712935014L1135.9752727272728,341.8939337925529L1136.2298181818182,341.77496467147125L1137.5025454545455,341.78496663686803L1137.757090909091,341.6939886122061L1138.0014545454546,341.5316768449919L1138.7650909090908,341.7509695727927L1140.2923636363637,341.413638406663L1141.554909090909,341.60466778473517L1142.3185454545455,341.7474638293277L1144.3447272727274,339.31145059489745L1145.3629090909092,339.9665043713638L1145.872,340.3347415237698L1148.1527272727274,340.7803886281305L1149.4254545454546,341.12447533986403L1150.9425454545453,342.4641204659049L1151.1970909090908,343.311813852092L1152.2152727272728,342.36816873911147L1152.4698181818183,341.9688246500019L1154.2414545454546,341.7209024177392L1156.0232727272728,341.7333813567833L1157.5403636363637,341.70505206603076L1158.304,341.55795041494343L1158.8130909090908,341.7467071293884L1159.0676363636362,341.86911601073194L1160.8392727272726,342.7139921529146L1162.3563636363638,342.3028491903743L1162.8654545454544,342.76514709303245L1163.12,344.0247000877816L1163.6290909090908,344.33463509381886L1164.6472727272728,343.7693008272413L1165.6552727272726,342.76177178693337L1166.928,342.2856159834046L1167.6916363636365,341.9115875571974L1169.9723636363638,341.41512491115975L1170.4814545454544,341.26644110130604L1171.4894545454547,341.39840112555953L1173.0167272727272,342.3161945748634L1173.7803636363635,342.48191823327556L1175.2974545454545,342.340168141333L1178.341818181818,341.44768830127964L1179.3600000000001,340.8463087041934L1181.1316363636363,342.57350247042956L1181.8952727272729,342.70479027721456L1183.9214545454547,343.38581377936373L1184.6850909090908,342.64045949600194L1185.1941818181817,342.8241830425959L1187.2203636363636,343.84613310222085L1187.474909090909,344.68931938703173L1188.2385454545454,344.6094131765985L1189.7556363636363,344.1630715263339L1191.0283636363636,344.03846668498187L1194.8363636363636,343.09817523976085L1195.090909090909,342.5654438330208L1197.1170909090908,343.31254227565233L1198.389818181818,343.52472613322567L1199.906909090909,343.1405901926758L1200.416,343.07659646020545L1200.6705454545454,343.1070967522886L1202.1876363636363,343.36312627727784L1204.7330909090908,342.70283824644133L1205.4865454545454,345.1405087082641L1205.9956363636363,345.61976235193447L1206.250181818182,345.2720233055814L1206.5047272727272,345.2032242874989L1207.522909090909,344.6998478426344L1210.0581818181818,344.1577299658702L1210.3127272727272,343.9927046233222L1210.8218181818181,344.00181287124207L1213.3570909090909,344.26207041428216L1213.6116363636363,344.38891326258164L1217.9185454545454,342.8622187431956L1219.7003636363636,342.5466286398689L1220.7083636363636,343.5145028753633L1222.9992727272727,343.98042200281196L1224.2618181818182,343.99877845616777L1225.5345454545454,343.7987796025402L1227.0516363636364,343.1592529475775L1229.3323636363637,343.82143895829233L1230.3505454545455,343.12649450657426L1231.3687272727273,343.596362804572L1232.1323636363636,344.46091072551224L1233.6494545454545,343.5467610279438L1234.9221818181818,344.0701426312956L1236.4392727272727,344.1784511955006L1237.712,344.3405435261964L1238.4654545454546,344.1209530147836L1238.72,344.2092841902004L1240.5018181818182,343.54676057192574L1242.0189090909091,342.05748528239934L1242.528,342.2631005310884L1244.5541818181819,343.51536904138163L1245.5723636363637,343.2591361668059L1246.336,343.08206024345213L1247.0996363636364,343.25193177794523L1247.3541818181818,343.33923551052527L1249.3803636363637,344.3067517509533L1249.8894545454546,345.2474431709428L1252.6792727272727,345.4986406091281L1254.7054545454546,344.5870316983086L1256.2327272727273,344.3762515632694L1257.4952727272728,345.66513941651056L1258.5134545454546,345.78148195802794L1260.5396363636364,345.52538921325583L1262.3214545454546,345.54874080841364L1266.3738181818183,346.5170652375671L1267.901090909091,346.5789680762163L1268.909090909091,346.29394505327065L1272.7170909090908,346.37171338939686L1274.2443636363637,346.31658935047165L1274.997818181818,345.9766413018427L1275.5069090909092,346.56935443219936L1277.0341818181819,345.76126654108424L1277.2887272727273,345.4474733605428L1278.042181818182,345.29449704079053L1279.0603636363637,346.0707055450484L1280.0785454545453,345.92044516900114L1280.3330909090907,345.51036987174916L1280.5876363636364,345.30039221085036L1281.0865454545456,345.207586281367L1282.613818181818,345.6519676481108L1284.3854545454544,344.90455745407024L1284.8945454545453,344.496407072508L1285.4036363636365,344.50872799356836L1286.4218181818183,344.2695516103907L1287.1752727272726,344.4273978835938L1287.429818181818,344.63260353806544L1287.9389090909092,345.25956209947395L1289.9752727272726,344.86707559918705L1292.0014545454544,346.22948828776924L1292.5105454545453,346.7620349982853L1296.064,346.30489817823866L1296.8174545454544,348.5747446915893L1297.5810909090908,347.97486446368885L1298.090181818182,347.1942051781737L1300.1163636363635,346.74145618491156L1301.1345454545456,346.9152869375402L1301.898181818182,346.2634013201489L1303.4152727272728,346.186935658888L1305.6960000000001,344.86342053112907L1306.9687272727272,345.5868360130344L1307.2232727272726,345.8823867625225L1308.2414545454546,346.1158760789409L1309.2494545454545,346.76847818737144L1309.504,346.931593127345L1309.7585454545454,346.790970372363L1310.2676363636365,346.657990928392L1311.5301818181817,346.6873660731129L1311.7847272727272,346.81599862200113L1312.0392727272726,347.2698721288645L1314.3301818181817,347.2379840300393L1316.3563636363635,347.0633802442936L1317.3745454545453,346.84420820750006L1317.8734545454545,346.41955959130877L1319.4007272727272,346.25872937107516L1321.426909090909,344.36121876513977L1321.6814545454545,343.64922499776736L1323.2087272727274,343.60269960787195L1323.9621818181818,343.39389349580324L1325.9985454545454,343.96906339546746L1326.2530909090908,344.3570126857183L1327.5156363636365,345.3525514432127L1328.2792727272727,345.97768412016006L1328.533818181818,346.24234247202156L1329.2974545454545,346.3674720203553L1330.050909090909,345.42233956492424L1330.8145454545454,346.23973408461137L1333.858909090909,347.0640992559106L1334.8770909090908,346.7429872378106L1336.6487272727272,346.3953184742126L1338.176,346.40698942640944L1338.9294545454545,346.5837460633985L1339.184,348.2839655552163L1339.4385454545454,348.71757549833L1340.2021818181818,349.2794084026072L1340.4567272727272,349.2689867331043L1342.2283636363636,348.6668396161933L1342.7374545454545,349.2445930662248L1343.2465454545454,349.24242174121457L1344.7738181818181,348.19736843884687L1345.0181818181818,347.54918786369376" style="fill: none;" fill="none"></path></g></g></g></g><g opacity="0.2"><g><g><g><path stroke="rgb(255, 112, 67)" stroke-width="2px" d="M162.03345454545456,-17.36450350284575L164.05963636363637,1.2920468449592493L164.56872727272727,-6.278503000736243L165.5869090909091,-7.914345026016223L167.35854545454546,1.7481207251548703L168.12218181818182,2.7309223413467665L168.63127272727274,0.7960438132286168L169.14036363636365,3.145727455615994L170.91199999999998,13.390320479869835L171.16654545454546,10.537719666957846L172.43927272727274,9.039166510105156L174.2109090909091,22.23060870170594L174.46545454545455,21.491444051265738L174.72,21.021930813789364L175.98254545454546,16.589319646358515L176.2370909090909,23.575970470905315L179.0269090909091,24.258352756500262L179.536,47.69542509317398L181.0632727272727,34.13187259435654L181.57236363636363,32.311163783073425L182.0712727272727,31.081657052040118L184.36218181818182,36.21190482378005L185.62472727272726,58.965860247612014L189.43272727272728,50.95984929800036L189.6872727272727,48.00003612041475L192.98618181818182,55.15664511919022L193.24072727272727,53.00340944528578L193.49527272727272,51.99182772636416L196.2850909090909,54.485455095768L197.04872727272726,52.174144923686974L198.05672727272727,71.41161257028578L199.0749090909091,60.90622687339784L199.83854545454548,56.68968254327773L200.59199999999998,71.40966796875L201.1010909090909,66.40400433540344L202.3738181818182,62.027008771896355L202.8829090909091,60.87265008687972L203.13745454545455,59.552352070808425L205.67272727272726,64.17302781343462L206.68072727272727,79.01751095056534L207.6989090909091,72.0497443675995L208.208,67.4945368766785L208.46254545454548,68.44566309452057L209.22618181818183,64.75662434101106L213.02399999999997,63.661986529827125L215.06036363636363,65.92118138074876L215.3149090909091,65.70191675424579L218.35927272727275,72.40093940496445L219.87636363636364,81.07610934972763L220.1309090909091,79.31080007553103L220.38545454545454,78.05411213636401L223.42981818181818,72.0893710255623L225.456,88.1829797625542L226.47418181818182,83.84777152538302L226.98327272727275,78.15510177612306L228.24581818181818,82.06781291961669L229.51854545454546,82.86060535907745L230.02763636363633,82.09737086296083L232.81745454545455,81.44070053100586L234.33454545454546,94.20731210708618L234.5890909090909,91.08354741334915L238.14254545454546,86.22364246845245L238.3970909090909,84.48270553350449L238.90618181818184,81.95973628759386L239.91418181818182,81.0489713549614L240.16872727272727,100.58504337072374L240.67781818181817,86.88666516542436L242.2050909090909,87.09305220842364L243.2130909090909,92.89604568481447L244.4858181818182,90.36931687593463L245.504,85.25760763883592L246.25745454545455,98.55086052417757L246.76654545454545,94.25052547454833L247.78472727272725,90.32925808429717L248.03927272727273,89.4321053624153L249.3018181818182,95.60608559846877L249.5563636363636,93.7087162733078L251.08363636363637,89.18540024757385L251.59272727272727,90.2618452310562L252.85527272727273,90.94115936756134L256.9178181818182,93.23725843429568L257.4269090909091,91.83991098403932L257.6814545454545,91.23721414804459L257.936,90.56498700380327L258.68945454545457,90.69276893138887L259.19854545454547,88.7817873954773L262.752,93.5257940888405L263.00654545454546,92.34745198488235L263.51563636363636,90.06284767389299L264.02472727272726,88.52220469713214L264.5236363636364,100.51776015758517L265.5418181818182,100.6883233189583L266.0509090909091,97.52173417806624L267.0690909090909,93.48780953884128L267.56800000000004,102.09368684887887L268.58618181818184,91.92460918426514L270.11345454545454,88.88571554422379L270.6123636363636,103.02216926217079L271.6305454545455,97.09681713581087L275.6930909090909,96.6024129986763L275.9476363636364,94.7479977607727L276.7010909090909,107.66328492760658L277.2101818181818,104.07674828171731L277.46472727272726,101.75958269834518L278.2283636363636,95.62289559841157L278.7374545454545,95.09245151281357L281.78181818181815,94.08242547512056L283.04436363636364,103.72844853997232L283.2989090909091,101.79043704271318L285.33527272727275,90.61481201648715L285.5796363636364,89.91976821422578L286.85236363636363,102.56270313262942L287.1069090909091,103.65641185641289L288.1250909090909,102.18789198994638L289.13309090909087,96.0824697613716L290.6603636363637,97.69130343198775L290.9149090909091,97.31560641527176L292.1774545454545,108.40862908959387L292.68654545454547,103.18545097112654L294.4683636363636,93.53793704509735L294.96727272727276,90.90658867359161L296.7490909090909,96.03121870756151L298.77527272727275,99.04988849163055L299.0298181818182,99.88425219058992L300.048,97.91925394535066L301.05600000000004,95.62522912025452L303.09236363636364,97.00706297159194L303.60145454545454,97.40574949979782L307.65381818181817,104.47506749629976L310.44363636363636,111.18154445290564L310.9527272727273,109.1914608478546L311.46181818181816,103.11501318216325L311.71636363636367,101.74670511484148L312.2254545454545,100.8140310049057L312.48,99.30311882495879L312.9789090909091,97.34736824035646L313.23345454545455,117.6227345466614L313.488,108.10533607006074L314.7607272727273,103.38269838690759L316.2778181818182,98.69385355710985L321.35854545454544,97.17192196846011L321.6130909090909,96.3408856987953L323.3847272727273,111.47044742107393L324.1483636363636,105.91666543483736L324.4029090909091,102.64476531744003L324.91200000000003,100.46331131458282L325.4109090909091,111.5202724337578L325.92,102.7189194560051L327.4472727272727,101.34227120876311L331.49963636363634,91.55941301584245L331.7541818181818,96.57121294736861L332.26327272727275,98.41849797964099L333.0269090909091,94.67211508750917L335.05309090909094,110.00566551089285L335.3076363636364,110.26991525292397L337.5883636363636,108.6427159011364L338.6065454545454,105.86913073062895L339.37018181818183,108.80251893401149L339.6247272727273,106.45871230959891L340.63272727272727,106.44734719395639L341.3963636363637,108.77939978241919L341.9054545454545,102.69713991880418L344.94981818181816,108.69850435853003L345.7134545454545,103.98913317918779L346.22254545454547,102.89840617775917L347.23054545454545,112.1824740767479L348.5032727272727,108.04987171292305L351.80218181818185,103.88107815384866L352.31127272727275,102.00408393144609L353.82836363636363,107.46901923418046L354.592,105.2382371723652L355.1010909090909,104.15768691897391L356.10909090909087,114.31326040625572L356.3636363636363,113.79102686047554L357.89090909090913,105.59844219684604L362.96145454545456,103.60870429873468L363.47054545454546,101.39079982042313L363.9796363636363,100.7750957608223L366.5149090909091,102.81057500839233L368.28654545454543,120.47643730044366L369.8138181818182,106.56778284907344L371.84000000000003,106.70621687173843L375.9025454545454,106.92092248797418L376.6661818181818,103.25441950559618L377.67418181818186,115.98879390954973L379.20145454545457,107.01285892724992L379.71054545454547,105.17812737822534L380.9730909090909,107.72361078858377L381.7367272727273,107.51156279444697L381.9912727272727,108.66138407588006L382.24581818181815,108.32071149349211L385.0356363636364,108.22091022133826L386.80727272727273,110.88043370842932L387.8254545454546,104.75999483466151L388.33454545454543,104.29033035039903L390.3607272727273,110.1139798164368L390.6152727272727,108.76898536086084L395.4312727272727,119.79610764980316L396.44945454545456,105.48077219724655L398.9847272727273,110.18320763111115L399.23927272727275,112.24472293257713L399.7483636363636,108.04395148158072L400.76654545454545,103.91422280669214L403.04727272727274,109.61112746596336L406.0916363636364,107.96545439958574L407.1098181818182,101.98537254333498L407.60872727272726,122.90260860323906L408.3723636363636,114.8065842092037L408.8814545454546,109.20120546221732L409.3905454545454,105.27743169665337L411.92581818181816,108.41515430808069L412.1803636363636,108.56784874200822L412.944,107.86930465698244L413.19854545454547,107.51521432399753L413.952,111.35748767852783L414.7156363636364,104.43148681521416L415.22472727272725,101.89643943309787L416.48727272727274,96.75841325521469L418.2690909090909,104.22570475935936L419.5316363636364,104.41262418031695L419.78618181818183,115.474317163229L422.3316363636364,103.25848156213759L422.8305454545454,115.71663612127307L425.376,103.29251208901407L425.8749090909091,103.89715352654457L426.12945454545456,110.54311016201973L427.9112727272727,106.61929318308829L429.17381818181815,114.51385685801507L430.192,108.64787989854813L430.44654545454546,108.03012320399284L433.4909090909091,150.98466420173645L435.5170909090909,176.22544088959694L436.53527272727274,173.62304547429088L437.7978181818182,173.15573611855507L438.30690909090913,181.9654076695442L439.3250909090909,177.7482799589634L443.13309090909087,184.0864277780056L443.6421818181818,184.07415518164635L444.6501818181818,192.9864368736744L444.90472727272726,191.97005847096443L445.1592727272727,188.54341128468513L445.66836363636367,189.0837728381157L446.432,186.5602850317955L447.44,193.90729212760922L448.9672727272727,191.07694619894028L449.97527272727274,190.0858476161957L451.248,192.06858494877815L452.7752727272727,190.94199085235599L453.5287272727273,203.9776056408882L454.80145454545453,194.90182617306712L455.5650909090909,194.64070940017703L456.8276363636364,204.24475067853928L457.0821818181818,204.28936848044395L457.8458181818182,201.5022791326046L458.864,198.03503298759458L461.14472727272727,200.20551079511642L462.91636363636366,199.66862791776657L463.68,200.47094890475273L463.93454545454546,201.01485395431516L466.2152727272727,206.82586351037028L468.75054545454543,209.73334529995918L469.51418181818184,209.44703513383865L471.04145454545454,205.71437248587605L472.5585454545454,208.63417008519173L473.5767272727273,206.67221838235858L476.3665454545454,209.94262763857841L476.62109090909087,209.9954991936684L477.62909090909096,223.435223788023L479.15636363636366,211.22638875246048L480.1745454545454,208.70316022634506L480.928,215.26915052533153L487.0167272727273,210.77647277712822L490.5701818181818,220.7455157637596L491.84290909090913,215.9713677465916L492.352,214.89574381709102L492.59636363636366,214.83706006407738L492.8509090909091,223.82304215431213L493.10545454545456,220.82820454239845L495.14181818181817,215.64502039551735L497.168,217.82113754749298L497.42254545454546,218.10515740513804L497.9316363636364,215.99042484164238L498.1861818181818,215.9527643918991L501.48509090909096,219.39853349328044L501.984,225.62977144122124L504.77381818181817,218.2970031499863L505.5374545454545,223.1302454471588L506.5556363636364,220.02508410811424L507.5738181818181,218.92858812212944L508.58181818181816,221.06592127680779L510.3636363636364,220.21684342622754L510.6181818181818,220.17229044437406L510.8625454545454,219.7682886719704L511.3716363636364,226.80001103878024L512.1352727272726,224.14333963394165L515.1796363636364,224.05442813038823L516.7069090909091,222.9341215789318L517.4603636363637,223.62983518838882L517.7149090909091,225.01525574922564L520.2501818181818,232.9641818404198L521.0138181818181,228.08334001898766L523.8036363636364,226.96011656522754L524.5672727272727,226.88665384054184L525.3309090909091,226.21557185053823L526.5934545454545,224.3680059313774L527.357090909091,226.4170757830143L529.6378181818181,232.5164049267769L532.4276363636363,236.00592756271362L533.7003636363637,233.56428587436676L534.2094545454545,230.93823114037514L540.2981818181818,230.36656150221825L542.3243636363636,232.71669888496396L542.8334545454545,230.99927002191546L543.597090909091,229.04334658384326L545.1141818181818,243.66208308935165L545.3687272727273,240.06655806303021L547.1505454545454,230.1985047161579L549.1767272727272,230.81671515107155L550.194909090909,229.5998699367046L551.2029090909091,236.08079472184184L552.2210909090909,234.0131431221962L552.9847272727272,233.3548955023289L553.4836363636364,232.5186952352524L555.0109090909091,253.2552345991135L555.52,254.23492485284805L557.2916363636364,268.15725633502007L559.328,263.583575129509L559.8269090909091,277.6537827551365L560.5905454545455,266.14787796139717L561.0996363636364,266.57973074913025L561.3541818181818,266.2801324725151L561.6087272727273,266.22989693284035L563.3803636363637,266.4099886417389L564.3985454545455,264.7708191871643L564.6530909090909,265.9904948771L566.4247272727273,267.4471958875656L568.4610909090909,269.98377734422684L568.7054545454546,269.41342571377754L569.7236363636364,272.2964055240154L570.2327272727273,273.73733365535736L572.5134545454546,273.0664893388748L575.3032727272727,280.2464767694473L577.8385454545454,274.127118229866L578.3476363636364,280.1017768085003L580.1294545454546,274.6118209660053L580.384,273.7832262516022L581.3919999999999,279.52423015236855L582.1556363636364,276.33612075448036L583.1738181818182,274.22460758686066L584.1818181818182,280.4224848151207L589.0079999999999,276.94324696063995L590.016,276.21821308135986L591.0341818181818,282.96520256996155L591.7978181818182,277.3561722934246L593.314909090909,283.17279958724976L593.824,286.77476340532303L596.1047272727272,278.5997881889343L597.122909090909,279.77160507440567L599.4036363636363,279.7678671181202L600.6763636363637,281.5300434231758L600.930909090909,282.21640133857727L601.1854545454545,281.7961729466915L605.2378181818182,280.70345813035965L606.5105454545455,284.78613825142384L608.2821818181818,281.5130173563957L609.3003636363636,281.36002042889595L610.064,280.51861295104027L611.5810909090909,293.4718414545059L611.8356363636364,290.7467200756073L612.0901818181818,286.55985252559185L612.8538181818182,283.82911340892315L614.1265454545455,282.3321699500084L615.6436363636363,285.28203324973583L615.8981818181818,284.1100219041109L618.4334545454545,287.22701290249825L618.688,286.8397887200117L619.7061818181818,283.5917423814535L619.9607272727272,283.4365307688713L620.9687272727273,290.2450344860554L621.4778181818182,288.5584599673748L623.0050909090909,285.9667922705412L623.7585454545455,283.6984685957432L624.7767272727273,288.02856685221195L625.0312727272727,288.56161454319954L625.5403636363636,286.53496162593365L625.7949090909091,285.58396504819393L626.304,285.61026038229465L629.0938181818182,285.7319816350937L629.5927272727273,285.56161293387413L631.6290909090909,285.8198776245117L631.8836363636364,286.0237150788307L632.637090909091,284.74499912559986L641.5258181818182,287.975533246994L643.8065454545455,290.3264376670122L644.0610909090909,290.310708001256L645.8327272727272,292.54772359132767L646.8509090909091,290.92204751074314L648.6225454545455,294.6450303643942L648.877090909091,293.2630560696125L651.9214545454545,288.8608347028494L652.685090909091,289.7776279002428L654.9658181818182,290.4236569404602L657.501090909091,293.87078726291656L659.5374545454546,290.0604053735733L659.7919999999999,289.74065886437893L660.290909090909,292.4826550632715L661.0545454545455,293.48593981564045L662.5818181818182,291.8226789087057L663.8443636363636,292.208639100194L664.098909090909,291.58672311902046L665.117090909091,292.5308487713337L665.3716363636364,292.02233546972275L667.1432727272728,295.59049563109875L669.424,293.493847861886L670.1876363636363,293.0706269443035L672.7229090909091,293.9480851739645L675.2581818181818,293.7299548983574L677.8036363636363,303.47626538574696L682.3650909090909,312.5785346478224L684.146909090909,309.75396850705147L685.9185454545454,312.2611432671547L686.4276363636363,310.93806879222393L687.9447272727273,314.3928802907467L688.4538181818182,312.85257221758366L689.2174545454545,309.6688813865185L689.472,309.26410177350044L690.9890909090909,308.08975690603256L692.0072727272727,311.42844328284264L694.7970909090909,315.3476364314556L695.5607272727273,313.1484001278877L696.8232727272728,316.53262259066105L700.1221818181818,310.7652801424265L706.2109090909091,316.93258391320705L711.0370909090908,320.03466629981995L712.2996363636364,322.47316421568394L712.5541818181817,321.0165388286114L715.0894545454545,322.64263623952866L715.8530909090908,325.251600086689L717.1258181818182,322.04952196776867L719.152,323.06981118023396L719.9156363636364,322.5780430585146L721.6872727272728,324.73822528123856L721.9418181818182,325.08482889831066L722.1963636363637,324.5150606483221L722.7054545454545,324.14314480125904L724.2225454545455,321.3582161217928L726.0043636363636,321.67138339579105L729.5578181818182,322.18333216011524L732.3476363636364,322.9458428323269L733.6101818181819,328.410237967968L734.6283636363636,326.8015015274286L734.882909090909,326.7064321190119L735.6465454545454,325.4949453622103L735.9010909090908,324.7484884560108L743.5069090909092,324.08825302124023L744.2705454545455,325.49981766939163L745.2785454545453,323.6401087939739L745.5330909090908,326.32296749949455L746.8058181818182,324.6839708983898L747.0603636363636,323.848440438509L750.1047272727272,323.7600691020489L752.1309090909091,325.1635312438011L752.64,324.7398349791765L752.8945454545454,325.0269445925951L755.9389090909092,327.75826708972454L757.9650909090908,326.4872539192438L760.0014545454545,325.75302639603615L761.264,324.27531288564205L761.7730909090909,324.4525849223137L762.5367272727273,324.4404527693987L763.0458181818182,324.5080168694258L763.3003636363637,324.84037087857723L765.072,327.93830478191376L766.0901818181819,325.44814528524876L766.3447272727273,324.90225242078304L766.5890909090909,325.1458569765091L767.0981818181818,327.8928011059761L767.6072727272726,325.0941953957081L768.88,325.9115762412548L769.3890909090909,325.58098317682743L771.4152727272727,323.3065556138754L778.2676363636365,325.01859360933304L778.5221818181818,324.28296165168285L779.021090909091,320.64771273732185L781.312,327.71456757187843L781.5665454545455,327.3198242634535L783.3381818181819,326.48742677271366L784.1018181818182,325.86676397919655L784.3563636363637,326.11606189608574L785.1098181818181,326.7409163862467L786.8916363636364,326.5528410077095L787.4007272727272,326.4272845685482L788.6632727272728,332.01882423460484L791.7076363636363,327.0316775292158L791.9621818181818,327.65277245640755L793.9883636363636,326.59461753070354L794.242909090909,327.2676549255848L796.0247272727273,328.0948235988617L796.7883636363637,327.8899814337492L797.0327272727272,327.7952469289303L797.2872727272727,335.39396108686924L798.0509090909092,327.3191652595997L802.877090909091,328.154976606369L804.9032727272727,328.26164880394936L805.1578181818181,328.2682820558548L805.9214545454546,328.5228736102581L807.693090909091,328.86714370548725L808.4567272727273,329.73983766138554L808.9658181818182,329.100085362792L809.7192727272727,333.83005851507187L810.7374545454546,330.62163883447647L813.0181818181819,327.7722682207823L814.5454545454545,329.56496396660805L815.5534545454545,323.9170308560133L815.808,327.2677521556616L816.8261818181818,329.8577021211386L817.0807272727272,329.8879514783621L817.3352727272727,329.5024990439415L818.5978181818182,327.744330778718L819.8705454545454,329.8077798783779L820.125090909091,329.7506950199604L821.1432727272727,328.9531491100788L822.4058181818181,330.3557901978493L822.6603636363637,328.8962803184986L822.9149090909092,327.9355067163706L823.6785454545454,327.0584482103586L825.9592727272727,330.07637256383896L826.2138181818182,328.3344849348068L826.4683636363636,328.5342279225588L827.7309090909091,328.30196687579155L827.9854545454546,328.7896081209183L829.0036363636364,329.72228223085403L829.7672727272727,329.4432751238346L830.5207272727273,329.47893695533276L831.0298181818182,325.94225773215294L831.5389090909091,330.77882745862007L832.3025454545453,330.4654441177845L834.0741818181817,331.02299378812313L837.1185454545454,334.9472969174385L837.6276363636364,332.1451369076967L840.9265454545455,330.0547982901335L841.1810909090909,330.07446037232876L843.9709090909091,329.8487353473902L846.5061818181817,334.0750134885311L847.0152727272726,330.97141863405704L847.5243636363637,331.41066090762615L849.0414545454545,338.4792766869068L850.8232727272728,329.13449400663376L851.0778181818182,329.5285783112049L852.3403636363637,328.71189968287945L853.3585454545455,331.2437708824873L853.6130909090909,330.2639509886503L854.6312727272726,330.45044907927513L857.9200000000001,331.1001944690943L858.4290909090909,332.50194968283176L858.6836363636363,331.5212871283293L860.9643636363636,331.25717782974243L861.4734545454545,331.24309027194977L861.9825454545454,329.8886753022671L864.0087272727272,331.051687464118L866.0450909090908,329.04687890410423L866.8087272727272,329.86194783449173L867.053090909091,329.46733416616917L867.8167272727273,330.69055335223675L868.3258181818181,331.29504354298115L868.5803636363636,331.30416156351566L869.3439999999999,331.27372854948044L870.8610909090909,334.2689442783594L871.8792727272727,333.3877696990967L872.1338181818182,333.2931108176708L875.6872727272728,331.5873603671789L876.4407272727273,330.84344224631786L877.2043636363637,331.9032176733017L878.9861818181818,331.65488125383854L879.7396363636365,335.5016920119524L880.2487272727273,335.99663631618023L881.776,332.3184549212456L883.0385454545454,333.10165399312973L884.5658181818183,332.27560886740685L885.0749090909092,332.19083504378796L886.8465454545455,330.73664040863514L887.6101818181819,331.42028668522835L888.1192727272727,332.64569894969463L888.3636363636364,332.32329481840134L889.1272727272726,332.8591081649065L891.1636363636363,331.4489803612232L893.4443636363636,333.68409456312656L894.7069090909091,336.3622862249613L895.9796363636364,334.0568746775389L897.2523636363637,333.7623647749424L900.5410909090909,331.9522756487131L901.0501818181817,333.17415522038937L903.5854545454545,332.446571752429L905.3672727272727,331.66456104815006L906.1309090909091,332.5542702674866L907.3934545454546,332.14748123288155L909.6741818181819,333.30018700659275L909.9287272727273,344.52783012390137L911.4559999999999,334.2043943107128L912.9730909090908,331.667942494154L913.7367272727272,337.2175003737211L914.7549090909091,334.52105106413364L915.0094545454546,334.23382261395454L915.264,333.8330834507942L915.762909090909,333.4158259779215L916.781090909091,333.55695003271103L917.5447272727273,332.97712387144566L917.7992727272728,332.0424727499485L918.8072727272727,332.06079521775246L919.0618181818182,333.43678446114063L919.3163636363637,333.2058630287647L920.5890909090909,333.55019794404507L921.0981818181817,334.04750818014145L923.6334545454545,335.5845212340355L925.4050909090909,335.6400071978569L927.1869090909091,334.4066652804613L927.9403636363636,334.3976012766361L932.5120000000001,334.4461082816124L933.7847272727272,334.11629305779934L936.0654545454545,333.34771090745926L936.829090909091,333.76661048829556L937.328,337.445612937212L939.1098181818182,334.57158909738064L940.1178181818182,333.5711024105549L940.3723636363636,329.8120147883892L942.4087272727273,335.2206646800041L943.4167272727273,333.4654457271099L943.6712727272728,336.574182972312L944.4349090909092,335.19127959012985L944.944,334.85639759898186L946.7156363636363,331.60703325271606L947.7338181818182,332.7006987631321L948.752,333.1471468657255L949.76,337.1398783624172L950.2690909090909,336.2667846828699L951.7963636363637,334.65954990684986L955.8487272727272,332.43483932316303L956.6123636363637,332.85977797210217L957.376,335.0825439542532L958.1396363636363,334.86941562592983L958.3839999999999,334.90577967464924L959.6567272727273,334.5697201192379L961.6829090909091,338.9025732278824L963.2101818181818,336.0967400819063L963.9738181818183,336.03018069267273L964.2283636363637,335.7349901795387L966.2545454545456,335.6305326670408L968.2807272727272,338.8477138578892L971.5796363636364,336.37480729818344L973.3614545454545,336.0664367079735L974.8785454545455,335.78477197885513L976.1512727272728,334.534922555089L978.9410909090909,337.5813245177269L980.9672727272728,335.8635391443968L981.2218181818182,336.3035052418709L982.4945454545455,335.52515687048435L982.738909090909,335.9676401466131L982.9934545454545,337.38944636285305L983.5025454545455,334.9342572838068L984.2661818181818,337.1134966015816L984.7752727272727,336.9227636009455L986.0378181818182,335.7550303786993L986.2923636363637,334.1890751719475L988.3287272727272,334.9899052977562L988.5832727272727,335.18714191019535L989.3367272727273,339.3466121852398L991.1185454545455,335.8942638486624L991.872,336.11121656000614L992.1265454545454,338.9442309141159L992.3810909090909,339.38004852831364L994.672,337.7344402819872L995.6800000000001,337.91712479293346L996.6981818181819,336.31113240122795L998.4698181818183,336.03588485717773L998.7243636363637,334.10330744087696L999.9970909090908,336.5500375032425L1003.805090909091,336.9355115443468L1004.0494545454545,336.67764657735825L1005.0676363636363,339.0679939985275L1005.5767272727272,338.435955286026L1007.3483636363636,329.71898721158504L1008.3665454545455,335.7008840292692L1010.6472727272728,342.04147340357304L1010.9018181818183,338.35565404593945L1011.1563636363637,338.10548105835915L1011.4109090909092,337.24651814997196L1011.6654545454545,336.6219769567251L1012.6836363636363,337.50173629820347L1013.1825454545456,336.8661648929119L1013.6916363636363,337.19081611931324L1014.4552727272727,336.3009556531906L1015.218909090909,336.6637750864029L1015.4734545454545,337.20423386991024L1016.2269090909091,337.31241853535175L1019.0269090909092,336.2072150558233L1020.5440000000001,336.0687810331583L1022.0712727272727,336.9930177330971L1024.352,336.64754846692085L1024.6065454545455,336.6872507482767L1025.869090909091,333.79758366942406L1026.6327272727274,334.4749424010515L1028.16,337.0398502200842L1029.168,340.2221582233906L1030.1861818181817,337.7272560596466L1032.2123636363635,342.45012061297894L1032.976,340.2747596949339L1034.4930909090908,337.9094004034996L1034.7476363636363,338.6797975152731L1035.7658181818183,337.39932061731815L1036.784,338.6633764356375L1037.5374545454545,338.5336066931486L1037.7920000000001,342.11329402029514L1038.5556363636365,338.08479265868664L1040.8363636363636,342.0697349458933L1044.1352727272726,340.7192739993334L1044.389818181818,340.6101386398077L1044.6443636363636,339.6664343178272L1044.898909090909,339.05309619009495L1045.6625454545456,338.6917676180601L1048.4523636363638,336.63050079345703L1054.5410909090908,340.5519194304943L1055.3047272727274,338.63307306170464L1055.8036363636363,338.26502481102943L1056.3127272727272,340.6648359596729L1057.0763636363636,340.04566402733326L1057.5854545454545,340.44095830619335L1058.0945454545456,339.9039781987667L1058.848,339.0115033239126L1059.1025454545454,338.04478788375854L1063.6741818181818,338.01594296097755L1066.2094545454545,339.69637037813663L1067.9810909090909,338.91151839494705L1068.9992727272727,340.88534297049046L1069.2538181818181,339.6295084953308L1070.5265454545456,339.07973723113537L1070.7810909090908,339.0100016593933L1071.5345454545454,340.09494887292385L1074.3243636363636,341.6572201400995L1074.578909090909,339.955618172884L1077.6232727272727,339.24022087454796L1077.8778181818182,339.87057426571846L1078.386909090909,338.0595452487469L1078.6414545454545,337.83806593716145L1079.4050909090909,338.2435585707426L1079.6596363636363,338.1720512509346L1079.9141818181818,338.15990829467773L1081.6858181818181,340.7046354711056L1082.194909090909,340.6145680099726L1082.7040000000002,340.6541622579098L1085.7483636363636,340.11846774816513L1086.5018181818182,339.61461068689823L1086.7563636363636,339.3890801221132L1087.010909090909,338.93505887687206L1087.2654545454545,339.18132105469704L1088.2836363636363,338.7283909469843L1089.0472727272727,339.5524482578039L1092.845090909091,341.4790082126856L1093.3541818181818,341.38252356648445L1094.8814545454545,338.913128092885L1095.3803636363637,339.25906190276146L1096.3985454545455,341.1670401096344L1097.4167272727273,340.31555311381817L1097.6712727272727,340.45795196294785L1101.469090909091,341.38650999963284L1103.76,338.389436095953L1104.269090909091,338.66630414128304L1104.768,345.5708927810192L1105.5316363636364,339.5196925252676L1106.0407272727273,341.41029895842075L1106.8043636363636,340.9061502069235L1109.085090909091,340.8034104257822L1109.8487272727273,340.67250633239746L1110.6021818181819,340.57096572220325L1116.192,340.75548680126667L1117.4545454545455,343.3968390673399L1118.9818181818182,342.27612198889256L1119.7352727272728,341.9668979346752L1120.7534545454546,340.6217090189457L1122.2807272727273,339.33086091279984L1123.0341818181819,345.11216127872467L1123.5432727272728,343.9523577094078L1124.0523636363637,343.46108654141426L1124.816,342.76509204506874L1125.325090909091,341.97313146293163L1126.0785454545455,341.296107634902L1130.3956363636364,341.5403928011656L1130.6501818181819,341.5285415351391L1131.4138181818182,341.85331159830093L1133.44,342.0348617583513L1133.6945454545455,341.85044871270657L1135.9752727272728,341.9308255761862L1136.2298181818182,341.60376520454884L1137.5025454545455,341.79935970902443L1137.757090909091,341.56306901574135L1138.0014545454546,341.2981062531471L1138.7650909090908,342.0665371567011L1140.2923636363637,340.9282106310129L1141.554909090909,341.8795637190342L1142.3185454545455,341.9529508203268L1144.3447272727274,335.8059681355953L1145.3629090909092,340.90914273262024L1145.872,340.8646437674761L1148.1527272727274,341.42168568074703L1149.4254545454546,341.61962451040745L1150.9425454545453,344.39190247654915L1151.1970909090908,344.53166531026363L1152.2152727272728,341.01024040579796L1152.4698181818183,341.39415876567364L1154.2414545454546,341.3641362786293L1156.0232727272728,341.7513388544321L1157.5403636363637,341.6642855256796L1158.304,341.3462675511837L1158.8130909090908,342.01833264529705L1159.0676363636362,342.04526537656784L1160.8392727272726,343.9297895282507L1162.3563636363638,341.7112044394016L1162.8654545454544,343.43040505051613L1163.12,345.83722756803036L1163.6290909090908,344.78063912689686L1164.6472727272728,342.9557710289955L1165.6552727272726,341.3119129240513L1166.928,341.6004161685705L1167.6916363636365,341.3733515292406L1169.9723636363638,340.7007030546665L1170.4814545454544,341.0524814724922L1171.4894545454547,341.5882948189974L1173.0167272727272,343.6369217336178L1173.7803636363635,342.720398619771L1175.2974545454545,342.1361863017082L1178.341818181818,340.16338804364204L1179.3600000000001,339.9809087961912L1181.1316363636363,345.0589764267206L1181.8952727272729,342.89371663331985L1183.9214545454547,344.36582320928574L1184.6850909090908,341.5678765028715L1185.1941818181817,343.0885657072067L1187.2203636363636,345.3167441636324L1187.474909090909,345.90268501639366L1188.2385454545454,344.4944261908531L1189.7556363636363,343.52077500522137L1191.0283636363636,343.8591572791338L1194.8363636363636,341.7450729161501L1195.090909090909,341.798830345273L1197.1170909090908,344.38763515651226L1198.389818181818,343.8300638794899L1199.906909090909,342.58780920505524L1200.416,342.98450791835785L1200.6705454545454,343.1509874165058L1202.1876363636363,343.7315590083599L1204.7330909090908,341.75266766548157L1205.4865454545454,348.64837595820427L1205.9956363636363,346.30942003428936L1206.250181818182,344.77161833643913L1206.5047272727272,345.1042208224535L1207.522909090909,343.97547686100006L1210.0581818181818,343.37760911881924L1210.3127272727272,343.7552291303873L1210.8218181818181,344.01491986215115L1213.3570909090909,344.63658736646175L1213.6116363636363,344.57144321501255L1217.9185454545454,340.66526809334755L1219.7003636363636,342.0924867838621L1220.7083636363636,344.90729750692844L1222.9992727272727,344.6508909910917L1224.2618181818182,344.0251938402653L1225.5345454545454,343.5109763741493L1227.0516363636364,342.2389584928751L1229.3323636363637,344.77434077858925L1230.3505454545455,342.12645249068737L1231.3687272727273,344.27251474559307L1232.1323636363636,345.7050162702799L1233.6494545454545,342.2312773168087L1234.9221818181818,344.8233015239239L1236.4392727272727,344.33430986106396L1237.712,344.57379834353924L1238.4654545454546,343.8049569129944L1238.72,344.336394906044L1240.5018181818182,342.593372926116L1242.0189090909091,339.9143818169832L1242.528,342.558985888958L1244.5541818181819,345.31741397082806L1245.5723636363637,342.890410810709L1246.336,342.8272436708212L1247.0996363636364,343.496381059289L1247.3541818181818,343.4648677110672L1249.3803636363637,345.6990312188864L1249.8894545454546,346.6011210680008L1252.6792727272727,345.86011984944344L1254.7054545454546,343.2752042412758L1256.2327272727273,344.0729338079691L1257.4952727272728,347.51988047361374L1258.5134545454546,345.94890171289444L1260.5396363636364,345.1568655073643L1262.3214545454546,345.5823443233967L1266.3738181818183,347.9105077087879L1267.901090909091,346.6680477708578L1268.909090909091,345.88378997147083L1272.7170909090908,346.4836239218712L1274.2443636363637,346.2372645139694L1274.997818181818,345.4874477684498L1275.5069090909092,347.42228308320045L1277.0341818181819,344.59840835630894L1277.2887272727273,344.99591732025146L1278.042181818182,345.07436038553715L1279.0603636363637,347.18768851459026L1280.0785454545453,345.70421682298183L1280.3330909090907,344.9202615171671L1280.5876363636364,344.9982292354107L1281.0865454545456,345.0740362852812L1282.613818181818,346.2914432734251L1284.3854545454544,343.82901595532894L1284.8945454545453,343.9090687185526L1285.4036363636365,344.52645809948444L1286.4218181818183,343.9253709614277L1287.1752727272726,344.6545425206423L1287.429818181818,344.927899479866L1287.9389090909092,346.16177076101303L1289.9752727272726,344.30227795243263L1292.0014545454544,348.1900333762169L1292.5105454545453,347.5283827036619L1296.064,345.64706714451313L1296.8174545454544,351.8411091864109L1297.5810909090908,347.111622184515L1298.090181818182,346.07081742584705L1300.1163636363635,346.08993934094906L1301.1345454545456,347.16543363034725L1301.898181818182,345.32532201707363L1303.4152727272728,346.07689970731735L1305.6960000000001,342.9588499814272L1306.9687272727272,346.62784853577614L1307.2232727272726,346.3076914995909L1308.2414545454546,346.45187290012836L1309.2494545454545,347.7075885385275L1309.504,347.1663195043802L1309.7585454545454,346.5886107981205L1310.2676363636365,346.4666302651167L1311.5301818181817,346.72963762283325L1311.7847272727272,347.00110399723053L1312.0392727272726,347.92300717532635L1314.3301818181817,347.1920962780714L1316.3563636363635,346.81212113797665L1317.3745454545453,346.52881430089474L1317.8734545454545,345.80847987532616L1319.4007272727272,346.0272907614708L1321.426909090909,341.63065472245216L1321.6814545454545,342.6246486008167L1323.2087272727274,343.535748437047L1323.9621818181818,343.09341640770435L1325.9985454545454,344.7967469096184L1326.2530909090908,344.9152811765671L1327.5156363636365,346.78515599668026L1328.2792727272727,346.87726528942585L1328.533818181818,346.6231922954321L1329.2974545454545,346.5475364923477L1330.050909090909,344.0622709095478L1330.8145454545454,347.41598473489285L1333.858909090909,348.2503808438778L1334.8770909090908,346.28089921176434L1336.6487272727272,345.8950146436691L1338.176,346.42378421127796L1338.9294545454545,346.83810317516327L1339.184,350.7306228727102L1339.4385454545454,349.3415507823229L1340.2021818181818,350.0878996551037L1340.4567272727272,349.2539896965027L1342.2283636363636,347.80033522844315L1342.7374545454545,350.07599437236786L1343.2465454545454,349.23929715156555L1344.7738181818181,346.6935112476349L1345.0181818181818,346.61644020676613" style="fill: none;" fill="none"></path></g></g></g></g></g></g><g transform="translate(50, 377)" clip-path="url(#clip_1)"><clipPath id="clip_1"><rect width="1400" height="23"></rect></clipPath><g><g><line x1="0" y1="0" x2="0" y2="5" style="visibility: inherit;" fill="rgb(0, 0, 0)" stroke="rgb(204, 204, 204)" stroke-width="1px"></line><line x1="127.27272727272728" y1="0" x2="127.27272727272728" y2="5" style="visibility: inherit;" fill="rgb(0, 0, 0)" stroke="rgb(204, 204, 204)" stroke-width="1px"></line><line x1="254.54545454545456" y1="0" x2="254.54545454545456" y2="5" style="visibility: inherit;" fill="rgb(0, 0, 0)" stroke="rgb(204, 204, 204)" stroke-width="1px"></line><line x1="381.8181818181818" y1="0" x2="381.8181818181818" y2="5" style="visibility: inherit;" fill="rgb(0, 0, 0)" stroke="rgb(204, 204, 204)" stroke-width="1px"></line><line x1="509.0909090909091" y1="0" x2="509.0909090909091" y2="5" style="visibility: inherit;" fill="rgb(0, 0, 0)" stroke="rgb(204, 204, 204)" stroke-width="1px"></line><line x1="636.3636363636364" y1="0" x2="636.3636363636364" y2="5" style="visibility: inherit;" fill="rgb(0, 0, 0)" stroke="rgb(204, 204, 204)" stroke-width="1px"></line><line x1="763.6363636363636" y1="0" x2="763.6363636363636" y2="5" style="visibility: inherit;" fill="rgb(0, 0, 0)" stroke="rgb(204, 204, 204)" stroke-width="1px"></line><line x1="890.9090909090909" y1="0" x2="890.9090909090909" y2="5" style="visibility: inherit;" fill="rgb(0, 0, 0)" stroke="rgb(204, 204, 204)" stroke-width="1px"></line><line x1="1018.1818181818182" y1="0" x2="1018.1818181818182" y2="5" style="visibility: inherit;" fill="rgb(0, 0, 0)" stroke="rgb(204, 204, 204)" stroke-width="1px"></line><line x1="1145.4545454545455" y1="0" x2="1145.4545454545455" y2="5" style="visibility: inherit;" fill="rgb(0, 0, 0)" stroke="rgb(204, 204, 204)" stroke-width="1px"></line><line x1="1272.7272727272727" y1="0" x2="1272.7272727272727" y2="5" style="visibility: inherit;" fill="rgb(0, 0, 0)" stroke="rgb(204, 204, 204)" stroke-width="1px"></line><line x1="1400" y1="0" x2="1400" y2="5" style="visibility: inherit;" fill="rgb(0, 0, 0)" stroke="rgb(204, 204, 204)" stroke-width="1px"></line></g><g transform="translate(0, 8)"><text x="0" y="0" dx="0em" dy="0.95em" style="text-anchor: middle; visibility: hidden; font-family: Roboto, sans-serif; font-size: 12px; font-weight: 200;" fill="rgb(33, 33, 33)" stroke="none" stroke-width="1px">-50k</text><text x="127.27272727272728" y="0" dx="0em" dy="0.95em" style="text-anchor: middle; visibility: inherit; font-family: Roboto, sans-serif; font-size: 12px; font-weight: 200;" fill="rgb(33, 33, 33)" stroke="none" stroke-width="1px">0</text><text x="254.54545454545456" y="0" dx="0em" dy="0.95em" style="text-anchor: middle; visibility: inherit; font-family: Roboto, sans-serif; font-size: 12px; font-weight: 200;" fill="rgb(33, 33, 33)" stroke="none" stroke-width="1px">50k</text><text x="381.8181818181818" y="0" dx="0em" dy="0.95em" style="text-anchor: middle; visibility: inherit; font-family: Roboto, sans-serif; font-size: 12px; font-weight: 200;" fill="rgb(33, 33, 33)" stroke="none" stroke-width="1px">100k</text><text x="509.0909090909091" y="0" dx="0em" dy="0.95em" style="text-anchor: middle; visibility: inherit; font-family: Roboto, sans-serif; font-size: 12px; font-weight: 200;" fill="rgb(33, 33, 33)" stroke="none" stroke-width="1px">150k</text><text x="636.3636363636364" y="0" dx="0em" dy="0.95em" style="text-anchor: middle; visibility: inherit; font-family: Roboto, sans-serif; font-size: 12px; font-weight: 200;" fill="rgb(33, 33, 33)" stroke="none" stroke-width="1px">200k</text><text x="763.6363636363636" y="0" dx="0em" dy="0.95em" style="text-anchor: middle; visibility: inherit; font-family: Roboto, sans-serif; font-size: 12px; font-weight: 200;" fill="rgb(33, 33, 33)" stroke="none" stroke-width="1px">250k</text><text x="890.9090909090909" y="0" dx="0em" dy="0.95em" style="text-anchor: middle; visibility: inherit; font-family: Roboto, sans-serif; font-size: 12px; font-weight: 200;" fill="rgb(33, 33, 33)" stroke="none" stroke-width="1px">300k</text><text x="1018.1818181818182" y="0" dx="0em" dy="0.95em" style="text-anchor: middle; visibility: inherit; font-family: Roboto, sans-serif; font-size: 12px; font-weight: 200;" fill="rgb(33, 33, 33)" stroke="none" stroke-width="1px">350k</text><text x="1145.4545454545455" y="0" dx="0em" dy="0.95em" style="text-anchor: middle; visibility: inherit; font-family: Roboto, sans-serif; font-size: 12px; font-weight: 200;" fill="rgb(33, 33, 33)" stroke="none" stroke-width="1px">400k</text><text x="1272.7272727272727" y="0" dx="0em" dy="0.95em" style="text-anchor: middle; visibility: inherit; font-family: Roboto, sans-serif; font-size: 12px; font-weight: 200;" fill="rgb(33, 33, 33)" stroke="none" stroke-width="1px">450k</text><text x="1400" y="0" dx="0em" dy="0.95em" style="text-anchor: middle; visibility: hidden; font-family: Roboto, sans-serif; font-size: 12px; font-weight: 200;" fill="rgb(33, 33, 33)" stroke="none" stroke-width="1px">500k</text></g><line x1="0" y1="0" x2="1400" y2="0" fill="rgb(0, 0, 0)" stroke="rgb(204, 204, 204)" stroke-width="1px"></line></g></g></g></g></svg>