<svg viewBox="0 0 1450 400" xmlns="http://www.w3.org/2000/svg"><g><g><g><g><g><line x1="50" y1="377" x2="45" y2="377" style="visibility: inherit;" fill="rgb(0, 0, 0)" stroke="rgb(204, 204, 204)" stroke-width="1px"></line><line x1="50" y1="350.07142857142856" x2="45" y2="350.07142857142856" style="visibility: inherit;" fill="rgb(0, 0, 0)" stroke="rgb(204, 204, 204)" stroke-width="1px"></line><line x1="50" y1="323.14285714285717" x2="45" y2="323.14285714285717" style="visibility: inherit;" fill="rgb(0, 0, 0)" stroke="rgb(204, 204, 204)" stroke-width="1px"></line><line x1="50" y1="296.2142857142857" x2="45" y2="296.2142857142857" style="visibility: inherit;" fill="rgb(0, 0, 0)" stroke="rgb(204, 204, 204)" stroke-width="1px"></line><line x1="50" y1="269.2857142857143" x2="45" y2="269.2857142857143" style="visibility: inherit;" fill="rgb(0, 0, 0)" stroke="rgb(204, 204, 204)" stroke-width="1px"></line><line x1="50" y1="242.35714285714283" x2="45" y2="242.35714285714283" style="visibility: inherit;" fill="rgb(0, 0, 0)" stroke="rgb(204, 204, 204)" stroke-width="1px"></line><line x1="50" y1="215.42857142857142" x2="45" y2="215.42857142857142" style="visibility: inherit;" fill="rgb(0, 0, 0)" stroke="rgb(204, 204, 204)" stroke-width="1px"></line><line x1="50" y1="188.49999999999997" x2="45" y2="188.49999999999997" style="visibility: inherit;" fill="rgb(0, 0, 0)" stroke="rgb(204, 204, 204)" stroke-width="1px"></line><line x1="50" y1="161.57142857142856" x2="45" y2="161.57142857142856" style="visibility: inherit;" fill="rgb(0, 0, 0)" stroke="rgb(204, 204, 204)" stroke-width="1px"></line><line x1="50" y1="134.64285714285708" x2="45" y2="134.64285714285708" style="visibility: inherit;" fill="rgb(0, 0, 0)" stroke="rgb(204, 204, 204)" stroke-width="1px"></line><line x1="50" y1="107.71428571428567" x2="45" y2="107.71428571428567" style="visibility: inherit;" fill="rgb(0, 0, 0)" stroke="rgb(204, 204, 204)" stroke-width="1px"></line><line x1="50" y1="80.78571428571425" x2="45" y2="80.78571428571425" style="visibility: inherit;" fill="rgb(0, 0, 0)" stroke="rgb(204, 204, 204)" stroke-width="1px"></line><line x1="50" y1="53.85714285714279" x2="45" y2="53.85714285714279" style="visibility: inherit;" fill="rgb(0, 0, 0)" stroke="rgb(204, 204, 204)" stroke-width="1px"></line><line x1="50" y1="26.928571428571374" x2="45" y2="26.928571428571374" style="visibility: inherit;" fill="rgb(0, 0, 0)" stroke="rgb(204, 204, 204)" stroke-width="1px"></line><line x1="50" y1="0" x2="45" y2="0" style="visibility: inherit;" fill="rgb(0, 0, 0)" stroke="rgb(204, 204, 204)" stroke-width="1px"></line></g><g transform="translate(40, 0)"><text x="0" y="377" dx="0em" dy="0.3em" style="text-anchor: end; visibility: hidden; font-family: Roboto, sans-serif; font-size: 12px; font-weight: 200;" fill="rgb(33, 33, 33)" stroke="none" stroke-width="1px">0.02</text><text x="0" y="350.07142857142856" dx="0em" dy="0.3em" style="text-anchor: end; visibility: inherit; font-family: Roboto, sans-serif; font-size: 12px; font-weight: 200;" fill="rgb(33, 33, 33)" stroke="none" stroke-width="1px">0.04</text><text x="0" y="323.14285714285717" dx="0em" dy="0.3em" style="text-anchor: end; visibility: inherit; font-family: Roboto, sans-serif; font-size: 12px; font-weight: 200;" fill="rgb(33, 33, 33)" stroke="none" stroke-width="1px">0.06</text><text x="0" y="296.2142857142857" dx="0em" dy="0.3em" style="text-anchor: end; visibility: inherit; font-family: Roboto, sans-serif; font-size: 12px; font-weight: 200;" fill="rgb(33, 33, 33)" stroke="none" stroke-width="1px">0.08</text><text x="0" y="269.2857142857143" dx="0em" dy="0.3em" style="text-anchor: end; visibility: inherit; font-family: Roboto, sans-serif; font-size: 12px; font-weight: 200;" fill="rgb(33, 33, 33)" stroke="none" stroke-width="1px">0.1</text><text x="0" y="242.35714285714283" dx="0em" dy="0.3em" style="text-anchor: end; visibility: inherit; font-family: Roboto, sans-serif; font-size: 12px; font-weight: 200;" fill="rgb(33, 33, 33)" stroke="none" stroke-width="1px">0.12</text><text x="0" y="215.42857142857142" dx="0em" dy="0.3em" style="text-anchor: end; visibility: inherit; font-family: Roboto, sans-serif; font-size: 12px; font-weight: 200;" fill="rgb(33, 33, 33)" stroke="none" stroke-width="1px">0.14</text><text x="0" y="188.49999999999997" dx="0em" dy="0.3em" style="text-anchor: end; visibility: inherit; font-family: Roboto, sans-serif; font-size: 12px; font-weight: 200;" fill="rgb(33, 33, 33)" stroke="none" stroke-width="1px">0.16</text><text x="0" y="161.57142857142856" dx="0em" dy="0.3em" style="text-anchor: end; visibility: inherit; font-family: Roboto, sans-serif; font-size: 12px; font-weight: 200;" fill="rgb(33, 33, 33)" stroke="none" stroke-width="1px">0.18</text><text x="0" y="134.64285714285708" dx="0em" dy="0.3em" style="text-anchor: end; visibility: inherit; font-family: Roboto, sans-serif; font-size: 12px; font-weight: 200;" fill="rgb(33, 33, 33)" stroke="none" stroke-width="1px">0.2</text><text x="0" y="107.71428571428567" dx="0em" dy="0.3em" style="text-anchor: end; visibility: inherit; font-family: Roboto, sans-serif; font-size: 12px; font-weight: 200;" fill="rgb(33, 33, 33)" stroke="none" stroke-width="1px">0.22</text><text x="0" y="80.78571428571425" dx="0em" dy="0.3em" style="text-anchor: end; visibility: inherit; font-family: Roboto, sans-serif; font-size: 12px; font-weight: 200;" fill="rgb(33, 33, 33)" stroke="none" stroke-width="1px">0.24</text><text x="0" y="53.85714285714279" dx="0em" dy="0.3em" style="text-anchor: end; visibility: inherit; font-family: Roboto, sans-serif; font-size: 12px; font-weight: 200;" fill="rgb(33, 33, 33)" stroke="none" stroke-width="1px">0.26</text><text x="0" y="26.928571428571374" dx="0em" dy="0.3em" style="text-anchor: end; visibility: inherit; font-family: Roboto, sans-serif; font-size: 12px; font-weight: 200;" fill="rgb(33, 33, 33)" stroke="none" stroke-width="1px">0.28</text><text x="0" y="0" dx="0em" dy="0.3em" style="text-anchor: end; visibility: hidden; font-family: Roboto, sans-serif; font-size: 12px; font-weight: 200;" fill="rgb(33, 33, 33)" stroke="none" stroke-width="1px">0.3</text></g><line x1="50" y1="0" x2="50" y2="377" fill="rgb(0, 0, 0)" stroke="rgb(204, 204, 204)" stroke-width="1px"></line></g></g><g transform="translate(50, 0)" clip-path="url(#clip_0)"><clipPath id="clip_0"><rect width="1400" height="377"></rect></clipPath><g><g><g><line x1="0" y1="0" x2="0" y2="377" fill="rgb(0, 0, 0)" stroke="rgb(66, 66, 66)" stroke-width="1px" opacity="0.25"></line><line x1="127.27272727272728" y1="0" x2="127.27272727272728" y2="377" fill="rgb(0, 0, 0)" stroke="rgb(66, 66, 66)" stroke-width="1px" opacity="0.25"></line><line x1="254.54545454545456" y1="0" x2="254.54545454545456" y2="377" fill="rgb(0, 0, 0)" stroke="rgb(66, 66, 66)" stroke-width="1px" opacity="0.25"></line><line x1="381.8181818181818" y1="0" x2="381.8181818181818" y2="377" fill="rgb(0, 0, 0)" stroke="rgb(66, 66, 66)" stroke-width="1px" opacity="0.25"></line><line x1="509.0909090909091" y1="0" x2="509.0909090909091" y2="377" fill="rgb(0, 0, 0)" stroke="rgb(66, 66, 66)" stroke-width="1px" opacity="0.25"></line><line x1="636.3636363636364" y1="0" x2="636.3636363636364" y2="377" fill="rgb(0, 0, 0)" stroke="rgb(66, 66, 66)" stroke-width="1px" opacity="0.25"></line><line x1="763.6363636363636" y1="0" x2="763.6363636363636" y2="377" fill="rgb(0, 0, 0)" stroke="rgb(66, 66, 66)" stroke-width="1px" opacity="0.25"></line><line x1="890.9090909090909" y1="0" x2="890.9090909090909" y2="377" fill="rgb(0, 0, 0)" stroke="rgb(66, 66, 66)" stroke-width="1px" opacity="0.25"></line><line x1="1018.1818181818182" y1="0" x2="1018.1818181818182" y2="377" fill="rgb(0, 0, 0)" stroke="rgb(66, 66, 66)" stroke-width="1px" opacity="0.25"></line><line x1="1145.4545454545455" y1="0" x2="1145.4545454545455" y2="377" fill="rgb(0, 0, 0)" stroke="rgb(66, 66, 66)" stroke-width="1px" opacity="0.25"></line><line x1="1272.7272727272727" y1="0" x2="1272.7272727272727" y2="377" fill="rgb(0, 0, 0)" stroke="rgb(66, 66, 66)" stroke-width="1px" opacity="0.25"></line><line x1="1400" y1="0" x2="1400" y2="377" fill="rgb(0, 0, 0)" stroke="rgb(66, 66, 66)" stroke-width="1px" opacity="0.25"></line></g><g><line x1="0" y1="377" x2="1400" y2="377" fill="rgb(0, 0, 0)" stroke="rgb(66, 66, 66)" stroke-width="1px" opacity="0.25"></line><line x1="0" y1="350.07142857142856" x2="1400" y2="350.07142857142856" fill="rgb(0, 0, 0)" stroke="rgb(66, 66, 66)" stroke-width="1px" opacity="0.25"></line><line x1="0" y1="323.14285714285717" x2="1400" y2="323.14285714285717" fill="rgb(0, 0, 0)" stroke="rgb(66, 66, 66)" stroke-width="1px" opacity="0.25"></line><line x1="0" y1="296.2142857142857" x2="1400" y2="296.2142857142857" fill="rgb(0, 0, 0)" stroke="rgb(66, 66, 66)" stroke-width="1px" opacity="0.25"></line><line x1="0" y1="269.2857142857143" x2="1400" y2="269.2857142857143" fill="rgb(0, 0, 0)" stroke="rgb(66, 66, 66)" stroke-width="1px" opacity="0.25"></line><line x1="0" y1="242.35714285714283" x2="1400" y2="242.35714285714283" fill="rgb(0, 0, 0)" stroke="rgb(66, 66, 66)" stroke-width="1px" opacity="0.25"></line><line x1="0" y1="215.42857142857142" x2="1400" y2="215.42857142857142" fill="rgb(0, 0, 0)" stroke="rgb(66, 66, 66)" stroke-width="1px" opacity="0.25"></line><line x1="0" y1="188.49999999999997" x2="1400" y2="188.49999999999997" fill="rgb(0, 0, 0)" stroke="rgb(66, 66, 66)" stroke-width="1px" opacity="0.25"></line><line x1="0" y1="161.57142857142856" x2="1400" y2="161.57142857142856" fill="rgb(0, 0, 0)" stroke="rgb(66, 66, 66)" stroke-width="1px" opacity="0.25"></line><line x1="0" y1="134.64285714285708" x2="1400" y2="134.64285714285708" fill="rgb(0, 0, 0)" stroke="rgb(66, 66, 66)" stroke-width="1px" opacity="0.25"></line><line x1="0" y1="107.71428571428567" x2="1400" y2="107.71428571428567" fill="rgb(0, 0, 0)" stroke="rgb(66, 66, 66)" stroke-width="1px" opacity="0.25"></line><line x1="0" y1="80.78571428571425" x2="1400" y2="80.78571428571425" fill="rgb(0, 0, 0)" stroke="rgb(66, 66, 66)" stroke-width="1px" opacity="0.25"></line><line x1="0" y1="53.85714285714279" x2="1400" y2="53.85714285714279" fill="rgb(0, 0, 0)" stroke="rgb(66, 66, 66)" stroke-width="1px" opacity="0.25"></line><line x1="0" y1="26.928571428571374" x2="1400" y2="26.928571428571374" fill="rgb(0, 0, 0)" stroke="rgb(66, 66, 66)" stroke-width="1px" opacity="0.25"></line><line x1="0" y1="0" x2="1400" y2="0" fill="rgb(0, 0, 0)" stroke="rgb(66, 66, 66)" stroke-width="1px" opacity="0.25"></line></g></g></g><g><g><line x1="0" y1="403.92857142857144" x2="1400" y2="403.92857142857144" fill="rgb(0, 0, 0)" stroke="rgb(153, 153, 153)" stroke-width="1.5px"></line></g></g><g><g><line x1="127.27272727272728" y1="0" x2="127.27272727272728" y2="377" fill="rgb(0, 0, 0)" stroke="rgb(153, 153, 153)" stroke-width="1.5px"></line></g></g><g><g><g><g><g><path stroke="rgb(204, 51, 17)" stroke-width="2px" d="M162.96509090909092,-15.41585089904919L164.49745454545456,4.14451011589594L165.2610909090909,2.351568979876376L165.7701818181818,-1.326042924608515L166.27927272727274,-4.547574775559609L168.0661818181818,14.121813029050827L169.33890909090908,8.92516483153615L170.87127272727272,16.04127364499226L171.12581818181818,16.042758332831525L172.6530909090909,14.255916454962303L172.90763636363636,13.130202059234861L175.45818181818183,22.425471480403615L175.96727272727276,20.973807913916446L177.75418181818182,31.292749536888934L178.26327272727272,32.92719021439552L180.30472727272726,36.853507395301534L181.57745454545454,35.475957840681076L185.14618181818184,36.431454781975035L185.40072727272727,34.26027938723564L188.46036363636364,43.940243465559774L188.46545454545458,43.920059736285836L191.52,49.89841614450722L192.03418181818182,67.58937459971219L193.05236363636365,56.14289281623698L194.07054545454545,52.843635550567015L194.58472727272726,51.47519475647378L195.34836363636364,57.39869796804014L195.85745454545454,57.327954598835476L197.13018181818182,60.44178639139443L197.63927272727273,58.48713466099325L197.6443636363636,58.55526979480467L200.18981818181817,61.88064954110551L200.95854545454546,75.92754201165262L201.97672727272726,70.56625397077623L202.4858181818182,68.37688111833158L202.7403636363636,69.13599799786292L203.504,66.19792114411078L208.85963636363635,74.70319619136191L209.11418181818183,73.4437595733574L211.91927272727273,69.60098617843214L213.19709090909092,81.0406865498849L213.45163636363637,84.35021625033441L213.7061818181818,79.72118026443887L216.5112727272727,87.2507746411221L218.54763636363637,77.51790351101327L219.31636363636366,91.11292923135414L219.82545454545453,78.06479028293062L221.0981818181818,73.77109311521049L222.12145454545453,72.80420019158292L222.63054545454546,93.9724981997694L225.1810909090909,77.58694149553772L226.70836363636363,87.06472720418654L226.9629090909091,85.54607211479116L230.2770909090909,82.23086448652401L230.53163636363638,82.32987711472168L231.04072727272725,80.30767208763528L232.5730909090909,86.13352697874814L234.10036363636362,82.10897964026242L234.86909090909091,90.60153452413417L236.1418181818182,84.06617941600933L237.16,79.98417064547534L237.67418181818184,95.55034016924239L238.1832727272727,80.6751122644969L239.20145454545457,86.30809817995339L239.456,85.16785791942048L240.47927272727273,84.55694900027338L240.7338181818182,103.07138755917545L242.2610909090909,82.88498985980235L247.61672727272727,91.56888890479289L248.12581818181818,87.93110274842802L248.38036363636365,88.50447314126149L248.63490909090908,85.9494658133813L249.39854545454546,84.67861314969397L249.65818181818182,83.85204329022336L252.9723636363636,121.8101744885955L253.2269090909091,113.2027569306748L253.73600000000002,105.71778344256535L254.2450909090909,99.05420346983838L254.75418181818182,91.83900177478786L255.77236363636362,84.45849814585272L256.032,105.90754259909897L257.05018181818184,87.38118641078468L257.55927272727274,85.98738554332934L258.57745454545454,85.30747876635614L259.85527272727273,106.61100374800816L260.36436363636363,100.25308890002108L261.3825454545455,90.99704332649704L264.9563636363636,92.63934883688174L265.21090909090907,96.15926281682077L265.9745454545454,91.97027626846514L266.4836363636364,87.77850091457363L267.5018181818182,85.65064229071136L268.0109090909091,85.58373102119985L271.8392727272727,94.74696354142252L272.09381818181816,94.39810202590051L274.1301818181818,87.25669332912985L274.1352727272727,87.23819492118693L275.408,91.71143900070868L275.66254545454547,90.92072234622064L276.68072727272727,87.90774900998383L277.44945454545456,94.83742918287001L278.97672727272726,97.34789587557312L279.2312727272727,96.44229648368693L280.25454545454545,91.75345165388919L280.76363636363635,96.72948326383315L282.54545454545456,93.91160593501154L283.05454545454546,91.14527135023046L284.5869090909091,97.43055687419L286.3738181818182,89.0944359238658L286.62836363636364,104.38838592597413L288.66472727272725,88.33838873675886L290.45163636363634,98.73373159340444L290.9607272727273,99.48339863547254L294.784,91.40737894390307L297.33454545454543,95.20276270806785L297.84363636363634,90.3081682324409L298.3527272727273,89.29952347917214L298.60727272727274,88.49020809999529L298.8669090909091,92.53560125827785L299.1214545454546,99.55305858382154L299.6305454545454,97.71401187138892L299.88509090909093,96.72093627708293L300.1396363636364,98.54642016547061L301.41236363636364,86.38205168502665L302.6901818181818,97.99150805388174L307.5316363636364,82.28621926690846L309.3185454545455,86.51922480336252L310.0821818181818,88.99847292474333L310.3367272727273,89.96125286178923L310.8458181818182,86.52574539184566L311.10545454545456,98.74087414571214L311.61454545454546,108.30272528742037L313.14181818181817,90.0707987483058L316.9650909090909,89.72865845475874L316.97018181818186,89.65526672346249L317.4792727272727,107.92342767119403L318.2429090909091,103.94416331180501L320.0298181818182,85.6675757574183L320.28436363636365,111.11803450754705L322.5752727272727,90.80704340977326L323.344,103.1242946109601L325.38036363636365,87.08107883376732L326.144,84.7545328629868L326.40363636363634,73.34051357848301L329.2087272727273,86.11960301441803L330.48145454545454,88.1039485016039L331.49963636363634,85.92597163149286L332.5229090909091,96.67308518929138L335.5825454545455,93.65810551813665L336.0916363636364,102.73295898522645L337.6189090909091,89.94610503315921L338.38254545454544,88.75564620963159L338.6421818181818,101.05744863195076L339.6603636363636,85.35789796284261L339.9149090909091,86.80372309471875L341.44218181818184,80.91222092509265L346.0341818181818,94.50423714305668L346.5432727272727,89.1952542534896L347.0523636363636,89.12439050418988L349.3483636363636,93.33366109856534L350.88072727272726,92.25728247846871L354.1949090909091,95.17126324985705L358.01818181818186,89.95826342276159L358.78181818181815,87.55559710519648L361.0778181818182,99.09776100090566L361.5869090909091,92.64619043895173L362.85963636363635,81.4800939602511L363.3738181818182,98.29952059047557L363.88290909090904,101.02737367153163L366.43345454545454,97.74575208978987L368.2152727272727,91.71173995094634L368.98400000000004,90.80399378069806L369.4930909090909,96.19188582258559L371.5294545454545,85.72152610336028L371.78400000000005,84.35757949948307L376.1214545454545,96.1442353682858L377.1396363636363,90.21244599350858L379.4356363636364,84.11160283855024L379.6901818181818,83.45759784536696L380.1992727272727,82.33505345880981L381.2174545454546,79.07160927142411L383.25890909090907,92.58674273533478L386.064,89.74709667265411L387.0821818181818,83.72610564742766L387.3418181818182,82.83015672649651L388.1054545454545,94.9029159545898L388.61454545454546,85.45985990336958L389.12363636363636,85.21570900721207L391.41963636363636,76.77543921130038L391.67418181818186,79.4479977020195L392.43781818181816,80.60998663306232L392.6923636363636,81.56337692269254L393.456,79.9986363202333L393.9701818181818,93.44487224306374L394.4792727272727,93.44740022506028L395.752,88.90698405248776L397.28436363636365,91.41891536968089L398.5570909090909,84.91345465183254L398.81163636363635,83.51198958499089L401.61672727272725,87.61677025684286L403.91272727272724,87.81613975763317L404.4218181818182,87.98527379121094L404.67636363636365,86.49480770741187L406.2087272727273,91.29676969988003L407.48145454545454,86.5425986051559L408.4996363636364,84.32730390557218L408.75418181818185,83.85148151644636L411.55927272727274,85.62016606330867L413.34618181818183,81.22013314494062L414.36436363636363,78.9877444718565L415.3876363636364,91.98897530989981L415.8967272727273,82.02772307608805L416.9149090909091,80.47038584947582L420.4836363636363,81.77428284926071L420.9927272727273,80.4897670447826L422.01599999999996,77.74815050618983L422.2705454545454,77.49729845140658L422.77963636363637,77.37431012094017L423.5432727272727,75.21344728767868L424.312,74.38125969043794L425.83927272727277,84.6352361887693L426.8574545454545,77.7180153557232L427.88072727272726,98.00344574664317L429.408,79.35269679341994L430.17163636363637,77.01625959149423L431.19490909090905,82.95039637812543L431.95854545454546,81.84837679777823L433.23127272727277,78.01017784646574L434,122.06726624497342L435.01818181818186,130.2601148188114L437.05963636363634,151.48944553519993L438.8414545454545,152.35136701592376L439.35563636363634,152.2226004408938L439.61018181818184,158.52092714181964L441.9010909090909,158.1728079702173L444.19709090909095,167.14752526155536L446.23854545454543,174.51278074511458L447.7658181818182,167.8068069155727L448.5345454545454,169.37834899340353L451.33454545454543,174.33501947138987L451.58909090909094,173.57132814824578L452.3578181818182,178.32269037408486L453.8850909090909,174.51318201209813L454.65381818181817,172.39549550626955L455.4174545454546,183.60322343451634L461.0276363636364,191.1039466517312L465.61454545454546,191.73692525497503L466.12363636363636,190.48926582293845L466.3781818181818,188.32284544195443L466.63272727272727,186.46333411335942L468.67418181818186,186.0433078983L470.46109090909096,197.412926991071L470.71563636363635,196.39571518770285L471.22472727272725,193.10287819377012L471.4792727272727,191.67755780475474L474.53890909090904,192.8841475610222L475.048,193.24855817215777L477.59854545454544,194.24406143171444L478.3621818181818,191.86653449067046L479.1309090909091,191.83152394635334L480.1490909090909,199.63004745543L481.16727272727275,197.47865452298095L482.6996363636364,196.96561462112834L482.95418181818184,198.42488219695426L483.2087272727273,199.955916372793L483.71781818181813,199.40914998097077L484.48145454545454,196.72804450350142L487.2865454545455,198.11494357883927L488.5643636363637,201.06590110276423L489.328,205.15128051596022L489.5825454545454,205.74116304516792L491.8785454545455,201.97798095643518L492.6421818181818,203.26241650751658L495.19272727272727,205.15788135784007L495.9563636363636,203.61434771546294L496.72,198.98059684251032L497.7432727272727,215.92686396624362L498.50690909090906,210.25952959699288L500.5483636363636,201.56441513981133L503.3483636363636,204.7666661122015L504.37163636363636,212.20338724553585L504.88072727272726,208.17123589771128L510.4909090909091,209.78418872824736L512.5272727272727,207.1793239776577L512.786909090909,206.36840353054657L513.5505454545455,207.6424462667533L515.0778181818182,209.09029779689652L515.3323636363637,209.00639287063055L516.8647272727272,212.92532673903875L518.9010909090908,206.68620698153973L519.6698181818182,215.52555685596806L520.688,212.32059733143873L521.7061818181818,210.42581463498726L522.2203636363636,225.09134041411534L522.7294545454546,216.35381203676974L524.2567272727273,212.52951698643818L526.2981818181818,210.94262644648552L528.0850909090909,208.58821248369551L528.5941818181818,221.18009080844266L529.3578181818182,216.64123957710606L529.8669090909091,214.3421001413039L530.1214545454545,214.75692994892597L530.376,214.08372433057852L531.9083636363637,217.28862366506033L532.9265454545455,213.64710572574816L533.1810909090909,212.5840692328555L534.7134545454546,215.49536151545388L536.7498181818182,216.12779840826988L537.0043636363637,214.90553917629376L537.7730909090909,218.08062437389574L538.2821818181818,218.26647117733955L540.3236363636363,214.70524676144123L543.1236363636364,214.96326143188134L545.4196363636364,218.590815280165L545.9287272727273,216.87991317893778L547.4610909090909,221.4442649270807L547.7156363636363,218.83508655641756L548.7338181818182,217.23363002496106L549.4974545454545,214.00746354034968L551.2843636363637,217.83583145056448L555.6218181818182,218.19855674036913L556.64,241.33983434843165L558.4218181818181,244.57393588764324L559.6996363636364,255.40614814098393L560.2087272727273,252.28687918079748L562.2501818181818,257.1571167505213L563.2683636363636,253.79223226968728L565.3098181818182,265.39168705897674L566.5825454545454,259.5009372649448L566.837090909091,258.18517279412066L567.0916363636364,257.79021573386024L570.9149090909091,257.16572392731905L571.9381818181819,261.0343690110104L573.72,259.9450294673443L574.4887272727273,261.8148934841156L575.2523636363636,259.00209218263626L576.7796363636363,259.85790437353506L577.0341818181818,260.0822427123785L577.0392727272728,260.0996777628149L577.8029090909091,264.63806753712043L579.0756363636364,264.2979737051896L580.3534545454545,260.5625091333474L580.608,262.3041984438896L583.1534545454546,264.27895365016803L583.1585454545454,264.34449058026075L584.1767272727272,268.8624759284513L584.4312727272727,268.2075580528804L585.4494545454546,266.3654015213251L585.9585454545454,265.5023364296981L587.2363636363636,267.8367773283805L588,266.4610836335591L589.0181818181818,265.357840188912L589.2727272727273,266.00679924977675L589.5323636363636,275.38032576441765L589.786909090909,268.6194786748716L590.296,268.0170164257288L592.8465454545454,271.61325138594424L593.3556363636363,270.7744228201253L595.3919999999999,268.06820806115866L595.3970909090909,268.16527454448595L596.1607272727273,269.991189794881L604.570909090909,271.6102619469166L606.8669090909091,270.2243660390377L609.4174545454546,274.24641549055065L610.9498181818182,270.3795259499124L611.2043636363636,269.8958286962339L614.0094545454546,276.9058525509068L614.7730909090909,274.7789469361305L616.8145454545455,272.65851175146446L619.36,275.27472232601474L621.146909090909,275.0118623567479L621.9105454545454,276.22325728514363L622.6741818181819,275.52248462502445L623.952,275.6006414017507L625.2247272727274,274.5774707836764L625.4792727272727,274.86026369035244L626.248,284.99948786305526L626.5025454545454,284.186641334423L628.2843636363637,277.3291791869061L630.3258181818182,277.0499274613602L631.0894545454545,277.70792506103004L633.3854545454545,282.001602165401L635.6814545454545,282.24300438272104L638.2269090909091,278.41077427778924L642.3098181818182,280.2618890947529L644.0916363636363,279.50388573110104L645.624,279.4523128920368L647.4109090909091,278.7971642879503L647.92,285.6752214633993L648.9381818181819,284.90579202239L650.4654545454546,279.1000606705035L651.2341818181818,284.061004641865L653.7847272727273,289.1274717982326L654.5483636363637,287.2668168587344L655.8210909090909,282.99053467810154L658.8807272727272,281.19635964610745L664.4909090909091,284.0108563005924L668.8283636363636,284.10181349409476L670.1010909090909,286.9368048597659L670.3556363636363,286.537022564028L672.6516363636364,284.85905445047786L673.4152727272727,283.44301336045777L674.688,283.4357604597296L676.4749090909091,287.1286706679634L677.2385454545454,285.22948406636715L678.7709090909091,294.79603003178323L681.0669090909091,294.2711527539151L682.8487272727273,299.1033301502466L686.1629090909091,299.6780648508242L688.7134545454545,300.9139370652182L689.9861818181819,300.9709470719099L690.7549090909091,299.13824037781785L691.0094545454546,299.71463030470267L691.7730909090909,300.06684239953756L692.0276363636364,301.0766708904079L699.165090909091,302.85521657339166L699.6792727272727,302.66812584229876L700.6974545454545,305.5676610022783L700.952,305.5443072638341L702.2247272727273,305.09025360856737L702.4792727272727,304.8424110561609L705.2843636363637,304.658400049167L707.0712727272728,302.7873924214925L707.5803636363636,302.9223786347679L707.834909090909,303.0454973770039L712.4269090909091,310.63900355249643L714.4632727272726,310.0994800297277L715.4865454545454,314.7190360831363L715.9956363636363,314.83219337250506L716.7592727272728,312.345401431833L717.2683636363637,310.99261005009924L717.5229090909091,310.93815812042783L719.0552727272727,312.35011631889L720.0734545454545,311.84881347630704L720.328,311.77260284445117L720.5825454545454,312.3057060954826L720.8421818181819,312.2812589045082L721.3512727272728,306.6043041593262L722.6239999999999,312.1687336106385L723.1330909090909,312.9873784471835L724.9200000000001,314.1020680325372L731.2938181818182,313.5577694326639L731.5483636363637,313.79291188504016L734.098909090909,315.9108893094318L734.3534545454545,314.5692631815161L736.1352727272728,314.0998911591513L736.6494545454544,315.3106440603733L736.9040000000001,313.5296004904168L737.6676363636363,313.3433223249657L739.2,313.30255359943425L740.9818181818181,312.63374185455694L744.0414545454546,314.3790826946497L745.8283636363636,313.310990237764L746.0829090909091,315.0946922014867L747.8647272727274,315.05084375185623L748.378909090909,315.07968481630087L748.6334545454545,316.3662370507206L748.8879999999999,316.75816454525506L749.6516363636364,314.1964861537729L754.2385454545455,316.8523218429514L756.0254545454545,312.95765459537506L756.28,313.90689177172527L757.0436363636363,314.47439363492384L758.576,318.58115054666996L759.3396363636363,317.93591323707784L759.8487272727274,317.7751255567585L760.6123636363636,316.9850408977696L761.381090909091,319.2882030350821L763.6719999999999,316.02787869849374L764.9498181818182,318.94010392682895L765.9680000000001,317.2186785989574L766.2225454545455,316.4581974116819L766.9912727272726,320.35081318180477L767.2458181818181,320.41242271129573L767.5003636363637,319.3442399693387L768.7730909090909,318.66245726921727L769.7963636363637,318.28840621880124L770.0509090909092,321.8148608505726L771.0690909090908,316.7286513586129L772.3418181818182,315.96186024802074L772.5963636363637,316.2697824995433L772.8509090909091,316.6066060055579L773.3650909090909,317.2706125783069L775.656,317.1135667126094L775.9105454545454,316.59636366580213L775.9156363636364,316.5635400265455L777.1883636363636,319.38001292092457L778.461090909091,317.74684626609087L778.9752727272727,316.7974285195981L779.738909090909,317.1293766317623L780.248,317.7908451908401L780.757090909091,317.048581524619L781.5207272727273,316.72958430434977L783.0530909090909,318.4381088986993L785.8581818181817,319.15220362267326L786.3672727272727,319.0032533183694L789.426909090909,317.6789819874934L789.6814545454545,317.4719583189913L792.2320000000001,318.7942734733224L794.528,315.41623746710167L795.0370909090909,318.80171697586775L795.5461818181818,320.3152157845242L797.0734545454546,319.42699125302687L798.6058181818182,319.49141466724024L798.8603636363637,319.66220392712523L800.1330909090909,319.4803296668189L800.9018181818182,318.4527852386236L801.1563636363636,319.882820514696L802.1745454545454,318.17321249949083L805.2341818181818,322.6981096714735L805.7432727272727,322.6521294909929L805.9978181818182,321.68839152902365L808.0392727272726,321.2129854543933L808.5483636363635,321.6641349398664L809.0574545454546,320.9968680728759L810.8443636363637,321.86083099937866L812.6312727272727,321.0050840143646L813.3949090909091,320.62298756092787L813.6494545454545,321.3360991807921L814.4130909090909,319.76900113480434L814.9221818181818,319.0186017804912L815.1767272727274,318.8857523139034L815.690909090909,319.0117702100958L817.2181818181818,320.8767337538302L818.2363636363636,320.9710264791335L818.4909090909091,321.0284929270191L821.805090909091,319.24026166221927L822.3192727272727,318.4859198597925L823.0829090909092,319.3963645505054L824.8647272727272,319.8353405988642L825.3789090909091,316.74117088850056L825.888,319.21605523143495L827.4152727272728,320.1653124711343L828.4385454545454,319.3015050355877L829.9658181818182,319.3659886398486L830.4749090909091,319.64417700788806L832.0072727272727,319.165525686528L832.7709090909091,320.0527320030545L833.5345454545455,320.10565911818827L834.0487272727272,319.57032381956066L836.0850909090909,323.40142536110113L838.1265454545454,324.11029358261396L839.3992727272727,322.1067123594029L840.4225454545455,323.72188720586047L841.6952727272728,321.51848004066517L844.7549090909091,322.78765741469607L845.2639999999999,321.38310259208083L849.3418181818181,321.4384824516518L849.856,324.26595507721817L851.1287272727272,324.2400633251028L853.1701818181817,317.8345933237246L853.4247272727272,319.9544918138002L854.952,321.3171593791672L856.2298181818182,322.5979584482099L856.9934545454545,322.1442408540419L858.0116363636363,321.40878869486704L858.2661818181818,321.9685912478183L858.5207272727273,321.91303583394205L858.7803636363636,320.9826431583081L859.7985454545455,321.8297328081514L860.5621818181819,322.7035669024502L860.8167272727272,322.8733931215746L861.5854545454546,322.9137405167733L861.84,323.5264501215092L862.0945454545455,322.7580840380064L863.3672727272727,320.507939300899L863.8763636363635,321.45065087292875L866.1723636363637,321.0071354918182L867.7047272727274,321.8086713073509L870.2501818181818,322.34408685937524L874.333090909091,324.89365701962794L875.6058181818181,322.78435699375615L877.6472727272727,322.8932708847736L878.4109090909092,321.8252937921456L878.9200000000001,322.4462343858821L880.4523636363637,319.6906537562609L881.4705454545455,322.61454080630625L881.7250909090909,321.9135173543223L883.512,327.0515956197466L884.5301818181819,326.1921670101583L884.7847272727273,325.04539612946763L885.5483636363637,325.12120047850266L886.0574545454546,324.4800310129566L887.5898181818181,323.8718557251351L889.3767272727273,324.9923335867269L890.394909090909,323.25874986925294L890.904,323.83453287982513L892.1818181818182,324.06141424817696L896.0050909090909,322.76507109935795L896.7687272727273,324.2210533017559L898.2959999999999,323.6735846927123L899.5738181818182,323.15740989255056L902.888,324.9966722859868L903.9061818181818,325.53406407790527L905.6930909090909,326.81680427598104L907.48,324.9156966087009L910.5396363636364,325.30933951959014L913.5992727272727,324.27145745073045L914.872,321.44163239747286L917.4225454545455,328.06094760607397L919.4589090909091,326.81931219462837L919.7134545454546,326.93181240931153L920.7367272727272,328.3841480979962L921.2458181818182,325.85376351539577L921.7549090909091,325.13651884560073L922.5185454545455,325.63229423548495L922.7781818181818,325.6548404241247L924.050909090909,324.6119475338076L924.3054545454545,324.8375348161374L926.0923636363636,325.24212228400364L926.3469090909091,324.2223574194525L927.1105454545453,324.1754041665367L928.8923636363636,325.3913835702198L929.4065454545455,324.03767930609837L929.661090909091,325.1145294149007L929.9156363636364,322.6201986707747L931.9570909090909,324.57886307101165L932.9752727272727,328.0604610698564L933.9934545454546,327.4148375407926L935.7803636363636,325.24229783830896L937.0530909090909,325.43868793174624L940.6218181818182,328.0857509214963L940.8763636363636,327.92143209172144L941.645090909091,328.8912091217935L942.1541818181819,327.26720640169725L943.9359999999999,326.8493069016508L944.7047272727273,328.61492175608873L946.9956363636363,326.2403742223978L947.2501818181818,326.8252409143107L947.2552727272727,326.89499616356835L947.5098181818182,328.5202428113137L947.7643636363637,329.63147648477127L948.7825454545455,329.798022346305L949.2916363636364,328.8378857555134L949.8007272727273,327.4173705386264L950.314909090909,326.937590653875L951.0785454545454,325.6373853103391L951.3330909090909,326.0393645428121L952.0967272727273,326.9548100233078L954.6472727272727,327.4585806578398L956.1745454545454,325.7989554612764L957.4523636363635,324.74994826529706L959.4938181818181,324.7657932953111L959.7483636363637,327.8384902062161L961.021090909091,327.4689032509923L961.7847272727272,326.33569519434656L963.0625454545454,327.08495595359375L964.0807272727272,325.0735399925283L965.0989090909092,325.92904120151485L966.8858181818182,326.18611791038086L967.6494545454545,324.1934210540993L968.9272727272727,324.9207375251821L969.1818181818181,323.70764222794344L971.2181818181818,326.46258083039095L971.7323636363635,326.6451773712678L971.9869090909092,324.8089294960456L972.7505454545455,326.8370331477906L974.792,325.93209083059L977.8516363636363,327.5284964138908L978.1061818181818,328.29800610829676L978.3607272727273,329.5894387524043L978.6152727272728,329.76232463227853L981.9294545454545,328.6565833006586L987.5396363636363,325.8385153700198L988.3032727272727,329.051640677665L988.8123636363637,327.5810774362513L989.3214545454546,327.68639497192845L990.0850909090909,326.93220866045783L990.3447272727273,329.7531155550054L990.8538181818183,326.4511346896844L991.6174545454545,327.1717550179788L991.872,328.19664105240787L996.2043636363636,328.10719362593125L998.5003636363637,329.73458203620146L1000.0327272727272,329.57089520192574L1001.050909090909,328.54165040488755L1001.3054545454546,328.34631865311945L1002.3287272727272,328.4700192324817L1002.5832727272726,323.76784230715464L1003.3469090909091,330.6917492513146L1005.8974545454546,327.1802969888917L1006.1519999999999,325.5362911096641L1008.957090909091,323.3914237815355L1009.2116363636364,325.10271711807167L1009.7207272727273,325.94766500539015L1009.9752727272728,326.16097853385975L1010.738909090909,327.534184373383L1010.9934545454545,327.7875142517899L1011.2479999999999,327.2716052910047L1012.7803636363636,330.57284381240606L1013.2894545454544,330.3896253077047L1013.7985454545455,330.3322842557516L1016.6036363636364,327.91721377255664L1017.3672727272726,327.8852428256401L1017.6218181818181,327.7469812706113L1017.6269090909091,327.7137162376727L1017.8814545454545,325.2510153635272L1018.8996363636363,325.68060176447034L1019.6632727272728,327.0667685275631L1023.232,327.6322941508676L1023.7410909090909,328.3317978041513L1025.0189090909091,330.68975796390856L1025.528,329.7509286499449L1026.5461818181818,329.6100337803364L1027.3149090909092,333.3839447450425L1027.5694545454546,330.26679748403177L1031.1381818181817,330.56953837562884L1033.1796363636363,324.48565878240123L1033.6887272727274,328.9587423551296L1034.1978181818183,327.7803115094347L1034.9614545454544,328.9425412006676L1035.4705454545453,328.3759020614837L1035.9847272727272,328.2643598717238L1038.2756363636365,330.81525421302234L1039.0392727272726,329.42919779835L1039.5534545454545,329.4326486944088L1044.904,330.2943845891527L1045.9272727272728,330.1082568988204L1047.4545454545455,330.68703938009486L1048.2181818181818,330.06330998082245L1048.9869090909092,329.63074918836355L1050.514181818182,330.1628743511226L1051.2778181818182,330.54954524817214L1051.5374545454545,329.80083623102735L1052.810181818182,330.23404908233454L1053.3192727272726,331.1591901763209L1054.082909090909,330.7093648718936L1057.9112727272727,332.59675924001L1058.9294545454545,329.796898798751L1060.7163636363637,329.3552593407886L1060.9709090909091,329.423138666898L1063.2618181818182,329.60682364446774L1064.5396363636364,330.99141041881273L1064.7941818181819,331.86423632981524L1065.0487272727273,331.7898665102465L1065.8123636363637,331.00713005289435L1067.090181818182,332.0830020734242L1068.362909090909,333.790799371366L1069.1265454545455,331.5389642970903L1070.9134545454547,331.14989582981383L1071.9316363636362,331.15263949281405L1072.4407272727271,330.6916740137552L1074.4821818181817,331.50545348812426L1075.7549090909092,330.6069715693593L1077.0327272727272,331.54535447380374L1077.2872727272727,330.9360355750791L1078.56,329.95448135903905L1080.0923636363636,332.36456108412574L1081.8741818181818,331.1620391719043L1083.152,332.2989037739379L1084.4247272727273,330.6934646676694L1084.6792727272727,331.0653890030725L1086.2116363636364,331.9705570329513L1087.9985454545454,331.0280611419252L1088.2530909090908,339.5574623665639L1088.762181818182,333.096582410591L1089.7803636363637,332.2522514712598L1090.7985454545453,330.9661055196609L1091.8218181818181,330.84533418927873L1094.626909090909,327.2452270026718L1096.1541818181818,330.64964631306276L1097.432,326.02944823248043L1098.1956363636364,324.65109112805555L1099.722909090909,327.66960696450303L1102.528,332.3417289927602L1103.2967272727274,331.9214921125344L1105.0785454545453,331.33827061525415L1105.8421818181819,331.4173603377172L1108.3927272727274,333.3023270405829L1110.6887272727272,329.33305422908495L1110.9432727272726,330.19978589777435L1111.7069090909092,330.4370701126754L1112.9847272727272,328.22562757613406L1114.2574545454545,330.5708525250001L1117.8261818181818,332.4163596358683L1118.0807272727272,332.45211252410496L1119.8676363636364,332.9983823480351L1121.1403636363636,331.8692070245743L1122.418181818182,334.2035777015345L1122.9272727272728,333.26497410024916L1123.1818181818182,334.1347052396408L1124.709090909091,333.60511307471563L1127.005090909091,333.56808114796877L1127.7687272727273,333.42346452708756L1128.0283636363636,331.80918249966845L1128.282909090909,329.15449543723037L1128.5374545454545,330.47927336767316L1129.5556363636363,332.8131023342056L1131.8516363636365,332.47597787795326L1132.1061818181818,332.49240976093074L1132.6152727272727,332.10353691130877L1134.9112727272727,332.2379914458309L1135.1658181818182,331.9768117820578L1139.2436363636364,331.7615922354162L1140.776,336.80153564416935L1141.7941818181819,334.09243176292097L1143.8356363636362,336.29078296412314L1145.1083636363637,335.2331936705325L1146.1316363636365,334.33835324964355L1147.658909090909,333.30710713352477L1149.7003636363636,332.4342611591731L1150.7185454545454,334.39763543062975L1151.7367272727272,333.5286616826696L1152.250909090909,333.4016857615539L1153.7781818181818,332.7476005149739L1155.050909090909,333.2396240585617L1156.3287272727273,335.8002491242119L1157.6014545454545,334.3036687347506L1158.365090909091,334.0357176906296L1158.370181818182,334.0294228148248L1160.152,336.8127911830587L1161.938909090909,330.71511803727066L1163.9752727272728,331.9801774088826L1164.7440000000001,331.6267264022359L1165.5076363636363,334.281704383237L1166.2712727272726,334.51525179935356L1166.525818181818,334.22913339255115L1168.3127272727272,336.17357789405753L1168.8218181818183,334.95368613728454L1171.3723636363636,334.88793854202544L1173.4087272727274,333.7151755924736L1174.6865454545455,332.55900001685535L1175.9592727272727,333.34525759198834L1176.728,333.82341736129354L1178.7643636363637,336.0827109856265L1184.12,333.9078890771738L1185.6472727272728,332.70789514694894L1186.416,333.76920117597496L1189.9847272727272,334.7177862934768L1191.512,333.5870008862444L1192.0261818181818,333.7068192075406L1192.5352727272727,335.70094056161383L1194.317090909091,334.7822398027139L1195.0807272727272,334.0529220125505L1195.8494545454546,332.28293836382886L1196.8676363636364,333.2845057706748L1197.1221818181818,333.30106806542193L1197.3767272727273,333.0844892268734L1197.8858181818182,333.33981039268633L1199.1636363636362,332.31702097824643L1200.9454545454546,333.31578954788193L1201.205090909091,333.0348825960287L1201.714181818182,332.76948962892806L1202.7323636363635,332.61367264336775L1203.4959999999999,333.6654084548354L1203.7505454545453,334.2342896732901L1204.2596363636364,334.3154258573694L1206.0465454545456,335.1200765078621L1207.8334545454545,334.36653222356523L1208.3425454545454,335.6963159596281L1211.6567272727273,335.2446197478899L1212.4203636363636,336.2159165766622L1213.184,335.6813135902796L1215.48,335.73387454929093L1216.4981818181818,335.6224176287651L1217.0123636363637,336.50582695645943L1220.581090909091,337.4003212845751L1221.853818181818,335.7385794046734L1222.1083636363635,335.0621686662946L1222.8770909090908,339.47884413280656L1223.8952727272726,335.311711587544L1224.1498181818183,334.95064152404666L1224.4043636363638,335.25340749483024L1224.9134545454547,334.3910396045872L1225.9367272727272,335.5791409845863L1226.1912727272727,332.98181002161334L1226.4458181818181,333.1008358406169L1228.7367272727274,334.6460648359997L1230.5236363636363,339.4846073298582L1231.5418181818181,337.6320278884045L1231.8014545454546,337.64438189566135L1233.3287272727273,335.7779988699726L1235.1156363636364,334.2781932971307L1235.370181818182,338.6040821086083L1236.8974545454546,335.1352694790278L1237.661090909091,335.391804477466L1239.448,336.10391794570853L1240.9752727272728,336.1603360835995L1241.4894545454545,335.1463946061475L1241.744,335.81843655024255L1242.5076363636365,337.63022720281566L1243.2712727272728,336.7826861276158L1244.034909090909,336.10582396388054L1246.84,335.84646003320813L1247.6087272727273,337.05025596810236L1249.3905454545454,333.7333379393177L1250.6683636363637,335.2933887339064L1251.432,338.25421742562736L1251.6865454545455,338.1384268216789L1251.941090909091,337.21938498584285L1252.7047272727273,336.919728834182L1252.9592727272727,336.9144270941615L1254.4916363636362,337.61617282671585L1255.0007272727273,337.2289552034012L1255.5098181818182,337.83570599343096L1256.7876363636365,335.1918029811765L1258.3149090909092,335.9824744931289L1259.0785454545453,334.82195520241345L1259.5927272727272,339.6014311962894L1260.101818181818,338.7033003861351L1260.610909090909,338.00944456564525L1262.3978181818181,337.0749238559178L1264.4341818181817,337.20098187880853L1264.9432727272726,336.3106557114848L1265.4523636363638,336.34418156796266L1265.4574545454545,336.3680970801839L1265.712,332.56505914830734L1267.4938181818181,335.5360298630382L1267.7483636363636,335.1938594744674L1271.8312727272728,334.09804950069105L1272.5949090909091,334.94204939476083L1275.1454545454546,339.77039970723644L1276.6727272727273,336.51542726904154L1279.7323636363637,337.26575640163253L1281.010181818182,339.5683266701443L1281.2647272727274,340.8311891050211L1282.792,338.4284024073609L1283.3010909090908,338.3274436342929L1284.0698181818182,338.1826163482453L1286.8698181818181,338.2656685821712L1287.1294545454546,338.387914568718L1287.6385454545455,336.5865518418806L1288.6567272727273,338.41510542269265L1289.1658181818182,336.9079867590751L1290.189090909091,333.1794440426997L1291.2072727272728,338.31991486251354L1292.48,338.2155001775495L1299.1134545454545,337.1130793302187L1299.6225454545456,336.4689806156925L1302.168,335.72035185194443L1302.173090909091,335.68434817184294L1307.7781818181818,337.48057468129053L1308.5469090909091,342.0254449173808L1309.3105454545455,337.41564968334774L1309.8196363636364,339.1833611577749L1310.3287272727273,338.30202838672056L1315.429818181818,340.17810201006273L1317.9803636363638,339.2103062357221L1318.2349090909092,339.07030920098936L1318.744,338.97691932639907L1319.2530909090908,339.1304189951292L1320.0167272727272,338.13606937815035L1322.3127272727272,338.54265314925993L1323.0763636363636,338.0684308122311L1323.330909090909,338.4069396395768L1324.6087272727273,340.44563172385097L1325.1178181818182,340.2431824989617L1325.626909090909,339.7919627917664L1326.6501818181819,338.90044787100385L1327.1592727272728,341.17951392595256L1328.1774545454546,339.63371814095547L1328.6865454545455,338.814486451447L1333.0240000000001,340.53178374522497L1334.0421818181817,339.27985081981336L1335.5694545454546,339.74294802972247L1336.338181818182,340.21824877176965L1337.3563636363638,339.79978749794617L1338.8887272727272,338.3567912983043L1339.906909090909,342.2325939818152L1340.1614545454545,340.49347779580523L1340.6705454545454,339.06829785023416L1340.925090909091,338.68516311847736L1343.7301818181818,340.75044415625075L1345.7716363636364,338.49139630794525L1348.3221818181817,341.4725140615233L1350.8676363636364,339.36716149960245L1351.1221818181818,339.391764181533L1351.1272727272728,339.4032504489379" style="fill: none;" fill="none"></path></g></g></g></g></g></g><g transform="translate(50, 377)" clip-path="url(#clip_1)"><clipPath id="clip_1"><rect width="1400" height="23"></rect></clipPath><g><g><line x1="0" y1="0" x2="0" y2="5" style="visibility: inherit;" fill="rgb(0, 0, 0)" stroke="rgb(204, 204, 204)" stroke-width="1px"></line><line x1="127.27272727272728" y1="0" x2="127.27272727272728" y2="5" style="visibility: inherit;" fill="rgb(0, 0, 0)" stroke="rgb(204, 204, 204)" stroke-width="1px"></line><line x1="254.54545454545456" y1="0" x2="254.54545454545456" y2="5" style="visibility: inherit;" fill="rgb(0, 0, 0)" stroke="rgb(204, 204, 204)" stroke-width="1px"></line><line x1="381.8181818181818" y1="0" x2="381.8181818181818" y2="5" style="visibility: inherit;" fill="rgb(0, 0, 0)" stroke="rgb(204, 204, 204)" stroke-width="1px"></line><line x1="509.0909090909091" y1="0" x2="509.0909090909091" y2="5" style="visibility: inherit;" fill="rgb(0, 0, 0)" stroke="rgb(204, 204, 204)" stroke-width="1px"></line><line x1="636.3636363636364" y1="0" x2="636.3636363636364" y2="5" style="visibility: inherit;" fill="rgb(0, 0, 0)" stroke="rgb(204, 204, 204)" stroke-width="1px"></line><line x1="763.6363636363636" y1="0" x2="763.6363636363636" y2="5" style="visibility: inherit;" fill="rgb(0, 0, 0)" stroke="rgb(204, 204, 204)" stroke-width="1px"></line><line x1="890.9090909090909" y1="0" x2="890.9090909090909" y2="5" style="visibility: inherit;" fill="rgb(0, 0, 0)" stroke="rgb(204, 204, 204)" stroke-width="1px"></line><line x1="1018.1818181818182" y1="0" x2="1018.1818181818182" y2="5" style="visibility: inherit;" fill="rgb(0, 0, 0)" stroke="rgb(204, 204, 204)" stroke-width="1px"></line><line x1="1145.4545454545455" y1="0" x2="1145.4545454545455" y2="5" style="visibility: inherit;" fill="rgb(0, 0, 0)" stroke="rgb(204, 204, 204)" stroke-width="1px"></line><line x1="1272.7272727272727" y1="0" x2="1272.7272727272727" y2="5" style="visibility: inherit;" fill="rgb(0, 0, 0)" stroke="rgb(204, 204, 204)" stroke-width="1px"></line><line x1="1400" y1="0" x2="1400" y2="5" style="visibility: inherit;" fill="rgb(0, 0, 0)" stroke="rgb(204, 204, 204)" stroke-width="1px"></line></g><g transform="translate(0, 8)"><text x="0" y="0" dx="0em" dy="0.95em" style="text-anchor: middle; visibility: hidden; font-family: Roboto, sans-serif; font-size: 12px; font-weight: 200;" fill="rgb(33, 33, 33)" stroke="none" stroke-width="1px">-50k</text><text x="127.27272727272728" y="0" dx="0em" dy="0.95em" style="text-anchor: middle; visibility: inherit; font-family: Roboto, sans-serif; font-size: 12px; font-weight: 200;" fill="rgb(33, 33, 33)" stroke="none" stroke-width="1px">0</text><text x="254.54545454545456" y="0" dx="0em" dy="0.95em" style="text-anchor: middle; visibility: inherit; font-family: Roboto, sans-serif; font-size: 12px; font-weight: 200;" fill="rgb(33, 33, 33)" stroke="none" stroke-width="1px">50k</text><text x="381.8181818181818" y="0" dx="0em" dy="0.95em" style="text-anchor: middle; visibility: inherit; font-family: Roboto, sans-serif; font-size: 12px; font-weight: 200;" fill="rgb(33, 33, 33)" stroke="none" stroke-width="1px">100k</text><text x="509.0909090909091" y="0" dx="0em" dy="0.95em" style="text-anchor: middle; visibility: inherit; font-family: Roboto, sans-serif; font-size: 12px; font-weight: 200;" fill="rgb(33, 33, 33)" stroke="none" stroke-width="1px">150k</text><text x="636.3636363636364" y="0" dx="0em" dy="0.95em" style="text-anchor: middle; visibility: inherit; font-family: Roboto, sans-serif; font-size: 12px; font-weight: 200;" fill="rgb(33, 33, 33)" stroke="none" stroke-width="1px">200k</text><text x="763.6363636363636" y="0" dx="0em" dy="0.95em" style="text-anchor: middle; visibility: inherit; font-family: Roboto, sans-serif; font-size: 12px; font-weight: 200;" fill="rgb(33, 33, 33)" stroke="none" stroke-width="1px">250k</text><text x="890.9090909090909" y="0" dx="0em" dy="0.95em" style="text-anchor: middle; visibility: inherit; font-family: Roboto, sans-serif; font-size: 12px; font-weight: 200;" fill="rgb(33, 33, 33)" stroke="none" stroke-width="1px">300k</text><text x="1018.1818181818182" y="0" dx="0em" dy="0.95em" style="text-anchor: middle; visibility: inherit; font-family: Roboto, sans-serif; font-size: 12px; font-weight: 200;" fill="rgb(33, 33, 33)" stroke="none" stroke-width="1px">350k</text><text x="1145.4545454545455" y="0" dx="0em" dy="0.95em" style="text-anchor: middle; visibility: inherit; font-family: Roboto, sans-serif; font-size: 12px; font-weight: 200;" fill="rgb(33, 33, 33)" stroke="none" stroke-width="1px">400k</text><text x="1272.7272727272727" y="0" dx="0em" dy="0.95em" style="text-anchor: middle; visibility: inherit; font-family: Roboto, sans-serif; font-size: 12px; font-weight: 200;" fill="rgb(33, 33, 33)" stroke="none" stroke-width="1px">450k</text><text x="1400" y="0" dx="0em" dy="0.95em" style="text-anchor: middle; visibility: hidden; font-family: Roboto, sans-serif; font-size: 12px; font-weight: 200;" fill="rgb(33, 33, 33)" stroke="none" stroke-width="1px">500k</text></g><line x1="0" y1="0" x2="1400" y2="0" fill="rgb(0, 0, 0)" stroke="rgb(204, 204, 204)" stroke-width="1px"></line></g></g></g></g></svg>