<svg viewBox="0 0 1450 400" xmlns="http://www.w3.org/2000/svg"><g><g><g><g><g><line x1="50" y1="377" x2="45" y2="377" style="visibility: inherit;" fill="rgb(0, 0, 0)" stroke="rgb(204, 204, 204)" stroke-width="1px"></line><line x1="50" y1="342.7272727272727" x2="45" y2="342.7272727272727" style="visibility: inherit;" fill="rgb(0, 0, 0)" stroke="rgb(204, 204, 204)" stroke-width="1px"></line><line x1="50" y1="308.45454545454544" x2="45" y2="308.45454545454544" style="visibility: inherit;" fill="rgb(0, 0, 0)" stroke="rgb(204, 204, 204)" stroke-width="1px"></line><line x1="50" y1="274.1818181818182" x2="45" y2="274.1818181818182" style="visibility: inherit;" fill="rgb(0, 0, 0)" stroke="rgb(204, 204, 204)" stroke-width="1px"></line><line x1="50" y1="239.9090909090909" x2="45" y2="239.9090909090909" style="visibility: inherit;" fill="rgb(0, 0, 0)" stroke="rgb(204, 204, 204)" stroke-width="1px"></line><line x1="50" y1="205.63636363636363" x2="45" y2="205.63636363636363" style="visibility: inherit;" fill="rgb(0, 0, 0)" stroke="rgb(204, 204, 204)" stroke-width="1px"></line><line x1="50" y1="171.36363636363637" x2="45" y2="171.36363636363637" style="visibility: inherit;" fill="rgb(0, 0, 0)" stroke="rgb(204, 204, 204)" stroke-width="1px"></line><line x1="50" y1="137.0909090909091" x2="45" y2="137.0909090909091" style="visibility: inherit;" fill="rgb(0, 0, 0)" stroke="rgb(204, 204, 204)" stroke-width="1px"></line><line x1="50" y1="102.81818181818181" x2="45" y2="102.81818181818181" style="visibility: inherit;" fill="rgb(0, 0, 0)" stroke="rgb(204, 204, 204)" stroke-width="1px"></line><line x1="50" y1="68.54545454545453" x2="45" y2="68.54545454545453" style="visibility: inherit;" fill="rgb(0, 0, 0)" stroke="rgb(204, 204, 204)" stroke-width="1px"></line><line x1="50" y1="34.27272727272729" x2="45" y2="34.27272727272729" style="visibility: inherit;" fill="rgb(0, 0, 0)" stroke="rgb(204, 204, 204)" stroke-width="1px"></line><line x1="50" y1="0" x2="45" y2="0" style="visibility: inherit;" fill="rgb(0, 0, 0)" stroke="rgb(204, 204, 204)" stroke-width="1px"></line></g><g transform="translate(40, 0)"><text x="0" y="377" dx="0em" dy="0.3em" style="text-anchor: end; visibility: hidden; font-family: Roboto, sans-serif; font-size: 12px; font-weight: 200;" fill="rgb(33, 33, 33)" stroke="none" stroke-width="1px">55.5</text><text x="0" y="342.7272727272727" dx="0em" dy="0.3em" style="text-anchor: end; visibility: inherit; font-family: Roboto, sans-serif; font-size: 12px; font-weight: 200;" fill="rgb(33, 33, 33)" stroke="none" stroke-width="1px">56</text><text x="0" y="308.45454545454544" dx="0em" dy="0.3em" style="text-anchor: end; visibility: inherit; font-family: Roboto, sans-serif; font-size: 12px; font-weight: 200;" fill="rgb(33, 33, 33)" stroke="none" stroke-width="1px">56.5</text><text x="0" y="274.1818181818182" dx="0em" dy="0.3em" style="text-anchor: end; visibility: inherit; font-family: Roboto, sans-serif; font-size: 12px; font-weight: 200;" fill="rgb(33, 33, 33)" stroke="none" stroke-width="1px">57</text><text x="0" y="239.9090909090909" dx="0em" dy="0.3em" style="text-anchor: end; visibility: inherit; font-family: Roboto, sans-serif; font-size: 12px; font-weight: 200;" fill="rgb(33, 33, 33)" stroke="none" stroke-width="1px">57.5</text><text x="0" y="205.63636363636363" dx="0em" dy="0.3em" style="text-anchor: end; visibility: inherit; font-family: Roboto, sans-serif; font-size: 12px; font-weight: 200;" fill="rgb(33, 33, 33)" stroke="none" stroke-width="1px">58</text><text x="0" y="171.36363636363637" dx="0em" dy="0.3em" style="text-anchor: end; visibility: inherit; font-family: Roboto, sans-serif; font-size: 12px; font-weight: 200;" fill="rgb(33, 33, 33)" stroke="none" stroke-width="1px">58.5</text><text x="0" y="137.0909090909091" dx="0em" dy="0.3em" style="text-anchor: end; visibility: inherit; font-family: Roboto, sans-serif; font-size: 12px; font-weight: 200;" fill="rgb(33, 33, 33)" stroke="none" stroke-width="1px">59</text><text x="0" y="102.81818181818181" dx="0em" dy="0.3em" style="text-anchor: end; visibility: inherit; font-family: Roboto, sans-serif; font-size: 12px; font-weight: 200;" fill="rgb(33, 33, 33)" stroke="none" stroke-width="1px">59.5</text><text x="0" y="68.54545454545453" dx="0em" dy="0.3em" style="text-anchor: end; visibility: inherit; font-family: Roboto, sans-serif; font-size: 12px; font-weight: 200;" fill="rgb(33, 33, 33)" stroke="none" stroke-width="1px">60</text><text x="0" y="34.27272727272729" dx="0em" dy="0.3em" style="text-anchor: end; visibility: inherit; font-family: Roboto, sans-serif; font-size: 12px; font-weight: 200;" fill="rgb(33, 33, 33)" stroke="none" stroke-width="1px">60.5</text><text x="0" y="0" dx="0em" dy="0.3em" style="text-anchor: end; visibility: hidden; font-family: Roboto, sans-serif; font-size: 12px; font-weight: 200;" fill="rgb(33, 33, 33)" stroke="none" stroke-width="1px">61</text></g><line x1="50" y1="0" x2="50" y2="377" fill="rgb(0, 0, 0)" stroke="rgb(204, 204, 204)" stroke-width="1px"></line></g></g><g transform="translate(50, 0)" clip-path="url(#clip_0)"><clipPath id="clip_0"><rect width="1400" height="377"></rect></clipPath><g><g><g><line x1="0" y1="0" x2="0" y2="377" fill="rgb(0, 0, 0)" stroke="rgb(66, 66, 66)" stroke-width="1px" opacity="0.25"></line><line x1="127.27272727272728" y1="0" x2="127.27272727272728" y2="377" fill="rgb(0, 0, 0)" stroke="rgb(66, 66, 66)" stroke-width="1px" opacity="0.25"></line><line x1="254.54545454545456" y1="0" x2="254.54545454545456" y2="377" fill="rgb(0, 0, 0)" stroke="rgb(66, 66, 66)" stroke-width="1px" opacity="0.25"></line><line x1="381.8181818181818" y1="0" x2="381.8181818181818" y2="377" fill="rgb(0, 0, 0)" stroke="rgb(66, 66, 66)" stroke-width="1px" opacity="0.25"></line><line x1="509.0909090909091" y1="0" x2="509.0909090909091" y2="377" fill="rgb(0, 0, 0)" stroke="rgb(66, 66, 66)" stroke-width="1px" opacity="0.25"></line><line x1="636.3636363636364" y1="0" x2="636.3636363636364" y2="377" fill="rgb(0, 0, 0)" stroke="rgb(66, 66, 66)" stroke-width="1px" opacity="0.25"></line><line x1="763.6363636363636" y1="0" x2="763.6363636363636" y2="377" fill="rgb(0, 0, 0)" stroke="rgb(66, 66, 66)" stroke-width="1px" opacity="0.25"></line><line x1="890.9090909090909" y1="0" x2="890.9090909090909" y2="377" fill="rgb(0, 0, 0)" stroke="rgb(66, 66, 66)" stroke-width="1px" opacity="0.25"></line><line x1="1018.1818181818182" y1="0" x2="1018.1818181818182" y2="377" fill="rgb(0, 0, 0)" stroke="rgb(66, 66, 66)" stroke-width="1px" opacity="0.25"></line><line x1="1145.4545454545455" y1="0" x2="1145.4545454545455" y2="377" fill="rgb(0, 0, 0)" stroke="rgb(66, 66, 66)" stroke-width="1px" opacity="0.25"></line><line x1="1272.7272727272727" y1="0" x2="1272.7272727272727" y2="377" fill="rgb(0, 0, 0)" stroke="rgb(66, 66, 66)" stroke-width="1px" opacity="0.25"></line><line x1="1400" y1="0" x2="1400" y2="377" fill="rgb(0, 0, 0)" stroke="rgb(66, 66, 66)" stroke-width="1px" opacity="0.25"></line></g><g><line x1="0" y1="377" x2="1400" y2="377" fill="rgb(0, 0, 0)" stroke="rgb(66, 66, 66)" stroke-width="1px" opacity="0.25"></line><line x1="0" y1="342.7272727272727" x2="1400" y2="342.7272727272727" fill="rgb(0, 0, 0)" stroke="rgb(66, 66, 66)" stroke-width="1px" opacity="0.25"></line><line x1="0" y1="308.45454545454544" x2="1400" y2="308.45454545454544" fill="rgb(0, 0, 0)" stroke="rgb(66, 66, 66)" stroke-width="1px" opacity="0.25"></line><line x1="0" y1="274.1818181818182" x2="1400" y2="274.1818181818182" fill="rgb(0, 0, 0)" stroke="rgb(66, 66, 66)" stroke-width="1px" opacity="0.25"></line><line x1="0" y1="239.9090909090909" x2="1400" y2="239.9090909090909" fill="rgb(0, 0, 0)" stroke="rgb(66, 66, 66)" stroke-width="1px" opacity="0.25"></line><line x1="0" y1="205.63636363636363" x2="1400" y2="205.63636363636363" fill="rgb(0, 0, 0)" stroke="rgb(66, 66, 66)" stroke-width="1px" opacity="0.25"></line><line x1="0" y1="171.36363636363637" x2="1400" y2="171.36363636363637" fill="rgb(0, 0, 0)" stroke="rgb(66, 66, 66)" stroke-width="1px" opacity="0.25"></line><line x1="0" y1="137.0909090909091" x2="1400" y2="137.0909090909091" fill="rgb(0, 0, 0)" stroke="rgb(66, 66, 66)" stroke-width="1px" opacity="0.25"></line><line x1="0" y1="102.81818181818181" x2="1400" y2="102.81818181818181" fill="rgb(0, 0, 0)" stroke="rgb(66, 66, 66)" stroke-width="1px" opacity="0.25"></line><line x1="0" y1="68.54545454545453" x2="1400" y2="68.54545454545453" fill="rgb(0, 0, 0)" stroke="rgb(66, 66, 66)" stroke-width="1px" opacity="0.25"></line><line x1="0" y1="34.27272727272729" x2="1400" y2="34.27272727272729" fill="rgb(0, 0, 0)" stroke="rgb(66, 66, 66)" stroke-width="1px" opacity="0.25"></line><line x1="0" y1="0" x2="1400" y2="0" fill="rgb(0, 0, 0)" stroke="rgb(66, 66, 66)" stroke-width="1px" opacity="0.25"></line></g></g></g><g><g><line x1="0" y1="4181.272727272728" x2="1400" y2="4181.272727272728" fill="rgb(0, 0, 0)" stroke="rgb(153, 153, 153)" stroke-width="1.5px"></line></g></g><g><g><line x1="127.27272727272728" y1="0" x2="127.27272727272728" y2="377" fill="rgb(0, 0, 0)" stroke="rgb(153, 153, 153)" stroke-width="1.5px"></line></g></g><g><g><g><g><g><path stroke="rgb(51, 187, 238)" stroke-width="2px" d="M171.12581818181818,377.337622586594L172.6530909090909,376.4635260328922L172.90763636363636,376.09396894659915L175.45818181818183,372.20795635174994L175.96727272727276,370.73640933113865L177.75418181818182,362.6387205981781L178.26327272727272,358.65031332466657L180.30472727272726,359.56405163118393L181.57745454545454,357.80363400381077L185.14618181818184,356.01827215475765L185.40072727272727,355.7981206636806L188.46036363636364,351.8638990872066L188.46545454545458,349.54154224440055L191.52,345.9411310129184L192.03418181818182,326.9301615622843L193.05236363636365,324.6808242100966L194.07054545454545,328.67566704470204L194.58472727272726,331.4040249937784L195.34836363636364,332.25618092089394L195.85745454545454,331.6250153707187L197.13018181818182,330.43238060471106L197.63927272727273,330.78960053745425L197.6443636363636,330.98782531936547L200.18981818181817,330.007183827983L200.95854545454546,314.5315830240626L201.97672727272726,318.65544800557757L202.4858181818182,320.28215291423083L202.7403636363636,320.38409998717526L203.504,322.3402672321842L208.85963636363635,320.7219870438555L209.11418181818183,319.3850513016861L211.91927272727273,323.634581917375L213.19709090909092,322.9176809686067L213.45163636363637,318.8996142629826L213.7061818181818,318.9342412695264L216.5112727272727,310.8331299889884L218.54763636363637,311.82020547474934L219.31636363636366,310.68814601212193L219.82545454545453,319.57667850082805L221.0981818181818,320.4026122141334L222.12145454545453,318.8288184715025L222.63054545454546,307.39615471926476L225.1810909090909,309.99105142974776L226.70836363636363,307.62714678247585L226.9629090909091,307.4378653288963L230.2770909090909,308.9691112427921L230.53163636363638,309.40589856385714L231.04072727272725,309.47322053479843L232.5730909090909,304.01050231155693L234.10036363636362,305.41817744117816L234.86909090909091,295.4940882828884L236.1418181818182,300.23459161941355L237.16,305.9274584628593L237.67418181818184,307.0453955322609L238.1832727272727,317.7481055167109L239.20145454545457,315.80550421245886L239.456,314.44487923202047L240.47927272727273,311.3949407339031L240.7338181818182,306.68440762215977L242.2610909090909,305.602369593271L247.61672727272727,301.44167743778075L248.12581818181818,299.83774621985964L248.38036363636365,299.94902501796L248.63490909090908,301.79825023804864L249.39854545454546,303.311824510283L249.65818181818182,304.795330013343L252.9723636363636,284.4101525534605L253.2269090909091,278.39097789571287L253.73600000000002,282.7050412828824L254.2450909090909,289.238378163284L254.75418181818182,291.8240993411518L255.77236363636362,298.1728562111363L256.032,287.3983159994088L257.05018181818184,291.6223777721417L257.55927272727274,295.6624175856927L258.57745454545454,298.36455176989926L259.85527272727273,293.85914299375764L260.36436363636363,293.62814032617285L261.3825454545455,297.2560035138853L264.9563636363636,298.57715834945344L265.21090909090907,285.4988518278538L265.9745454545454,288.6298508694394L266.4836363636364,293.0074684606726L267.5018181818182,299.1541894948161L268.0109090909091,302.78511484878925L271.8392727272727,307.48057347026446L272.09381818181816,309.1553895367038L274.1301818181818,307.33995419210396L274.1352727272727,306.34764982794013L275.408,307.34039309722584L275.66254545454547,306.9649017518902L276.68072727272727,305.9113423961268L277.44945454545456,298.2533395285853L278.97672727272726,296.9175219056277L279.2312727272727,296.5654634274673L280.25454545454545,298.79561628002415L280.76363636363635,296.12594931346933L282.54545454545456,295.2977120330386L283.05454545454546,297.2987419104303L284.5869090909091,297.1556656008034L286.3738181818182,298.4457284065576L286.62836363636364,284.5631756802978L288.66472727272725,292.3109084488393L290.45163636363634,296.1711331374853L290.9607272727273,296.3005616851369L294.784,295.83088854694887L297.33454545454543,296.5350740439188L297.84363636363634,297.0902080782512L298.3527272727273,299.3673411777388L298.60727272727274,301.18148425209824L298.8669090909091,300.8776405512588L299.1214545454546,298.0177775125733L299.6305454545454,298.8990898029986L299.88509090909093,298.82270749951925L300.1396363636364,296.5170619997114L301.41236363636364,300.3281349270997L302.6901818181818,297.79517641080525L307.5316363636364,302.46787899545353L309.3185454545455,303.0774728362817L310.0821818181818,302.5150791718506L310.3367272727273,303.22011206720845L310.8458181818182,304.1536456649522L311.10545454545456,297.73423285351697L311.61454545454546,287.4564488030195L313.14181818181817,292.1427738117303L316.9650909090909,297.67678644612954L316.97018181818186,300.8795279556572L317.4792727272727,293.09220540975815L318.2429090909091,288.8267796001691L320.0298181818182,294.58918243961125L320.28436363636365,302.81288446376664L322.5752727272727,302.1456777330363L323.344,292.6737702761857L325.38036363636365,297.8318023379413L326.144,300.67068479631905L326.40363636363634,299.5001381505188L329.2087272727273,302.1874297475561L330.48145454545454,303.7303555758063L331.49963636363634,305.9294148502783L332.5229090909091,299.12100118289464L335.5825454545455,284.5399302551912L336.0916363636364,285.0377490466693L337.6189090909091,291.143810039241L338.38254545454544,296.11348772808986L338.6421818181818,292.1604221823085L339.6603636363636,294.5010828548394L339.9149090909091,295.316416758358L341.44218181818184,302.12465119137886L346.0341818181818,300.05121116937255L346.5432727272727,302.033603122078L347.0523636363636,302.40638346415614L349.3483636363636,297.81808461728997L350.88072727272726,315.7817598612826L354.1949090909091,301.6051354622241L358.01818181818186,304.06647538688685L358.78181818181815,306.3973781298595L361.0778181818182,302.4006427870067L361.5869090909091,301.0429788340474L362.85963636363635,305.11429410307426L363.3738181818182,305.32582078002656L363.88290909090904,301.6773816725614L366.43345454545454,304.9773096853554L368.2152727272727,304.0595433817925L368.98400000000004,304.06750980926034L369.4930909090909,306.6255911128291L371.5294545454545,307.35717284951585L371.78400000000005,308.71140703668055L376.1214545454545,308.68898910837163L377.1396363636363,308.88974289684137L379.4356363636364,307.9659480108321L379.6901818181818,307.2866835636903L380.1992727272727,308.6374220700326L381.2174545454546,310.1083640530107L383.25890909090907,304.84143888635185L386.064,302.87467922758486L387.0821818181818,303.94795484212585L387.3418181818182,305.41767454989554L388.1054545454545,303.2765865636554L388.61454545454546,304.0411014743258L389.12363636363636,304.73545633914085L391.41963636363636,309.86456925803014L391.67418181818186,307.5869233729998L392.43781818181816,308.509646921527L392.6923636363636,308.5114533251465L393.456,310.09522426781524L393.9701818181818,299.7461970606891L394.4792727272727,295.17009039550425L395.752,296.3544731715176L397.28436363636365,300.0878134639013L398.5570909090909,303.70226194197693L398.81163636363635,306.0910973218801L401.61672727272725,304.8676555522187L403.91272727272724,301.868335585415L404.4218181818182,301.12146272154405L404.67636363636365,301.29681229201776L406.2087272727273,300.7326328297565L407.48145454545454,301.09792514574104L408.4996363636364,305.1407771821713L408.75418181818185,306.48416973393006L411.55927272727274,304.57530908023705L413.34618181818183,306.55541272086947L414.36436363636363,307.914796704787L415.3876363636364,305.4531393865084L415.8967272727273,308.3941137455416L416.9149090909091,309.6901259177793L420.4836363636363,310.0741532872619L420.9927272727273,310.6847618587208L422.01599999999996,309.95332870614146L422.2705454545454,310.8103644777687L422.77963636363637,313.065834609069L423.5432727272727,313.36336440180503L424.312,310.43591636835566L425.83927272727277,307.4554066325371L426.8574545454545,309.5492444012193L427.88072727272726,302.18538298883163L429.408,304.1336896210684L430.17163636363637,307.9594165980139L431.19490909090905,306.95256757244454L431.95854545454546,306.19167465435083L433.23127272727277,309.3995218380649L434,294.02721310283886L435.01818181818186,280.0913278617032L437.05963636363634,272.2653080806582L438.8414545454545,259.93332508498924L439.35563636363634,251.83430979264818L439.61018181818184,255.63240405740697L441.9010909090909,246.69763174330438L444.19709090909095,234.9397085847787L446.23854545454543,231.2510410599581L447.7658181818182,229.12109582738134L448.5345454545454,226.9832773361838L451.33454545454543,223.89700070346805L451.58909090909094,220.94827316488932L452.3578181818182,220.4999298080246L453.8850909090909,217.49385409175733L454.65381818181817,217.47580436512186L455.4174545454546,210.59798261907312L461.0276363636364,207.00680093508035L465.61454545454546,203.23028739254667L466.12363636363636,201.31288002164314L466.3781818181818,200.0005270852516L466.63272727272727,200.51204415642454L468.67418181818186,201.39891738962908L470.46109090909096,188.79574247923188L470.71563636363635,186.1069909420846L471.22472727272725,186.65722684729994L471.4792727272727,190.33964860837997L474.53890909090904,192.9060743767645L475.048,194.771734114695L477.59854545454544,194.4765223025351L478.3621818181818,198.25025581094235L479.1309090909091,198.58560908626347L480.1490909090909,196.10434840630353L481.16727272727275,193.7319982483274L482.6996363636364,188.5332330399057L482.95418181818184,185.69961483947984L483.2087272727273,182.5624535627785L483.71781818181813,185.54441988047608L484.48145454545454,188.65449283737672L487.2865454545455,190.93555791833504L488.5643636363637,202.70650520554648L489.328,194.61410198696444L489.5825454545454,191.8685957469552L491.8785454545455,187.41519153908175L492.6421818181818,187.22794266004342L495.19272727272727,183.45267468693564L495.9563636363636,180.50923437315174L496.72,181.3373671286851L497.7432727272727,189.87884073175638L498.50690909090906,186.78362546178082L500.5483636363636,187.8999440647993L503.3483636363636,184.1966364717277L504.37163636363636,180.24156142849114L504.88072727272726,181.01736505755585L510.4909090909091,183.2607031254424L512.5272727272727,183.61360432599344L512.786909090909,183.81436287968708L513.5505454545455,192.79303362136704L515.0778181818182,187.69613683430802L515.3323636363637,185.22235461922781L516.8647272727272,179.97339856699142L518.9010909090908,181.50974936746738L519.6698181818182,175.52346325684414L520.688,177.66929840199387L521.7061818181818,179.74270425204492L522.2203636363636,183.99533846031818L522.7294545454546,178.692787182636L524.2567272727273,176.98684124379682L526.2981818181818,180.15689245490762L528.0850909090909,181.73144543166245L528.5941818181818,181.76131044081555L529.3578181818182,178.56616126448912L529.8669090909091,177.50588994051185L530.1214545454545,176.70907373703446L530.376,175.9156389443689L531.9083636363637,177.09370154843933L532.9265454545455,178.67262773392875L533.1810909090909,179.25663061763018L534.7134545454546,174.81420564330512L536.7498181818182,172.55571837666142L537.0043636363637,172.49756760048194L537.7730909090909,165.02879624210715L538.2821818181818,166.9201186543554L540.3236363636363,170.40258555252072L543.1236363636364,171.97485793884553L545.4196363636364,172.13200283148953L545.9287272727273,172.3494992175371L547.4610909090909,160.81651771234033L547.7156363636363,156.01733289080985L548.7338181818182,158.3001724617591L549.4974545454545,165.5337256361462L551.2843636363637,168.64605131075336L555.6218181818182,170.3418111397897L556.64,159.23704691114654L558.4218181818181,153.16325087396058L559.6996363636364,147.10917211528553L560.2087272727273,146.76122942107156L562.2501818181818,141.1794649253701L563.2683636363636,138.06249601621286L565.3098181818182,133.3897703370004L566.5825454545454,131.7642599294729L566.837090909091,131.35124061677465L567.0916363636364,130.88629590593095L570.9149090909091,130.66380879355836L571.9381818181819,127.77243300340795L573.72,128.89046064543936L574.4887272727273,132.59904911453634L575.2523636363636,132.5964958416795L576.7796363636363,130.73332974488716L577.0341818181818,129.456345558669L577.0392727272728,128.6195554042708L577.8029090909091,128.79502869710774L579.0756363636364,128.1773723319008L580.3534545454545,143.41693476277706L580.608,143.67118358493877L583.1534545454546,135.6392993399727L583.1585454545454,130.8944291578717L584.1767272727272,122.60924272199537L584.4312727272727,118.78414609706422L585.4494545454546,121.56096645129605L585.9585454545454,122.86569308544384L587.2363636363636,124.61977096490227L588,121.65201255896622L589.0181818181818,122.16087777907656L589.2727272727273,122.01917043298226L589.5323636363636,99.3444568052441L589.786909090909,101.16235590132838L590.296,105.70714365443368L592.8465454545454,112.53067823811485L593.3556363636363,113.92046660196L595.3919999999999,116.78039247671254L595.3970909090909,118.3936385954912L596.1607272727273,121.12438090010377L604.570909090909,119.60330923741655L606.8669090909091,120.26739159269843L609.4174545454546,118.21441222834594L610.9498181818182,108.5215450642802L611.2043636363636,107.95383612947711L614.0094545454546,116.60980167768628L614.7730909090909,116.90345202933884L616.8145454545455,116.19479338557187L619.36,115.17112241362275L621.146909090909,114.40693481180973L621.9105454545454,111.72605009163128L622.6741818181819,112.24251620776613L623.952,114.87214324738733L625.2247272727274,115.85792839338959L625.4792727272727,115.36519815375404L626.248,122.23474389225271L626.5025454545454,121.64397133535164L628.2843636363637,117.39816008947456L630.3258181818182,114.43648877163562L631.0894545454545,110.43177962661736L633.3854545454545,105.84402593914552L635.6814545454545,103.34846101803257L638.2269090909091,105.98344989073786L642.3098181818182,105.57416084353343L644.0916363636363,106.79883804775673L645.624,101.60798102911588L647.4109090909091,103.89805250019324L647.92,114.2298826364794L648.9381818181819,114.68112388453314L650.4654545454546,112.14942889171056L651.2341818181818,107.0960368960169L653.7847272727273,121.98574713760993L654.5483636363637,114.45259885074759L655.8210909090909,114.48748504730955L658.8807272727272,110.41478800326104L664.4909090909091,109.07451145163722L668.8283636363636,106.07851424402921L670.1010909090909,105.09568809187216L670.3556363636363,103.36353329413205L672.6516363636364,98.93273817383383L673.4152727272727,99.737199722482L674.688,100.09332025518664L676.4749090909091,99.41607738038502L677.2385454545454,100.34851006459425L678.7709090909091,97.15939012966524L681.0669090909091,94.79397586357686L682.8487272727273,90.38412644055418L686.1629090909091,89.06549006887795L688.7134545454545,88.72949290496314L689.9861818181819,87.20857032128073L690.7549090909091,80.49303992004087L691.0094545454546,84.13941942210649L691.7730909090909,85.88095278962733L692.0276363636364,85.15868531013976L699.165090909091,84.16063227317548L699.6792727272727,78.12876572754163L700.6974545454545,75.96619487242707L700.952,74.64009872610134L702.2247272727273,76.91474105384245L702.4792727272727,77.9135588213143L705.2843636363637,78.90799829660625L707.0712727272728,82.92063876622716L707.5803636363636,83.0344145097365L707.834909090909,82.27263734220533L712.4269090909091,83.31500285986847L714.4632727272726,80.13337566167775L715.4865454545454,72.32080492692478L715.9956363636363,69.11846978365804L716.7592727272728,69.03652931337673L717.2683636363637,69.96467326984393L717.5229090909091,72.06481553639165L719.0552727272727,72.39214887661126L720.0734545454545,71.6626999372063L720.328,71.10129816278551L720.5825454545454,70.75075553785214L720.8421818181819,70.59764182146849L721.3512727272728,76.84551691106302L722.6239999999999,76.93749425086384L723.1330909090909,75.2228783531641L724.9200000000001,69.57982076189828L731.2938181818182,72.89321244781723L731.5483636363637,75.4203149531542L734.098909090909,72.88457533552871L734.3534545454545,71.12748564654123L736.1352727272728,69.94291012238862L736.6494545454544,71.47242220979682L736.9040000000001,68.87363970505058L737.6676363636363,67.15371679311201L739.2,68.2523033735416L740.9818181818181,71.0777661350091L744.0414545454546,71.56427331736862L745.8283636363636,82.99481399042097L746.0829090909091,79.2143475006979L747.8647272727274,74.48627146428612L748.378909090909,72.18838874416146L748.6334545454545,76.30053324649687L748.8879999999999,82.1415415388072L749.6516363636364,75.39643809578067L754.2385454545455,72.09135212637821L756.0254545454545,69.01290786673572L756.28,67.38768107701942L757.0436363636363,68.10787775576392L758.576,58.616928358003904L759.3396363636363,57.73809108573619L759.8487272727274,60.1688614540872L760.6123636363636,62.725121970552586L761.381090909091,62.98264592514051L763.6719999999999,64.54727049409381L764.9498181818182,61.198398196224986L765.9680000000001,62.80440407442907L766.2225454545455,63.92269926283928L766.9912727272726,52.49111955770338L767.2458181818181,53.50418878007656L767.5003636363637,50.631206449863825L768.7730909090909,54.85159318810013L769.7963636363637,58.57157270085693L770.0509090909092,57.74152316596882L771.0690909090908,58.97857118163021L772.3418181818182,62.53756884534206L772.5963636363637,64.94072312538734L772.8509090909091,65.89176514076823L773.3650909090909,62.08008749355174L775.656,63.85805144188734L775.9105454545454,64.96541153141456L775.9156363636364,65.72720279597962L777.1883636363636,66.96160576849677L778.461090909091,67.08107528860151L778.9752727272727,67.58482681378572L779.738909090909,80.17873699736273L780.248,78.82415309818673L780.757090909091,74.52911460616009L781.5207272727273,70.20780967278678L783.0530909090909,68.5521715991267L785.8581818181817,72.72647341402129L786.3672727272727,76.38773813000041L789.426909090909,72.24402149572052L789.6814545454545,70.49683903379614L792.2320000000001,69.74306080664172L794.528,75.15464330216705L795.0370909090909,74.79578142030965L795.5461818181818,71.39594974263333L797.0734545454546,67.42245726345988L798.6058181818182,69.30686846762808L798.8603636363637,70.41251768702216L800.1330909090909,69.49039613245458L800.9018181818182,70.23699336129073L801.1563636363636,69.8102482739656L802.1745454545454,69.41143305528864L805.2341818181818,68.19295302830841L805.7432727272727,64.84716802392724L805.9978181818182,62.82421739594391L808.0392727272726,63.82748498302098L808.5483636363635,62.95678928526696L809.0574545454546,63.24297310729299L810.8443636363637,64.37860385505415L812.6312727272727,63.21822066264195L813.3949090909091,58.67310741312138L813.6494545454545,53.73255762969073L814.4130909090909,55.802034577814744L814.9221818181818,57.71018137346413L815.1767272727274,59.19541202454062L815.690909090909,61.142198109167126L817.2181818181818,58.30209271360044L818.2363636363636,59.871865646803734L818.4909090909091,60.46899396638479L821.805090909091,61.816398099912846L822.3192727272727,63.81185590540233L823.0829090909092,62.106700834612035L824.8647272727272,62.68292503068563L825.3789090909091,72.9535050184113L825.888,73.11812573831932L827.4152727272728,68.25808386140443L828.4385454545454,59.42999236229702L829.9658181818182,59.74261899692345L830.4749090909091,61.282361170881565L832.0072727272727,61.777797384347416L832.7709090909091,60.82811253483419L833.5345454545455,63.07967253022223L834.0487272727272,63.142975637274155L836.0850909090909,59.89530242781895L838.1265454545454,57.919922933963825L839.3992727272727,58.96899089194806L840.4225454545455,53.374576353350584L841.6952727272728,58.81819923663759L844.7549090909091,59.924442269255444L845.2639999999999,61.59227189564439L849.3418181818181,61.669212569204596L849.856,67.84698208697704L851.1287272727272,68.11110062913953L853.1701818181817,66.71397399831142L853.4247272727272,62.65373951262342L854.952,61.4439407623507L856.2298181818182,60.75017127559207L856.9934545454545,60.619550508164004L858.0116363636363,61.2515673410308L858.2661818181818,61.39419019376975L858.5207272727273,61.157620350725736L858.7803636363636,63.14883357407182L859.7985454545455,60.14513149875752L860.5621818181819,58.81953628561826L860.8167272727272,59.61586117566782L861.5854545454546,59.60301474117838L861.84,45.079706571979955L862.0945454545455,47.55790917046111L863.3672727272727,51.19451140470907L863.8763636363635,55.42166594927088L866.1723636363637,57.99362456956281L867.7047272727274,59.35167178985579L870.2501818181818,58.69154284664072L874.333090909091,57.59930070798456L875.6058181818181,55.092571313906085L877.6472727272727,59.90254734933435L878.4109090909092,60.27162956150036L878.9200000000001,58.17249478235476L880.4523636363637,53.003780960322125L881.4705454545455,54.13309243982996L881.7250909090909,56.363662282079765L883.512,58.933680323793524L884.5301818181819,60.42214001245785L884.7847272727273,61.13165675472237L885.5483636363637,59.51321951670042L886.0574545454546,59.19010500547471L887.5898181818181,59.59418912411241L889.3767272727273,69.06532029264928L890.394909090909,65.55864491218432L890.904,65.02446196062725L892.1818181818182,62.750172448926186L896.0050909090909,64.7113125758012L896.7687272727273,63.53174665192582L898.2959999999999,61.77076502107363L899.5738181818182,59.23262946718944L902.888,62.10094131667711L903.9061818181818,61.96908002660082L905.6930909090909,57.766525752554855L907.48,57.744743498851825L910.5396363636364,57.53566862017393L913.5992727272727,58.23012087647214L914.872,55.90867660747096L917.4225454545455,58.82134232811891L919.4589090909091,58.37826099656959L919.7134545454546,57.19712705248712L920.7367272727272,56.75620236785603L921.2458181818182,54.88511346616825L921.7549090909091,55.3689942160647L922.5185454545455,55.32337295897139L922.7781818181818,55.82429471598998L924.050909090909,53.92966954754497L924.3054545454545,54.510086940263186L926.0923636363636,48.878495345976184L926.3469090909091,44.535619934858445L927.1105454545453,50.43385697955885L928.8923636363636,52.99277157409882L929.4065454545455,52.89481067173213L929.661090909091,53.22877732766633L929.9156363636364,56.758218101145225L931.9570909090909,57.35364967727105L932.9752727272727,59.12603923818073L933.9934545454546,57.87338632699926L935.7803636363636,53.85967272082646L937.0530909090909,58.0739002234048L940.6218181818182,55.54718853381197L940.8763636363636,55.40110836398361L941.645090909091,47.32461388202655L942.1541818181819,48.556771170125224L943.9359999999999,52.02476788007575L944.7047272727273,58.09753118259078L946.9956363636363,57.33054185852484L947.2501818181818,57.21999953139667L947.2552727272727,57.185156346146044L947.5098181818182,61.193764262233195L947.7643636363637,58.725775602794556L948.7825454545455,57.441301709777065L949.2916363636364,58.750221366775314L949.8007272727273,57.74161009279249L950.314909090909,57.114897363381466L951.0785454545454,65.32859750893778L951.3330909090909,68.22187441445367L952.0967272727273,66.63767010321774L954.6472727272727,65.00165113419627L956.1745454545454,63.556592320698684L957.4523636363635,67.50675368787356L959.4938181818181,64.15932537279151L959.7483636363637,63.45042476912953L961.021090909091,57.2594469224685L961.7847272727272,56.406812840093686L963.0625454545454,52.694087704056514L964.0807272727272,56.99969125879764L965.0989090909092,59.66871429141149L966.8858181818182,52.40208084757447L967.6494545454545,51.10790333808982L968.9272727272727,44.48093518467197L969.1818181818181,50.893674747167104L971.2181818181818,51.721013475342254L971.7323636363635,53.52921036903002L971.9869090909092,65.53343531232701L972.7505454545455,70.37972027830548L974.792,64.81354688866338L977.8516363636363,60.93017331031105L978.1061818181818,67.40355853164127L978.3607272727273,66.1466805735302L978.6152727272728,68.034444723291L981.9294545454545,65.64161853851986L987.5396363636363,67.55286885038446L988.3032727272727,62.059278128412586L988.8123636363637,59.20680322736714L989.3214545454546,58.59865996154421L990.0850909090909,57.463244272380884L990.3447272727273,58.790162472519526L990.8538181818183,59.12223840813934L991.6174545454545,58.39322940851998L991.872,57.60387171604575L996.2043636363636,56.12554574136373L998.5003636363637,54.59593652019112L1000.0327272727272,56.748471003023745L1001.050909090909,60.533989439970846L1001.3054545454546,62.50689934580085L1002.3287272727272,59.49273824029312L1002.5832727272726,65.68427930781175L1003.3469090909091,60.50971531195999L1005.8974545454546,53.281539414449L1006.1519999999999,51.96138275511441L1008.957090909091,51.9011194257962L1009.2116363636364,55.310119398286695L1009.7207272727273,54.28521936624463L1009.9752727272728,53.56317707429255L1010.738909090909,53.49884790606317L1010.9934545454545,53.45554376228157L1011.2479999999999,53.74689359579261L1012.7803636363636,53.45438615747526L1013.2894545454544,53.00349079205273L1013.7985454545455,52.330064945313225L1016.6036363636364,56.47335856946058L1017.3672727272726,56.35603829064659L1017.6218181818181,55.75170364066983L1017.6269090909091,55.28806691762259L1017.8814545454545,62.41176060511902L1018.8996363636363,59.01749592716932L1019.6632727272728,58.223281647210506L1023.232,56.90060328786436L1023.7410909090909,55.935674472718496L1025.0189090909091,55.924338310673306L1025.528,56.53567570701813L1026.5461818181818,55.64371266409035L1027.3149090909092,51.59361396209055L1027.5694545454546,52.09098199808166L1031.1381818181817,49.697621480898015L1033.1796363636363,49.204084252175086L1033.6887272727274,43.08877329411409L1034.1978181818183,45.49586263147536L1034.9614545454544,46.937396840248574L1035.4705454545453,48.07279244097415L1035.9847272727272,51.16205287269872L1038.2756363636365,51.8558923348586L1039.0392727272726,52.46255356719703L1039.5534545454545,59.96673668577264L1044.904,57.17656494958514L1045.9272727272728,54.29839807619609L1047.4545454545455,53.40446914356923L1048.2181818181818,52.53488147060531L1048.9869090909092,57.72531980699031L1050.514181818182,56.62682368683996L1051.2778181818182,54.76282544656798L1051.5374545454545,51.38638844975885L1052.810181818182,52.76991373613716L1053.3192727272726,50.91358176440966L1054.082909090909,51.559648636948246L1057.9112727272727,52.94530622762358L1058.9294545454545,52.652126918391836L1060.7163636363637,53.44013978739855L1060.9709090909091,53.323885008802755L1063.2618181818182,53.39533142697901L1064.5396363636364,51.63691476527802L1064.7941818181819,52.16695748620844L1065.0487272727273,52.64919265800711L1065.8123636363637,51.64148758521579L1067.090181818182,47.0502334602204L1068.362909090909,48.39601282338048L1069.1265454545455,48.251797258126324L1070.9134545454547,53.391837909652146L1071.9316363636362,53.46748078645182L1072.4407272727271,53.530124202961396L1074.4821818181817,50.53966543086793L1075.7549090909092,50.30726344753037L1077.0327272727272,52.18320672352513L1077.2872727272727,51.53436833676068L1078.56,52.61374705629971L1080.0923636363636,53.69553594240917L1081.8741818181818,53.28080339916364L1083.152,52.382133384491304L1084.4247272727273,52.442766858198304L1084.6792727272727,51.56197914013217L1086.2116363636364,54.71389202953384L1087.9985454545454,53.23048143576029L1088.2530909090908,53.358743406910726L1088.762181818182,60.21880966497393L1089.7803636363637,57.82713124687125L1090.7985454545453,56.661971719092385L1091.8218181818181,65.34248304699136L1094.626909090909,62.60733641910412L1096.1541818181818,58.154813783280844L1097.432,60.70453599724124L1098.1956363636364,60.65461080289021L1099.722909090909,57.80255263674131L1102.528,54.2098111119631L1103.2967272727274,52.66069557165212L1105.0785454545453,51.440983272057125L1105.8421818181819,50.2394329364231L1108.3927272727274,49.78353902321712L1110.6887272727272,54.13945657710506L1110.9432727272726,56.313929628081524L1111.7069090909092,56.11321989288228L1112.9847272727272,50.32233534482009L1114.2574545454545,48.385517129300034L1117.8261818181818,46.69126178237414L1118.0807272727272,45.718741832829835L1119.8676363636364,51.20794964515264L1121.1403636363636,50.324485696182315L1122.418181818182,51.900786887791234L1122.9272727272728,50.461763969499664L1123.1818181818182,46.5922697298002L1124.709090909091,47.483641367798754L1127.005090909091,48.38736055753967L1127.7687272727273,48.55180553906915L1128.0283636363636,36.84244695980511L1128.282909090909,41.06257044861054L1128.5374545454545,44.30869455742994L1129.5556363636363,45.159825832025035L1131.8516363636365,49.989006294669565L1132.1061818181818,49.29325424066875L1132.6152727272727,49.78763661533501L1134.9112727272727,47.78543708283754L1135.1658181818182,47.45704272289146L1139.2436363636364,49.014015006958914L1140.776,42.831858988639304L1141.7941818181819,43.6770267701369L1143.8356363636362,45.05621606208224L1145.1083636363637,46.40585321679469L1146.1316363636365,47.113762840055536L1147.658909090909,48.83189406766948L1149.7003636363636,52.219022804237646L1150.7185454545454,54.80469665262427L1151.7367272727272,54.44248457316212L1152.250909090909,51.92685132850299L1153.7781818181818,49.16717785809266L1155.050909090909,47.941351747703706L1156.3287272727273,52.8895979804407L1157.6014545454545,49.65550422727363L1158.365090909091,48.92894346099152L1158.370181818182,48.42261654268137L1160.152,48.07185855531406L1161.938909090909,49.62095604227898L1163.9752727272728,50.764619079912755L1164.7440000000001,58.626669175220194L1165.5076363636363,54.37408389149584L1166.2712727272726,51.67338443912373L1166.525818181818,50.52341986801988L1168.3127272727272,47.23621101172082L1168.8218181818183,46.05648435294906L1171.3723636363636,33.453079232596885L1173.4087272727274,39.35025663046762L1174.6865454545455,43.263421023735205L1175.9592727272727,43.96315792762859L1176.728,45.443145222663816L1178.7643636363637,46.37025503132558L1184.12,44.35878576471114L1185.6472727272728,46.25389561543168L1186.416,47.45915555107748L1189.9847272727272,49.5478654897371L1191.512,48.19319294884945L1192.0261818181818,48.91705601700104L1192.5352727272727,39.846256337473264L1194.317090909091,41.805756843144366L1195.0807272727272,44.37075352216821L1195.8494545454546,41.509668022391615L1196.8676363636364,45.25523263161699L1197.1221818181818,47.67661259033403L1197.3767272727273,48.99106526593713L1197.8858181818182,49.38385591204806L1199.1636363636362,47.40929081995621L1200.9454545454546,46.974267673791715L1201.205090909091,47.99848105882037L1201.714181818182,50.96925908983749L1202.7323636363635,49.68142589291184L1203.4959999999999,49.051598733101805L1203.7505454545453,47.44558243100089L1204.2596363636364,47.763643792318675L1206.0465454545456,46.16177264568554L1207.8334545454545,43.22689313286629L1208.3425454545454,44.03641997062846L1211.6567272727273,44.779223364657L1212.4203636363636,48.66284651879432L1213.184,48.64168623824738L1215.48,47.3923981065849L1216.4981818181818,47.61563600750523L1217.0123636363637,46.61611455904878L1220.581090909091,49.898859076338674L1221.853818181818,51.07412906663078L1222.1083636363635,51.24022356701992L1222.8770909090908,54.84214550384868L1223.8952727272726,49.549022320952666L1224.1498181818183,48.22244068083549L1224.4043636363638,49.54301668788687L1224.9134545454547,48.992295608434944L1225.9367272727272,47.17435463778814L1226.1912727272727,44.53060710085441L1226.4458181818181,42.49806424497654L1228.7367272727274,44.88434991062218L1230.5236363636363,40.97627811487473L1231.5418181818181,42.12135841056163L1231.8014545454546,43.108167441134476L1233.3287272727273,45.25041182831722L1235.1156363636364,53.925815278808734L1235.370181818182,49.49185280364867L1236.8974545454546,48.076539239007595L1237.661090909091,47.33570847770892L1239.448,42.32472054117043L1240.9752727272728,43.53078230916583L1241.4894545454545,44.5400602945906L1241.744,41.96822479758176L1242.5076363636365,36.05181556036707L1243.2712727272728,38.37470977522946L1244.034909090909,41.56240937232855L1246.84,42.58013943776145L1247.6087272727273,48.30731661720273L1249.3905454545454,49.131540738254664L1250.6683636363637,46.93659489749805L1251.432,47.56890967509319L1251.6865454545455,45.58849241150094L1251.941090909091,43.67855681719504L1252.7047272727273,43.53626089917729L1252.9592727272727,43.57942699405165L1254.4916363636362,44.65490800529096L1255.0007272727273,43.89866296501772L1255.5098181818182,42.083231869919814L1256.7876363636365,42.97536525831551L1258.3149090909092,44.755709211807094L1259.0785454545453,46.11238049423614L1259.5927272727272,58.512882841996245L1260.101818181818,57.063695614288186L1260.610909090909,55.97997873220918L1262.3978181818181,51.29856130271338L1264.4341818181817,49.13378877026441L1264.9432727272726,47.8483130348863L1265.4523636363638,46.88070829101347L1265.4574545454545,46.1954487894163L1265.712,44.42522381910423L1267.4938181818181,47.49991412100788L1267.7483636363636,47.92112572979579L1271.8312727272728,52.74358452878635L1272.5949090909091,51.13876435363565L1275.1454545454546,51.13979270309058L1276.6727272727273,49.7213045991268L1279.7323636363637,48.84343616856716L1281.010181818182,54.1537889738674L1281.2647272727274,49.84284156613872L1282.792,45.02051317831951L1283.3010909090908,43.58105041631331L1284.0698181818182,41.571357522515775L1286.8698181818181,42.695016218054924L1287.1294545454546,27.437748367196473L1287.6385454545455,32.599426308581485L1288.6567272727273,36.0686762263776L1289.1658181818182,39.25356785185954L1290.189090909091,17.340208892934L1291.2072727272728,28.333087627131356L1292.48,35.86052096672614L1299.1134545454545,39.44966773806147L1299.6225454545456,42.948209733746154L1302.168,44.48504799933891L1302.173090909091,45.328497727160055L1307.7781818181818,46.614719763337746L1308.5469090909091,48.104059130729624L1309.3105454545455,47.92664002389222L1309.8196363636364,43.000586287062625L1310.3287272727273,40.58046540860122L1315.429818181818,38.164472426978705L1317.9803636363638,37.73234822891471L1318.2349090909092,42.56043166462185L1318.744,43.293794898542394L1319.2530909090908,43.52577922516986L1320.0167272727272,45.82228571692007L1322.3127272727272,44.78275325499216L1323.0763636363636,44.96993604390408L1323.330909090909,45.36464428791916L1324.6087272727273,45.9349087318426L1325.1178181818182,46.33950885993338L1325.626909090909,45.91737719096023L1326.6501818181819,44.717330833396936L1327.1592727272728,42.73508600003816L1328.1774545454546,43.66989931175943L1328.6865454545455,44.088019132510404L1333.0240000000001,31.486618297688036L1334.0421818181817,36.09255414178762L1335.5694545454546,39.53188496864868L1336.338181818182,37.69597757209812L1337.3563636363638,39.504079740613065L1338.8887272727272,41.118909026008645L1339.906909090909,43.65522325651419L1340.1614545454545,45.77140849004104L1340.6705454545454,48.317142801322106L1340.925090909091,49.4869831239751L1343.7301818181818,50.31701259499932L1345.7716363636364,45.72003710245451L1348.3221818181817,29.574067716018163L1350.8676363636364,33.82923566245889L1351.1221818181818,37.460680602021L1351.1272727272728,39.696759424334026" style="fill: none;" fill="none"></path></g></g></g></g><g opacity="0.2"><g><g><g><path stroke="rgb(51, 187, 238)" stroke-width="2px" d="M168.0661818181818,380.81551846590907L169.33890909090908,372.745717828924L170.87127272727272,374.8579545454545L171.12581818181818,373.4522372159091L172.6530909090909,375.15238120339137L172.90763636363636,375.53963331742716L175.45818181818183,366.3789374611594L175.96727272727276,368.5290888006037L177.75418181818182,350.4921875L178.26327272727272,352.6677024147727L180.30472727272726,360.9346590909091L181.57745454545454,355.1630075628107L185.14618181818184,353.3402293812145L185.40072727272727,355.46789342706853L188.46036363636364,345.9625667225231L188.46545454545458,346.0580069802024L191.52,340.5405141657049L192.03418181818182,298.4137073863636L193.05236363636365,321.3068181818182L194.07054545454545,334.66793129660863L194.58472727272726,335.49656191739166L195.34836363636364,333.53441481156784L195.85745454545454,330.67826704545456L197.13018181818182,328.64342845569956L197.63927272727273,331.32543043656784L197.6443636363636,331.2851624922319L200.18981818181817,328.5362215909091L200.95854545454546,291.3181818181818L201.97672727272726,324.8412454778498L202.4858181818182,322.7222102772106L202.7403636363636,320.5370205965909L203.504,325.2745180996982L208.85963636363635,318.2945667613636L209.11418181818183,317.37964768843216L211.91927272727273,330.0088778409091L213.19709090909092,321.84232954545456L213.45163636363637,312.87251420454544L213.7061818181818,318.9861817793413L216.5112727272727,298.6814630681818L218.54763636363637,313.30081870339137L219.31636363636366,308.9900568181818L219.82545454545453,332.9094772338867L221.0981818181818,321.6415127840909L222.12145454545453,316.46812785755503L222.63054545454546,290.2471590909091L225.1810909090909,313.8833964954723L226.70836363636363,304.08128981156784L226.9629090909091,307.1539431485263L230.2770909090909,311.2659801136364L230.53163636363638,310.06107954545456L231.04072727272725,309.57420349121094L232.5730909090909,295.81642497669566L234.10036363636362,307.52969013560903L234.86909090909091,280.60795454545456L236.1418181818182,307.345346624201L237.16,314.46675872802734L237.67418181818184,308.7223011363636L238.1832727272727,333.802170493386L239.20145454545457,312.8916022560813L239.456,312.4039417613636L240.47927272727273,306.8200329867276L240.7338181818182,299.61860795454544L242.2610909090909,303.97931254993784L247.61672727272727,295.20063920454544L248.12581818181818,297.4318493929776L248.38036363636365,300.1159432151101L248.63490909090908,304.5720880681818L249.39854545454546,305.5821859186346L249.65818181818182,307.02058826793325L252.9723636363636,253.83238636363637L253.2269090909091,269.3622159090909L253.73600000000002,289.1761363636364L254.2450909090909,299.0383834838867L254.75418181818182,295.70268110795456L255.77236363636362,307.6959915161133L256.032,271.2365056818182L257.05018181818184,297.95847043124115L257.55927272727274,301.7224773060192L258.57745454545454,302.41775304620916L259.85527272727273,287.10102982954544L260.36436363636363,293.28163632479584L261.3825454545455,302.69779829545456L264.9563636363636,300.55889060280543L265.21090909090907,265.88139204545456L265.9745454545454,293.3263494318182L266.4836363636364,299.5738948475231L267.5018181818182,308.3742710460316L268.0109090909091,308.23150287974966L271.8392727272727,314.5237614024769L272.09381818181816,311.6676136363636L274.1301818181818,304.61680117520416L274.1352727272727,304.8591932816939L275.408,308.8295080011541L275.66254545454547,306.4016647338867L276.68072727272727,304.33100336248225L277.44945454545456,286.7663352272727L278.97672727272726,294.9137954711914L279.2312727272727,296.0373757102273L280.25454545454545,302.1408455588601L280.76363636363635,292.1214488636364L282.54545454545456,294.0553561123935L283.05454545454546,300.3002867265181L284.5869090909091,296.9410511363636L286.3738181818182,300.38082261518997L286.62836363636364,263.7393465909091L288.66472727272725,303.9325076016513L290.45163636363634,301.96147017045456L290.9607272727273,296.494704506614L294.784,295.1263788396662L297.33454545454543,297.5913522893732L297.84363636363634,297.92290912974966L298.3527272727273,302.7830408269709L298.60727272727274,303.9026988636364L298.8669090909091,300.421875L299.1214545454546,293.72798295454544L299.6305454545454,300.2210582386364L299.88509090909093,298.70813404430044L300.1396363636364,293.05859375L301.41236363636364,306.0447443181818L302.6901818181818,293.9957386363636L307.5316363636364,309.47693287242544L309.3185454545455,303.9918635975231L310.0821818181818,301.67148867520416L310.3367272727273,304.27766141024506L310.8458181818182,305.55394606156784L311.10545454545456,288.1051136363636L311.61454545454546,272.03977272727275L313.14181818181817,299.17226132479584L316.9650909090909,305.9778053977273L316.97018181818186,305.6836402199485L317.4792727272727,281.4112215909091L318.2429090909091,282.4286408857866L320.0298181818182,303.2327866987749L320.28436363636365,315.1484375L322.5752727272727,301.14486763694066L323.344,278.4659090909091L325.38036363636365,305.56885043057525L326.144,304.9290084838867L326.40363636363634,297.7443181818182L329.2087272727273,306.2183671431108L330.48145454545454,306.0447443181818L331.49963636363634,309.2280037619851L332.5229090909091,288.9083806818182L335.5825454545455,262.6683238636364L336.0916363636364,285.7844772338867L337.6189090909091,300.3029015280984L338.38254545454544,303.5680042613636L338.6421818181818,286.2308238636364L339.6603636363636,298.0120738636364L339.9149090909091,296.5394176136364L341.44218181818184,312.3370028409091L346.0341818181818,296.9410511363636L346.5432727272727,305.0071910511364L347.0523636363636,302.9655539772727L349.3483636363636,290.9356363469904L350.88072727272726,342.7272727272727L354.1949090909091,280.3401988636364L358.01818181818186,307.7584852738814L358.78181818181815,309.8937322443182L361.0778181818182,296.4055397727273L361.5869090909091,299.0064829046076L362.85963636363635,311.221267006614L363.3738181818182,305.64311079545456L363.88290909090904,296.2047230113636L366.43345454545454,309.92720170454544L368.2152727272727,302.6828939264471L368.98400000000004,304.0794594504617L369.4930909090909,310.4627130681818L371.5294545454545,308.45454545454544L371.78400000000005,310.7427583174272L376.1214545454545,308.6553622159091L377.1396363636363,309.19087357954544L379.4356363636364,306.5802556818182L379.6901818181818,306.2677868929776L380.1992727272727,310.66352982954544L381.2174545454546,312.3147770274769L383.25890909090907,296.9410511363636L386.064,299.9245397394354L387.0821818181818,305.55786826393825L387.3418181818182,307.62225411155003L388.1054545454545,300.0649545842951L388.61454545454546,305.18787384033203L389.12363636363636,305.7769886363636L391.41963636363636,317.5582386363636L391.67418181818186,304.17045454545456L392.43781818181816,309.8937322443182L392.6923636363636,308.51416293057525L393.456,312.4708806818182L393.9701818181818,284.22265625L394.4792727272727,288.3059303977273L395.752,298.131047335538L397.28436363636365,305.6878239024769L398.5570909090909,309.1239346590909L398.81163636363635,309.6743503917347L401.61672727272725,303.0324928977273L403.91272727272724,297.3693556352095L404.4218181818182,300.00115342573685L404.67636363636365,301.5598366477273L406.2087272727273,299.8863636363636L407.48145454545454,301.6458636197177L408.4996363636364,311.2050552368164L408.75418181818185,308.49925856156784L411.55927272727274,301.7120180996982L413.34618181818183,309.5255681818182L414.36436363636363,309.95387268066406L415.3876363636364,301.7606534090909L415.8967272727273,312.8055752840909L416.9149090909091,311.6341441761364L420.4836363636363,310.65019434148616L420.9927272727273,311.6006747159091L422.01599999999996,308.8561789772727L422.2705454545454,312.0959181352095L422.77963636363637,316.4490398060192L423.5432727272727,313.8096590909091L424.312,306.0447443181818L425.83927272727277,302.9846420288086L426.8574545454545,312.6900010542436L427.88072727272726,291.13959087025034L429.408,307.05614956942475L430.17163636363637,313.69800706343216L431.19490909090905,305.4422940340909L431.95854545454546,305.0503352772106L433.23127272727277,314.2112926136364L434,270.96875L435.01818181818186,259.1875L437.05963636363634,260.5262784090909L438.8414545454545,241.43535059148616L439.35563636363634,239.68578685413706L439.61018181818184,261.32954545454544L441.9010909090909,233.29547327215022L444.19709090909095,217.3028238469904L446.23854545454543,225.71803977272725L447.7658181818182,225.92617797851562L448.5345454545454,223.7765495993874L451.33454545454543,219.26758575439453L451.58909090909094,216.52518185702237L452.3578181818182,219.82741477272725L453.8850909090909,212.98474051735616L454.65381818181817,217.44872977516866L455.4174545454546,200.28125L461.0276363636364,201.6200284090909L465.61454545454546,197.56551707874644L466.12363636363636,198.43676896528763L466.3781818181818,198.03199768066406L466.63272727272727,201.2793197631836L468.67418181818186,202.72922723943537L470.46109090909096,169.89098011363637L470.71563636363635,182.07386363636363L471.22472727272725,187.4825807051225L471.4792727272727,195.86328125L474.53890909090904,196.75571302934128L475.048,197.5702237215909L477.59854545454544,194.0337045842951L478.3621818181818,203.9108560735529L479.1309090909091,199.0886389992454L480.1490909090909,192.38245738636363L481.16727272727275,190.17347301136363L482.6996363636364,180.73508522727272L482.95418181818184,181.44918753884056L483.2087272727273,177.85671164772728L483.71781818181813,190.01736935702237L484.48145454545454,193.31960227272725L487.2865454545455,194.35715553977275L488.5643636363637,220.36292613636363L489.328,182.4754971590909L489.5825454545454,187.7503363869407L491.8785454545455,180.73508522727272L492.6421818181818,186.94706934148616L495.19272727272727,177.78977272727272L495.9563636363636,176.0940739024769L496.72,182.5795662619851L497.7432727272727,202.69105113636363L498.50690909090906,182.1408025568182L500.5483636363636,189.57442196932706L503.3483636363636,178.64167508212003L504.37163636363636,174.30894886363637L504.88072727272726,182.18107050115412L510.4909090909091,186.62571022727272L512.5272727272727,184.14295612681997L512.786909090909,184.11550071022728L513.5505454545455,206.26103973388672L515.0778181818182,180.0507916537198L515.3323636363637,181.51168129660866L516.8647272727272,172.09996448863637L518.9010909090908,183.8142755681818L519.6698181818182,166.5440340909091L520.688,180.8880511197177L521.7061818181818,182.8528130271218L522.2203636363636,190.37428977272725L522.7294545454546,170.73896026611328L524.2567272727273,174.427922335538L526.2981818181818,184.91196927157316L528.0850909090909,184.0932748967951L528.5941818181818,181.80610795454547L529.3578181818182,173.7734375L529.8669090909091,175.91548295454547L530.1214545454545,175.5138494318182L530.376,174.7254867553711L531.9083636363637,178.86079545454547L532.9265454545455,181.04101701216265L533.1810909090909,180.1326349431818L534.7134545454546,168.1505681818182L536.7498181818182,169.16798747669566L537.0043636363637,172.41034143621272L537.7730909090909,153.82563920454547L538.2821818181818,169.75710227272728L540.3236363636363,175.6262858997692L543.1236363636364,174.33326651833275L545.4196363636364,172.36772017045453L545.9287272727273,172.67574379660866L547.4610909090909,143.51704545454547L547.7156363636363,148.81855565851384L548.7338181818182,161.7244318181818L549.4974545454545,176.38405539772728L551.2843636363637,173.31453982266513L555.6218181818182,172.88545088334516L556.64,142.5799005681818L558.4218181818181,144.0525568181818L559.6996363636364,138.02805397727272L560.2087272727273,146.23931537974966L562.2501818181818,132.8068181818182L563.2683636363636,133.3870426524769L565.3098181818182,126.38068181818181L566.5825454545454,129.3259943181818L566.837090909091,130.73171164772728L567.0916363636364,130.1888788396662L570.9149090909091,130.330078125L571.9381818181819,123.43536931818181L573.72,130.56750210848722L574.4887272727273,138.1619318181818L575.2523636363636,132.59266593239525L576.7796363636363,127.93858059969816L577.0341818181818,127.54086927934125L577.0392727272728,127.364370172674L577.8029090909091,129.05823863636363L579.0756363636364,127.2508877840909L580.3534545454545,166.2762784090909L580.608,144.0525568181818L583.1534545454546,123.59147297252309L583.1585454545454,123.77712388472125L584.1767272727272,110.18146306818181L584.4312727272727,113.04650115966797L585.4494545454546,125.72619698264381L585.9585454545454,124.82278303666547L587.2363636363636,127.2508877840909L588,117.20037495006216L589.0181818181818,122.92417560924184L589.2727272727273,121.80660941384056L589.5323636363636,65.33238636363637L589.786909090909,103.88920454545453L590.296,112.5243252840909L592.8465454545454,122.76598011363637L593.3556363636363,116.00514914772728L595.3919999999999,121.07028128884056L595.3970909090909,120.81350777365944L596.1607272727273,125.22049435702237L604.570909090909,117.321701743386L606.8669090909091,121.26351512562144L609.4174545454546,115.13494318181819L610.9498181818182,93.98224431818181L611.2043636363636,107.10227272727272L614.0094545454546,129.59375L614.7730909090909,117.34392755681819L616.8145454545455,115.13180541992188L619.36,113.63561595569956L621.146909090909,113.2606534090909L621.9105454545454,107.70472301136363L622.6741818181819,113.0172153819691L623.952,118.81658380681819L625.2247272727274,117.33660611239347L625.4792727272727,114.62610279430044L626.248,132.5390625L626.5025454545454,120.7578125L628.2843636363637,111.02944322065875L630.3258181818182,109.9939817948775L631.0894545454545,104.4247159090909L633.3854545454545,98.96239540793678L635.6814545454545,99.60511363636363L638.2269090909091,109.93593319979581L642.3098181818182,104.96022727272728L644.0916363636363,108.63585385409269L645.624,93.82169550115412L647.4109090909091,107.33315970680931L647.92,129.7276278409091L648.9381818181819,115.357985756614L650.4654545454546,108.35188640247691L651.2341818181818,99.51594890247691L653.7847272727273,144.3203125L654.5483636363637,103.15287642045453L655.8210909090909,114.539814342152L658.8807272727272,104.30574243718928L664.4909090909091,107.064096624201L668.8283636363636,101.58451843261719L670.1010909090909,103.62144886363637L670.3556363636363,100.76530109752309L672.6516363636364,92.286545493386L673.4152727272727,100.94389204545453L674.688,100.6275010542436L676.4749090909091,98.40021306818181L677.2385454545454,101.7471590909091L678.7709090909091,92.37571022727272L681.0669090909091,91.24585446444425L682.8487272727273,83.76935230601919L686.1629090909091,87.08753551136363L688.7134545454545,88.2254971590909L689.9861818181819,84.9271864457564L690.7549090909091,70.41974431818181L691.0094545454546,89.60898867520419L691.7730909090909,88.4932528409091L692.0276363636364,84.0752840909091L699.165090909091,82.66355271772906L699.6792727272727,69.0809659090909L700.6974545454545,72.72233858975497L700.952,72.650954506614L702.2247272727273,80.32670454545453L702.4792727272727,79.41178547252309L705.2843636363637,80.39965750954369L707.0712727272728,88.93959947065875L707.5803636363636,83.205078125L707.834909090909,81.1299715909091L712.4269090909091,84.87855113636363L714.4632727272726,75.36093486439097L715.4865454545454,60.60194882479581L715.9956363636363,64.31496706875888L716.7592727272728,68.91361860795453L717.2683636363637,71.35688920454547L717.5229090909091,75.21502893621272L719.0552727272727,72.88314888694069L720.0734545454545,70.56852652809837L720.328,70.25919550115412L720.5825454545454,70.22494160045278L720.8421818181819,70.36797124689275L721.3512727272728,86.21732954545453L722.6239999999999,77.07546026056463L723.1330909090909,72.650954506614L724.9200000000001,61.115234375L731.2938181818182,77.86329997669566L731.5483636363637,79.21096871115944L734.098909090909,69.0809659090909L734.3534545454545,68.49185111305931L736.1352727272728,68.16604683615944L736.6494545454544,73.7666903409091L736.9040000000001,64.97546594793147L737.6676363636363,64.57383242520419L739.2,69.900183244185L740.9818181818181,75.31596027721059L744.0414545454546,72.2940340909091L745.8283636363636,100.140625L746.0829090909091,73.54364776611328L747.8647272727274,67.39415740966797L748.378909090909,68.74156466397372L748.6334545454545,82.46875L748.8879999999999,90.90305397727272L749.6516363636364,65.27878293124112L754.2385454545455,67.1337231722745L756.0254545454545,64.39524147727272L756.28,64.94984089244497L757.0436363636363,69.1881727738814L758.576,44.38050426136362L759.3396363636363,56.419835177334875L759.8487272727274,63.815017006614006L760.6123636363636,66.55951274525034L761.381090909091,63.368931857022375L763.6719999999999,66.89420734752309L764.9498181818182,56.17508974942294L765.9680000000001,65.21341289173472L766.2225454545455,65.60014204545453L766.9912727272726,35.34375L767.2458181818181,55.02379261363638L767.5003636363637,46.321732954545475L768.7730909090909,61.182173295454525L769.7963636363637,64.1515419699929L770.0509090909092,56.49644886363638L771.0690909090908,60.834143205122494L772.3418181818182,67.8760653409091L772.5963636363637,68.54545454545453L772.8509090909091,67.31832816384056L773.3650909090909,56.36257102272729L775.656,66.52499736439097L775.9105454545454,66.6264516657049L775.9156363636364,66.86988969282672L777.1883636363636,68.81321022727272L778.461090909091,67.26027956875888L778.9752727272727,68.3404541015625L779.738909090909,99.06960227272728L780.248,76.79227724942294L780.757090909091,68.08655686811969L781.5207272727273,63.72585227272729L783.0530909090909,66.06871448863637L785.8581818181817,78.98792613636363L786.3672727272727,81.8796352039684L789.426909090909,66.02844654430044L789.6814545454545,67.8760653409091L792.2320000000001,68.6123934659091L794.528,83.27201704545453L795.0370909090909,74.25748859752309L795.5461818181818,66.2962022261186L797.0734545454546,61.462218544699944L798.6058181818182,72.1334852738814L798.8603636363637,72.07099151611328L800.1330909090909,68.10721380060369L800.9018181818182,71.35688920454547L801.1563636363636,69.17013064297763L802.1745454545454,68.81321022727272L805.2341818181818,66.36523298783735L805.7432727272727,59.828490517356194L805.9978181818182,59.78979145396841L808.0392727272726,65.33238636363637L808.5483636363635,61.65074573863638L809.0574545454546,63.67224884033203L810.8443636363637,66.08204997669566L812.6312727272727,61.47764587402344L813.3949090909091,51.85543753884057L813.6494545454545,46.321732954545475L814.4130909090909,58.90625L814.9221818181818,60.5724015669389L815.1767272727274,61.423258001154124L815.690909090909,64.06237723610619L817.2181818181818,54.04193462025034L818.2363636363636,62.22652504660865L818.4909090909091,61.36468644575641L821.805090909091,63.83750430020419L822.3192727272727,66.80504261363637L823.0829090909092,59.548968228426844L824.8647272727272,63.54726132479581L825.3789090909091,88.359375L825.888,73.36505681818181L827.4152727272728,60.96802104603159L828.4385454545454,46.18785511363638L829.9658181818182,60.21155894886362L830.4749090909091,63.59197443181819L832.0072727272727,62.520951704545475L832.7709090909091,59.403585260564626L833.5345454545455,66.45701252330434L834.0487272727272,63.23793029785156L836.0850909090909,55.02379261363638L838.1265454545454,54.95685369318181L839.3992727272727,60.542592828924L840.4225454545455,44.982954545454525L841.6952727272728,66.98363356156781L844.7549090909091,61.58380681818181L845.2639999999999,64.09401633522728L849.3418181818181,61.784623579545475L849.856,77.11363636363637L851.1287272727272,68.50727844238281L853.1701818181817,64.61828405206853L853.4247272727272,56.56338778409091L854.952,59.62924263694068L856.2298181818182,59.709517045454525L856.9934545454545,60.423619357022375L858.0116363636363,62.19959259033203L858.2661818181818,61.60812447287818L858.5207272727273,60.80276558615943L858.7803636363636,66.1356534090909L859.7985454545455,55.63957838578656L860.5621818181819,56.83114346590909L860.8167272727272,60.81034851074219L861.5854545454546,59.58374508944425L861.84,23.29474431818181L862.0945454545455,51.27521306818181L863.3672727272727,56.649414756081306L863.8763636363635,61.76239776611328L866.1723636363637,61.8515625L867.7047272727274,61.38874262029475L870.2501818181818,57.70134943181819L874.333090909091,55.9609375L875.6058181818181,51.3324772227894L877.6472727272727,67.11751140247691L878.4109090909092,60.82525287974966L878.9200000000001,55.02379261363638L880.4523636363637,45.25071022727271L881.4705454545455,55.82705965909091L881.7250909090909,59.709517045454525L883.512,62.78870738636362L884.5301818181819,62.654829545454525L884.7847272727273,62.19593186811969L885.5483636363637,57.08556365966797L886.0574545454546,58.70543323863638L887.5898181818181,60.20031530206853L889.3767272727273,83.27201704545453L890.394909090909,60.298631841486156L890.904,64.2231875332919L892.1818181818182,59.338738181374275L896.0050909090909,67.65302276611328L896.7687272727273,61.76239776611328L898.2959999999999,59.12929257479581L899.5738181818182,55.42542613636362L902.888,66.4034090909091L903.9061818181818,61.771288091486156L905.6930909090909,51.462694341486156L907.48,57.71207011829721L910.5396363636364,57.22205630215731L913.5992727272727,59.27179926091975L914.872,52.42651020396841L917.4225454545455,63.19034090909091L919.4589090909091,57.71363899924537L919.7134545454546,55.42542613636362L920.7367272727272,56.09481534090909L921.2458181818182,52.07848011363638L921.7549090909091,56.09481534090909L922.5185454545455,55.25494107333097L922.7781818181818,56.57567735151813L924.050909090909,51.087731794877506L924.3054545454545,55.380713029341244L926.0923636363636,40.431107954545475L926.3469090909091,38.02130681818181L927.1105454545453,59.28121254660865L928.8923636363636,56.83114346590909L929.4065454545455,52.74786931818181L929.661090909091,53.72972731156781L929.9156363636364,62.05237926136362L931.9570909090909,58.24679704145954L932.9752727272727,61.784623579545475L933.9934545454546,55.99440696022729L935.7803636363636,47.83910231156781L937.0530909090909,64.39524147727272L940.6218181818182,51.75712099942294L940.8763636363636,55.18198810924185L941.645090909091,35.20987215909091L942.1541818181819,50.40500710227271L943.9359999999999,57.22676294500178L944.7047272727273,67.20667613636363L946.9956363636363,56.180057872425444L947.2501818181818,57.054186040704906L947.2552727272727,57.132891568270594L947.5098181818182,67.20667613636363L947.7643636363637,55.02379261363638L948.7825454545455,55.51459087025034L949.2916363636364,60.71360085227271L949.8007272727273,56.22869318181819L950.314909090909,56.1748282692649L951.0785454545454,77.64914772727272L951.3330909090909,72.56178977272728L952.0967272727273,64.26136363636363L954.6472727272727,62.54762268066406L956.1745454545454,61.38900410045279L957.4523636363635,73.43199573863637L959.4938181818181,59.138182900168694L959.7483636363637,62.38707386363638L961.021090909091,47.9729801524769L961.7847272727272,55.127861716530525L963.0625454545454,47.125L964.0807272727272,63.45809659090909L965.0989090909092,63.67224884033203L966.8858181818182,41.50213068181819L967.6494545454545,49.16663707386362L968.9272727272727,34.540482954545475L969.1818181818181,60.51278409090909L971.2181818181818,52.962021567604744L971.7323636363635,56.24150570956144L971.9869090909092,83.53977272727272L972.7505454545455,77.64914772727272L974.792,56.46428680419922L977.8516363636363,55.10511294278231L978.1061818181818,77.11363636363637L978.3607272727273,64.26136363636363L978.6152727272728,70.86609094793147L981.9294545454545,62.05237926136362L987.5396363636363,70.41974431818181L988.3032727272727,53.818892045454525L988.8123636363637,54.928090875799L989.3214545454546,57.68644506281072L990.0850909090909,55.76012073863638L990.3447272727273,60.78053977272729L990.8538181818183,59.62035231156781L991.6174545454545,57.29971590909091L991.872,56.419835177334875L996.2043636363636,53.908056779341244L998.5003636363637,52.30152268843219L1000.0327272727272,59.97727272727271L1001.050909090909,66.2122670953924L1001.3054545454546,65.46626420454547L1002.3287272727272,54.97149658203125L1002.5832727272726,74.9715909090909L1003.3469090909091,52.74786931818181L1005.8974545454546,42.43927556818181L1006.1519999999999,49.98114776611328L1008.957090909091,51.81072443181819L1009.2116363636364,60.423619357022375L1009.7207272727273,52.74786931818181L1009.9752727272728,52.48011363636362L1010.738909090909,53.40235415371981L1010.9934545454545,53.39058754660865L1011.2479999999999,54.183918346058256L1012.7803636363636,53.015625L1013.2894545454544,52.327147743918694L1013.7985454545455,51.31992617520419L1016.6036363636364,62.68829900568181L1017.3672727272726,56.180057872425444L1017.6218181818181,54.845201665704906L1017.6269090909091,54.59261183305218L1017.8814545454545,73.09730113636363L1018.8996363636363,53.92609891024503L1019.6632727272728,57.03196022727271L1023.232,54.916585748845876L1023.7410909090909,54.48828125L1025.0189090909091,55.907334067604744L1025.528,57.45268180153588L1026.5461818181818,54.305768099698156L1027.3149090909092,45.51846590909091L1027.5694545454546,52.83703405206853L1031.1381818181817,46.107580705122494L1033.1796363636363,48.46377840909091L1033.6887272727274,33.915806857022375L1034.1978181818183,49.10649663751775L1034.9614545454544,49.09969815340909L1035.4705454545453,49.775885842063225L1035.9847272727272,55.79594352028588L1038.2756363636365,52.89665152809838L1039.0392727272726,53.372545415704906L1039.5534545454545,71.22301136363637L1044.904,52.991307345303625L1045.9272727272728,49.98114776611328L1047.4545454545455,52.063575744628906L1048.2181818181818,51.23049996115943L1048.9869090909092,65.51097731156781L1050.514181818182,54.979079506614006L1051.2778181818182,51.96682808615943L1051.5374545454545,46.321732954545475L1052.810181818182,54.845201665704906L1053.3192727272726,48.12908380681819L1054.082909090909,52.52874894575641L1057.9112727272727,55.02379261363638L1058.9294545454545,52.212357954545475L1060.7163636363637,54.62215909090909L1060.9709090909091,53.14950284090909L1063.2618181818182,53.50250105424359L1064.5396363636364,48.99928977272729L1064.7941818181819,52.962021567604744L1065.0487272727273,53.372545415704906L1065.8123636363637,50.12992997602985L1067.090181818182,40.16335227272729L1068.362909090909,50.41468186811969L1069.1265454545455,48.03547391024503L1070.9134545454547,61.10189888694068L1071.9316363636362,53.58094510165128L1072.4407272727271,53.6240893277255L1074.4821818181817,46.05397727272729L1075.7549090909092,49.9586604725231L1077.0327272727272,54.99712163751775L1077.2872727272727,50.561110756614006L1078.56,54.23281513560904L1080.0923636363636,55.318219271573156L1081.8741818181818,52.658704584295094L1083.152,51.03412836248225L1084.4247272727273,52.533717068758875L1084.6792727272727,50.24079756303265L1086.2116363636364,59.44176136363638L1087.9985454545454,51.00536554509944L1088.2530909090908,53.55113636363638L1088.762181818182,70.50890905206853L1089.7803636363637,54.23961361971769L1090.7985454545453,54.914232427423656L1091.8218181818181,78.36325003884056L1094.626909090909,58.50461647727271L1096.1541818181818,51.476029829545475L1097.432,64.52911931818181L1098.1956363636364,60.57972301136362L1099.722909090909,53.52446538751775L1102.528,48.82069882479581L1103.2967272727274,50.3370222611861L1105.0785454545453,49.611414822665125L1105.8421818181819,48.43710743297232L1108.3927272727274,49.09969815340909L1110.6887272727272,60.673332907936775L1110.9432727272726,59.575639204545475L1111.7069090909092,55.81215529008343L1112.9847272727272,41.63600852272729L1114.2574545454545,45.480289806019194L1117.8261818181818,44.1498787619851L1118.0807272727272,44.259961908513844L1119.8676363636364,59.44176136363638L1121.1403636363636,48.99928977272729L1122.418181818182,54.26523867520419L1122.9272727272728,48.303229592063225L1123.1818181818182,40.78802837025034L1124.709090909091,48.82069882479581L1127.005090909091,49.742939342152006L1127.7687272727273,48.79847301136362L1128.0283636363636,19.278409090909093L1128.282909090909,47.39275568181819L1128.5374545454545,49.177880720658756L1129.5556363636363,46.436522743918694L1131.8516363636365,57.23277698863638L1132.1061818181818,48.24962615966797L1132.6152727272727,50.529210177334875L1134.9112727272727,44.78213778409091L1135.1658181818182,46.96445118297232L1139.2436363636364,51.3494734330611L1140.776,33.55862496115943L1141.7941818181819,44.94477844238281L1143.8356363636362,47.125L1145.1083636363637,48.43030894886362L1146.1316363636365,48.17562727494671L1147.658909090909,51.40909090909091L1149.7003636363636,57.29971590909091L1150.7185454545454,58.68320742520419L1151.7367272727272,53.89916645396841L1152.250909090909,48.15340146151456L1153.7781818181818,45.0276676524769L1155.050909090909,46.10261258212003L1156.3287272727273,60.311967329545475L1157.6014545454545,44.8043635975231L1158.365090909091,47.83910231156781L1158.370181818182,47.663126165216624L1160.152,47.54572157426312L1161.938909090909,51.94460227272729L1163.9752727272728,52.48011363636362L1164.7440000000001,70.41974431818181L1165.5076363636363,47.99520596590909L1166.2712727272726,47.622335260564626L1166.525818181818,48.79847301136362L1168.3127272727272,42.30539772727271L1168.8218181818183,44.28689436479046L1171.3723636363636,14.54797155206853L1173.4087272727274,48.19602272727271L1174.6865454545455,49.13316761363638L1175.9592727272727,45.012763283469475L1176.728,47.663126165216624L1178.7643636363637,47.76091974431819L1184.12,41.34158186479046L1185.6472727272728,49.09656039151278L1186.416,49.267045454545475L1189.9847272727272,52.68093039772729L1191.512,46.16118413751775L1192.0261818181818,50.002850619229406L1192.5352727272727,26.24005681818181L1194.317090909091,44.74500760165128L1195.0807272727272,48.218248540704906L1195.8494545454546,37.21803977272729L1196.8676363636364,50.873579545454525L1197.1221818181818,51.30868252840909L1197.3767272727273,50.962744279341244L1197.8858181818182,49.973041881214506L1199.1636363636362,44.44744318181819L1200.9454545454546,46.321732954545475L1201.205090909091,49.53480113636362L1201.714181818182,55.42542613636362L1202.7323636363635,47.7496760975231L1203.4959999999999,48.106857993385994L1203.7505454545453,45.03655797784978L1204.2596363636364,48.240735834295094L1206.0465454545456,43.75896592573688L1207.8334545454545,38.82457386363638L1208.3425454545454,45.25071022727271L1211.6567272727273,45.893428455699556L1212.4203636363636,54.48828125L1213.184,48.60994581742718L1215.48,45.51846590909091L1216.4981818181818,47.95049285888672L1217.0123636363637,45.11683238636362L1220.581090909091,54.82297585227271L1221.853818181818,52.83703405206853L1222.1083636363635,51.489365317604744L1222.8770909090908,60.24502840909091L1223.8952727272726,41.60933754660865L1224.1498181818183,46.232568220658756L1224.4043636363638,51.52388069846412L1224.9134545454547,48.16621398925781L1225.9367272727272,44.44744318181819L1226.1912727272727,40.564985795454525L1226.4458181818181,39.44924996115943L1228.7367272727274,48.46377840909091L1230.5236363636363,35.11417042125357L1231.5418181818181,43.83897885409269L1231.8014545454546,44.58838098699397L1233.3287272727273,48.46377840909091L1235.1156363636364,66.93892045454547L1235.370181818182,42.84090909090909L1236.8974545454546,45.953568892045475L1237.661090909091,46.22446233575994L1239.448,34.80823863636362L1240.9752727272728,45.33987496115943L1241.4894545454545,46.05397727272729L1241.744,38.11047155206853L1242.5076363636365,27.177201704545475L1243.2712727272728,41.8590510975231L1244.034909090909,46.343958767977625L1246.84,44.10673453591088L1247.6087272727273,56.89808238636362L1249.3905454545454,50.367876919833094L1250.6683636363637,43.64417613636362L1251.432,48.517381841486156L1251.6865454545455,42.61786651611328L1251.941090909091,40.81365342573688L1252.7047272727273,43.32281702215022L1252.9592727272727,43.64417613636362L1254.4916363636362,46.26812952215022L1255.0007272727273,42.764295404607594L1255.5098181818182,39.36008522727271L1256.7876363636365,44.31356534090909L1258.3149090909092,47.426225142045475L1259.0785454545453,48.14738741787997L1259.5927272727272,77.11363636363637L1260.101818181818,54.88991477272729L1260.610909090909,54.35440340909091L1262.3978181818181,44.276435158469475L1264.4341818181817,45.88662997159091L1264.9432727272726,45.92009943181819L1265.4523636363638,45.42930117520419L1265.4574545454545,45.167559537020594L1265.712,41.76988636363638L1267.4938181818181,52.11194957386362L1267.7483636363636,48.552943142977625L1271.8312727272728,59.97727272727271L1272.5949090909091,48.73153409090909L1275.1454545454546,51.14133522727271L1276.6727272727273,47.59357244318181L1279.7323636363637,47.52663352272729L1281.010181818182,62.11931818181819L1281.2647272727274,43.376420454545475L1282.792,37.78702059659091L1283.3010909090908,41.42185627330435L1284.0698181818182,38.55681818181819L1286.8698181818181,44.38050426136362L1287.1294545454546,4.551846590909094L1287.6385454545455,40.341943220658756L1288.6567272727273,41.27255110307171L1289.1658181818182,44.03090529008343L1290.189090909091,-15.529829545454568L1291.2072727272728,44.822405728426844L1292.48,47.15167097611859L1299.1134545454545,44.8333878950639L1299.6225454545456,48.19602272727271L1302.168,46.79030539772729L1302.173090909091,46.593672318892025L1307.7781818181818,48.544052817604744L1308.5469090909091,50.33806818181819L1309.3105454545455,47.66051136363638L1309.8196363636364,35.61150568181819L1310.3287272727273,36.95028409090909L1315.429818181818,34.540482954545475L1317.9803636363638,37.08416193181819L1318.2349090909092,49.80255681818181L1318.744,44.39383974942294L1319.2530909090908,43.8737557151101L1320.0167272727272,49.267045454545475L1322.3127272727272,43.2234545621005L1323.0763636363636,45.25071022727271L1323.330909090909,45.956706653941744L1324.6087272727273,46.79030539772729L1325.1178181818182,46.94640905206853L1325.626909090909,45.2841796875L1326.6501818181819,42.91726129705256L1327.1592727272728,39.76171875L1328.1774545454546,45.072119279341244L1328.6865454545455,44.71519886363638L1333.0240000000001,12.584517045454527L1334.0421818181817,43.001457907936775L1335.5694545454546,44.690881208940006L1336.338181818182,34.94211647727271L1337.3563636363638,42.216232993385994L1338.8887272727272,43.54115295410156L1339.906909090909,47.45969460227271L1340.1614545454545,48.94568634033203L1340.6705454545454,52.13574426824397L1340.925090909091,51.241743607954525L1343.7301818181818,51.56205680153588L1345.7716363636364,38.82457386363638L1348.3221818181817,5.355113636363621L1350.8676363636364,40.21198758212003L1351.1221818181818,42.90784801136362L1351.1272727272728,43.050877657803625" style="fill: none;" fill="none"></path></g></g></g></g></g></g><g transform="translate(50, 377)" clip-path="url(#clip_1)"><clipPath id="clip_1"><rect width="1400" height="23"></rect></clipPath><g><g><line x1="0" y1="0" x2="0" y2="5" style="visibility: inherit;" fill="rgb(0, 0, 0)" stroke="rgb(204, 204, 204)" stroke-width="1px"></line><line x1="127.27272727272728" y1="0" x2="127.27272727272728" y2="5" style="visibility: inherit;" fill="rgb(0, 0, 0)" stroke="rgb(204, 204, 204)" stroke-width="1px"></line><line x1="254.54545454545456" y1="0" x2="254.54545454545456" y2="5" style="visibility: inherit;" fill="rgb(0, 0, 0)" stroke="rgb(204, 204, 204)" stroke-width="1px"></line><line x1="381.8181818181818" y1="0" x2="381.8181818181818" y2="5" style="visibility: inherit;" fill="rgb(0, 0, 0)" stroke="rgb(204, 204, 204)" stroke-width="1px"></line><line x1="509.0909090909091" y1="0" x2="509.0909090909091" y2="5" style="visibility: inherit;" fill="rgb(0, 0, 0)" stroke="rgb(204, 204, 204)" stroke-width="1px"></line><line x1="636.3636363636364" y1="0" x2="636.3636363636364" y2="5" style="visibility: inherit;" fill="rgb(0, 0, 0)" stroke="rgb(204, 204, 204)" stroke-width="1px"></line><line x1="763.6363636363636" y1="0" x2="763.6363636363636" y2="5" style="visibility: inherit;" fill="rgb(0, 0, 0)" stroke="rgb(204, 204, 204)" stroke-width="1px"></line><line x1="890.9090909090909" y1="0" x2="890.9090909090909" y2="5" style="visibility: inherit;" fill="rgb(0, 0, 0)" stroke="rgb(204, 204, 204)" stroke-width="1px"></line><line x1="1018.1818181818182" y1="0" x2="1018.1818181818182" y2="5" style="visibility: inherit;" fill="rgb(0, 0, 0)" stroke="rgb(204, 204, 204)" stroke-width="1px"></line><line x1="1145.4545454545455" y1="0" x2="1145.4545454545455" y2="5" style="visibility: inherit;" fill="rgb(0, 0, 0)" stroke="rgb(204, 204, 204)" stroke-width="1px"></line><line x1="1272.7272727272727" y1="0" x2="1272.7272727272727" y2="5" style="visibility: inherit;" fill="rgb(0, 0, 0)" stroke="rgb(204, 204, 204)" stroke-width="1px"></line><line x1="1400" y1="0" x2="1400" y2="5" style="visibility: inherit;" fill="rgb(0, 0, 0)" stroke="rgb(204, 204, 204)" stroke-width="1px"></line></g><g transform="translate(0, 8)"><text x="0" y="0" dx="0em" dy="0.95em" style="text-anchor: middle; visibility: hidden; font-family: Roboto, sans-serif; font-size: 12px; font-weight: 200;" fill="rgb(33, 33, 33)" stroke="none" stroke-width="1px">-50k</text><text x="127.27272727272728" y="0" dx="0em" dy="0.95em" style="text-anchor: middle; visibility: inherit; font-family: Roboto, sans-serif; font-size: 12px; font-weight: 200;" fill="rgb(33, 33, 33)" stroke="none" stroke-width="1px">0</text><text x="254.54545454545456" y="0" dx="0em" dy="0.95em" style="text-anchor: middle; visibility: inherit; font-family: Roboto, sans-serif; font-size: 12px; font-weight: 200;" fill="rgb(33, 33, 33)" stroke="none" stroke-width="1px">50k</text><text x="381.8181818181818" y="0" dx="0em" dy="0.95em" style="text-anchor: middle; visibility: inherit; font-family: Roboto, sans-serif; font-size: 12px; font-weight: 200;" fill="rgb(33, 33, 33)" stroke="none" stroke-width="1px">100k</text><text x="509.0909090909091" y="0" dx="0em" dy="0.95em" style="text-anchor: middle; visibility: inherit; font-family: Roboto, sans-serif; font-size: 12px; font-weight: 200;" fill="rgb(33, 33, 33)" stroke="none" stroke-width="1px">150k</text><text x="636.3636363636364" y="0" dx="0em" dy="0.95em" style="text-anchor: middle; visibility: inherit; font-family: Roboto, sans-serif; font-size: 12px; font-weight: 200;" fill="rgb(33, 33, 33)" stroke="none" stroke-width="1px">200k</text><text x="763.6363636363636" y="0" dx="0em" dy="0.95em" style="text-anchor: middle; visibility: inherit; font-family: Roboto, sans-serif; font-size: 12px; font-weight: 200;" fill="rgb(33, 33, 33)" stroke="none" stroke-width="1px">250k</text><text x="890.9090909090909" y="0" dx="0em" dy="0.95em" style="text-anchor: middle; visibility: inherit; font-family: Roboto, sans-serif; font-size: 12px; font-weight: 200;" fill="rgb(33, 33, 33)" stroke="none" stroke-width="1px">300k</text><text x="1018.1818181818182" y="0" dx="0em" dy="0.95em" style="text-anchor: middle; visibility: inherit; font-family: Roboto, sans-serif; font-size: 12px; font-weight: 200;" fill="rgb(33, 33, 33)" stroke="none" stroke-width="1px">350k</text><text x="1145.4545454545455" y="0" dx="0em" dy="0.95em" style="text-anchor: middle; visibility: inherit; font-family: Roboto, sans-serif; font-size: 12px; font-weight: 200;" fill="rgb(33, 33, 33)" stroke="none" stroke-width="1px">400k</text><text x="1272.7272727272727" y="0" dx="0em" dy="0.95em" style="text-anchor: middle; visibility: inherit; font-family: Roboto, sans-serif; font-size: 12px; font-weight: 200;" fill="rgb(33, 33, 33)" stroke="none" stroke-width="1px">450k</text><text x="1400" y="0" dx="0em" dy="0.95em" style="text-anchor: middle; visibility: hidden; font-family: Roboto, sans-serif; font-size: 12px; font-weight: 200;" fill="rgb(33, 33, 33)" stroke="none" stroke-width="1px">500k</text></g><line x1="0" y1="0" x2="1400" y2="0" fill="rgb(0, 0, 0)" stroke="rgb(204, 204, 204)" stroke-width="1px"></line></g></g></g></g></svg>