<?xml version="1.0" encoding="UTF-8" standalone="no" ?>
<!DOCTYPE svg PUBLIC "-//W3C//DTD SVG 1.1//EN" "http://www.w3.org/Graphics/SVG/1.1/DTD/svg11.dtd">
<svg xmlns="http://www.w3.org/2000/svg" xmlns:xlink="http://www.w3.org/1999/xlink" version="1.1" width="1080" height="1080" viewBox="0 0 1080 1080" xml:space="preserve">
<desc>Created with Fabric.js 5.2.4</desc>
<defs>
</defs>
<rect x="0" y="0" width="100%" height="100%" fill="transparent"></rect>
<g transform="matrix(1 0 0 1 540 540)" id="840847e5-d69a-4246-bdda-c176cba8f6ab"  >
<rect style="stroke: none; stroke-width: 1; stroke-dasharray: none; stroke-linecap: butt; stroke-dashoffset: 0; stroke-linejoin: miter; stroke-miterlimit: 4; fill: rgb(255,255,255); fill-rule: nonzero; opacity: 1; visibility: hidden;" vector-effect="non-scaling-stroke"  x="-540" y="-540" rx="0" ry="0" width="1080" height="1080" />
</g>
<g transform="matrix(1 0 0 1 540 540)" id="c13f5a58-3232-4801-869c-e7b4e0b2ae57"  >
</g>
<g transform="matrix(1 0 0 1 540 540)"  >
<g style="" vector-effect="non-scaling-stroke"   >
		<g transform="matrix(1 0 0 1 -691.29 -191.33)"  >
<line style="stroke: rgb(204,204,204); stroke-width: 1; stroke-dasharray: none; stroke-linecap: butt; stroke-dashoffset: 0; stroke-linejoin: miter; stroke-miterlimit: 4; fill: rgb(0,0,0); fill-opacity: 0; fill-rule: nonzero; opacity: 1;" vector-effect="non-scaling-stroke"  x1="2.5" y1="0" x2="-2.5" y2="0" />
</g>
		<g transform="matrix(1 0 0 1 -691.29 -229.03)"  >
<line style="stroke: rgb(204,204,204); stroke-width: 1; stroke-dasharray: none; stroke-linecap: butt; stroke-dashoffset: 0; stroke-linejoin: miter; stroke-miterlimit: 4; fill: rgb(0,0,0); fill-opacity: 0; fill-rule: nonzero; opacity: 1;" vector-effect="non-scaling-stroke"  x1="2.5" y1="0" x2="-2.5" y2="0" />
</g>
		<g transform="matrix(1 0 0 1 -691.29 -266.73)"  >
<line style="stroke: rgb(204,204,204); stroke-width: 1; stroke-dasharray: none; stroke-linecap: butt; stroke-dashoffset: 0; stroke-linejoin: miter; stroke-miterlimit: 4; fill: rgb(0,0,0); fill-opacity: 0; fill-rule: nonzero; opacity: 1;" vector-effect="non-scaling-stroke"  x1="2.5" y1="0" x2="-2.5" y2="0" />
</g>
		<g transform="matrix(1 0 0 1 -691.29 -304.43)"  >
<line style="stroke: rgb(204,204,204); stroke-width: 1; stroke-dasharray: none; stroke-linecap: butt; stroke-dashoffset: 0; stroke-linejoin: miter; stroke-miterlimit: 4; fill: rgb(0,0,0); fill-opacity: 0; fill-rule: nonzero; opacity: 1;" vector-effect="non-scaling-stroke"  x1="2.5" y1="0" x2="-2.5" y2="0" />
</g>
		<g transform="matrix(1 0 0 1 -691.29 -342.13)"  >
<line style="stroke: rgb(204,204,204); stroke-width: 1; stroke-dasharray: none; stroke-linecap: butt; stroke-dashoffset: 0; stroke-linejoin: miter; stroke-miterlimit: 4; fill: rgb(0,0,0); fill-opacity: 0; fill-rule: nonzero; opacity: 1;" vector-effect="non-scaling-stroke"  x1="2.5" y1="0" x2="-2.5" y2="0" />
</g>
		<g transform="matrix(1 0 0 1 -691.29 -379.83)"  >
<line style="stroke: rgb(204,204,204); stroke-width: 1; stroke-dasharray: none; stroke-linecap: butt; stroke-dashoffset: 0; stroke-linejoin: miter; stroke-miterlimit: 4; fill: rgb(0,0,0); fill-opacity: 0; fill-rule: nonzero; opacity: 1;" vector-effect="non-scaling-stroke"  x1="2.5" y1="0" x2="-2.5" y2="0" />
</g>
		<g transform="matrix(1 0 0 1 -691.29 -417.53)"  >
<line style="stroke: rgb(204,204,204); stroke-width: 1; stroke-dasharray: none; stroke-linecap: butt; stroke-dashoffset: 0; stroke-linejoin: miter; stroke-miterlimit: 4; fill: rgb(0,0,0); fill-opacity: 0; fill-rule: nonzero; opacity: 1;" vector-effect="non-scaling-stroke"  x1="2.5" y1="0" x2="-2.5" y2="0" />
</g>
		<g transform="matrix(1 0 0 1 -691.29 -455.23)"  >
<line style="stroke: rgb(204,204,204); stroke-width: 1; stroke-dasharray: none; stroke-linecap: butt; stroke-dashoffset: 0; stroke-linejoin: miter; stroke-miterlimit: 4; fill: rgb(0,0,0); fill-opacity: 0; fill-rule: nonzero; opacity: 1;" vector-effect="non-scaling-stroke"  x1="2.5" y1="0" x2="-2.5" y2="0" />
</g>
		<g transform="matrix(1 0 0 1 -691.29 -492.93)"  >
<line style="stroke: rgb(204,204,204); stroke-width: 1; stroke-dasharray: none; stroke-linecap: butt; stroke-dashoffset: 0; stroke-linejoin: miter; stroke-miterlimit: 4; fill: rgb(0,0,0); fill-opacity: 0; fill-rule: nonzero; opacity: 1;" vector-effect="non-scaling-stroke"  x1="2.5" y1="0" x2="-2.5" y2="0" />
</g>
		<g transform="matrix(1 0 0 1 -691.29 -530.63)"  >
<line style="stroke: rgb(204,204,204); stroke-width: 1; stroke-dasharray: none; stroke-linecap: butt; stroke-dashoffset: 0; stroke-linejoin: miter; stroke-miterlimit: 4; fill: rgb(0,0,0); fill-opacity: 0; fill-rule: nonzero; opacity: 1;" vector-effect="non-scaling-stroke"  x1="2.5" y1="0" x2="-2.5" y2="0" />
</g>
		<g transform="matrix(1 0 0 1 -691.29 -568.33)"  >
<line style="stroke: rgb(204,204,204); stroke-width: 1; stroke-dasharray: none; stroke-linecap: butt; stroke-dashoffset: 0; stroke-linejoin: miter; stroke-miterlimit: 4; fill: rgb(0,0,0); fill-opacity: 0; fill-rule: nonzero; opacity: 1;" vector-effect="non-scaling-stroke"  x1="2.5" y1="0" x2="-2.5" y2="0" />
</g>
		<g transform="matrix(1 0 0 1 -709.93 -191.49)" style=""  >
		<text xml:space="preserve" font-family="Roboto, sans-serif" font-size="12" font-style="normal" font-weight="200" style="stroke: none; stroke-width: 1; stroke-dasharray: none; stroke-linecap: butt; stroke-dashoffset: 0; stroke-linejoin: miter; stroke-miterlimit: 4; fill: rgb(0,0,0); fill-opacity: 0; fill-rule: nonzero; opacity: 1; visibility: hidden; white-space: pre;" ><tspan x="-11.14" y="3.77" >0.23</tspan></text>
</g>
		<g transform="matrix(1 0 0 1 -709.93 -229.19)" style=""  >
		<text xml:space="preserve" font-family="Roboto, sans-serif" font-size="12" font-style="normal" font-weight="200" style="stroke: none; stroke-width: 1; stroke-dasharray: none; stroke-linecap: butt; stroke-dashoffset: 0; stroke-linejoin: miter; stroke-miterlimit: 4; fill: rgb(0,0,0); fill-opacity: 0; fill-rule: nonzero; opacity: 1; white-space: pre;" ><tspan x="-11.14" y="3.77" >0.24</tspan></text>
</g>
		<g transform="matrix(1 0 0 1 -709.93 -266.89)" style=""  >
		<text xml:space="preserve" font-family="Roboto, sans-serif" font-size="12" font-style="normal" font-weight="200" style="stroke: none; stroke-width: 1; stroke-dasharray: none; stroke-linecap: butt; stroke-dashoffset: 0; stroke-linejoin: miter; stroke-miterlimit: 4; fill: rgb(0,0,0); fill-opacity: 0; fill-rule: nonzero; opacity: 1; white-space: pre;" ><tspan x="-11.14" y="3.77" >0.25</tspan></text>
</g>
		<g transform="matrix(1 0 0 1 -709.93 -304.59)" style=""  >
		<text xml:space="preserve" font-family="Roboto, sans-serif" font-size="12" font-style="normal" font-weight="200" style="stroke: none; stroke-width: 1; stroke-dasharray: none; stroke-linecap: butt; stroke-dashoffset: 0; stroke-linejoin: miter; stroke-miterlimit: 4; fill: rgb(0,0,0); fill-opacity: 0; fill-rule: nonzero; opacity: 1; white-space: pre;" ><tspan x="-11.14" y="3.77" >0.26</tspan></text>
</g>
		<g transform="matrix(1 0 0 1 -709.93 -342.29)" style=""  >
		<text xml:space="preserve" font-family="Roboto, sans-serif" font-size="12" font-style="normal" font-weight="200" style="stroke: none; stroke-width: 1; stroke-dasharray: none; stroke-linecap: butt; stroke-dashoffset: 0; stroke-linejoin: miter; stroke-miterlimit: 4; fill: rgb(0,0,0); fill-opacity: 0; fill-rule: nonzero; opacity: 1; white-space: pre;" ><tspan x="-11.14" y="3.77" >0.27</tspan></text>
</g>
		<g transform="matrix(1 0 0 1 -709.93 -379.99)" style=""  >
		<text xml:space="preserve" font-family="Roboto, sans-serif" font-size="12" font-style="normal" font-weight="200" style="stroke: none; stroke-width: 1; stroke-dasharray: none; stroke-linecap: butt; stroke-dashoffset: 0; stroke-linejoin: miter; stroke-miterlimit: 4; fill: rgb(0,0,0); fill-opacity: 0; fill-rule: nonzero; opacity: 1; white-space: pre;" ><tspan x="-11.14" y="3.77" >0.28</tspan></text>
</g>
		<g transform="matrix(1 0 0 1 -709.93 -417.69)" style=""  >
		<text xml:space="preserve" font-family="Roboto, sans-serif" font-size="12" font-style="normal" font-weight="200" style="stroke: none; stroke-width: 1; stroke-dasharray: none; stroke-linecap: butt; stroke-dashoffset: 0; stroke-linejoin: miter; stroke-miterlimit: 4; fill: rgb(0,0,0); fill-opacity: 0; fill-rule: nonzero; opacity: 1; white-space: pre;" ><tspan x="-11.14" y="3.77" >0.29</tspan></text>
</g>
		<g transform="matrix(1 0 0 1 -706.64 -455.39)" style=""  >
		<text xml:space="preserve" font-family="Roboto, sans-serif" font-size="12" font-style="normal" font-weight="200" style="stroke: none; stroke-width: 1; stroke-dasharray: none; stroke-linecap: butt; stroke-dashoffset: 0; stroke-linejoin: miter; stroke-miterlimit: 4; fill: rgb(0,0,0); fill-opacity: 0; fill-rule: nonzero; opacity: 1; white-space: pre;" ><tspan x="-7.85" y="3.77" >0.3</tspan></text>
</g>
		<g transform="matrix(1 0 0 1 -709.93 -493.09)" style=""  >
		<text xml:space="preserve" font-family="Roboto, sans-serif" font-size="12" font-style="normal" font-weight="200" style="stroke: none; stroke-width: 1; stroke-dasharray: none; stroke-linecap: butt; stroke-dashoffset: 0; stroke-linejoin: miter; stroke-miterlimit: 4; fill: rgb(0,0,0); fill-opacity: 0; fill-rule: nonzero; opacity: 1; white-space: pre;" ><tspan x="-11.14" y="3.77" >0.31</tspan></text>
</g>
		<g transform="matrix(1 0 0 1 -709.93 -530.79)" style=""  >
		<text xml:space="preserve" font-family="Roboto, sans-serif" font-size="12" font-style="normal" font-weight="200" style="stroke: none; stroke-width: 1; stroke-dasharray: none; stroke-linecap: butt; stroke-dashoffset: 0; stroke-linejoin: miter; stroke-miterlimit: 4; fill: rgb(0,0,0); fill-opacity: 0; fill-rule: nonzero; opacity: 1; white-space: pre;" ><tspan x="-11.14" y="3.77" >0.32</tspan></text>
</g>
		<g transform="matrix(1 0 0 1 -709.93 -568.49)" style=""  >
		<text xml:space="preserve" font-family="Roboto, sans-serif" font-size="12" font-style="normal" font-weight="200" style="stroke: none; stroke-width: 1; stroke-dasharray: none; stroke-linecap: butt; stroke-dashoffset: 0; stroke-linejoin: miter; stroke-miterlimit: 4; fill: rgb(0,0,0); fill-opacity: 0; fill-rule: nonzero; opacity: 1; visibility: hidden; white-space: pre;" ><tspan x="-11.14" y="3.77" >0.33</tspan></text>
</g>
		<g transform="matrix(1 0 0 1 -688.79 -379.83)"  >
<line style="stroke: rgb(204,204,204); stroke-width: 1; stroke-dasharray: none; stroke-linecap: butt; stroke-dashoffset: 0; stroke-linejoin: miter; stroke-miterlimit: 4; fill: rgb(0,0,0); fill-opacity: 0; fill-rule: nonzero; opacity: 1;" vector-effect="non-scaling-stroke"  x1="0" y1="-188.5" x2="0" y2="188.5" />
</g>
		<g transform="matrix(1 0 0 1 -688.79 -379.83)" clip-path="url(#CLIPPATH_66)"  >
<clipPath id="CLIPPATH_66" >
	<rect transform="matrix(1 0 0 1 650 0)" id="clip_0" x="-700" y="-188.5" rx="0" ry="0" width="1400" height="377" />
</clipPath>
<line style="stroke: rgb(66,66,66); stroke-width: 1; stroke-dasharray: none; stroke-linecap: butt; stroke-dashoffset: 0; stroke-linejoin: miter; stroke-miterlimit: 4; fill: rgb(0,0,0); fill-opacity: 0; fill-rule: nonzero; opacity: 0.25;" vector-effect="non-scaling-stroke"  x1="0" y1="-188.5" x2="0" y2="188.5" />
</g>
		<g transform="matrix(1 0 0 1 -548.79 -379.83)" clip-path="url(#CLIPPATH_67)"  >
<clipPath id="CLIPPATH_67" >
	<rect transform="matrix(1 0 0 1 510 0)" id="clip_0" x="-700" y="-188.5" rx="0" ry="0" width="1400" height="377" />
</clipPath>
<line style="stroke: rgb(66,66,66); stroke-width: 1; stroke-dasharray: none; stroke-linecap: butt; stroke-dashoffset: 0; stroke-linejoin: miter; stroke-miterlimit: 4; fill: rgb(0,0,0); fill-opacity: 0; fill-rule: nonzero; opacity: 0.25;" vector-effect="non-scaling-stroke"  x1="0" y1="-188.5" x2="0" y2="188.5" />
</g>
		<g transform="matrix(1 0 0 1 -408.79 -379.83)" clip-path="url(#CLIPPATH_68)"  >
<clipPath id="CLIPPATH_68" >
	<rect transform="matrix(1 0 0 1 370 0)" id="clip_0" x="-700" y="-188.5" rx="0" ry="0" width="1400" height="377" />
</clipPath>
<line style="stroke: rgb(66,66,66); stroke-width: 1; stroke-dasharray: none; stroke-linecap: butt; stroke-dashoffset: 0; stroke-linejoin: miter; stroke-miterlimit: 4; fill: rgb(0,0,0); fill-opacity: 0; fill-rule: nonzero; opacity: 0.25;" vector-effect="non-scaling-stroke"  x1="0" y1="-188.5" x2="0" y2="188.5" />
</g>
		<g transform="matrix(1 0 0 1 -268.79 -379.83)" clip-path="url(#CLIPPATH_69)"  >
<clipPath id="CLIPPATH_69" >
	<rect transform="matrix(1 0 0 1 230 0)" id="clip_0" x="-700" y="-188.5" rx="0" ry="0" width="1400" height="377" />
</clipPath>
<line style="stroke: rgb(66,66,66); stroke-width: 1; stroke-dasharray: none; stroke-linecap: butt; stroke-dashoffset: 0; stroke-linejoin: miter; stroke-miterlimit: 4; fill: rgb(0,0,0); fill-opacity: 0; fill-rule: nonzero; opacity: 0.25;" vector-effect="non-scaling-stroke"  x1="0" y1="-188.5" x2="0" y2="188.5" />
</g>
		<g transform="matrix(1 0 0 1 -128.79 -379.83)" clip-path="url(#CLIPPATH_70)"  >
<clipPath id="CLIPPATH_70" >
	<rect transform="matrix(1 0 0 1 90 0)" id="clip_0" x="-700" y="-188.5" rx="0" ry="0" width="1400" height="377" />
</clipPath>
<line style="stroke: rgb(66,66,66); stroke-width: 1; stroke-dasharray: none; stroke-linecap: butt; stroke-dashoffset: 0; stroke-linejoin: miter; stroke-miterlimit: 4; fill: rgb(0,0,0); fill-opacity: 0; fill-rule: nonzero; opacity: 0.25;" vector-effect="non-scaling-stroke"  x1="0" y1="-188.5" x2="0" y2="188.5" />
</g>
		<g transform="matrix(1 0 0 1 11.21 -379.83)" clip-path="url(#CLIPPATH_71)"  >
<clipPath id="CLIPPATH_71" >
	<rect transform="matrix(1 0 0 1 -50 0)" id="clip_0" x="-700" y="-188.5" rx="0" ry="0" width="1400" height="377" />
</clipPath>
<line style="stroke: rgb(66,66,66); stroke-width: 1; stroke-dasharray: none; stroke-linecap: butt; stroke-dashoffset: 0; stroke-linejoin: miter; stroke-miterlimit: 4; fill: rgb(0,0,0); fill-opacity: 0; fill-rule: nonzero; opacity: 0.25;" vector-effect="non-scaling-stroke"  x1="0" y1="-188.5" x2="0" y2="188.5" />
</g>
		<g transform="matrix(1 0 0 1 151.21 -379.83)" clip-path="url(#CLIPPATH_72)"  >
<clipPath id="CLIPPATH_72" >
	<rect transform="matrix(1 0 0 1 -190 0)" id="clip_0" x="-700" y="-188.5" rx="0" ry="0" width="1400" height="377" />
</clipPath>
<line style="stroke: rgb(66,66,66); stroke-width: 1; stroke-dasharray: none; stroke-linecap: butt; stroke-dashoffset: 0; stroke-linejoin: miter; stroke-miterlimit: 4; fill: rgb(0,0,0); fill-opacity: 0; fill-rule: nonzero; opacity: 0.25;" vector-effect="non-scaling-stroke"  x1="0" y1="-188.5" x2="0" y2="188.5" />
</g>
		<g transform="matrix(1 0 0 1 291.21 -379.83)" clip-path="url(#CLIPPATH_73)"  >
<clipPath id="CLIPPATH_73" >
	<rect transform="matrix(1 0 0 1 -330 0)" id="clip_0" x="-700" y="-188.5" rx="0" ry="0" width="1400" height="377" />
</clipPath>
<line style="stroke: rgb(66,66,66); stroke-width: 1; stroke-dasharray: none; stroke-linecap: butt; stroke-dashoffset: 0; stroke-linejoin: miter; stroke-miterlimit: 4; fill: rgb(0,0,0); fill-opacity: 0; fill-rule: nonzero; opacity: 0.25;" vector-effect="non-scaling-stroke"  x1="0" y1="-188.5" x2="0" y2="188.5" />
</g>
		<g transform="matrix(1 0 0 1 431.21 -379.83)" clip-path="url(#CLIPPATH_74)"  >
<clipPath id="CLIPPATH_74" >
	<rect transform="matrix(1 0 0 1 -470 0)" id="clip_0" x="-700" y="-188.5" rx="0" ry="0" width="1400" height="377" />
</clipPath>
<line style="stroke: rgb(66,66,66); stroke-width: 1; stroke-dasharray: none; stroke-linecap: butt; stroke-dashoffset: 0; stroke-linejoin: miter; stroke-miterlimit: 4; fill: rgb(0,0,0); fill-opacity: 0; fill-rule: nonzero; opacity: 0.25;" vector-effect="non-scaling-stroke"  x1="0" y1="-188.5" x2="0" y2="188.5" />
</g>
		<g transform="matrix(1 0 0 1 571.21 -379.83)" clip-path="url(#CLIPPATH_75)"  >
<clipPath id="CLIPPATH_75" >
	<rect transform="matrix(1 0 0 1 -610 0)" id="clip_0" x="-700" y="-188.5" rx="0" ry="0" width="1400" height="377" />
</clipPath>
<line style="stroke: rgb(66,66,66); stroke-width: 1; stroke-dasharray: none; stroke-linecap: butt; stroke-dashoffset: 0; stroke-linejoin: miter; stroke-miterlimit: 4; fill: rgb(0,0,0); fill-opacity: 0; fill-rule: nonzero; opacity: 0.25;" vector-effect="non-scaling-stroke"  x1="0" y1="-188.5" x2="0" y2="188.5" />
</g>
		<g transform="matrix(1 0 0 1 711.21 -379.83)" clip-path="url(#CLIPPATH_76)"  >
<clipPath id="CLIPPATH_76" >
	<rect transform="matrix(1 0 0 1 -750 0)" id="clip_0" x="-700" y="-188.5" rx="0" ry="0" width="1400" height="377" />
</clipPath>
<line style="stroke: rgb(66,66,66); stroke-width: 1; stroke-dasharray: none; stroke-linecap: butt; stroke-dashoffset: 0; stroke-linejoin: miter; stroke-miterlimit: 4; fill: rgb(0,0,0); fill-opacity: 0; fill-rule: nonzero; opacity: 0.25;" vector-effect="non-scaling-stroke"  x1="0" y1="-188.5" x2="0" y2="188.5" />
</g>
		<g transform="matrix(1 0 0 1 11.21 -191.33)" clip-path="url(#CLIPPATH_77)"  >
<clipPath id="CLIPPATH_77" >
	<rect transform="matrix(1 0 0 1 -50 -188.5)" id="clip_0" x="-700" y="-188.5" rx="0" ry="0" width="1400" height="377" />
</clipPath>
<line style="stroke: rgb(66,66,66); stroke-width: 1; stroke-dasharray: none; stroke-linecap: butt; stroke-dashoffset: 0; stroke-linejoin: miter; stroke-miterlimit: 4; fill: rgb(0,0,0); fill-opacity: 0; fill-rule: nonzero; opacity: 0.25;" vector-effect="non-scaling-stroke"  x1="-700" y1="0" x2="700" y2="0" />
</g>
		<g transform="matrix(1 0 0 1 11.21 -229.03)" clip-path="url(#CLIPPATH_78)"  >
<clipPath id="CLIPPATH_78" >
	<rect transform="matrix(1 0 0 1 -50 -150.8)" id="clip_0" x="-700" y="-188.5" rx="0" ry="0" width="1400" height="377" />
</clipPath>
<line style="stroke: rgb(66,66,66); stroke-width: 1; stroke-dasharray: none; stroke-linecap: butt; stroke-dashoffset: 0; stroke-linejoin: miter; stroke-miterlimit: 4; fill: rgb(0,0,0); fill-opacity: 0; fill-rule: nonzero; opacity: 0.25;" vector-effect="non-scaling-stroke"  x1="-700" y1="0" x2="700" y2="0" />
</g>
		<g transform="matrix(1 0 0 1 11.21 -266.73)" clip-path="url(#CLIPPATH_79)"  >
<clipPath id="CLIPPATH_79" >
	<rect transform="matrix(1 0 0 1 -50 -113.1)" id="clip_0" x="-700" y="-188.5" rx="0" ry="0" width="1400" height="377" />
</clipPath>
<line style="stroke: rgb(66,66,66); stroke-width: 1; stroke-dasharray: none; stroke-linecap: butt; stroke-dashoffset: 0; stroke-linejoin: miter; stroke-miterlimit: 4; fill: rgb(0,0,0); fill-opacity: 0; fill-rule: nonzero; opacity: 0.25;" vector-effect="non-scaling-stroke"  x1="-700" y1="0" x2="700" y2="0" />
</g>
		<g transform="matrix(1 0 0 1 11.21 -304.43)" clip-path="url(#CLIPPATH_80)"  >
<clipPath id="CLIPPATH_80" >
	<rect transform="matrix(1 0 0 1 -50 -75.4)" id="clip_0" x="-700" y="-188.5" rx="0" ry="0" width="1400" height="377" />
</clipPath>
<line style="stroke: rgb(66,66,66); stroke-width: 1; stroke-dasharray: none; stroke-linecap: butt; stroke-dashoffset: 0; stroke-linejoin: miter; stroke-miterlimit: 4; fill: rgb(0,0,0); fill-opacity: 0; fill-rule: nonzero; opacity: 0.25;" vector-effect="non-scaling-stroke"  x1="-700" y1="0" x2="700" y2="0" />
</g>
		<g transform="matrix(1 0 0 1 11.21 -342.13)" clip-path="url(#CLIPPATH_81)"  >
<clipPath id="CLIPPATH_81" >
	<rect transform="matrix(1 0 0 1 -50 -37.7)" id="clip_0" x="-700" y="-188.5" rx="0" ry="0" width="1400" height="377" />
</clipPath>
<line style="stroke: rgb(66,66,66); stroke-width: 1; stroke-dasharray: none; stroke-linecap: butt; stroke-dashoffset: 0; stroke-linejoin: miter; stroke-miterlimit: 4; fill: rgb(0,0,0); fill-opacity: 0; fill-rule: nonzero; opacity: 0.25;" vector-effect="non-scaling-stroke"  x1="-700" y1="0" x2="700" y2="0" />
</g>
		<g transform="matrix(1 0 0 1 11.21 -379.83)" clip-path="url(#CLIPPATH_82)"  >
<clipPath id="CLIPPATH_82" >
	<rect transform="matrix(1 0 0 1 -50 0)" id="clip_0" x="-700" y="-188.5" rx="0" ry="0" width="1400" height="377" />
</clipPath>
<line style="stroke: rgb(66,66,66); stroke-width: 1; stroke-dasharray: none; stroke-linecap: butt; stroke-dashoffset: 0; stroke-linejoin: miter; stroke-miterlimit: 4; fill: rgb(0,0,0); fill-opacity: 0; fill-rule: nonzero; opacity: 0.25;" vector-effect="non-scaling-stroke"  x1="-700" y1="0" x2="700" y2="0" />
</g>
		<g transform="matrix(1 0 0 1 11.21 -417.53)" clip-path="url(#CLIPPATH_83)"  >
<clipPath id="CLIPPATH_83" >
	<rect transform="matrix(1 0 0 1 -50 37.7)" id="clip_0" x="-700" y="-188.5" rx="0" ry="0" width="1400" height="377" />
</clipPath>
<line style="stroke: rgb(66,66,66); stroke-width: 1; stroke-dasharray: none; stroke-linecap: butt; stroke-dashoffset: 0; stroke-linejoin: miter; stroke-miterlimit: 4; fill: rgb(0,0,0); fill-opacity: 0; fill-rule: nonzero; opacity: 0.25;" vector-effect="non-scaling-stroke"  x1="-700" y1="0" x2="700" y2="0" />
</g>
		<g transform="matrix(1 0 0 1 11.21 -455.23)" clip-path="url(#CLIPPATH_84)"  >
<clipPath id="CLIPPATH_84" >
	<rect transform="matrix(1 0 0 1 -50 75.4)" id="clip_0" x="-700" y="-188.5" rx="0" ry="0" width="1400" height="377" />
</clipPath>
<line style="stroke: rgb(66,66,66); stroke-width: 1; stroke-dasharray: none; stroke-linecap: butt; stroke-dashoffset: 0; stroke-linejoin: miter; stroke-miterlimit: 4; fill: rgb(0,0,0); fill-opacity: 0; fill-rule: nonzero; opacity: 0.25;" vector-effect="non-scaling-stroke"  x1="-700" y1="0" x2="700" y2="0" />
</g>
		<g transform="matrix(1 0 0 1 11.21 -492.93)" clip-path="url(#CLIPPATH_85)"  >
<clipPath id="CLIPPATH_85" >
	<rect transform="matrix(1 0 0 1 -50 113.1)" id="clip_0" x="-700" y="-188.5" rx="0" ry="0" width="1400" height="377" />
</clipPath>
<line style="stroke: rgb(66,66,66); stroke-width: 1; stroke-dasharray: none; stroke-linecap: butt; stroke-dashoffset: 0; stroke-linejoin: miter; stroke-miterlimit: 4; fill: rgb(0,0,0); fill-opacity: 0; fill-rule: nonzero; opacity: 0.25;" vector-effect="non-scaling-stroke"  x1="-700" y1="0" x2="700" y2="0" />
</g>
		<g transform="matrix(1 0 0 1 11.21 -530.63)" clip-path="url(#CLIPPATH_86)"  >
<clipPath id="CLIPPATH_86" >
	<rect transform="matrix(1 0 0 1 -50 150.8)" id="clip_0" x="-700" y="-188.5" rx="0" ry="0" width="1400" height="377" />
</clipPath>
<line style="stroke: rgb(66,66,66); stroke-width: 1; stroke-dasharray: none; stroke-linecap: butt; stroke-dashoffset: 0; stroke-linejoin: miter; stroke-miterlimit: 4; fill: rgb(0,0,0); fill-opacity: 0; fill-rule: nonzero; opacity: 0.25;" vector-effect="non-scaling-stroke"  x1="-700" y1="0" x2="700" y2="0" />
</g>
		<g transform="matrix(1 0 0 1 11.21 -568.33)" clip-path="url(#CLIPPATH_87)"  >
<clipPath id="CLIPPATH_87" >
	<rect transform="matrix(1 0 0 1 -50 188.5)" id="clip_0" x="-700" y="-188.5" rx="0" ry="0" width="1400" height="377" />
</clipPath>
<line style="stroke: rgb(66,66,66); stroke-width: 1; stroke-dasharray: none; stroke-linecap: butt; stroke-dashoffset: 0; stroke-linejoin: miter; stroke-miterlimit: 4; fill: rgb(0,0,0); fill-opacity: 0; fill-rule: nonzero; opacity: 0.25;" vector-effect="non-scaling-stroke"  x1="-700" y1="0" x2="700" y2="0" />
</g>
		<g transform="matrix(1 0 0 1 11.21 675.77)" clip-path="url(#CLIPPATH_88)"  >
<clipPath id="CLIPPATH_88" >
	<rect transform="matrix(1 0 0 1 -50 -1055.6)" id="clip_0" x="-700" y="-188.5" rx="0" ry="0" width="1400" height="377" />
</clipPath>
<line style="stroke: rgb(153,153,153); stroke-width: 1.5; stroke-dasharray: none; stroke-linecap: butt; stroke-dashoffset: 0; stroke-linejoin: miter; stroke-miterlimit: 4; fill: rgb(0,0,0); fill-opacity: 0; fill-rule: nonzero; opacity: 1;" vector-effect="non-scaling-stroke"  x1="-700" y1="0" x2="700" y2="0" />
</g>
		<g transform="matrix(1 0 0 1 -548.79 -379.83)" clip-path="url(#CLIPPATH_89)"  >
<clipPath id="CLIPPATH_89" >
	<rect transform="matrix(1 0 0 1 510 0)" id="clip_0" x="-700" y="-188.5" rx="0" ry="0" width="1400" height="377" />
</clipPath>
<line style="stroke: rgb(153,153,153); stroke-width: 1.5; stroke-dasharray: none; stroke-linecap: butt; stroke-dashoffset: 0; stroke-linejoin: miter; stroke-miterlimit: 4; fill: rgb(0,0,0); fill-opacity: 0; fill-rule: nonzero; opacity: 1;" vector-effect="non-scaling-stroke"  x1="0" y1="-188.5" x2="0" y2="188.5" />
</g>
		<g transform="matrix(1 0 0 1 26.61 -450.44)" clip-path="url(#CLIPPATH_90)"  >
<clipPath id="CLIPPATH_90" >
	<rect transform="matrix(1 0 0 1 -65.4 70.61)" id="clip_0" x="-700" y="-188.5" rx="0" ry="0" width="1400" height="377" />
</clipPath>
<path style="stroke: rgb(204,51,17); stroke-width: 2; stroke-dasharray: none; stroke-linecap: butt; stroke-dashoffset: 0; stroke-linejoin: miter; stroke-miterlimit: 4; fill: rgb(0,0,0); fill-opacity: 0; fill-rule: nonzero; opacity: 1;" vector-effect="non-scaling-stroke"  transform=" translate(-715.4, -117.89)" d="M 173.6 -28.260753417014975 L 176.4 20.301331317424832 L 179.20000000000002 23.7297243237496 L 182 22.617974019050656 L 184.8 57.69299391508108 L 187.60000000000002 2.996451890468656 L 190.4 75.0142771363259 L 193.20000000000002 75.07753286361701 L 196.00000000000003 66.29251453876502 L 198.79999999999998 38.7071749925614 L 201.6 30.726616716384946 L 204.39999999999998 41.74861822128302 L 207.2 87.34824512004859 L 210 57.691870367527066 L 212.79999999999998 97.15726468563086 L 215.6 93.17979398965842 L 218.4 76.31354752779013 L 221.2 75.41493419408805 L 224 82.7893385648728 L 226.8 56.42990175485617 L 229.60000000000002 88.50594851970679 L 232.4 69.94258347749717 L 235.20000000000002 83.58885500431067 L 238.00000000000003 96.30112144947059 L 240.79999999999998 61.908207273483335 L 243.6 71.7722806692124 L 246.39999999999998 78.41761503219611 L 249.2 83.25347605943686 L 252 72.54438254833228 L 254.79999999999998 63.028721249103604 L 257.6 108.5948664307595 L 260.4 108.12634710073478 L 263.2 61.83551374673849 L 266 71.89261261224753 L 268.8 75.53829971551902 L 271.6 82.13633272647864 L 274.40000000000003 73.612988626957 L 277.2 35.81853423118597 L 280 52.384793496131955 L 282.8 82.58260581493384 L 285.59999999999997 45.601599848270475 L 288.4 117.29089978933341 L 291.2 80.97323629856116 L 294 52.84376267194754 L 296.8 102.06536982059485 L 299.59999999999997 58.0915162324906 L 302.4 64.1158658623696 L 305.2 69.17621169090278 L 308 93.91436938047416 L 310.8 105.57971421480185 L 313.6 35.89527252912527 L 316.40000000000003 44.239073729515134 L 319.2 40.25789532661444 L 322 27.714835143089353 L 324.8 87.13915292024619 L 327.6 56.41394737958914 L 330.4 27.543381786346494 L 333.2 85.7382014751435 L 336 38.575045800209104 L 338.8 90.8077603936196 L 341.59999999999997 70.293355023861 L 344.4 34.06411472558981 L 347.2 18.568708634376584 L 350 33.40706411600119 L 352.8 60.3160280346871 L 355.6 33.123705422878324 L 358.40000000000003 75.77930066585547 L 361.2 16.44531611204153 L 364 13.774081802368222 L 366.8 18.743307924270688 L 369.6 29.490939116478025 L 372.40000000000003 69.73899666070945 L 375.20000000000005 60.80949012041098 L 378 53.36969528198248 L 380.8 77.43675801754004 L 383.6 13.52633956670767 L 386.40000000000003 37.69261155128485 L 389.20000000000005 43.36158308982855 L 392.00000000000006 20.69243822097784 L 394.79999999999995 47.729711270332395 L 397.59999999999997 37.93765727281576 L 400.4 27.11564723253256 L 403.2 18.170411026477872 L 406 15.625575816631375 L 408.79999999999995 34.238714015483914 L 411.59999999999997 43.12159333229071 L 414.4 -1.3007804393767306 L 417.2 1.4206764459610572 L 420 182.07993242740636 L 422.8 193.39956167936327 L 425.59999999999997 211.83551642894747 L 428.4 200.30095252990725 L 431.2 203.65328136682513 L 434 218.0080619812012 L 436.8 200.22612426280978 L 439.6 193.39338216781618 L 442.4 189.82668045759203 L 445.2 200.3603881955147 L 448 214.1101384520531 L 450.8 199.1392043590546 L 453.6 185.3950718402863 L 456.40000000000003 183.32841846942907 L 459.20000000000005 197.4248955011368 L 462 213.65588817596438 L 464.8 207.07088831663134 L 467.6 190.46800140142443 L 470.40000000000003 203.9723688721657 L 473.20000000000005 185.92639747858053 L 476.00000000000006 193.59977785348894 L 478.8 203.9650658130646 L 481.59999999999997 206.60203192234042 L 484.4 195.65002743005755 L 487.2 213.8665533423424 L 489.99999999999994 217.20450077056887 L 492.79999999999995 180.77706668376928 L 495.59999999999997 169.81843326091771 L 498.4 200.94834063053133 L 501.2 176.11097369194036 L 504 179.71430305242544 L 506.8 180.54471704959875 L 509.59999999999997 181.76028314828878 L 512.4 186.34188536405568 L 515.2 184.42354027032857 L 518 205.4151162862778 L 520.8 194.39536187648775 L 523.6 183.42965010404592 L 526.4 184.21152684688573 L 529.2 211.84225771427157 L 532 243.31417295932772 L 534.8 218.07502541542055 L 537.6 254.93120524883273 L 540.4 244.56355783939364 L 543.2 247.63848278522494 L 546 244.0653768539429 L 548.8000000000001 229.35870114564898 L 551.6 237.81013820171358 L 554.4 260.208957529068 L 557.2 236.50502536296847 L 560 220.7630005836487 L 562.8000000000001 237.04174402952196 L 565.6 233.5725662469864 L 568.4000000000001 237.34116945266726 L 571.1999999999999 219.32778093814852 L 574 241.03000078201296 L 576.8 241.9940045833588 L 579.6 260.8985910177231 L 582.4 230.92706117630007 L 585.1999999999999 246.5692025780678 L 588 235.39653334617617 L 590.8 235.2451914906502 L 593.6 226.86959389448168 L 596.4 219.24845848083498 L 599.1999999999999 232.82990131378176 L 602 238.89514807462695 L 604.8 230.05204234123232 L 607.6 239.49568424224856 L 610.4 233.9546847701073 L 613.2 210.2887285113335 L 616 242.40477356910708 L 618.8 231.3820979356766 L 621.6 217.6808849334717 L 624.4 221.65801856517794 L 627.2 204.25258163213732 L 630 223.24615303277972 L 632.8000000000001 212.820418214798 L 635.6 231.48108247518542 L 638.4 219.67967603206637 L 641.2 215.98949644565585 L 644 256.0181251525879 L 646.8000000000001 245.13600531816485 L 649.6 254.5452666640282 L 652.4000000000001 247.5950014948845 L 655.2 240.26756141185763 L 658 248.09318248033526 L 660.8 234.17276535034182 L 663.6 246.94952342510226 L 666.4 235.2304730176926 L 669.1999999999999 225.81975106000903 L 672 239.9801579475403 L 674.8 246.86716738939288 L 677.6 252.0215541481972 L 680.4 258.9753023147583 L 683.1999999999999 264.0507036805153 L 686 261.49317238330843 L 688.8 250.0274819493294 L 691.6 237.629808819294 L 694.4 249.45065263509753 L 697.2 244.68928281068804 L 700 238.8645875811577 L 702.8 255.4444417715073 L 705.6 236.64310935735705 L 708.4 238.7450421214104 L 711.2 233.38897857666018 L 714 240.36755714416506 L 716.8000000000001 239.36748746633532 L 719.6 230.12529764175417 L 722.4 229.61284760236742 L 725.2 228.01066879034045 L 728 242.20208559036257 L 730.8000000000001 236.4733413219452 L 733.6 239.53186247348788 L 736.4 230.31955901384356 L 739.2 247.92566154003146 L 742 236.39008644819262 L 744.8000000000001 239.90476790666582 L 747.6 233.57503805160525 L 750.4000000000001 235.4548454642296 L 753.2 222.57348511219027 L 756 248.35519376993182 L 758.8000000000001 239.637925362587 L 761.6 238.21832302808764 L 764.4000000000001 239.7490442156792 L 767.2 234.83004066944125 L 770.0000000000001 236.39019880294802 L 772.8000000000001 225.26921275854113 L 775.6 245.84136847257616 L 778.4000000000001 233.59088007211687 L 781.2 236.26110318899157 L 784.0000000000001 233.69267348051073 L 786.8000000000001 239.233111178875 L 789.5999999999999 236.46255526542666 L 792.4 225.2947172880173 L 795.1999999999999 230.35910788774493 L 797.9999999999999 226.63791838884356 L 800.8 228.06841913461687 L 803.5999999999999 232.6728293657303 L 806.4 233.42762861251833 L 809.1999999999999 231.21592525243761 L 812 222.31978807449343 L 814.8 235.65966818332674 L 817.5999999999999 226.93509671688082 L 820.4 217.3175296545029 L 823.1999999999999 219.24542490243914 L 826 235.79381976127627 L 828.8 230.28618965148928 L 831.5999999999999 219.1317218899727 L 834.4 215.00594291687014 L 837.1999999999999 219.26621053218844 L 840 214.77044734954836 L 842.8 215.8320874333382 L 845.6 216.81148383617403 L 848.4 218.24423167705538 L 851.1999999999999 226.88318881988528 L 854 215.69827291965487 L 856.8 217.11720112562182 L 859.6 216.84294316768649 L 862.4 219.00341275930407 L 865.2 227.85550687313082 L 868 217.78054360151293 L 870.8 217.9048079609871 L 873.6 223.4752443790436 L 876.4 218.78454569578173 L 879.2 217.2002312898636 L 882 216.76620486974718 L 884.8 218.1551343560219 L 887.6 229.73284248113634 L 890.4 235.63944432735445 L 893.2 223.81556693315508 L 896 207.6256960988045 L 898.8000000000001 211.5649661779404 L 901.6 216.6075599551201 L 904.4 206.38923201560976 L 907.2 205.55848095417025 L 910 207.3121139764786 L 912.8000000000001 217.60909024477007 L 915.6 223.7751192212105 L 918.4000000000001 214.67865351438525 L 921.2 198.65416887998583 L 924 206.52967545986178 L 926.8000000000001 212.39852610826495 L 929.6 204.91513762474062 L 932.4000000000001 218.65904543399813 L 935.2 213.56128547191622 L 938 218.10367587804797 L 940.8000000000001 212.43447962999346 L 943.6 209.34427443742754 L 946.4000000000001 208.34892365932467 L 949.2 201.59100983142855 L 952.0000000000001 193.06991282701495 L 954.8000000000001 198.65989897251131 L 957.6 204.84862360954287 L 960.4000000000001 201.07496443986895 L 963.1999999999999 216.89642403125765 L 965.9999999999999 203.41261748075488 L 968.8 194.6698445439339 L 971.5999999999999 203.29003844261172 L 974.4 208.86463198661806 L 977.1999999999999 200.0951186180115 L 979.9999999999999 206.13519791364672 L 982.8 203.73226675987246 L 985.5999999999999 199.15257457494738 L 988.4 200.81913266181948 L 991.1999999999999 181.858818268776 L 994 201.01968590021136 L 996.8 196.4907780647278 L 999.5999999999999 205.98453018665316 L 1002.4 198.90415821075442 L 1005.1999999999999 192.36758325099947 L 1008 196.950758433342 L 1010.8 207.55457553863528 L 1013.6 196.45224038362505 L 1016.4 204.60200492143633 L 1019.1999999999999 199.0277484416962 L 1022 191.24122682809832 L 1024.8 184.5169070720673 L 1027.6 191.91119823455813 L 1030.4 191.75412628650668 L 1033.2 194.3852499485016 L 1036 193.97459331750872 L 1038.8 195.264088845253 L 1041.6 200.26848200559618 L 1044.4 188.05383477211004 L 1047.2 199.14336148500445 L 1050 190.65282497406008 L 1052.8 189.6989331007004 L 1055.6 197.90476266145708 L 1058.4 195.62778118848803 L 1061.2 200.15309367179873 L 1064 190.10475847721102 L 1066.8 195.34138891696932 L 1069.6 187.2913954019547 L 1072.4 189.27805218696597 L 1075.2 194.47726849317553 L 1078 184.06670156717306 L 1080.8 181.40198383331304 L 1083.6000000000001 193.18260464668276 L 1086.4 189.02547869682314 L 1089.2 188.21978274583822 L 1092 192.6683569312096 L 1094.8 184.7948727369309 L 1097.6000000000001 186.4548018932343 L 1100.4 185.92976812124257 L 1103.2 190.30789587497713 L 1106 205.54657135009768 L 1108.8 195.00713351964953 L 1111.6000000000001 196.4561728000641 L 1114.4 187.51250956058507 L 1117.2 192.77689162492754 L 1120 190.81281814575198 L 1122.8 190.96224997043612 L 1125.6000000000001 182.79091331958776 L 1128.4 187.2700479984284 L 1131.2 196.16416279077532 L 1134 190.61754558086398 L 1136.8000000000002 180.0667599201203 L 1139.6 188.7430188417435 L 1142.3999999999999 189.27569273710253 L 1145.1999999999998 187.51745316982274 L 1148 194.3214324474335 L 1150.8 194.87028542757037 L 1153.6 187.65666071176534 L 1156.3999999999999 178.99467084407812 L 1159.2 186.82647142410283 L 1162 183.9085060715676 L 1164.8 191.57334748506548 L 1167.6 176.68151113986974 L 1170.3999999999999 179.31555602550512 L 1173.2 181.87701973915105 L 1176 190.5852997660637 L 1178.8 191.11887249946597 L 1181.6 179.23915479183202 L 1184.3999999999999 176.8955469489098 L 1187.2 180.1514754056931 L 1190 182.26149771213537 L 1192.8 166.60609844923025 L 1195.6 181.30625758171087 L 1198.3999999999999 163.31567708253866 L 1201.2 169.20183036327367 L 1204 161.38137761354452 L 1206.8 170.29717687368398 L 1209.6 172.66370508670812 L 1212.4 182.77450952529912 L 1215.2 173.96893028020864 L 1218 169.58203885555272 L 1220.8 173.15143707990651 L 1223.6 165.1391947627068 L 1226.4 177.96280477046972 L 1229.2 178.1002146363259 L 1232 173.94870642423635 L 1234.8 181.02110121250158 L 1237.6 169.16509035825734 L 1240.4 179.74531296491628 L 1243.2 169.18587598800664 L 1246 169.39699057340627 L 1248.8 167.7462745070458 L 1251.6000000000001 163.23332104682927 L 1254.4 169.17947176694875 L 1257.2 163.47544554471975" stroke-linecap="round" />
</g>
		<g transform="matrix(1 0 0 1 289.81 -256.48)" clip-path="url(#CLIPPATH_91)"  >
<clipPath id="CLIPPATH_91" >
	<rect transform="matrix(1 0 0 1 -328.6 -123.35)" id="clip_0" x="-700" y="-188.5" rx="0" ry="0" width="1400" height="377" />
</clipPath>
<path style="stroke: rgb(238,51,119); stroke-width: 2; stroke-dasharray: none; stroke-linecap: butt; stroke-dashoffset: 0; stroke-linejoin: miter; stroke-miterlimit: 4; fill: rgb(0,0,0); fill-opacity: 0; fill-rule: nonzero; opacity: 1;" vector-effect="non-scaling-stroke"  transform=" translate(-978.6, -311.85)" d="M 700 324.9510258793831 L 702.8 321.85891065597536 L 705.6 331.4764777183533 L 708.4 326.63314509987833 L 711.2 328.9927073180676 L 714 322.39523608088496 L 716.8000000000001 327.9332581520081 L 719.6 325.3120217084885 L 722.4 330.05805510878565 L 725.2 334.68858782052996 L 728 328.8972057759762 L 730.8000000000001 321.2622507274151 L 733.6 330.27383241653445 L 736.4 327.97982919812205 L 739.2 328.6478343963623 L 742 330.37079457044604 L 744.8000000000001 334.33152440786364 L 747.6 324.1969007611275 L 750.4000000000001 328.67704663276675 L 753.2 328.90136290192606 L 756 323.4037885427475 L 758.8000000000001 332.8907432019711 L 761.6 325.4374096155167 L 764.4000000000001 335.1009297728539 L 767.2 335.91499615311625 L 770.0000000000001 327.60984498858454 L 772.8000000000001 323.01582757234576 L 775.6 327.7533220112324 L 778.4000000000001 328.02735525965693 L 781.2 329.6903179943562 L 784.0000000000001 325.6976232290268 L 786.8000000000001 332.5417693316937 L 789.5999999999999 326.3443372011185 L 792.4 322.0012079536915 L 795.1999999999999 327.3992359995842 L 797.9999999999999 319.6648469924927 L 800.8 327.536533510685 L 803.5999999999999 329.574311709404 L 806.4 331.5409131705761 L 809.1999999999999 325.61498630642893 L 812 325.6540857613087 L 814.8 324.7908641755581 L 817.5999999999999 319.3857577800751 L 820.4 322.15867314338686 L 823.1999999999999 323.9119129240513 L 826 327.5588359296322 L 828.8 326.5205094575882 L 831.5999999999999 327.0508800804615 L 834.4 320.3188078463078 L 837.1999999999999 313.0896219968796 L 840 323.8629262506962 L 842.8 322.8222965061665 L 845.6 310.8724694311619 L 848.4 320.8973224818707 L 851.1999999999999 326.77954334616663 L 854 316.8395743131638 L 856.8 323.9057895898819 L 859.6 323.4861445784569 L 862.4 323.0686904847622 L 865.2 321.25730711817744 L 868 324.39610574245455 L 870.8 316.76688078641894 L 873.6 323.40564239621165 L 876.4 324.11089319586756 L 879.2 325.79121474027636 L 882 326.1002464950085 L 884.8 320.27476478219035 L 887.6 318.9247662186623 L 890.4 319.18627191185954 L 893.2 312.28431928753855 L 896 317.3849442958832 L 898.8000000000001 322.54770148396494 L 901.6 321.71133268475535 L 904.4 325.92266980409624 L 907.2 327.3692934572697 L 910 320.6880055725575 L 912.8000000000001 327.3345196604729 L 915.6 322.13704485297205 L 918.4000000000001 323.7283814311028 L 921.2 322.4182688057423 L 924 320.59447023868563 L 926.8000000000001 312.31971103549006 L 929.6 319.0874559044838 L 932.4000000000001 323.6448456704617 L 935.2 314.53068408966067 L 938 316.6237408280373 L 940.8000000000001 323.693607634306 L 943.6 320.4966654241085 L 946.4000000000001 324.14347607493403 L 949.2 316.1310090482235 L 952.0000000000001 317.82745350003245 L 954.8000000000001 314.87263578772547 L 957.6 318.53877145648005 L 960.4000000000001 320.2863934993744 L 963.1999999999999 315.7260825097561 L 965.9999999999999 317.50066969394686 L 968.8 314.3367597818375 L 971.5999999999999 311.47396061420443 L 974.4 319.2064957678318 L 977.1999999999999 316.82468730807307 L 979.9999999999999 318.12114883065226 L 982.8 312.8239591777325 L 985.5999999999999 316.5843043088913 L 988.4 317.7676807701588 L 991.1999999999999 311.360819375515 L 994 315.10195184350016 L 996.8 299.9171504735947 L 999.5999999999999 323.44676423668864 L 1002.4 306.90769482254984 L 1005.1999999999999 314.14654318094256 L 1008 319.97460905313494 L 1010.8 308.92322677969935 L 1013.6 301.9629058599472 L 1016.4 311.4912070691586 L 1019.1999999999999 307.2249284744263 L 1022 315.3775580585003 L 1024.8 312.0707890748978 L 1027.6 312.6565505921841 L 1030.4 304.94277868270876 L 1033.2 308.2719062626362 L 1036 304.4995391726494 L 1038.8 307.52030912637713 L 1041.6 307.8119820713997 L 1044.4 303.20470679402354 L 1047.2 310.8938168346882 L 1050 303.97237066030505 L 1052.8 312.08848494887354 L 1055.6 309.1167578458786 L 1058.4 311.3940763831139 L 1061.2 309.0376039206982 L 1064 304.83783934116366 L 1066.8 310.68815145492556 L 1069.6 305.9895879387856 L 1072.4 301.9801523149014 L 1075.2 310.08104253411295 L 1078 313.91503620743754 L 1080.8 314.6495554208756 L 1083.6000000000001 310.7670244932175 L 1086.4 306.69804084897044 L 1089.2 311.94349113702776 L 1092 316.62722382545473 L 1094.8 305.6338166058064 L 1097.6000000000001 307.0929116368294 L 1100.4 310.2014868319035 L 1103.2 302.7755116283894 L 1106 306.73405054807665 L 1108.8 312.540151065588 L 1111.6000000000001 299.21032670736315 L 1114.4 304.2197196543217 L 1117.2 292.22242269515993 L 1120 311.3517186403275 L 1122.8 304.9029489219189 L 1125.6000000000001 316.24448735117915 L 1128.4 309.10585943460467 L 1131.2 308.55133253932 L 1134 303.4613250553608 L 1136.8000000000002 304.9301949501038 L 1139.6 303.91068789958956 L 1142.3999999999999 301.2986645460129 L 1145.1999999999998 299.3948132157326 L 1148 296.9268286585808 L 1150.8 302.7207386851311 L 1153.6 297.7296033859253 L 1156.3999999999999 300.6846458077431 L 1159.2 291.2787551045418 L 1162 306.33693266510966 L 1164.8 300.3709513306618 L 1167.6 300.9767681717873 L 1170.3999999999999 287.78283689022066 L 1173.2 299.23144940137865 L 1176 297.748816049099 L 1178.8 297.7640962958336 L 1181.6 301.34472999572756 L 1184.3999999999999 307.27003890872004 L 1187.2 303.9468661308289 L 1190 307.48053554296496 L 1192.8 301.6769630074501 L 1195.6 302.48878229260447 L 1198.3999999999999 301.14912036657336 L 1201.2 289.7046649813652 L 1204 298.23362681865694 L 1206.8 309.38927430510523 L 1209.6 305.45124012827876 L 1212.4 296.69167015552523 L 1215.2 301.3552913427353 L 1218 298.8786554694176 L 1220.8 300.0917497634888 L 1223.6 291.4816677927971 L 1226.4 294.92185804843905 L 1229.2 296.47639844417574 L 1232 294.5772660136223 L 1234.8 301.93526659011843 L 1237.6 300.41623029708865 L 1240.4 295.74553076028826 L 1243.2 291.2994283795357 L 1246 304.56425551176073 L 1248.8 298.90337351560595 L 1251.6000000000001 298.4115967512131 L 1254.4 302.26289305686953 L 1257.2 296.03023771047594" stroke-linecap="round" />
</g>
		<g transform="matrix(1 0 0 1 -250.59 -454.14)" clip-path="url(#CLIPPATH_92)"  >
<clipPath id="CLIPPATH_92" >
	<rect transform="matrix(1 0 0 1 211.8 74.31)" id="clip_0" x="-700" y="-188.5" rx="0" ry="0" width="1400" height="377" />
</clipPath>
<path style="stroke: rgb(51,187,238); stroke-width: 2; stroke-dasharray: none; stroke-linecap: butt; stroke-dashoffset: 0; stroke-linejoin: miter; stroke-miterlimit: 4; fill: rgb(0,0,0); fill-opacity: 0; fill-rule: nonzero; opacity: 1;" vector-effect="non-scaling-stroke"  transform=" translate(-438.2, -114.19)" d="M 179.20000000000002 -107.18783434629431 L 182 6.074073350429593 L 184.8 34.28781304359442 L 187.60000000000002 -11.179572308063406 L 190.4 9.760994648933469 L 193.20000000000002 9.37831435203558 L 196.00000000000003 23.398614859581052 L 198.79999999999998 93.5133752584458 L 201.6 28.194927012920438 L 204.39999999999998 65.48513326644904 L 207.2 56.83505300283438 L 210 62.83580813407904 L 212.79999999999998 88.23225233554847 L 215.6 52.18693677186972 L 218.4 107.16335449218757 L 221.2 60.884655451774655 L 224 70.01314226388938 L 226.8 48.17924264669424 L 229.60000000000002 87.51913670301444 L 232.4 95.07049981355674 L 235.20000000000002 107.92523208856589 L 238.00000000000003 73.70950136184699 L 240.79999999999998 103.80181256532676 L 243.6 114.70101032257087 L 246.39999999999998 57.67546657323843 L 249.2 127.95482668876654 L 252 136.50434944629674 L 254.79999999999998 57.37480524778372 L 257.6 75.20763967037207 L 260.4 85.60303870439536 L 263.2 7.512888348102628 L 266 46.66672292947775 L 268.8 111.20835039615638 L 271.6 93.45427665710456 L 274.40000000000003 87.59138081073768 L 277.2 98.9098865151406 L 280 96.13045457601554 L 282.8 86.96050885915763 L 285.59999999999997 84.8599243521691 L 288.4 124.5557582736016 L 291.2 101.02013353109366 L 294 72.26843926906592 L 296.8 46.22898880243307 L 299.59999999999997 76.49353984594352 L 302.4 96.34606335163123 L 305.2 69.20890692472464 L 308 124.88596889972693 L 310.8 90.0897011518479 L 313.6 72.41450045108802 L 316.40000000000003 73.96578255891806 L 319.2 75.14213684797294 L 322 67.9507583737374 L 324.8 78.76052174568183 L 327.6 122.41259131431586 L 330.4 104.30122945308692 L 333.2 91.36650059223182 L 336 100.85429791212088 L 338.8 108.56790128946311 L 341.59999999999997 130.16776595115667 L 344.4 84.32432923316962 L 347.2 64.49416432380683 L 350 92.98508319854743 L 352.8 61.844726836681424 L 355.6 78.69715366363532 L 358.40000000000003 48.13104245662695 L 361.2 76.23849455118186 L 364 70.24133477211005 L 366.8 73.15345767736441 L 369.6 96.50718007087714 L 372.40000000000003 93.05069837570197 L 375.20000000000005 81.92836407423026 L 378 19.513612127304135 L 380.8 72.42955598831183 L 383.6 60.065364575386106 L 386.40000000000003 85.32563481330878 L 389.20000000000005 79.11612454652793 L 392.00000000000006 57.89152476787573 L 394.79999999999995 33.51335171461111 L 397.59999999999997 52.946791982650815 L 400.4 56.98852959871298 L 403.2 74.26228675842292 L 406 22.990767097473203 L 408.79999999999995 -12.170204186439413 L 411.59999999999997 33.35133615732199 L 414.4 80.43303463459021 L 417.2 74.62496790885932 L 420 184.30208477973943 L 422.8 212.2343758106232 L 425.59999999999997 213.56510553359988 L 428.4 185.97617063522344 L 431.2 215.93500438928606 L 434 224.71092197895052 L 436.8 213.35646275281908 L 439.6 229.76003233194353 L 442.4 214.83257952928545 L 445.2 242.98272643089297 L 448 228.80748871564867 L 450.8 205.94835195541384 L 453.6 219.72888741493227 L 456.40000000000003 250.44375631809237 L 459.20000000000005 227.96786162853243 L 462 232.4974435925484 L 464.8 225.50998899936678 L 467.6 235.18384579420092 L 470.40000000000003 237.3919538021088 L 473.20000000000005 249.2531329751015 L 476.00000000000006 224.24790803194048 L 478.8 220.05718801021578 L 481.59999999999997 230.70763233900072 L 484.4 237.7689040064812 L 487.2 223.49827710390093 L 489.99999999999994 215.85950199365618 L 492.79999999999995 225.01180801391604 L 495.59999999999997 210.17940733432772 L 498.4 252.42041352987292 L 501.2 231.6544458627701 L 504 246.37651417255404 L 506.8 258.0873626828194 L 509.59999999999997 210.60467008352282 L 512.4 223.03133074045184 L 515.2 218.4481555581093 L 518 230.94043139219286 L 520.8 246.52976605892184 L 523.6 246.12787309885027 L 526.4 236.67299572229388 L 529.2 232.4144134283066 L 532 296.69931027889254 L 534.8 312.2728029251099 L 537.6 302.92567375898363 L 540.4 307.4123923838139 L 543.2 316.95631090402605 L 546 292.9605934381485 L 548.8000000000001 311.7366460323334 L 551.6 299.6337917804718 L 554.4 311.53760958313944 L 557.2 301.1668724179268 L 560 301.16833302974703 L 562.8000000000001 317.1692231655121 L 565.6 300.0868061542511 L 568.4000000000001 300.2880335211754 L 571.1999999999999 315.00364143252375 L 574 304.570210313797 L 576.8 304.64998219013216 L 579.6 308.97142696976664 L 582.4 310.4131070137024 L 585.1999999999999 293.5294455647469 L 588 298.9630338907242 L 590.8 310.1972173511982 L 593.6 312.59160954356196 L 596.4 296.214050090313 L 599.1999999999999 290.23520413637164 L 602 304.1433184206486 L 604.8 298.6918095111847 L 607.6 288.4319103121758 L 610.4 261.6640639662743 L 613.2 289.33591667413714 L 616 289.11918435096743 L 618.8 308.72081968784335 L 621.6 284.06501803398135 L 624.4 313.4184281885624 L 627.2 316.32105711698534 L 630 277.3821571826935 L 632.8000000000001 278.46761647462847 L 635.6 296.84065256118777 L 638.4 298.3201399803162 L 641.2 282.0275768995285 L 644 315.0070120751858 L 646.8000000000001 324.27880737781527 L 649.6 310.47259885668757 L 652.4000000000001 309.03507593870165 L 655.2 313.7593686938286 L 658 311.47643241882326 L 660.8 326.08283150792124 L 663.6 305.9275119364262 L 666.4 316.0582031667233 L 669.1999999999999 316.6377289950848 L 672 329.48628175854685 L 674.8 326.1481657981873 L 677.6 320.8006973922253 L 680.4 323.2626709699631 L 683.1999999999999 327.99949128031733 L 686 333.34325197935107 L 688.8 330.7306668519974 L 691.6 326.54915992021563 L 694.4 335.57467359900477 L 697.2 327.03970078229906" stroke-linecap="round" />
</g>
		<g transform="matrix(1 0 0 1 26.61 -400.53)" clip-path="url(#CLIPPATH_93)"  >
<clipPath id="CLIPPATH_93" >
	<rect transform="matrix(1 0 0 1 -65.4 20.7)" id="clip_0" x="-700" y="-188.5" rx="0" ry="0" width="1400" height="377" />
</clipPath>
<path style="stroke: rgb(255,112,67); stroke-width: 2; stroke-dasharray: none; stroke-linecap: butt; stroke-dashoffset: 0; stroke-linejoin: miter; stroke-miterlimit: 4; fill: rgb(0,0,0); fill-opacity: 0; fill-rule: nonzero; opacity: 1;" vector-effect="non-scaling-stroke"  transform=" translate(-715.4, -167.8)" d="M 173.6 -20.747703278064627 L 176.4 68.86835966110236 L 179.20000000000002 75.26921007633216 L 182 81.99858579635627 L 184.8 56.70595738887793 L 187.60000000000002 40.10026160478598 L 190.4 58.559810853004514 L 193.20000000000002 72.09777239561087 L 196.00000000000003 108.57374373674399 L 198.79999999999998 93.66999778747565 L 201.6 116.74081090688712 L 204.39999999999998 124.2771184802056 L 207.2 126.1104110240937 L 210 54.704582130909024 L 212.79999999999998 100.75003269910819 L 215.6 120.06808463335044 L 218.4 113.77958897352225 L 221.2 106.24485436677939 L 224 147.65421066284185 L 226.8 151.66920784711843 L 229.60000000000002 110.99274162054068 L 232.4 116.23364154100425 L 235.20000000000002 145.32554600238805 L 238.00000000000003 156.2337321400643 L 240.79999999999998 116.70598093271262 L 243.6 108.55385694503791 L 246.39999999999998 155.2999517679215 L 249.2 148.64529196023946 L 252 132.36194196939473 L 254.79999999999998 160.47242764234548 L 257.6 134.45499870777135 L 260.4 146.45617190599447 L 263.2 131.236821448803 L 266 174.37351975440984 L 268.8 117.27786663770682 L 271.6 156.9108942508698 L 274.40000000000003 140.89876863956457 L 277.2 153.35801217556005 L 280 148.89348361492162 L 282.8 141.01651642322545 L 285.59999999999997 150.17983320951467 L 288.4 154.18190959692006 L 291.2 108.77103868722922 L 294 167.15101901292806 L 296.8 56.95796910524374 L 299.59999999999997 156.95617321729665 L 302.4 169.03194997310644 L 305.2 109.25506297349936 L 308 163.35713598728185 L 310.8 126.92363474369056 L 313.6 137.1984771251679 L 316.40000000000003 140.81439021825796 L 319.2 154.07449845075612 L 322 169.0361070990563 L 324.8 157.88096520900731 L 327.6 158.67756042480474 L 330.4 131.26884255409246 L 333.2 124.7723782420159 L 336 134.79869190454488 L 338.8 115.7773688793183 L 341.59999999999997 140.1698109865189 L 344.4 157.2386330723763 L 347.2 143.118786251545 L 350 158.9251903057099 L 352.8 151.48741785287862 L 355.6 153.56901440620427 L 358.40000000000003 137.43026498556142 L 361.2 109.95267364978797 L 364 137.8183383107186 L 366.8 156.05182979106908 L 369.6 118.9007187247277 L 372.40000000000003 153.40227994918828 L 375.20000000000005 146.28640387058263 L 378 143.25956676006322 L 380.8 125.01776102781302 L 383.6 142.84385416507726 L 386.40000000000003 139.6802813172341 L 389.20000000000005 111.85326669216163 L 392.00000000000006 124.92888841629035 L 394.79999999999995 150.05388352870946 L 397.59999999999997 148.24587080478673 L 400.4 128.68120018243795 L 403.2 115.75332496166236 L 406 134.13973126411443 L 408.79999999999995 128.4616589903832 L 411.59999999999997 126.7242050528527 L 414.4 165.82354757785802 L 417.2 130.54550263881688 L 420 245.73395732641222 L 422.8 258.85081324577334 L 425.59999999999997 260.17581287622454 L 428.4 273.959157204628 L 431.2 278.02594993114474 L 434 274.5876697063446 L 436.8 267.73414198160174 L 439.6 291.62244830131533 L 442.4 277.44676116704943 L 445.2 272.1260893702507 L 448 286.2730136871338 L 450.8 296.256857252121 L 453.6 276.57522532939913 L 456.40000000000003 295.95518473386767 L 459.20000000000005 293.0018276333809 L 462 299.47447273731234 L 464.8 287.1839860439301 L 467.6 285.3448510527611 L 470.40000000000003 275.1371968150139 L 473.20000000000005 266.25555340051653 L 476.00000000000006 268.9800438642502 L 478.8 277.9965129852295 L 481.59999999999997 302.62579891681673 L 484.4 281.6277063250542 L 487.2 298.1249797701836 L 489.99999999999994 289.0416595697403 L 492.79999999999995 287.6941889882088 L 495.59999999999997 299.0753886461258 L 498.4 267.38584223985674 L 501.2 261.8684372663498 L 504 289.5005163908005 L 506.8 276.20018515586855 L 509.59999999999997 283.4677401542664 L 512.4 286.45030949115755 L 515.2 293.7749407052994 L 518 289.6523076653481 L 520.8 279.9202511072159 L 523.6 295.9375450372696 L 526.4 276.7545435190201 L 529.2 287.28555474281313 L 532 336.0738095998764 L 534.8 335.35726714730265 L 537.6 340.45497093200686 L 540.4 329.23438239693644 L 543.2 341.1486491918564 L 546 340.5745163917542 L 548.8000000000001 337.02483642697337 L 551.6 329.22842759490015 L 554.4 346.3201138734818 L 557.2 328.8567580640316 L 560 321.16894010305407 L 562.8000000000001 335.7042186319828 L 565.6 338.85099444389346 L 568.4000000000001 333.486897534132 L 571.1999999999999 307.6931669175625 L 574 339.93903789520266 L 576.8 342.3526989281178 L 579.6 341.63874063491824 L 582.4 341.3786393761635 L 585.1999999999999 329.61824241876604 L 588 327.7183235049248 L 590.8 330.52421498894694 L 593.6 324.2538084447384 L 596.4 328.0876897633076 L 599.1999999999999 331.70989472270014 L 602 331.34906742572787 L 604.8 327.49968115091326 L 607.6 321.43342319726946 L 610.4 327.87483367919924 L 613.2 321.6509981811047 L 616 323.46299949884417 L 618.8 325.5554944634438 L 621.6 314.67528465986254 L 624.4 317.17326793670657 L 627.2 331.20002884268763 L 630 324.6856439471245 L 632.8000000000001 333.4927961587906 L 635.6 326.11749294996264 L 638.4 330.3206281721592 L 641.2 320.80367479324343 L 644 340.9585449457169 L 646.8000000000001 347.5162425994873 L 649.6 337.7853657662869 L 652.4000000000001 345.4232420384884 L 655.2 347.8292629480362 L 658 340.8354603111744 L 660.8 347.5987109899521 L 663.6 345.6670518577099 L 666.4 341.5250937998295 L 669.1999999999999 342.5275791049004 L 672 354.304660743475 L 674.8 350.0718076884747 L 677.6 356.3543485462666 L 680.4 354.0182122945786 L 683.1999999999999 350.7344760358334 L 686 346.3570785880089 L 688.8 353.65468848347666 L 691.6 343.4910773098469 L 694.4 348.79304203987124 L 697.2 351.54107082486155 L 700 352.1383487045765 L 702.8 353.91816038489344 L 705.6 350.1368610918522 L 708.4 347.1029456317425 L 711.2 351.0559791684151 L 714 349.6902509391308 L 716.8000000000001 348.13823852539065 L 719.6 347.17592004537585 L 722.4 353.14437318444254 L 725.2 339.4269810974598 L 728 344.3269405126572 L 730.8000000000001 342.8064997851849 L 733.6 344.7179912388325 L 736.4 341.7059849560261 L 739.2 339.46360874772074 L 742 347.23996225595477 L 744.8000000000001 348.7403476595879 L 747.6 345.5217209815979 L 750.4000000000001 351.3019799053669 L 753.2 348.9080371320248 L 756 346.91666144728663 L 758.8000000000001 340.31548250317576 L 761.6 341.69497418999674 L 764.4000000000001 342.0262521862984 L 767.2 342.48325515389445 L 770.0000000000001 344.6501851439476 L 772.8000000000001 338.56505159139635 L 775.6 342.5576340019703 L 778.4000000000001 343.4911896646023 L 781.2 344.4448006510735 L 784.0000000000001 338.96986577510836 L 786.8000000000001 337.32482362389567 L 789.5999999999999 339.5593349993229 L 792.4 340.9797799944878 L 795.1999999999999 344.6560837686062 L 797.9999999999999 345.6367722511292 L 800.8 339.56989634633067 L 803.5999999999999 343.3374321818352 L 806.4 342.2578153371811 L 809.1999999999999 340.58794278502467 L 812 334.2038894057274 L 814.8 339.9424647152424 L 817.5999999999999 334.81425661444666 L 820.4 339.65916219949725 L 823.1999999999999 336.7883858442307 L 826 337.33605909943583 L 828.8 337.10168707966807 L 831.5999999999999 338.46696588993075 L 834.4 337.5637460112572 L 837.1999999999999 337.1515725910664 L 840 335.1926112532616 L 842.8 335.89926648736 L 845.6 337.46942419409754 L 848.4 336.17346826791766 L 851.1999999999999 336.002351975441 L 854 337.60795760750773 L 856.8 331.4005820810795 L 859.6 334.2293939352036 L 862.4 333.8001987695694 L 865.2 332.59592432379725 L 868 333.7139664947987 L 870.8 331.6377629697323 L 873.6 334.41590282917025 L 876.4 339.2314276456833 L 879.2 339.68814972639086 L 882 340.39789471626284 L 884.8 339.04548052549364 L 887.6 337.7609847843647 L 890.4 335.3600760161877 L 893.2 337.79042173027995 L 896 333.518075978756 L 898.8000000000001 328.19684240818026 L 901.6 338.03490567803385 L 904.4 330.82611221671107 L 907.2 326.85785461068156 L 910 334.74931556582453 L 912.8000000000001 333.67829385995867 L 915.6 334.0357505142689 L 918.4000000000001 325.3262345850468 L 921.2 331.9876356780529 L 924 328.20380840301516 L 926.8000000000001 330.07091972827914 L 929.6 327.0504306614399 L 932.4000000000001 332.7318174004555 L 935.2 332.13459569811823 L 938 332.0007250070572 L 940.8000000000001 328.4924477696419 L 943.6 326.69595140814783 L 946.4000000000001 328.8904644906521 L 949.2 321.63380790352824 L 952.0000000000001 333.68351835608485 L 954.8000000000001 325.2207896471024 L 957.6 323.98567382097247 L 960.4000000000001 322.9899298012257 L 963.1999999999999 324.603119379282 L 965.9999999999999 329.66762233376505 L 968.8 325.27545023560526 L 971.5999999999999 330.1323216021061 L 974.4 322.2185582280159 L 977.1999999999999 330.22439632415774 L 979.9999999999999 323.15548453330996 L 982.8 324.0145489931107 L 985.5999999999999 326.4001213371754 L 988.4 333.3610602080822 L 991.1999999999999 323.86034209132197 L 994 326.66241351366045 L 996.8 321.7694762706757 L 999.5999999999999 324.78710029125216 L 1002.4 318.7042138338089 L 1005.1999999999999 325.4504427671433 L 1008 315.5574380218983 L 1010.8 325.2700010299683 L 1013.6 324.10336542725565 L 1016.4 333.9812584578991 L 1019.1999999999999 324.1843732059002 L 1022 318.6125885307789 L 1024.8 329.3134239673615 L 1027.6 328.01381651163103 L 1030.4 322.7742086708546 L 1033.2 322.0001405835152 L 1036 322.2869822740555 L 1038.8 319.4993484377861 L 1041.6 325.341964250803 L 1044.4 322.29164499640467 L 1047.2 320.40672544240954 L 1050 318.39299116134646 L 1052.8 319.93348721265795 L 1055.6 320.0900535643101 L 1058.4 320.4103207945824 L 1061.2 324.08769193887713 L 1064 321.63453820943835 L 1066.8 319.9216337859631 L 1069.6 316.72693867087366 L 1072.4 319.2663246750832 L 1075.2 318.80937788486483 L 1078 317.31876734495165 L 1080.8 311.40643540620806 L 1083.6000000000001 320.5102041721344 L 1086.4 313.0402982592583 L 1089.2 325.1117493569851 L 1092 314.99117005467417 L 1094.8 316.53627265095713 L 1097.6000000000001 311.7384998857975 L 1100.4 315.6778261423111 L 1103.2 322.05878976583483 L 1106 311.6940074026585 L 1108.8 315.42154494524004 L 1111.6000000000001 312.8678337097168 L 1114.4 309.3326475083828 L 1117.2 314.89224169254305 L 1120 309.8950954139233 L 1122.8 311.025665140152 L 1125.6000000000001 318.14895663261416 L 1128.4 315.5495731890202 L 1131.2 312.1751666426659 L 1134 316.6184039771557 L 1136.8000000000002 320.45745361447337 L 1139.6 318.1997409820557 L 1142.3999999999999 314.9865635097027 L 1145.1999999999998 312.87704679965975 L 1148 314.6925872921944 L 1150.8 312.52925265431406 L 1153.6 321.0463610649109 L 1156.3999999999999 309.5761202633381 L 1159.2 307.976975029707 L 1162 316.02314848303797 L 1164.8 313.63139662742617 L 1167.6 316.1979724824429 L 1170.3999999999999 315.0996485710144 L 1173.2 304.75924718976023 L 1176 311.1714454352856 L 1178.8 308.4957731127739 L 1181.6 311.15397427082064 L 1184.3999999999999 306.21834222078326 L 1187.2 307.3157672941685 L 1190 311.9654564917088 L 1192.8 300.4325217366219 L 1195.6 306.3342923283577 L 1198.3999999999999 311.5820458889008 L 1201.2 304.2699984073639 L 1204 305.48517126441004 L 1206.8 303.15807957053187 L 1209.6 306.0250358641148 L 1212.4 304.71879947781565 L 1215.2 313.0636680483818 L 1218 310.29614571332934 L 1220.8 302.01975736618044 L 1223.6 313.4190461397171 L 1226.4 312.4681878447533 L 1229.2 309.02749199271204 L 1232 305.5322479069233 L 1234.8 303.9122046887875 L 1237.6 304.62048906683924 L 1240.4 306.3458648681641 L 1243.2 308.2842652857304 L 1246 301.4670843243599 L 1248.8 307.15245965719225 L 1251.6000000000001 302.75287214517596 L 1254.4 299.1141510367394 L 1257.2 299.02258191108706" stroke-linecap="round" />
</g>
		<g transform="matrix(1 0 0 1 -688.79 -188.83)" clip-path="url(#CLIPPATH_94)"  >
<clipPath id="CLIPPATH_94" >
	<rect transform="matrix(1 0 0 1 650 -368)" id="clip_1" x="-700" y="-11.5" rx="0" ry="0" width="1400" height="23" />
</clipPath>
<line style="stroke: rgb(204,204,204); stroke-width: 1; stroke-dasharray: none; stroke-linecap: butt; stroke-dashoffset: 0; stroke-linejoin: miter; stroke-miterlimit: 4; fill: rgb(0,0,0); fill-opacity: 0; fill-rule: nonzero; opacity: 1;" vector-effect="non-scaling-stroke"  x1="0" y1="-2.5" x2="0" y2="2.5" />
</g>
		<g transform="matrix(1 0 0 1 -548.79 -188.83)" clip-path="url(#CLIPPATH_95)"  >
<clipPath id="CLIPPATH_95" >
	<rect transform="matrix(1 0 0 1 510 -368)" id="clip_1" x="-700" y="-11.5" rx="0" ry="0" width="1400" height="23" />
</clipPath>
<line style="stroke: rgb(204,204,204); stroke-width: 1; stroke-dasharray: none; stroke-linecap: butt; stroke-dashoffset: 0; stroke-linejoin: miter; stroke-miterlimit: 4; fill: rgb(0,0,0); fill-opacity: 0; fill-rule: nonzero; opacity: 1;" vector-effect="non-scaling-stroke"  x1="0" y1="-2.5" x2="0" y2="2.5" />
</g>
		<g transform="matrix(1 0 0 1 -408.79 -188.83)" clip-path="url(#CLIPPATH_96)"  >
<clipPath id="CLIPPATH_96" >
	<rect transform="matrix(1 0 0 1 370 -368)" id="clip_1" x="-700" y="-11.5" rx="0" ry="0" width="1400" height="23" />
</clipPath>
<line style="stroke: rgb(204,204,204); stroke-width: 1; stroke-dasharray: none; stroke-linecap: butt; stroke-dashoffset: 0; stroke-linejoin: miter; stroke-miterlimit: 4; fill: rgb(0,0,0); fill-opacity: 0; fill-rule: nonzero; opacity: 1;" vector-effect="non-scaling-stroke"  x1="0" y1="-2.5" x2="0" y2="2.5" />
</g>
		<g transform="matrix(1 0 0 1 -268.79 -188.83)" clip-path="url(#CLIPPATH_97)"  >
<clipPath id="CLIPPATH_97" >
	<rect transform="matrix(1 0 0 1 230 -368)" id="clip_1" x="-700" y="-11.5" rx="0" ry="0" width="1400" height="23" />
</clipPath>
<line style="stroke: rgb(204,204,204); stroke-width: 1; stroke-dasharray: none; stroke-linecap: butt; stroke-dashoffset: 0; stroke-linejoin: miter; stroke-miterlimit: 4; fill: rgb(0,0,0); fill-opacity: 0; fill-rule: nonzero; opacity: 1;" vector-effect="non-scaling-stroke"  x1="0" y1="-2.5" x2="0" y2="2.5" />
</g>
		<g transform="matrix(1 0 0 1 -128.79 -188.83)" clip-path="url(#CLIPPATH_98)"  >
<clipPath id="CLIPPATH_98" >
	<rect transform="matrix(1 0 0 1 90 -368)" id="clip_1" x="-700" y="-11.5" rx="0" ry="0" width="1400" height="23" />
</clipPath>
<line style="stroke: rgb(204,204,204); stroke-width: 1; stroke-dasharray: none; stroke-linecap: butt; stroke-dashoffset: 0; stroke-linejoin: miter; stroke-miterlimit: 4; fill: rgb(0,0,0); fill-opacity: 0; fill-rule: nonzero; opacity: 1;" vector-effect="non-scaling-stroke"  x1="0" y1="-2.5" x2="0" y2="2.5" />
</g>
		<g transform="matrix(1 0 0 1 11.21 -188.83)" clip-path="url(#CLIPPATH_99)"  >
<clipPath id="CLIPPATH_99" >
	<rect transform="matrix(1 0 0 1 -50 -368)" id="clip_1" x="-700" y="-11.5" rx="0" ry="0" width="1400" height="23" />
</clipPath>
<line style="stroke: rgb(204,204,204); stroke-width: 1; stroke-dasharray: none; stroke-linecap: butt; stroke-dashoffset: 0; stroke-linejoin: miter; stroke-miterlimit: 4; fill: rgb(0,0,0); fill-opacity: 0; fill-rule: nonzero; opacity: 1;" vector-effect="non-scaling-stroke"  x1="0" y1="-2.5" x2="0" y2="2.5" />
</g>
		<g transform="matrix(1 0 0 1 151.21 -188.83)" clip-path="url(#CLIPPATH_100)"  >
<clipPath id="CLIPPATH_100" >
	<rect transform="matrix(1 0 0 1 -190 -368)" id="clip_1" x="-700" y="-11.5" rx="0" ry="0" width="1400" height="23" />
</clipPath>
<line style="stroke: rgb(204,204,204); stroke-width: 1; stroke-dasharray: none; stroke-linecap: butt; stroke-dashoffset: 0; stroke-linejoin: miter; stroke-miterlimit: 4; fill: rgb(0,0,0); fill-opacity: 0; fill-rule: nonzero; opacity: 1;" vector-effect="non-scaling-stroke"  x1="0" y1="-2.5" x2="0" y2="2.5" />
</g>
		<g transform="matrix(1 0 0 1 291.21 -188.83)" clip-path="url(#CLIPPATH_101)"  >
<clipPath id="CLIPPATH_101" >
	<rect transform="matrix(1 0 0 1 -330 -368)" id="clip_1" x="-700" y="-11.5" rx="0" ry="0" width="1400" height="23" />
</clipPath>
<line style="stroke: rgb(204,204,204); stroke-width: 1; stroke-dasharray: none; stroke-linecap: butt; stroke-dashoffset: 0; stroke-linejoin: miter; stroke-miterlimit: 4; fill: rgb(0,0,0); fill-opacity: 0; fill-rule: nonzero; opacity: 1;" vector-effect="non-scaling-stroke"  x1="0" y1="-2.5" x2="0" y2="2.5" />
</g>
		<g transform="matrix(1 0 0 1 431.21 -188.83)" clip-path="url(#CLIPPATH_102)"  >
<clipPath id="CLIPPATH_102" >
	<rect transform="matrix(1 0 0 1 -470 -368)" id="clip_1" x="-700" y="-11.5" rx="0" ry="0" width="1400" height="23" />
</clipPath>
<line style="stroke: rgb(204,204,204); stroke-width: 1; stroke-dasharray: none; stroke-linecap: butt; stroke-dashoffset: 0; stroke-linejoin: miter; stroke-miterlimit: 4; fill: rgb(0,0,0); fill-opacity: 0; fill-rule: nonzero; opacity: 1;" vector-effect="non-scaling-stroke"  x1="0" y1="-2.5" x2="0" y2="2.5" />
</g>
		<g transform="matrix(1 0 0 1 571.21 -188.83)" clip-path="url(#CLIPPATH_103)"  >
<clipPath id="CLIPPATH_103" >
	<rect transform="matrix(1 0 0 1 -610 -368)" id="clip_1" x="-700" y="-11.5" rx="0" ry="0" width="1400" height="23" />
</clipPath>
<line style="stroke: rgb(204,204,204); stroke-width: 1; stroke-dasharray: none; stroke-linecap: butt; stroke-dashoffset: 0; stroke-linejoin: miter; stroke-miterlimit: 4; fill: rgb(0,0,0); fill-opacity: 0; fill-rule: nonzero; opacity: 1;" vector-effect="non-scaling-stroke"  x1="0" y1="-2.5" x2="0" y2="2.5" />
</g>
		<g transform="matrix(1 0 0 1 711.21 -188.83)" clip-path="url(#CLIPPATH_104)"  >
<clipPath id="CLIPPATH_104" >
	<rect transform="matrix(1 0 0 1 -750 -368)" id="clip_1" x="-700" y="-11.5" rx="0" ry="0" width="1400" height="23" />
</clipPath>
<line style="stroke: rgb(204,204,204); stroke-width: 1; stroke-dasharray: none; stroke-linecap: butt; stroke-dashoffset: 0; stroke-linejoin: miter; stroke-miterlimit: 4; fill: rgb(0,0,0); fill-opacity: 0; fill-rule: nonzero; opacity: 1;" vector-effect="non-scaling-stroke"  x1="0" y1="-2.5" x2="0" y2="2.5" />
</g>
		<g transform="matrix(1 0 0 1 -688.79 -175.69)" style="" clip-path="url(#CLIPPATH_105)"  >
<clipPath id="CLIPPATH_105" >
	<rect transform="matrix(1 0 0 1 650 -381.14)" id="clip_1" x="-700" y="-11.5" rx="0" ry="0" width="1400" height="23" />
</clipPath>
		<text xml:space="preserve" font-family="Roboto, sans-serif" font-size="12" font-style="normal" font-weight="200" style="stroke: none; stroke-width: 1; stroke-dasharray: none; stroke-linecap: butt; stroke-dashoffset: 0; stroke-linejoin: miter; stroke-miterlimit: 4; fill: rgb(0,0,0); fill-opacity: 0; fill-rule: nonzero; opacity: 1; visibility: hidden; white-space: pre;" ><tspan x="-8.35" y="3.77" >-50</tspan></text>
</g>
		<g transform="matrix(1 0 0 1 -548.79 -175.69)" style="" clip-path="url(#CLIPPATH_106)"  >
<clipPath id="CLIPPATH_106" >
	<rect transform="matrix(1 0 0 1 510 -381.14)" id="clip_1" x="-700" y="-11.5" rx="0" ry="0" width="1400" height="23" />
</clipPath>
		<text xml:space="preserve" font-family="Roboto, sans-serif" font-size="12" font-style="normal" font-weight="200" style="stroke: none; stroke-width: 1; stroke-dasharray: none; stroke-linecap: butt; stroke-dashoffset: 0; stroke-linejoin: miter; stroke-miterlimit: 4; fill: rgb(0,0,0); fill-opacity: 0; fill-rule: nonzero; opacity: 1; white-space: pre;" ><tspan x="-3.28" y="3.77" >0</tspan></text>
</g>
		<g transform="matrix(1 0 0 1 -408.79 -175.69)" style="" clip-path="url(#CLIPPATH_107)"  >
<clipPath id="CLIPPATH_107" >
	<rect transform="matrix(1 0 0 1 370 -381.14)" id="clip_1" x="-700" y="-11.5" rx="0" ry="0" width="1400" height="23" />
</clipPath>
		<text xml:space="preserve" font-family="Roboto, sans-serif" font-size="12" font-style="normal" font-weight="200" style="stroke: none; stroke-width: 1; stroke-dasharray: none; stroke-linecap: butt; stroke-dashoffset: 0; stroke-linejoin: miter; stroke-miterlimit: 4; fill: rgb(0,0,0); fill-opacity: 0; fill-rule: nonzero; opacity: 1; white-space: pre;" ><tspan x="-6.57" y="3.77" >50</tspan></text>
</g>
		<g transform="matrix(1 0 0 1 -268.79 -175.69)" style="" clip-path="url(#CLIPPATH_108)"  >
<clipPath id="CLIPPATH_108" >
	<rect transform="matrix(1 0 0 1 230 -381.14)" id="clip_1" x="-700" y="-11.5" rx="0" ry="0" width="1400" height="23" />
</clipPath>
		<text xml:space="preserve" font-family="Roboto, sans-serif" font-size="12" font-style="normal" font-weight="200" style="stroke: none; stroke-width: 1; stroke-dasharray: none; stroke-linecap: butt; stroke-dashoffset: 0; stroke-linejoin: miter; stroke-miterlimit: 4; fill: rgb(0,0,0); fill-opacity: 0; fill-rule: nonzero; opacity: 1; white-space: pre;" ><tspan x="-9.85" y="3.77" >100</tspan></text>
</g>
		<g transform="matrix(1 0 0 1 -128.79 -175.69)" style="" clip-path="url(#CLIPPATH_109)"  >
<clipPath id="CLIPPATH_109" >
	<rect transform="matrix(1 0 0 1 90 -381.14)" id="clip_1" x="-700" y="-11.5" rx="0" ry="0" width="1400" height="23" />
</clipPath>
		<text xml:space="preserve" font-family="Roboto, sans-serif" font-size="12" font-style="normal" font-weight="200" style="stroke: none; stroke-width: 1; stroke-dasharray: none; stroke-linecap: butt; stroke-dashoffset: 0; stroke-linejoin: miter; stroke-miterlimit: 4; fill: rgb(0,0,0); fill-opacity: 0; fill-rule: nonzero; opacity: 1; white-space: pre;" ><tspan x="-9.85" y="3.77" >150</tspan></text>
</g>
		<g transform="matrix(1 0 0 1 11.21 -175.69)" style="" clip-path="url(#CLIPPATH_110)"  >
<clipPath id="CLIPPATH_110" >
	<rect transform="matrix(1 0 0 1 -50 -381.14)" id="clip_1" x="-700" y="-11.5" rx="0" ry="0" width="1400" height="23" />
</clipPath>
		<text xml:space="preserve" font-family="Roboto, sans-serif" font-size="12" font-style="normal" font-weight="200" style="stroke: none; stroke-width: 1; stroke-dasharray: none; stroke-linecap: butt; stroke-dashoffset: 0; stroke-linejoin: miter; stroke-miterlimit: 4; fill: rgb(0,0,0); fill-opacity: 0; fill-rule: nonzero; opacity: 1; white-space: pre;" ><tspan x="-9.85" y="3.77" >200</tspan></text>
</g>
		<g transform="matrix(1 0 0 1 151.21 -175.69)" style="" clip-path="url(#CLIPPATH_111)"  >
<clipPath id="CLIPPATH_111" >
	<rect transform="matrix(1 0 0 1 -190 -381.14)" id="clip_1" x="-700" y="-11.5" rx="0" ry="0" width="1400" height="23" />
</clipPath>
		<text xml:space="preserve" font-family="Roboto, sans-serif" font-size="12" font-style="normal" font-weight="200" style="stroke: none; stroke-width: 1; stroke-dasharray: none; stroke-linecap: butt; stroke-dashoffset: 0; stroke-linejoin: miter; stroke-miterlimit: 4; fill: rgb(0,0,0); fill-opacity: 0; fill-rule: nonzero; opacity: 1; white-space: pre;" ><tspan x="-9.85" y="3.77" >250</tspan></text>
</g>
		<g transform="matrix(1 0 0 1 291.21 -175.69)" style="" clip-path="url(#CLIPPATH_112)"  >
<clipPath id="CLIPPATH_112" >
	<rect transform="matrix(1 0 0 1 -330 -381.14)" id="clip_1" x="-700" y="-11.5" rx="0" ry="0" width="1400" height="23" />
</clipPath>
		<text xml:space="preserve" font-family="Roboto, sans-serif" font-size="12" font-style="normal" font-weight="200" style="stroke: none; stroke-width: 1; stroke-dasharray: none; stroke-linecap: butt; stroke-dashoffset: 0; stroke-linejoin: miter; stroke-miterlimit: 4; fill: rgb(0,0,0); fill-opacity: 0; fill-rule: nonzero; opacity: 1; white-space: pre;" ><tspan x="-9.85" y="3.77" >300</tspan></text>
</g>
		<g transform="matrix(1 0 0 1 431.21 -175.69)" style="" clip-path="url(#CLIPPATH_113)"  >
<clipPath id="CLIPPATH_113" >
	<rect transform="matrix(1 0 0 1 -470 -381.14)" id="clip_1" x="-700" y="-11.5" rx="0" ry="0" width="1400" height="23" />
</clipPath>
		<text xml:space="preserve" font-family="Roboto, sans-serif" font-size="12" font-style="normal" font-weight="200" style="stroke: none; stroke-width: 1; stroke-dasharray: none; stroke-linecap: butt; stroke-dashoffset: 0; stroke-linejoin: miter; stroke-miterlimit: 4; fill: rgb(0,0,0); fill-opacity: 0; fill-rule: nonzero; opacity: 1; white-space: pre;" ><tspan x="-9.85" y="3.77" >350</tspan></text>
</g>
		<g transform="matrix(1 0 0 1 571.21 -175.69)" style="" clip-path="url(#CLIPPATH_114)"  >
<clipPath id="CLIPPATH_114" >
	<rect transform="matrix(1 0 0 1 -610 -381.14)" id="clip_1" x="-700" y="-11.5" rx="0" ry="0" width="1400" height="23" />
</clipPath>
		<text xml:space="preserve" font-family="Roboto, sans-serif" font-size="12" font-style="normal" font-weight="200" style="stroke: none; stroke-width: 1; stroke-dasharray: none; stroke-linecap: butt; stroke-dashoffset: 0; stroke-linejoin: miter; stroke-miterlimit: 4; fill: rgb(0,0,0); fill-opacity: 0; fill-rule: nonzero; opacity: 1; white-space: pre;" ><tspan x="-9.85" y="3.77" >400</tspan></text>
</g>
		<g transform="matrix(1 0 0 1 711.21 -175.69)" style="" clip-path="url(#CLIPPATH_115)"  >
<clipPath id="CLIPPATH_115" >
	<rect transform="matrix(1 0 0 1 -750 -381.14)" id="clip_1" x="-700" y="-11.5" rx="0" ry="0" width="1400" height="23" />
</clipPath>
		<text xml:space="preserve" font-family="Roboto, sans-serif" font-size="12" font-style="normal" font-weight="200" style="stroke: none; stroke-width: 1; stroke-dasharray: none; stroke-linecap: butt; stroke-dashoffset: 0; stroke-linejoin: miter; stroke-miterlimit: 4; fill: rgb(0,0,0); fill-opacity: 0; fill-rule: nonzero; opacity: 1; visibility: hidden; white-space: pre;" ><tspan x="-9.85" y="3.77" >450</tspan></text>
</g>
		<g transform="matrix(1 0 0 1 11.21 -191.33)" clip-path="url(#CLIPPATH_116)"  >
<clipPath id="CLIPPATH_116" >
	<rect transform="matrix(1 0 0 1 -50 -365.5)" id="clip_1" x="-700" y="-11.5" rx="0" ry="0" width="1400" height="23" />
</clipPath>
<line style="stroke: rgb(204,204,204); stroke-width: 1; stroke-dasharray: none; stroke-linecap: butt; stroke-dashoffset: 0; stroke-linejoin: miter; stroke-miterlimit: 4; fill: rgb(0,0,0); fill-opacity: 0; fill-rule: nonzero; opacity: 1;" vector-effect="non-scaling-stroke"  x1="-700" y1="0" x2="700" y2="0" />
</g>
</g>
</g>
<g transform="matrix(0.41 0 0 0.41 491.76 19.82)" id="6bbd6ead-33c2-43d7-8a35-08fe063df071"  >
<circle style="stroke: rgb(0,0,0); stroke-width: 0; stroke-dasharray: none; stroke-linecap: butt; stroke-dashoffset: 0; stroke-linejoin: miter; stroke-miterlimit: 4; fill: rgb(88,197,237); fill-rule: nonzero; opacity: 1;" vector-effect="non-scaling-stroke"  cx="0" cy="0" r="35" />
</g>
<g transform="matrix(0.41 0 0 0.41 540 20.06)" id="6bbd6ead-33c2-43d7-8a35-08fe063df071"  >
<circle style="stroke: rgb(0,0,0); stroke-width: 0; stroke-dasharray: none; stroke-linecap: butt; stroke-dashoffset: 0; stroke-linejoin: miter; stroke-miterlimit: 4; fill: rgb(241,90,145); fill-rule: nonzero; opacity: 1;" vector-effect="non-scaling-stroke"  cx="0" cy="0" r="35" />
</g>
<g transform="matrix(NaN NaN NaN NaN 0 0)"  >
<g style=""   >
</g>
</g>
<g transform="matrix(NaN NaN NaN NaN 0 0)"  >
<g style=""   >
</g>
</g>
<g transform="matrix(0.41 0 0 0.41 493.16 54.42)" id="6bbd6ead-33c2-43d7-8a35-08fe063df071"  >
<circle style="stroke: rgb(0,0,0); stroke-width: 0; stroke-dasharray: none; stroke-linecap: butt; stroke-dashoffset: 0; stroke-linejoin: miter; stroke-miterlimit: 4; fill: rgb(211,78,48); fill-rule: nonzero; opacity: 1;" vector-effect="non-scaling-stroke"  cx="0" cy="0" r="35" />
</g>
<g transform="matrix(0.41 0 0 0.41 491.79 88.78)" id="6bbd6ead-33c2-43d7-8a35-08fe063df071"  >
<circle style="stroke: rgb(0,0,0); stroke-width: 0; stroke-dasharray: none; stroke-linecap: butt; stroke-dashoffset: 0; stroke-linejoin: miter; stroke-miterlimit: 4; fill: rgb(255,139,103); fill-rule: nonzero; opacity: 1;" vector-effect="non-scaling-stroke"  cx="0" cy="0" r="35" />
</g>
<g transform="matrix(NaN NaN NaN NaN 0 0)"  >
<g style=""   >
</g>
</g>
<g transform="matrix(0.56 0 0 0.46 591.07 57.48)" style="" id="9c73c4f3-796f-4424-850d-3056bb34ca84"  >
		<text xml:space="preserve" font-family="Lato" font-size="40" font-style="normal" font-weight="400" style="stroke: none; stroke-width: 1; stroke-dasharray: none; stroke-linecap: butt; stroke-dashoffset: 0; stroke-linejoin: miter; stroke-miterlimit: 4; fill: rgb(211,78,48); fill-rule: nonzero; opacity: 1; white-space: pre;" ><tspan x="-117.34" y="12.57" >Experiment 3</tspan></text>
</g>
<g transform="matrix(NaN NaN NaN NaN 0 0)"  >
<g style=""   >
</g>
</g>
<g transform="matrix(0.56 0 0 0.46 630.46 22.12)" style=""  >
		<text xml:space="preserve" font-family="Lato" font-size="40" font-style="normal" font-weight="400" style="stroke: none; stroke-width: 1; stroke-dasharray: none; stroke-linecap: butt; stroke-dashoffset: 0; stroke-linejoin: miter; stroke-miterlimit: 4; fill: rgb(88,197,237); fill-rule: nonzero; opacity: 1; white-space: pre;" ><tspan x="-117.34" y="12.57" >Experiment 1</tspan></text>
</g>
<g transform="matrix(0.56 0 0 0.46 588.55 92.22)" style=""  >
		<text xml:space="preserve" font-family="Lato" font-size="40" font-style="normal" font-weight="400" style="stroke: none; stroke-width: 1; stroke-dasharray: none; stroke-linecap: butt; stroke-dashoffset: 0; stroke-linejoin: miter; stroke-miterlimit: 4; fill: rgb(255,139,103); fill-rule: nonzero; opacity: 1; white-space: pre;" ><tspan x="-117.34" y="12.57" >Experiment 2</tspan></text>
</g>
<g transform="matrix(NaN NaN NaN NaN 0 0)"  >
<g style=""   >
</g>
</g>
<g transform="matrix(NaN NaN NaN NaN 0 0)"  >
<g style=""   >
</g>
</g>
<g transform="matrix(NaN NaN NaN NaN 0 0)"  >
<g style=""   >
</g>
</g>
<g transform="matrix(NaN NaN NaN NaN 0 0)"  >
<g style=""   >
</g>
</g>
<g transform="matrix(NaN NaN NaN NaN 0 0)"  >
<g style=""   >
</g>
</g>
<g transform="matrix(NaN NaN NaN NaN 0 0)"  >
<g style=""   >
</g>
</g>
</svg>